<svg width="1920" height="1081" viewBox="0 0 1920 1081" fill="none" xmlns="http://www.w3.org/2000/svg">
<g clip-path="url(#clip0_10484_6777)">
<path d="M608.994 556.601V528.716C609.507 528.189 610.501 527.677 610.501 527.21C610.637 522 610.622 516.776 610.652 511.566C611.466 505.257 612.07 498.903 613.17 492.639C614.828 483.154 616.291 473.578 618.778 464.287C623.894 445.474 631.263 427.345 640.727 410.294C651.813 390.549 665.297 372.248 680.873 355.803C694.24 341.376 708.965 328.266 724.844 316.656C738.414 306.733 752.674 297.834 768.245 291.39C781.091 286.08 794.08 281.141 807.219 276.574C816.225 273.409 825.429 270.844 834.776 268.896C849.548 265.884 864.457 263.52 879.353 261.247C889.902 259.62 900.65 258.566 911.296 257.256H913.769C918.108 256.986 922.467 256.489 926.806 256.504C932.675 256.478 938.538 256.754 944.373 257.332C952.06 258.175 959.733 259.259 967.297 260.795C973.692 262.09 979.842 264.484 986.217 265.839C990.849 266.818 995.94 266.08 1000.35 267.541C1014.57 272.223 1028.81 277.056 1042.55 282.808C1055.77 288.304 1068.63 294.763 1081.38 301.297C1091.93 306.718 1102.61 312.139 1112.31 318.914C1128.26 330.056 1143.96 341.755 1158.86 354.207C1174.43 367.186 1189.13 381.219 1203.98 395.042C1210.01 400.595 1215.66 406.546 1220.89 412.854C1232.43 426.857 1243.89 440.874 1254.59 455.464C1264.49 469.015 1273.92 482.883 1282.64 497.172C1291.37 511.461 1299.54 526.231 1306.9 541.288C1314.98 557.851 1322.48 574.669 1329.06 591.834C1335.42 608.582 1340.08 625.923 1342.99 643.599C1345.91 661.095 1347.66 678.561 1346 696.375C1344.59 712.641 1341.11 728.661 1335.66 744.059C1325.74 771.654 1308.39 794.047 1285.46 812.309C1268.22 826.059 1249.9 838.251 1229.49 846.654C1213.37 853.279 1196.8 858.899 1180.13 863.973C1169.66 866.906 1158.98 869.06 1148.19 870.414C1135.28 872.328 1122.26 873.429 1109.27 874.933C1107.2 875.911 1103.85 871.802 1102.71 876.56H1099.42C1097.24 873.942 1095.03 873.955 1092.85 876.56H1090.39C1090.16 876.15 1089.95 875.733 1089.74 875.323L1088.74 876.56H1084.69C1083.43 875.849 1082.06 875.343 1080.64 875.049C1068.39 874.345 1056.1 874.297 1043.9 873.094C1031.07 871.815 1018.27 869.662 1005.59 867.569C993.248 865.539 980.915 863.385 968.704 860.746C955.695 857.935 942.802 854.558 929.915 851.262C918.996 848.466 907.92 846.1 897.336 842.346C877.405 835.304 857.659 827.7 838.076 819.762C809.72 808.132 782.471 793.965 756.671 777.439C741.789 768.03 727.29 757.973 714.759 745.501C702.699 733.59 690.79 721.611 679.667 708.928C671.24 699.342 663.988 688.696 656.481 678.335C645.063 662.269 635.481 644.976 627.913 626.781C621.883 612.823 616.954 598.504 614.482 583.447C613.185 575.573 611.934 567.682 610.562 559.823C610.186 558.684 609.659 557.6 608.994 556.601Z" fill="#509888"/>
<path d="M1093.94 807.92C1100.38 803.175 1106.76 798.512 1113.11 793.808L1200.92 729.064C1202.83 727.649 1204.71 726.418 1207.26 726.671C1208.08 726.705 1208.9 726.541 1209.63 726.193C1219.08 722.063 1226.63 725.393 1233.24 732.216C1237.94 737.242 1241.37 743.307 1243.25 749.918C1248.81 767.764 1249.2 785.651 1243.18 803.489C1241.31 809.39 1237.98 814.716 1233.51 818.983C1232.01 820.378 1230.32 821.554 1228.51 822.497C1226.09 823.701 1223.74 824.603 1222.17 827.195C1221.41 828.46 1219.16 829.061 1217.57 829.588C1200.03 835.188 1182.44 840.746 1164.81 846.271L1120.32 860.349C1119.84 860.547 1119.38 860.794 1118.94 861.067C1118.82 862.366 1118.61 863.823 1118.56 865.286C1118.2 875.822 1117.84 886.365 1117.57 896.827C1117.53 898.304 1117.73 899.78 1118.16 901.196C1119.56 905.804 1117.52 909.086 1112.61 909.373C1109.58 909.408 1106.56 909.243 1103.56 908.874C1086.47 907.602 1069.44 906.303 1052.46 904.977C1038.83 903.972 1025.2 902.905 1011.57 901.77C997.949 900.635 984.468 899.575 971.144 898.591C962.097 897.887 953.174 897.087 944.189 896.348C939.317 895.938 936.652 893.504 936.181 888.67C936.037 887.309 936.119 885.935 936.427 884.601C943.014 857.498 954.937 833.41 974.943 813.534C988.192 800.618 1003.26 791.052 1021.36 787.039C1048.49 781.015 1072.23 787.716 1092.5 806.73C1092.92 807.079 1093.34 807.407 1093.94 807.92ZM1066.88 802.484C1065.62 801.869 1065.05 801.52 1064.42 801.281C1051.35 795.763 1036.83 794.703 1023.09 798.266C1007.92 802.047 995.202 810.026 984.065 820.672C968.199 835.837 957.677 854.312 950.898 875.029C949.853 878.222 949.013 881.484 948.077 884.711C953.324 886.092 998.741 889.333 1001.49 888.711C1002.2 881.545 1002.51 874.441 1003.66 867.481C1005.9 852.972 1011.76 839.263 1020.69 827.598C1029.63 816.036 1040.83 807.585 1055.36 804.153C1058.9 803.284 1062.6 803.086 1066.88 802.484ZM1154.85 777.186C1153.04 778.485 1151.84 779.34 1150.63 780.201C1142.37 786.3 1134.13 792.399 1125.91 798.491C1107.21 812.282 1088.53 826.087 1069.86 839.899C1068.39 840.904 1067.26 842.305 1066.58 843.933C1065.69 846.647 1065.18 849.471 1065.07 852.322C1064.96 856.52 1067.08 859.85 1070.11 862.667C1070.59 863.159 1071.2 863.494 1071.87 863.638C1072.53 863.782 1073.23 863.72 1073.87 863.46C1076.31 862.619 1078.78 861.819 1081.23 861.04L1168.6 833.287C1169.68 832.945 1170.74 832.48 1171.99 832.008C1160.05 815.687 1155.74 797.377 1154.85 777.186ZM1080.83 817.513C1072.95 814.101 1064.14 813.499 1055.86 815.797C1044.51 818.88 1036.01 825.957 1029.17 835.174C1017.51 850.832 1013.17 868.718 1013.53 887.959C1013.62 888.731 1013.76 889.497 1013.97 890.249C1029.95 892.3 1102.39 897.463 1106.17 896.752C1106.4 886.215 1107.44 875.672 1107.18 864.52C1096.31 868.055 1086.08 871.248 1075.87 874.783C1074.63 875.323 1073.29 875.583 1071.93 875.562C1070.58 875.535 1069.25 875.221 1068.03 874.632C1062.14 871.863 1057.58 866.879 1055.35 860.766C1052.95 854.49 1053.6 848.199 1055.02 841.84C1055.45 839.632 1056.34 837.533 1057.63 835.687C1058.91 833.834 1060.56 832.268 1062.48 831.092C1066.4 828.61 1070.02 825.67 1073.77 822.901C1075.93 821.349 1078.06 819.633 1080.83 817.513ZM1236.57 776.858C1235.8 771.196 1235.35 765.473 1234.2 759.901C1233 753.159 1230.26 746.78 1226.18 741.262C1220.41 733.734 1213.97 733.885 1208.8 741.837C1207.01 744.578 1205.6 747.546 1204.6 750.657C1199.89 765.638 1200.18 781.733 1205.41 796.536C1206.95 801.363 1209.52 805.794 1212.95 809.527C1217.72 814.621 1222.79 814.484 1227.21 809.048C1228.74 807.127 1230.04 805.028 1231.07 802.799C1234.99 794.683 1236.19 785.951 1236.57 776.919V776.858ZM1208.01 820.733C1205.63 818.354 1203.39 815.845 1201.29 813.205C1199.36 810.402 1197.7 807.421 1196.36 804.289C1189.81 789.233 1188.83 773.453 1191.24 757.357C1191.62 754.978 1192.13 752.612 1192.74 749.351C1190.91 750.595 1189.73 751.306 1188.74 752.072C1183.12 756.216 1177.7 760.639 1171.86 764.386C1168.04 766.861 1166.82 770.205 1166.33 774.239C1166.25 774.916 1166.33 775.593 1166.33 776.283C1165.72 789.097 1169.17 801.144 1173.87 812.829C1176.3 818.607 1179.74 823.913 1184.05 828.473L1208.01 820.733Z" fill="#006A4F"/>
<path d="M1302.08 694.399C1285.62 722.418 1246.69 722.268 1235.31 689.25C1229.1 688.272 1222.9 687.425 1216.74 686.235C1213.92 685.729 1211.18 684.854 1208.6 683.633C1206.27 682.545 1204.17 681.01 1202.42 679.117C1197.49 673.455 1197.76 667.432 1202.78 661.831C1205.55 658.781 1209.03 656.477 1212.93 655.131C1222.2 651.803 1231.68 652.12 1241.57 653.309C1250.22 641.806 1261.75 635 1276.62 636.641C1291.7 638.327 1300.86 648.054 1305.98 661.966C1310.42 662.403 1314.78 662.765 1319.1 663.261C1324.85 663.812 1330.32 666.008 1334.86 669.585C1339.61 673.41 1341.31 678.619 1338.86 683.332C1337.59 685.572 1335.89 687.541 1333.86 689.127C1329.23 692.956 1323.56 694.098 1317.76 694.351C1312.62 694.577 1307.43 694.399 1302.08 694.399ZM1294.54 682.956C1296.66 674.916 1296.52 667.899 1293.29 661.003C1291.09 656.189 1287.27 652.3 1282.48 650.017C1277.7 647.732 1272.27 647.198 1267.14 648.506C1256.39 651.246 1250.03 658.624 1246.68 668.847C1245.56 672.03 1245.26 675.44 1245.79 678.77L1294.54 682.956ZM1248.07 690.351C1253.21 699.219 1260.13 703.691 1269.78 703.506C1277 703.369 1285.42 698.747 1287.49 693.872L1248.07 690.351ZM1236.01 664.135C1229.31 663.683 1222.8 663.683 1216.51 666.032C1214.01 666.745 1211.87 668.353 1210.49 670.549C1213.32 674.674 1224.05 677.61 1233.73 677.039C1234.42 672.793 1235.16 668.562 1235.93 664.104L1236.01 664.135ZM1328.39 678.845C1322.03 673.861 1314.95 674.012 1307.75 673.771C1307.37 676.948 1307.03 679.794 1306.67 682.805C1314.85 684.238 1323.84 682.715 1328.31 678.815L1328.39 678.845Z" fill="#006A4F"/>
<path d="M1294.41 775.648C1294.54 760.469 1298.94 748.353 1308.61 738.535C1322.7 724.32 1343.88 721.968 1360.63 733.762C1363.19 735.567 1365.41 737.824 1364.46 741.29C1364.06 742.897 1363.17 744.34 1361.92 745.42C1360.66 746.501 1359.09 747.157 1357.45 747.314C1354.32 747.663 1351.26 748.415 1348.32 749.536C1339.93 753.276 1334.15 759.341 1333.49 768.975C1333.19 772.701 1334.32 776.4 1336.65 779.32C1338.98 782.246 1342.35 784.168 1346.05 784.694C1349.83 785.419 1353.72 785.296 1357.44 784.332C1361.16 783.375 1364.62 781.597 1367.58 779.142C1368.11 778.705 1368.62 778.24 1369.08 777.788C1371.18 775.935 1373.52 774.896 1376.22 776.277C1377.46 776.879 1378.51 777.802 1379.26 778.958C1380.01 780.113 1380.44 781.453 1380.48 782.828C1380.55 783.648 1380.51 784.462 1380.36 785.269C1376.85 802.752 1367.65 815.832 1350.33 821.602C1334 827.025 1319.83 822.204 1308.12 810.081C1299.28 800.796 1294.37 788.462 1294.41 775.648ZM1343.46 738.863V737.872C1340.39 737.612 1337.32 737.557 1334.24 737.721C1329.72 738.179 1325.37 739.711 1321.56 742.179C1317.75 744.654 1314.58 747.998 1312.31 751.936C1303.51 766.315 1303.45 781.111 1311.57 795.853C1315.04 802.143 1320.52 807.08 1327.13 809.89C1331.61 812.023 1336.59 812.823 1341.51 812.208C1351.69 810.704 1359.09 805.159 1364.29 796.489C1364.72 795.566 1365.07 794.608 1365.33 793.624L1361.32 794.923C1355.18 796.94 1348.57 797.097 1342.34 795.374C1329.74 791.921 1321.23 781.583 1322.07 768.271C1322.7 758.049 1327.75 750.2 1335.63 744.06C1338.12 742.084 1340.85 740.566 1343.46 738.863Z" fill="#006A4F"/>
<path d="M1320.93 610.339C1317.92 611.377 1315.6 612.341 1313.16 613.004C1311.84 613.448 1310.4 613.357 1309.15 612.752C1307.9 612.146 1306.93 611.074 1306.46 609.766C1305.92 608.491 1305.89 607.059 1306.35 605.756C1306.82 604.454 1307.77 603.375 1309 602.735C1310.08 602.148 1311.2 601.645 1312.36 601.229C1313.51 600.778 1314.66 600.386 1315.81 599.964C1316.07 598.188 1314.66 597.495 1313.87 596.501C1312.36 594.695 1310.68 593.084 1309.34 591.201C1308.64 590.255 1308.28 589.097 1308.34 587.921C1308.39 586.745 1308.85 585.623 1309.63 584.742C1310.42 583.876 1311.47 583.289 1312.62 583.069C1313.77 582.85 1314.97 583.008 1316.02 583.522C1317.21 584.189 1318.34 584.966 1319.38 585.841C1320.21 586.488 1320.98 587.196 1322.11 588.175C1322.32 586.248 1322.43 584.787 1322.65 583.342C1323.39 578.825 1325.79 576.701 1329.33 577.214C1332.47 577.665 1334.37 580.662 1334.06 584.742C1333.94 586.488 1333.76 588.235 1333.57 590.569C1335.08 589.982 1336.09 589.53 1337.15 589.169C1339.69 588.168 1342.28 587.353 1344.94 586.73C1346.36 586.423 1347.86 586.681 1349.1 587.45C1350.35 588.219 1351.25 589.439 1351.61 590.855C1352.38 593.957 1350.86 596.592 1347.24 597.616C1343.36 598.738 1339.65 600.379 1336.22 602.494C1336.58 603.383 1337.04 604.231 1337.58 605.024C1339.67 607.553 1341.86 609.993 1344 612.552C1344.84 613.45 1345.58 614.429 1346.23 615.473C1346.79 616.501 1347.01 617.681 1346.84 618.84C1346.67 619.999 1346.14 621.072 1345.31 621.902C1344.53 622.779 1343.47 623.356 1342.31 623.535C1341.14 623.714 1339.95 623.482 1338.95 622.881C1337.69 622.066 1336.55 621.1 1335.53 620.005C1334.47 618.966 1333.53 617.807 1332.38 616.557C1332.01 617.596 1331.78 618.364 1331.48 619.101C1330.16 622.113 1327.87 623.619 1325.15 623.152C1323.78 622.736 1322.59 621.871 1321.77 620.697C1320.95 619.523 1320.55 618.107 1320.63 616.678C1320.84 614.69 1320.8 612.808 1320.93 610.339Z" fill="#006A4F"/>
<path d="M1272.71 615.162C1268.81 615.734 1264.9 616.502 1260.97 616.834C1257.46 617.256 1253.92 617.281 1250.42 616.909C1244.86 616.111 1240.8 612.557 1237.48 608.206C1236.08 606.354 1234.95 604.306 1233.58 602.439C1231.2 599.187 1228.38 596.416 1224.2 595.649C1222.61 595.295 1220.96 595.295 1219.38 595.649C1215.22 596.898 1211.19 598.539 1207.08 599.955C1205.49 600.695 1203.79 601.134 1202.04 601.25C1200.99 601.2 1199.98 600.813 1199.17 600.146C1198.35 599.478 1197.77 598.567 1197.52 597.545C1197.12 596.432 1197.11 595.216 1197.49 594.096C1197.87 592.977 1198.63 592.022 1199.63 591.387C1202.36 589.572 1205.27 588.058 1208.33 586.87C1211.43 585.814 1214.6 584.978 1217.83 584.371C1221.04 583.622 1224.39 583.66 1227.59 584.483C1230.79 585.306 1233.75 586.89 1236.2 589.099C1239.05 591.823 1241.68 594.758 1244.08 597.877C1244.59 598.522 1245.03 599.213 1245.41 599.94C1248.52 605.269 1253.22 606.775 1259.06 605.812C1263.2 605.02 1267.39 604.441 1271.6 604.08C1273.9 604.026 1276.18 604.478 1278.29 605.405C1279.51 605.908 1280.5 606.832 1281.08 608.008C1281.67 609.184 1281.81 610.532 1281.49 611.805C1280.78 614.469 1278.79 615.839 1275.58 615.794C1274.62 615.756 1273.66 615.665 1272.71 615.523V615.162Z" fill="#006A4F"/>
<path d="M1277.63 745.952C1277.63 750.021 1274.84 752.954 1271.15 752.838C1269.7 752.81 1268.32 752.216 1267.31 751.176C1266.3 750.137 1265.74 748.742 1265.77 747.293C1265.77 743.621 1268.89 740.024 1272.14 740.004C1273.66 740.072 1275.09 740.729 1276.12 741.85C1277.15 742.965 1277.69 744.441 1277.63 745.952Z" fill="#006A4F"/>
<path d="M1196 703.316C1195.95 705.025 1195.27 706.659 1194.1 707.903C1192.92 709.148 1191.33 709.914 1189.62 710.064C1186.38 710.153 1184.2 707.91 1184.05 704.341C1183.89 700.772 1186.16 697.9 1189.7 697.75C1190.48 697.682 1191.27 697.777 1192.02 698.03C1192.76 698.276 1193.45 698.673 1194.04 699.193C1194.63 699.712 1195.1 700.348 1195.44 701.052C1195.78 701.763 1195.97 702.536 1196 703.316Z" fill="#006A4F"/>
<path d="M1350.84 699.145C1350.91 697.565 1351.56 696.075 1352.68 694.96C1353.8 693.846 1355.29 693.189 1356.87 693.121C1358.5 693.155 1360.06 693.832 1361.18 695.008C1362.32 696.177 1362.93 697.757 1362.9 699.384C1362.87 701.011 1362.19 702.564 1361.01 703.692C1359.84 704.82 1358.26 705.442 1356.63 705.408C1355.06 705.285 1353.58 704.567 1352.51 703.405C1351.43 702.249 1350.84 700.724 1350.84 699.145Z" fill="#006A4F"/>
<path d="M1066.88 802.485C1062.6 803.087 1058.89 803.299 1055.32 804.153C1040.85 807.586 1029.69 816.037 1020.65 827.599C1011.72 839.256 1005.85 852.972 1003.61 867.481C1002.47 874.442 1002.1 881.546 1001.44 888.711C998.694 889.334 953.202 886.093 948.029 884.705C948.965 881.484 949.806 878.216 950.851 875.03C957.616 854.306 968.138 835.879 984.017 820.672C995.155 810.027 1007.88 802.047 1023.05 798.266C1036.78 794.704 1051.31 795.764 1064.38 801.275C1065.07 801.521 1065.61 801.863 1066.88 802.485Z" fill="#EAECF1"/>
<path d="M1154.86 777.186C1155.74 797.376 1160.09 815.687 1172.01 831.933C1170.76 832.398 1169.7 832.862 1168.62 833.211L1081.26 860.964C1078.8 861.744 1076.33 862.544 1073.89 863.385C1073.25 863.644 1072.56 863.706 1071.89 863.562C1071.22 863.419 1070.61 863.077 1070.13 862.585C1067.12 859.774 1064.98 856.445 1065.1 852.246C1065.2 849.388 1065.72 846.571 1066.6 843.857C1067.3 842.257 1068.44 840.89 1069.89 839.912C1088.54 826.059 1107.22 812.255 1125.94 798.505C1134.19 792.426 1142.43 786.327 1150.67 780.215C1151.82 779.339 1153.04 778.478 1154.86 777.186Z" fill="#EAECF1"/>
<path d="M1080.82 817.506C1078.04 819.633 1075.92 821.301 1073.77 822.901C1070.02 825.67 1066.39 828.603 1062.47 831.092C1060.55 832.268 1058.9 833.834 1057.61 835.687C1056.33 837.533 1055.44 839.632 1055.01 841.84C1053.59 848.192 1052.95 854.49 1055.34 860.766C1057.57 866.879 1062.13 871.863 1068.02 874.633C1069.24 875.221 1070.57 875.535 1071.92 875.556C1073.27 875.583 1074.61 875.323 1075.86 874.783C1086.02 871.248 1096.3 868.055 1107.17 864.513C1107.42 875.72 1106.38 886.256 1106.16 896.752C1102.37 897.463 1029.94 892.239 1013.96 890.249C1013.75 889.497 1013.6 888.731 1013.52 887.959C1013.16 868.718 1017.5 850.832 1029.15 835.174C1036 825.957 1044.5 818.88 1055.85 815.79C1064.12 813.499 1072.94 814.101 1080.82 817.506Z" fill="#006A4F"/>
<path d="M1236.57 776.913C1236.19 785.945 1235.06 794.683 1231.11 802.854C1230.08 805.083 1228.78 807.182 1227.25 809.103C1222.84 814.539 1217.77 814.676 1212.99 809.588C1209.57 805.848 1206.99 801.418 1205.45 796.591C1200.22 781.788 1199.93 765.692 1204.64 750.712C1205.64 747.601 1207.05 744.633 1208.84 741.891C1214.01 733.94 1220.45 733.837 1226.22 741.317C1230.3 746.835 1233.04 753.214 1234.25 759.956C1235.42 765.528 1235.8 771.251 1236.57 776.913Z" fill="#006A4F"/>
<path d="M1208.03 820.789L1183.9 828.501C1179.6 823.941 1176.15 818.642 1173.73 812.857C1169.07 801.172 1165.62 789.125 1166.19 776.311C1166.19 775.621 1166.19 774.944 1166.19 774.267C1166.68 770.233 1167.89 766.89 1171.71 764.421C1177.56 760.667 1182.97 756.244 1188.6 752.1C1189.65 751.334 1190.76 750.596 1192.61 749.379C1191.98 752.64 1191.47 755.006 1191.1 757.386C1188.62 773.481 1189.59 789.214 1196.22 804.317C1197.56 807.449 1199.21 810.43 1201.15 813.233C1203.29 815.886 1205.59 818.409 1208.03 820.789Z" fill="#FAFAFB"/>
<path d="M1294.59 682.961L1245.84 678.776C1245.31 675.445 1245.62 672.035 1246.73 668.853C1250.08 658.629 1256.44 651.252 1267.19 648.511C1272.32 647.203 1277.76 647.738 1282.53 650.021C1287.32 652.306 1291.14 656.194 1293.34 661.009C1296.57 667.859 1296.7 674.921 1294.59 682.961Z" fill="#FAFAFB"/>
<path d="M1248.07 690.352L1287.49 693.873C1285.42 698.755 1276.94 703.377 1269.78 703.507C1260.13 703.657 1253.21 699.185 1248.07 690.352Z" fill="#F4F4F7"/>
<path d="M1343.45 738.863C1340.84 740.565 1338.11 742.083 1335.67 743.984C1327.74 750.11 1322.69 757.966 1322.1 768.195C1321.27 781.576 1329.77 791.921 1342.38 795.292C1348.61 797.022 1355.21 796.864 1361.35 794.84L1365.37 793.548C1365.1 794.526 1364.75 795.483 1364.33 796.406C1359.13 805.083 1351.73 810.669 1341.55 812.125C1336.63 812.748 1331.64 811.941 1327.16 809.808C1320.56 807.004 1315.08 802.061 1311.61 795.777C1303.48 781.036 1303.54 766.233 1312.35 751.854C1314.61 747.922 1317.77 744.586 1321.57 742.111C1325.38 739.642 1329.72 738.111 1334.24 737.646C1337.31 737.482 1340.39 737.529 1343.45 737.796V738.863Z" fill="#F8F8FA"/>
<path d="M1216.15 382.5L1231.87 378.555L1232.29 381.973C1231.87 382.364 1231.69 382.635 1231.46 382.68C1227.36 383.523 1223.27 384.367 1219.15 385.15C1217.54 385.466 1216.09 385.376 1216.15 382.5Z" fill="#E8E8EF"/>
<path d="M818.084 270.779H839.04C841.055 267.03 842.927 263.401 844.964 259.878C846.132 257.779 847.71 255.937 849.603 254.461C851.503 252.983 853.675 251.902 855.998 251.28C857.713 250.837 859.469 250.549 861.239 250.422C866.275 250.016 871.311 249.459 876.319 250.724C882.045 252.229 887.081 254.623 890.442 259.757C890.907 259.645 891.351 259.463 891.754 259.215C911.788 241.66 946.143 246.071 963.512 267.256C964.373 268.31 965.261 269.364 966.074 270.448C970.03 275.504 972.21 281.722 972.271 288.139C972.784 319.97 973.884 351.785 974.772 383.615C975.011 391.671 975.243 399.726 975.53 407.706C975.783 414.797 976.221 421.874 976.385 428.966C976.521 433.98 974.273 436.088 969.196 436.253C952.101 436.856 935.019 437.428 917.937 438.06C897.712 438.813 877.494 439.566 857.263 440.424L795.351 442.834C792.755 442.939 790.179 443.3 787.582 443.285C786.55 443.357 785.526 443.073 784.678 442.481C783.831 441.889 783.216 441.025 782.929 440.033C779.472 429.493 775.885 419.134 772.496 408.64C770.822 403.46 769.482 398.1 767.87 392.499C763.886 390.993 759.588 389.366 755.25 387.801C740.443 382.471 728.568 373.165 718.469 361.301C709.873 351.55 703.676 339.929 700.376 327.363C696.973 313.486 697.821 298.911 702.802 285.52C708.951 268.084 719.883 254.608 736.255 245.724C743.784 241.811 752.1 239.649 760.586 239.4C782.342 238.211 798.774 248.691 813.226 263.371C815.221 265.464 816.485 268.325 818.084 270.779ZM961.298 304.928C946.806 331.714 925.358 347.75 894.228 349.707C894.378 351.333 894.617 352.719 894.603 354.013C894.644 356.593 894.528 359.173 894.255 361.737C894.105 363.386 893.415 364.938 892.294 366.161C891.18 367.384 889.691 368.21 888.065 368.513C886.356 368.995 884.614 369.367 882.858 369.627C873.046 370.636 866.658 367.143 866.275 356.076C866.275 354.073 866.159 352.071 866.097 350.174C852.814 349.623 839.825 346.148 828.046 339.996C816.382 333.802 805.668 325.963 796.239 316.718C799.751 354.856 802.648 392.784 799.991 430.893C805.265 431.029 962.186 425.669 965.261 424.254C965.261 423.305 965.261 422.221 965.261 421.151C964.885 415.987 964.263 410.838 964.099 405.673C963.437 386.566 962.91 367.444 962.364 348.337C961.988 334.786 961.687 321.235 961.359 307.774C961.4 306.84 961.339 305.876 961.298 304.898V304.928ZM794.251 284.466C793.78 289.54 794.401 293.018 795.754 295.427C806.099 313.495 821.848 325.3 840.679 333.355C846.74 335.908 853.156 337.508 859.702 338.098C873.456 339.444 887.32 339.191 901.013 337.345C918.149 334.996 931.48 326.715 942.016 313.405C947.94 305.876 951.554 297.204 955.463 288.637C955.886 287.688 956.125 286.664 956.563 285.324C952.552 285.113 948.89 284.842 945.227 284.721C925.959 284.09 906.663 283.547 887.395 282.855C860.986 281.921 834.633 281.349 808.21 283.126C803.612 283.442 799.013 283.999 794.251 284.466ZM765.15 380.182C765.26 379.023 765.321 378.496 765.335 377.969C765.786 367.61 766.011 357.235 766.736 346.906C767.774 332.872 770.466 319.01 774.757 305.606C775.256 304.1 775.447 302.414 775.946 300.878C778.057 294.343 778.283 287.327 781.884 281.138C784.166 277.209 786.714 274.468 791.381 273.61C793.479 273.192 795.611 272.941 797.749 272.857C800.599 272.674 803.434 272.337 806.249 271.848C806.092 271.358 805.88 270.887 805.614 270.448C804.828 269.514 804.001 268.596 803.14 267.738C797.278 261.865 790.226 257.77 782.868 254.051C770.432 247.727 757.737 248.329 745.178 253.012C734.587 257.094 725.664 264.606 719.856 274.348C707.462 294.117 704.373 315.001 714.561 336.578C721.831 352.018 733.686 364.846 748.513 373.316C753.815 376.159 759.39 378.459 765.15 380.182ZM788.491 422.341C791.504 386.415 787.794 350.942 784.193 315.438C783.735 315.934 783.421 316.55 783.291 317.214C782.294 322.695 781.419 328.206 780.271 333.687C778.256 343.862 777.244 354.211 777.258 364.583C777.258 372.217 776.52 379.926 778.467 387.425C780.517 395.329 782.895 403.159 785.143 411.033L788.491 422.341ZM954.527 273.866C952.429 271.923 951.042 270.433 949.464 269.229C942.685 263.852 934.5 260.551 925.884 259.727C914.924 258.764 905.399 261.775 897.48 269.499C896.797 270.306 896.175 271.162 895.615 272.059L954.527 273.866ZM880.781 270.855C880.781 269.936 880.583 269.138 880.596 268.325C880.685 266.963 880.275 265.615 879.448 264.532C878.615 263.449 877.419 262.705 876.073 262.438C875.205 262.073 874.297 261.811 873.36 261.655C870.122 261.655 866.883 261.655 863.638 261.655C857.611 261.655 854.037 264.666 852.336 270.855H880.781ZM877.768 358.184H883.569C883.391 355.323 883.234 352.839 883.056 350.099L877.768 350.414V358.184Z" fill="#006A4F"/>
<path d="M961.291 304.898C961.291 305.847 961.393 306.81 961.428 307.759C961.756 321.31 962.056 334.861 962.432 348.322C962.979 367.429 963.505 386.551 964.168 405.658C964.332 410.823 964.953 415.973 965.329 421.137C965.329 422.206 965.329 423.29 965.329 424.238C962.316 425.654 805.341 431.014 800.059 430.879C802.717 392.77 799.82 354.842 796.308 316.703C805.737 325.948 816.451 333.788 828.114 339.98C839.894 346.133 852.89 349.609 866.166 350.159C866.166 352.056 866.289 354.059 866.343 356.061C866.651 367.113 873.039 370.606 882.926 369.612C884.682 369.353 886.425 368.981 888.133 368.499C889.759 368.195 891.249 367.369 892.362 366.146C893.483 364.924 894.173 363.371 894.323 361.723C894.603 359.157 894.713 356.578 894.672 353.998C894.672 352.658 894.446 351.318 894.296 349.692C925.351 347.75 946.806 331.715 961.291 304.898ZM866.316 418.818C876.374 418.276 884.013 417.914 891.659 417.448C894.521 417.267 897.371 416.966 900.22 416.574C907.572 415.821 914.801 414.168 921.75 411.651C938.647 404.83 943.198 394.291 942.494 378.406C942.501 376.809 941.92 375.265 940.854 374.074C939.795 372.883 938.319 372.129 936.734 371.961C935.388 371.74 934.021 371.67 932.662 371.75C915.04 372.428 897.398 372.97 879.797 373.888C861.492 374.822 843.221 376.072 824.937 377.352C823.235 377.733 821.643 378.467 820.25 379.505C819.327 380.032 818.651 381.01 817.762 381.583C816.464 382.288 815.487 383.455 815.016 384.851C814.544 386.247 814.619 387.768 815.227 389.111C817.052 394.091 819.272 398.919 821.862 403.55C824.049 407.294 827.11 410.455 830.786 412.764C834.462 415.074 838.636 416.463 842.962 416.816C851.468 417.734 860.043 418.306 866.268 418.848L866.316 418.818Z" fill="#EAECF1"/>
<path d="M794.245 284.464C799.007 283.997 803.606 283.44 808.218 283.124C834.619 281.347 860.98 281.919 887.409 282.852C906.678 283.545 925.973 284.087 945.235 284.72C948.904 284.84 952.566 285.112 956.577 285.322C956.14 286.662 955.894 287.686 955.477 288.635C951.569 297.202 947.934 305.92 942.023 313.403C931.474 326.713 918.163 334.994 901.02 337.343C887.327 339.189 873.47 339.442 859.716 338.096C853.17 337.507 846.748 335.907 840.694 333.354C821.863 325.298 806.106 313.539 795.768 295.425C794.395 293.016 793.719 289.538 794.245 284.464Z" fill="#FCFCFC"/>
<path d="M788.491 422.342L785.28 411.004C783.032 403.129 780.654 395.3 778.605 387.395C776.657 379.866 777.409 372.187 777.395 364.553C777.381 354.181 778.393 343.832 780.408 333.657C781.481 328.176 782.356 322.665 783.428 317.185C783.558 316.52 783.873 315.905 784.33 315.408C787.795 350.912 791.505 386.386 788.491 422.342Z" fill="#006A4F"/>
<path d="M877.795 358.096V350.326L883.083 350.01C883.268 352.75 883.418 355.235 883.596 358.096H877.795Z" fill="#006A4F"/>
<path d="M866.275 418.843C860.051 418.3 851.476 417.728 842.928 416.795C838.596 416.443 834.421 415.053 830.745 412.743C827.069 410.434 824.008 407.274 821.821 403.53C819.232 398.898 817.018 394.07 815.187 389.09C814.579 387.747 814.504 386.226 814.975 384.83C815.446 383.434 816.424 382.267 817.722 381.562C818.61 380.959 819.225 380.056 820.209 379.484C821.603 378.446 823.202 377.712 824.896 377.331C843.181 376.051 861.451 374.802 879.756 373.868C897.364 372.949 914.999 372.362 932.621 371.729C933.981 371.649 935.347 371.72 936.693 371.941C938.286 372.109 939.755 372.862 940.814 374.053C941.88 375.244 942.467 376.788 942.453 378.385C943.157 394.27 938.607 404.809 921.709 411.63C914.76 414.147 907.531 415.8 900.179 416.554C897.33 416.945 894.481 417.247 891.618 417.427C883.972 417.939 876.333 418.3 866.275 418.843ZM930.906 383.294C896.23 385.386 861.875 384.799 827.26 388.774C828.319 392.783 830.267 396.503 832.959 399.66C835.125 402.35 838.131 404.233 841.493 405.005C845.353 405.877 849.275 406.466 853.225 406.767C868.503 407.719 883.835 407.215 899.018 405.261C906.479 404.312 913.899 403.018 920.787 399.766C927.408 396.559 931.173 391.544 930.906 383.294Z" fill="#006A4F"/>
<path d="M930.9 383.301C931.2 391.551 927.429 396.565 920.78 399.713C913.893 402.964 906.473 404.229 899.011 405.208C883.829 407.162 868.496 407.666 853.218 406.714C849.269 406.413 845.347 405.824 841.487 404.952C838.125 404.18 835.118 402.297 832.952 399.607C830.26 396.45 828.313 392.73 827.254 388.721C861.841 384.701 896.224 385.394 930.9 383.301Z" fill="#006A4F"/>
<path d="M804.959 664.291C805.867 656.627 806.803 648.753 807.753 640.893C809.618 625.294 811.497 609.7 813.39 594.111C815.153 579.897 817.039 565.684 818.768 551.47C820.278 538.446 821.788 525.422 823.291 512.323C823.537 510.155 823.701 507.956 824.152 505.833C824.978 501.873 827.828 500.172 831.688 500.789C838.726 501.903 845.757 502.932 852.795 503.876C864.028 505.381 875.274 506.752 886.521 508.197C897.078 509.552 907.634 510.927 918.177 512.323C934.036 514.39 949.881 516.458 965.726 518.526C986.197 521.146 1006.68 523.706 1027.14 526.356C1042.59 528.344 1058.02 530.467 1073.45 532.378C1087.95 534.246 1102.46 536.007 1116.97 537.784C1121.4 538.326 1123.45 540.449 1122.89 544.906C1121.83 553.428 1120.51 561.92 1119.22 570.502C1116.26 589.785 1113.29 609.068 1110.29 628.351C1106.54 652.351 1102.76 676.346 1098.97 700.334C1098.68 702.221 1098.26 704.101 1098.14 705.995C1097.77 711.855 1093.46 714.132 1088.12 713.53C1084.32 713.093 1080.58 712.457 1076.75 711.882C1053.25 708.354 1029.75 704.806 1006.26 701.243C991.274 698.967 976.303 696.621 961.319 694.372C943.472 691.726 925.611 689.196 907.771 686.516C891.195 684.034 874.611 681.381 858.028 678.881C843.823 676.743 829.611 674.74 815.406 672.662C813.903 672.452 812.393 672.181 810.889 671.955C806.496 671.353 804.733 669.169 804.959 664.291ZM1111.29 548.82L834.913 513.015C829.714 555.491 824.589 597.559 819.403 639.944L833.287 641.977C833.772 638.439 834.059 635.186 834.688 631.994C835.501 627.914 838.323 626.077 842.484 626.634L851.004 627.824C860.741 629.194 870.491 630.489 880.214 631.964C885.148 632.702 886.999 635.096 886.897 640.11C886.897 641.616 886.61 643.122 886.487 644.627C886.371 646.133 886.275 647.834 886.159 649.731L1090.8 680.311C1097.63 636.376 1104.42 592.907 1111.29 548.82ZM1089.08 691.651L818.105 650.996C817.702 654.595 817.305 657.907 816.888 661.536C847.356 666.053 877.324 670.494 907.334 674.982C937.35 679.468 967.53 684.184 997.669 688.533C1027.8 692.881 1057.44 697.825 1087.59 701.886C1088.09 698.228 1088.56 695.158 1089.08 691.575V691.651ZM845.285 638.378C845.149 640.351 845.046 641.917 844.923 643.754C855.008 645.078 864.677 647.021 874.687 647.759L875.226 642.7C865.216 641.239 855.446 639.839 845.285 638.378Z" fill="#006A4F"/>
<path d="M1111.28 548.816C1104.41 592.979 1097.62 636.447 1090.8 680.353L886.151 649.697C886.274 647.8 886.349 646.189 886.486 644.593C886.623 642.997 886.862 641.581 886.889 640.076C886.999 635.062 885.14 632.668 880.214 631.93C870.491 630.425 860.734 629.16 850.997 627.79L842.477 626.6C838.322 626.043 835.5 627.88 834.687 631.961C834.052 635.152 833.765 638.405 833.286 641.943L819.354 639.941C824.541 597.555 829.665 555.487 834.865 513.012L1111.28 548.816ZM964.195 621.722C964.769 623.574 965.234 625.26 965.794 626.902C967.693 632.518 971.554 635.935 977.478 636.312C985.24 636.839 991.123 633.059 994.573 626.48C996.609 622.595 998.871 619.72 1002.98 618.364C1003.24 618.269 1003.48 618.143 1003.71 617.988C1007.6 615.729 1008.98 612.643 1007.46 609.616C1005.94 606.59 1002.62 606.017 998.536 607.915C996.609 608.875 994.594 609.632 992.51 610.173C987.337 611.333 986.374 612.311 985.889 617.792C985.588 621.059 982.876 624.342 979.862 624.779C978.639 624.959 977.04 625.155 976.753 623.649C976.234 620.717 975.899 617.755 975.756 614.781C975.626 612.748 977.737 612.386 978.776 611.288C980.279 609.781 981.892 608.607 983.299 607.117C988.103 601.982 992.189 596.351 994.109 589.47C995.612 583.809 993.897 578.765 989.585 576.145C987.153 574.566 984.263 573.856 981.372 574.129C978.489 574.403 975.783 575.644 973.692 577.65C971.116 580.14 969.34 583.344 968.595 586.85C967.29 592.557 966.081 598.308 965.295 604.105C965.261 605.171 964.94 606.208 964.373 607.11C963.799 608.012 963.006 608.747 962.056 609.24C959.918 610.459 957.875 611.833 955.934 613.35C954.807 614.153 954.014 615.34 953.7 616.687C953.386 618.035 953.577 619.45 954.233 620.668C954.93 621.854 956.044 622.741 957.355 623.16C958.667 623.579 960.088 623.502 961.346 622.941C962.282 622.595 963.109 622.113 964.195 621.646V621.722ZM913.154 618.861C913.708 619.795 914.207 620.773 914.842 621.646C915.819 623.15 917.179 624.363 918.785 625.158C920.397 625.953 922.187 626.3 923.977 626.164C927.811 625.821 931.466 624.4 934.527 622.068C935.183 621.571 935.764 620.982 936.249 620.321C936.973 619.404 937.39 618.281 937.438 617.113C937.486 615.945 937.165 614.792 936.516 613.817C935.825 612.78 934.787 612.025 933.591 611.688C932.388 611.351 931.104 611.455 929.977 611.98C928.002 612.748 926.13 613.757 924.203 614.66C923.868 614.235 923.567 613.781 923.315 613.305C922.29 609.749 922.064 606.012 922.652 602.359C922.857 601.285 922.823 600.179 922.549 599.121C922.269 598.063 921.757 597.08 921.053 596.245C919.809 594.976 918.504 593.775 917.131 592.647C914.562 590.577 911.392 589.388 908.091 589.252C904.791 589.116 901.532 590.043 898.799 591.894C895.396 594.433 892.909 598.009 891.713 602.082C890.517 606.156 890.681 610.508 892.185 614.479C893.175 617.283 895.205 619.602 897.849 620.958C900.5 622.313 903.568 622.603 906.431 621.767C908.74 620.933 910.982 619.937 913.154 618.786V618.861ZM932.751 552.491C934.233 552.02 935.648 551.352 936.953 550.503C937.725 549.909 938.278 549.079 938.531 548.14C938.777 547.201 938.716 546.207 938.34 545.308C937.985 544.196 937.308 543.212 936.399 542.477C935.484 541.741 934.384 541.286 933.215 541.168C929.027 540.581 924.818 540.069 920.616 539.527C901.648 537.058 882.687 534.593 863.733 532.134C860.494 531.641 857.228 531.349 853.949 531.261C852.637 531.23 851.352 531.694 850.355 532.56C849.364 533.427 848.735 534.634 848.585 535.943C848.448 537.246 848.783 538.554 849.521 539.635C850.259 540.716 851.359 541.499 852.623 541.846C853.532 542.148 854.468 542.36 855.418 542.477C866.371 543.983 877.351 545.293 888.324 546.724C897.371 547.898 906.41 549.133 915.457 550.322C920.978 550.955 926.389 551.602 932.812 552.415L932.751 552.491ZM1029.2 636.146C1029.71 636.809 1030.06 637.215 1030.35 637.652C1031.87 640.102 1033.94 642.159 1036.4 643.655C1038.87 645.152 1041.66 646.046 1044.53 646.264C1049.88 646.785 1055.25 645.497 1059.78 642.606C1061.08 641.969 1062.09 640.857 1062.58 639.501C1063.07 638.145 1063.02 636.651 1062.44 635.331C1061.86 634.012 1060.78 632.97 1059.44 632.423C1058.1 631.876 1056.61 631.866 1055.27 632.397C1054.35 632.658 1053.46 633.032 1052.62 633.511C1050.16 634.752 1047.36 635.158 1044.65 634.671C1043.23 634.453 1041.92 633.778 1040.91 632.748C1039.91 631.719 1039.27 630.39 1039.09 628.964C1038.96 627.938 1039.12 626.897 1039.55 625.956C1039.98 625.015 1040.66 624.211 1041.51 623.634C1043.3 622.399 1044.91 623.348 1046.45 624.297C1046.91 624.582 1047.31 624.989 1047.76 625.29C1050.55 627.142 1053.25 627.037 1055.21 625.004C1056.19 623.941 1056.74 622.546 1056.74 621.097C1056.74 619.648 1056.19 618.253 1055.21 617.19C1050.9 611.98 1039.31 608.035 1032.59 616.648C1030.08 620.107 1026.98 623.094 1023.43 625.471C1021.6 626.615 1019.77 627.745 1017.93 628.873C1017.07 629.324 1016.25 629.827 1015.45 630.38C1014.65 630.919 1014.03 631.671 1013.63 632.552C1013.24 633.432 1013.11 634.405 1013.25 635.357C1013.38 636.311 1013.79 637.205 1014.42 637.938C1015.04 638.671 1015.86 639.214 1016.78 639.504C1018.58 640.001 1020.5 639.97 1022.28 639.413C1024.66 638.503 1026.98 637.411 1029.2 636.146Z" fill="#EAECF1"/>
<path d="M1089.07 691.568C1088.54 695.151 1088.07 698.221 1087.56 701.879C1057.41 697.818 1027.56 692.847 997.642 688.526C967.715 684.204 937.432 679.491 907.313 674.973C877.188 670.456 847.39 666.06 816.861 661.527C817.285 657.884 817.674 654.572 818.078 650.988L1089.07 691.568Z" fill="#F6F6F9"/>
<path d="M845.271 638.383C855.432 639.888 865.202 641.244 875.212 642.704L874.673 647.763C864.663 647.025 854.994 645.083 844.909 643.758C844.971 641.921 845.135 640.355 845.271 638.383Z" fill="#EFEFF3"/>
<path d="M964.196 621.648C963.109 622.115 962.282 622.522 961.408 622.822C960.144 623.383 958.723 623.461 957.411 623.042C956.099 622.622 954.992 621.735 954.288 620.549C953.632 619.331 953.441 617.916 953.755 616.568C954.07 615.221 954.862 614.034 955.989 613.232C957.93 611.714 959.973 610.34 962.112 609.121C963.061 608.628 963.861 607.894 964.428 606.991C964.995 606.089 965.316 605.052 965.357 603.987C966.136 598.19 967.346 592.438 968.657 586.731C969.395 583.225 971.172 580.021 973.755 577.531C975.839 575.525 978.544 574.284 981.435 574.01C984.318 573.737 987.208 574.448 989.641 576.026C993.939 578.646 995.674 583.69 994.164 589.351C992.251 596.232 988.131 601.864 983.355 606.998C981.954 608.504 980.341 609.738 978.831 611.169C977.731 612.268 975.62 612.674 975.818 614.662C975.962 617.636 976.29 620.598 976.809 623.53C977.096 625.036 978.695 624.84 979.918 624.66C982.815 624.223 985.603 620.941 985.944 617.673C986.429 612.192 987.454 611.214 992.565 610.054C994.649 609.513 996.672 608.756 998.598 607.796C1002.68 605.898 1006 606.456 1007.52 609.497C1009.04 612.539 1007.66 615.61 1003.76 617.869C1003.54 618.024 1003.3 618.15 1003.04 618.245C998.926 619.601 996.665 622.476 994.629 626.361C991.178 632.941 985.302 636.72 977.533 636.193C971.609 635.802 967.749 632.399 965.849 626.783C965.234 625.187 964.77 623.5 964.196 621.648ZM978.783 594.546C980.929 591.941 982.945 589.276 982.678 585.512C979.146 587.544 979.419 591.219 978.783 594.485V594.546Z" fill="#006A4F"/>
<path d="M913.154 618.786C910.982 619.912 908.734 620.883 906.431 621.692C903.568 622.528 900.5 622.238 897.849 620.883C895.205 619.527 893.175 617.208 892.185 614.404C890.682 610.433 890.518 606.081 891.713 602.008C892.909 597.934 895.396 594.359 898.799 591.819C901.532 589.968 904.791 589.041 908.091 589.177C911.392 589.313 914.562 590.503 917.131 592.572C918.504 593.7 919.81 594.901 921.053 596.171C921.757 597.005 922.269 597.988 922.549 599.046C922.823 600.104 922.857 601.21 922.652 602.284C922.064 605.937 922.29 609.674 923.315 613.23C923.567 613.706 923.868 614.16 924.203 614.585C926.13 613.682 928.002 612.673 929.977 611.905C931.104 611.38 932.389 611.276 933.591 611.613C934.787 611.951 935.825 612.705 936.516 613.742C937.165 614.717 937.486 615.87 937.438 617.038C937.39 618.206 936.973 619.329 936.249 620.246C935.764 620.908 935.183 621.496 934.527 621.993C931.466 624.325 927.811 625.746 923.977 626.089C922.187 626.226 920.397 625.878 918.785 625.083C917.179 624.288 915.819 623.075 914.842 621.571C914.207 620.698 913.708 619.72 913.154 618.786ZM910.134 601.711C906.718 600.086 905.297 600.356 903.609 602.721C901.546 605.581 901.559 608.307 903.923 610.881C906.52 608.197 908.645 605.098 910.209 601.711H910.134Z" fill="#006A4F"/>
<path d="M932.813 552.419C926.403 551.606 920.978 550.913 915.567 550.251C906.52 549.061 897.474 547.826 888.427 546.652C877.454 545.222 866.48 543.837 855.521 542.406C854.571 542.288 853.635 542.077 852.733 541.774C851.469 541.428 850.369 540.644 849.624 539.563C848.886 538.482 848.558 537.174 848.688 535.872C848.838 534.562 849.467 533.355 850.464 532.489C851.455 531.622 852.74 531.158 854.058 531.189C857.331 531.277 860.604 531.569 863.843 532.062C882.804 534.502 901.765 536.966 920.719 539.455C924.928 539.997 929.13 540.509 933.325 541.096C934.487 541.215 935.594 541.67 936.502 542.405C937.411 543.14 938.087 544.125 938.45 545.237C938.819 546.135 938.887 547.13 938.634 548.068C938.381 549.007 937.835 549.838 937.063 550.431C935.744 551.284 934.309 551.953 932.813 552.419Z" fill="#006A4F"/>
<path d="M1029.21 636.145C1026.97 637.386 1024.63 638.453 1022.23 639.336C1020.44 639.892 1018.53 639.924 1016.73 639.427C1015.8 639.137 1014.98 638.595 1014.36 637.861C1013.74 637.127 1013.33 636.233 1013.19 635.281C1013.06 634.327 1013.19 633.355 1013.58 632.474C1013.97 631.594 1014.6 630.841 1015.4 630.302C1016.19 629.75 1017.01 629.247 1017.87 628.797C1019.71 627.668 1021.55 626.538 1023.37 625.394C1026.93 623.017 1030.03 620.03 1032.54 616.571C1039.29 607.958 1050.87 611.903 1055.15 617.113C1056.14 618.176 1056.68 619.571 1056.68 621.02C1056.68 622.469 1056.14 623.864 1055.15 624.927C1053.19 626.96 1050.49 627.065 1047.71 625.213C1047.25 624.912 1046.86 624.505 1046.39 624.22C1044.88 623.271 1043.24 622.322 1041.46 623.557C1040.61 624.134 1039.92 624.938 1039.49 625.879C1039.06 626.82 1038.9 627.861 1039.03 628.887C1039.21 630.313 1039.85 631.642 1040.86 632.671C1041.86 633.701 1043.18 634.376 1044.6 634.593C1047.31 635.082 1050.11 634.675 1052.57 633.434C1053.4 632.955 1054.29 632.58 1055.21 632.32C1056.55 631.789 1058.05 631.798 1059.39 632.345C1060.72 632.892 1061.79 633.935 1062.38 635.255C1062.97 636.573 1063.02 638.068 1062.53 639.424C1062.03 640.78 1061.03 641.892 1059.73 642.529C1055.2 645.42 1049.83 646.708 1044.48 646.188C1041.63 645.959 1038.87 645.068 1036.43 643.585C1033.99 642.103 1031.93 640.07 1030.41 637.65C1030.06 637.183 1029.72 636.777 1029.21 636.145Z" fill="#006A4F"/>
<path d="M978.79 594.487C979.425 591.22 979.18 587.546 982.678 585.453C982.951 589.217 980.929 591.882 978.79 594.487Z" fill="white"/>
<path d="M910.21 601.714C908.665 605.095 906.568 608.194 903.999 610.883C901.628 608.309 901.614 605.584 903.684 602.723C905.372 600.359 906.786 600.088 910.21 601.714Z" fill="white"/>
<path d="M1281.44 346.864H1280.04C1279.74 345.824 1279.53 344.759 1279.42 343.682C1279.42 338.747 1279.35 333.812 1279.42 328.877C1279.53 327.358 1279.74 325.849 1280.04 324.355H1281.44V346.864Z" fill="#ECECF1"/>
<path d="M1276.62 286.138C1276.03 284.952 1275.54 283.715 1275.17 282.442C1274.02 276.844 1273.01 271.17 1271.94 265.596C1272.36 265.922 1273.06 266.184 1273.19 266.585C1274.35 273.086 1275.47 279.612 1276.62 286.138Z" fill="#ECECF1"/>
<path d="M1278.67 365.968C1278.34 364.812 1278.13 363.623 1278.06 362.423C1278.18 358.356 1278.41 354.29 1278.75 350.223C1278.75 349.522 1279.58 348.87 1280.01 348.207L1278.67 365.968Z" fill="#ECECF1"/>
<path d="M1272.53 400.786C1273.19 398.047 1273.86 395.304 1274.54 392.557C1273.87 395.304 1273.2 398.047 1272.53 400.786Z" fill="#ECECF1"/>
<path d="M1279.41 318.871C1279.41 316.366 1279.41 313.861 1279.41 311.355C1279.38 313.873 1279.4 316.366 1279.41 318.871Z" fill="#ECECF1"/>
<path d="M1270.53 258.179C1270.07 256.125 1269.59 254.083 1269.13 252.029C1269.59 254.02 1270.07 256.062 1270.53 258.179Z" fill="#ECECF1"/>
<path d="M1265.1 423.346L1267.74 417.822C1266.85 419.659 1265.98 421.501 1265.1 423.346Z" fill="#ECECF1"/>
<path d="M1278.05 301.808L1277.37 297.674C1279.64 298.714 1278.75 300.28 1278.05 301.808Z" fill="#ECECF1"/>
<path d="M1278.72 307.27C1278.49 305.892 1278.28 304.514 1278.06 303.137C1280.32 304.188 1279.44 305.779 1278.72 307.27Z" fill="#ECECF1"/>
<path d="M1277.37 372.17C1277.79 370.791 1278.21 369.401 1278.62 368.023C1278.21 369.376 1277.74 370.767 1277.37 372.17Z" fill="#ECECF1"/>
<path d="M1277.31 376.209C1277.31 375.295 1277.31 374.38 1277.31 373.479C1277.35 374.38 1277.33 375.295 1277.31 376.209Z" fill="#ECECF1"/>
<path d="M1275.26 387.812C1275.48 387.123 1275.71 386.434 1275.92 385.732C1275.71 386.434 1275.49 387.123 1275.26 387.812Z" fill="#ECECF1"/>
<path d="M1271.89 264.258C1271.89 263.807 1271.89 263.356 1271.89 262.893C1271.86 263.356 1271.89 263.807 1271.89 264.258Z" fill="#ECECF1"/>
<path d="M1194.49 387.383L1189.73 396.84C1200.13 399.207 1202.76 402.05 1204.46 412.709C1204.88 412.78 1205.3 412.78 1205.71 412.709C1215.29 410.204 1220.94 415.528 1223.24 424.558C1223.91 427.222 1223.83 430.026 1222.97 432.638C1222 435.669 1221.05 438.713 1219.79 441.618C1215.7 451.1 1211.47 460.519 1207.28 469.964C1206.28 472.23 1204.25 472.932 1202.08 473.37C1194.96 474.798 1187.83 476.176 1180.7 477.579L1092.82 494.964C1081.02 497.306 1069.23 499.724 1057.4 501.953C1055.06 502.333 1052.67 502.388 1050.3 502.116C1049.21 502.045 1048.17 501.594 1047.37 500.839C1046.57 500.085 1046.06 499.074 1045.92 497.983C1042.47 480.936 1039.27 463.876 1039.66 446.353C1040.14 427.815 1044.77 410.643 1056.1 395.712C1059.18 391.667 1062.96 388.197 1066.68 384.114C1058.88 373.605 1055.13 361.568 1057.46 348.028C1059.79 334.488 1066.69 324.042 1077.98 316C1076.92 315.136 1076.05 314.472 1075.23 313.758C1066.46 306.143 1067.98 292.202 1078.06 287.455C1080.6 286.136 1083.5 285.608 1086.34 285.938C1089.2 286.269 1091.89 287.442 1094.08 289.309C1099.27 293.354 1101.16 298.853 1100.12 305.354C1100.01 306.118 1099.8 306.882 1099.61 307.733C1103 307.971 1106.27 308.022 1109.49 308.447C1125.39 310.526 1137.36 318.556 1144.55 332.897C1149.54 342.339 1150.95 353.273 1148.5 363.672C1148.43 363.998 1148.34 364.324 1148.28 364.662C1148.28 364.762 1148.34 364.875 1148.47 365.263C1149.96 366.077 1151.63 367.004 1153.32 367.906C1163.33 373.304 1170.84 381.396 1177.39 390.614C1178.48 391.872 1179.68 393.037 1180.97 394.097C1183.27 389.274 1185.39 385.028 1187.31 380.695C1187.54 379.721 1187.48 378.703 1187.14 377.763C1183.16 360.294 1179.15 342.826 1175.12 325.357C1172.62 314.397 1170.11 303.462 1167.69 292.49C1166.59 287.48 1167.93 285.175 1172.87 283.872C1186.25 280.378 1199.66 277.009 1213.07 273.652C1246.39 265.301 1279.7 256.972 1313.02 248.664C1316.07 247.899 1318.81 247.536 1321.79 249.34C1322.88 249.912 1323.84 250.714 1324.59 251.691C1325.34 252.668 1325.88 253.798 1326.15 255.001C1329.47 268.429 1332.88 281.844 1336.16 295.271C1339.91 310.351 1343.62 325.44 1347.32 340.538C1348.57 345.686 1346.39 349.305 1341.14 350.734C1333.24 352.788 1325.33 354.792 1317.35 356.796C1278.25 366.699 1239.14 376.598 1200.02 386.493C1198.47 386.932 1196.65 387.057 1194.49 387.383ZM1317.32 257.118L1176.91 292.102C1182.67 317.065 1188.34 341.565 1194.14 366.691C1194.98 365.188 1195.54 364.249 1196.02 363.259C1204.61 345.815 1213.19 328.384 1221.78 310.965C1222.27 309.82 1222.88 308.729 1223.6 307.709C1224.19 306.851 1225.06 306.23 1226.06 305.955C1227.06 305.68 1228.13 305.769 1229.07 306.205C1230.04 306.602 1230.82 307.35 1231.25 308.3C1231.68 309.248 1231.74 310.325 1231.41 311.316C1231.01 312.846 1230.43 314.326 1229.7 315.725C1220.33 334.797 1210.96 353.869 1201.59 372.941C1201.02 374.106 1200.49 375.296 1199.6 377.225C1246.38 365.376 1292.32 353.752 1338.37 341.991C1331.3 313.432 1324.34 285.4 1317.32 257.118ZM1144.96 374.144C1138.08 387.258 1127.67 396.038 1113.29 399.645C1098.7 403.303 1085.46 399.808 1073.38 390.877C1069.35 394.137 1065.78 397.929 1062.77 402.15C1053.02 415.34 1049.24 430.42 1048.66 446.541C1048.28 457.388 1049.82 468.059 1051.53 478.719C1052.28 483.391 1053.19 488.05 1054.03 492.609C1057.58 492.86 1135.72 477.278 1137.99 475.963L1127.33 437.072C1124.83 438.324 1122.64 439.389 1120.37 440.341C1117.6 441.493 1115.03 440.666 1113.93 438.399C1112.83 436.132 1113.76 433.89 1116.2 432.312C1116.49 432.133 1116.79 431.978 1117.11 431.849C1124.85 428.366 1131.54 423.193 1138.03 417.908C1143.38 413.357 1148.5 408.542 1153.35 403.478C1157.11 399.72 1160.78 396.113 1165.37 393.458C1166.01 393.073 1166.63 392.655 1167.22 392.205C1161.02 384.427 1154.23 377.864 1144.96 374.144ZM1175 400.935C1173.91 400.56 1172.73 400.487 1171.6 400.725C1170.46 400.963 1169.42 401.503 1168.56 402.288C1165.3 404.926 1162.18 407.726 1159.2 410.681C1152.58 417.407 1145.93 424.07 1138.09 429.468C1135.34 431.322 1135.36 431.423 1136.26 434.817C1139.31 446.19 1142.39 457.563 1145.5 468.936C1145.99 470.777 1146.75 472.556 1147.32 474.523C1148.37 474.435 1149.27 474.448 1150.14 474.285C1165.72 471.203 1181.29 468.022 1196.89 465.041C1197.72 464.948 1198.52 464.626 1199.18 464.111C1199.84 463.596 1200.35 462.907 1200.64 462.122C1203.72 455.171 1206.9 448.282 1210.01 441.33C1211.26 438.424 1212.4 435.443 1213.4 432.437C1214.06 430.85 1214.35 429.141 1214.27 427.427C1213.6 422.029 1210.8 419.912 1205.97 422.68C1203.98 423.974 1202.1 425.44 1200.37 427.064C1199.67 427.64 1199.12 428.429 1198.43 428.967C1197.68 429.589 1196.74 429.945 1195.76 429.981C1194.79 430.017 1193.83 429.732 1193.04 429.168C1192.23 428.616 1191.62 427.82 1191.31 426.897C1190.99 425.974 1190.99 424.974 1191.28 424.045C1191.68 422.792 1192.53 421.54 1192.83 420.287C1193.76 417.626 1194.39 414.871 1194.71 412.071C1194.92 407.486 1191.78 405.507 1187.44 407.06C1186.46 407.377 1185.57 407.893 1184.81 408.576C1182.97 410.405 1181.22 412.334 1179.56 414.313C1178.46 415.565 1177.7 417.193 1176.6 418.483C1175.92 419.42 1174.91 420.057 1173.78 420.265C1172.64 420.473 1171.47 420.234 1170.5 419.599C1169.56 418.95 1168.88 417.983 1168.59 416.873C1168.3 415.764 1168.43 414.587 1168.94 413.561C1169.45 412.544 1170.02 411.557 1170.64 410.605C1171.79 408.651 1173.06 406.76 1174.05 404.731C1174.5 403.516 1174.82 402.256 1175.01 400.973L1175 400.935ZM1096.14 321.762C1093.3 324.367 1090.96 326.897 1088.24 328.914C1082.32 333.298 1076.25 337.494 1070.14 341.628C1068.87 342.356 1067.94 343.551 1067.54 344.959C1066.06 350.109 1065.69 355.513 1066.45 360.816C1067.12 365.55 1068.73 370.103 1071.18 374.209C1073.63 378.315 1076.87 381.892 1080.71 384.732C1084.56 387.572 1088.93 389.617 1093.57 390.75C1098.22 391.883 1103.04 392.079 1107.76 391.329C1126.81 388.348 1141.19 371.288 1140.2 352.011C1140.02 348.516 1139.93 344.821 1138.75 341.615C1136.89 336.578 1133.98 331.995 1130.21 328.175C1129.58 327.489 1128.8 326.944 1127.94 326.575C1127.07 326.207 1126.15 326.022 1125.2 326.033C1119.32 325.869 1113.44 325.409 1107.59 324.655C1103.76 323.915 1099.98 322.949 1096.25 321.762H1096.14Z" fill="#006A4F"/>
<path d="M1317.32 257.123C1324.34 285.405 1331.3 313.487 1338.37 341.996C1292.32 353.757 1246.38 365.38 1199.6 377.229C1200.49 375.301 1201.02 374.111 1201.59 372.946C1210.97 353.882 1220.33 334.81 1229.69 315.729C1230.43 314.33 1231.01 312.851 1231.41 311.32C1231.74 310.33 1231.68 309.252 1231.25 308.304C1230.82 307.355 1230.04 306.607 1229.07 306.21C1228.13 305.773 1227.06 305.685 1226.06 305.96C1225.06 306.235 1224.19 306.856 1223.6 307.713C1222.88 308.734 1222.27 309.825 1221.78 310.97C1213.19 328.389 1204.61 345.82 1196.02 363.263C1195.54 364.253 1194.98 365.192 1194.14 366.696C1188.34 341.57 1182.67 317.07 1176.91 292.107L1317.32 257.123ZM1271.45 300.962C1271.59 301.626 1271.79 302.753 1272.09 303.843C1272.59 305.697 1273.16 307.6 1273.7 309.392C1276.21 317.984 1278.71 326.589 1281.3 335.169C1282.92 340.643 1284.88 341.87 1290.28 340.53C1299.46 338.275 1308.57 335.933 1317.63 333.503C1322.55 332.25 1323.88 329.745 1322.5 324.86C1319.62 314.49 1316.7 304.119 1313.74 293.748C1312.15 288.211 1310.08 287.084 1304.41 288.361C1299.66 289.439 1294.89 290.491 1290.13 291.58C1285.37 292.67 1280.61 293.735 1275.9 294.963C1272.6 295.764 1271.39 297.467 1271.49 300.912L1271.45 300.962ZM1209.08 305.045C1209.89 304.858 1211.23 304.619 1212.55 304.256L1296.81 281.046C1297.8 280.799 1298.76 280.447 1299.68 279.994C1300.61 279.537 1301.35 278.78 1301.79 277.844C1302.23 276.91 1302.34 275.853 1302.11 274.846C1301.84 273.846 1301.23 272.973 1300.38 272.387C1299.53 271.801 1298.49 271.54 1297.46 271.653C1296.33 271.722 1295.21 271.924 1294.13 272.254C1266.07 280.036 1237.99 287.835 1209.92 295.651C1208.7 295.946 1207.53 296.366 1206.4 296.904C1205.44 297.284 1204.65 298.005 1204.2 298.93C1203.73 299.854 1203.63 300.917 1203.9 301.914C1204.46 303.956 1206.1 305.045 1209.08 304.995V305.045ZM1257.61 339.603C1257.07 339.943 1256.5 340.224 1255.91 340.442C1255.29 340.546 1254.7 340.773 1254.16 341.109C1253.64 341.445 1253.17 341.884 1252.82 342.4C1252.45 342.915 1252.2 343.497 1252.07 344.112C1251.94 344.727 1251.94 345.361 1252.05 345.978C1252.68 348.408 1254.91 349.861 1257.98 349.273C1261.52 348.558 1265.03 347.634 1268.47 346.504C1270.69 345.778 1272.75 344.25 1273.09 341.87C1273.86 335.865 1272.59 329.777 1269.5 324.573C1268.96 323.748 1268.14 323.15 1267.18 322.891C1266.23 322.633 1265.22 322.732 1264.33 323.17C1263.41 323.604 1262.67 324.333 1262.21 325.241C1261.76 326.15 1261.62 327.184 1261.83 328.18C1262.03 329.232 1262.34 330.272 1262.66 331.562C1259.42 330.074 1256.85 327.424 1255.45 324.134C1253.72 320.376 1252.35 316.355 1250.95 312.41C1250 309.742 1249.37 306.962 1248.44 304.307C1248.12 303.196 1247.38 302.253 1246.39 301.677C1245.38 301.1 1244.2 300.934 1243.08 301.213C1241.97 301.537 1241.02 302.255 1240.42 303.232C1239.81 304.209 1239.58 305.376 1239.77 306.511C1239.82 307.077 1239.94 307.636 1240.11 308.177C1241.25 311.934 1242.32 315.804 1243.59 319.562C1246.13 327.491 1249.67 334.805 1257.61 339.603Z" fill="white"/>
<path d="M1144.96 374.141C1154.24 377.898 1161.02 384.424 1167.23 392.127C1166.64 392.577 1166.01 392.995 1165.38 393.38C1160.79 395.998 1157.07 399.643 1153.36 403.401C1148.49 408.486 1143.36 413.323 1138.01 417.892C1131.51 423.178 1124.83 428.351 1117.08 431.833C1116.76 431.962 1116.46 432.118 1116.18 432.297C1113.67 433.875 1112.86 436.23 1113.89 438.384C1114.93 440.539 1117.56 441.477 1120.34 440.325C1122.61 439.373 1124.8 438.246 1127.3 437.056L1137.95 475.947C1135.69 477.2 1057.54 492.845 1054 492.594C1053.19 488.035 1052.29 483.376 1051.5 478.704C1049.78 468.044 1048.24 457.41 1048.63 446.525C1049.21 430.405 1052.99 415.324 1062.74 402.135C1065.75 397.914 1069.32 394.122 1073.36 390.862C1085.44 399.743 1098.66 403.237 1113.26 399.63C1127.68 396.035 1138.08 387.255 1144.96 374.141Z" fill="white"/>
<path d="M1175.01 400.97C1174.83 402.253 1174.51 403.512 1174.06 404.728C1173.07 406.757 1171.81 408.649 1170.66 410.603C1170.03 411.555 1169.46 412.542 1168.95 413.559C1168.44 414.584 1168.32 415.761 1168.61 416.871C1168.9 417.98 1169.57 418.949 1170.52 419.596C1171.48 420.232 1172.66 420.471 1173.79 420.263C1174.92 420.056 1175.94 419.417 1176.62 418.481C1177.72 417.229 1178.48 415.613 1179.57 414.31C1181.23 412.331 1182.99 410.402 1184.82 408.573C1185.59 407.891 1186.49 407.375 1187.46 407.058C1191.8 405.455 1194.96 407.434 1194.73 412.068C1194.4 414.868 1193.78 417.623 1192.85 420.285C1192.5 421.537 1191.7 422.79 1191.3 424.042C1191 424.972 1191.01 425.971 1191.32 426.894C1191.64 427.817 1192.25 428.614 1193.05 429.166C1193.84 429.729 1194.81 430.016 1195.78 429.979C1196.75 429.943 1197.69 429.586 1198.44 428.965C1199.16 428.427 1199.7 427.637 1200.38 427.061C1202.12 425.439 1203.99 423.971 1205.98 422.677C1210.81 419.921 1213.62 422.026 1214.29 427.424C1214.37 429.138 1214.07 430.848 1213.41 432.435C1212.42 435.44 1211.3 438.421 1210.02 441.327C1206.96 448.279 1203.77 455.105 1200.66 462.12C1200.36 462.905 1199.86 463.593 1199.19 464.108C1198.53 464.623 1197.74 464.945 1196.91 465.038C1181.31 468.057 1165.74 471.201 1150.16 474.282C1149.29 474.445 1148.39 474.433 1147.34 474.52C1146.7 472.554 1146.01 470.762 1145.51 468.934C1142.41 457.527 1139.34 446.146 1136.31 434.789C1135.41 431.395 1135.4 431.295 1138.14 429.441C1145.99 424.092 1152.64 417.429 1159.26 410.653C1162.23 407.699 1165.36 404.898 1168.62 402.26C1169.47 401.493 1170.52 400.969 1171.64 400.742C1172.77 400.515 1173.93 400.594 1175.01 400.97Z" fill="#EAECF1"/>
<path d="M1096.25 321.766C1099.99 322.955 1103.8 323.921 1107.65 324.659C1113.49 325.412 1119.37 325.872 1125.26 326.036C1126.2 326.025 1127.13 326.21 1127.99 326.578C1128.85 326.948 1129.63 327.493 1130.27 328.178C1134.04 331.999 1136.95 336.581 1138.81 341.618C1139.98 344.825 1140.06 348.52 1140.25 352.014C1141.25 371.341 1126.86 388.338 1107.81 391.332C1103.09 392.083 1098.27 391.886 1093.63 390.754C1088.99 389.621 1084.62 387.575 1080.77 384.735C1076.93 381.895 1073.68 378.318 1071.24 374.213C1068.78 370.107 1067.18 365.554 1066.51 360.819C1065.74 355.516 1066.11 350.112 1067.6 344.963C1067.99 343.554 1068.93 342.359 1070.2 341.631C1076.31 337.497 1082.37 333.302 1088.3 328.918C1091.02 326.901 1093.37 324.371 1096.25 321.766ZM1108.76 365.73C1117.4 365.467 1122.53 362.623 1125.2 354.131C1125.54 352.716 1125.51 351.233 1125.1 349.835C1124.85 348.888 1124.29 348.056 1123.5 347.484C1122.71 346.912 1121.74 346.635 1120.77 346.704C1119.85 346.736 1118.97 347.062 1118.25 347.632C1117.54 348.202 1117.02 348.988 1116.78 349.873C1116.56 350.511 1116.46 351.188 1116.26 351.839C1116.01 353.197 1115.26 354.412 1114.16 355.248C1113.06 356.084 1111.69 356.48 1110.31 356.361C1109.24 356.348 1108.18 356.119 1107.2 355.689C1106.21 355.259 1105.32 354.636 1104.58 353.856C1103.66 353.017 1102.85 352.04 1101.85 351.288C1101.03 350.57 1099.96 350.187 1098.87 350.218C1097.78 350.248 1096.73 350.688 1095.94 351.451C1095.16 352.131 1094.65 353.078 1094.52 354.111C1094.38 355.144 1094.63 356.191 1095.22 357.049C1096.74 359.364 1098.74 361.334 1101.07 362.828C1103.41 364.324 1106.02 365.312 1108.76 365.73ZM1096.61 343.597C1097.24 343.578 1097.84 343.435 1098.41 343.175C1098.98 342.915 1099.49 342.544 1099.91 342.084C1100.34 341.625 1100.66 341.085 1100.87 340.497C1101.08 339.909 1101.17 339.286 1101.14 338.662C1101.13 338.064 1101 337.475 1100.75 336.93C1100.5 336.385 1100.15 335.898 1099.7 335.497C1099.26 335.097 1098.74 334.792 1098.17 334.601C1097.6 334.411 1097 334.34 1096.41 334.391C1095.21 334.444 1094.07 334.969 1093.26 335.853C1092.44 336.738 1092.01 337.91 1092.05 339.113C1092.04 339.71 1092.16 340.302 1092.38 340.854C1092.61 341.406 1092.95 341.907 1093.37 342.326C1093.79 342.745 1094.3 343.073 1094.85 343.292C1095.4 343.511 1096 343.615 1096.59 343.597H1096.61ZM1117.4 337.435C1117.42 336.837 1117.32 336.242 1117.11 335.684C1116.89 335.127 1116.57 334.618 1116.15 334.188C1115.73 333.759 1115.23 333.419 1114.69 333.187C1114.13 332.954 1113.54 332.836 1112.94 332.838C1112.35 332.821 1111.76 332.922 1111.2 333.136C1110.64 333.35 1110.13 333.67 1109.7 334.081C1109.27 334.492 1108.92 334.984 1108.67 335.529C1108.43 336.075 1108.3 336.663 1108.28 337.259C1108.27 337.857 1108.37 338.451 1108.59 339.008C1108.8 339.565 1109.13 340.073 1109.55 340.503C1109.96 340.932 1110.46 341.274 1111 341.509C1111.56 341.743 1112.14 341.866 1112.75 341.869C1113.94 341.879 1115.1 341.422 1115.96 340.594C1116.83 339.766 1117.34 338.633 1117.39 337.435H1117.4Z" fill="#EAECF1"/>
<path d="M1271.49 300.913C1271.49 297.468 1272.64 295.777 1275.93 294.913C1280.65 293.66 1285.42 292.633 1290.17 291.531C1294.91 290.429 1299.69 289.39 1304.45 288.312C1310.12 287.059 1312.18 288.161 1313.77 293.698C1316.75 304.06 1319.68 314.431 1322.53 324.811C1323.91 329.747 1322.53 332.151 1317.67 333.454C1308.58 335.884 1299.44 338.226 1290.27 340.481C1284.87 341.821 1282.91 340.593 1281.29 335.119C1278.79 326.54 1276.29 317.935 1273.69 309.342C1273.14 307.501 1272.58 305.585 1272.08 303.793C1271.79 302.704 1271.59 301.576 1271.49 300.913ZM1305.29 297.656L1281.5 303.092L1289.78 331.087L1312.95 325.075L1305.29 297.656Z" fill="#006A4F"/>
<path d="M1209.08 304.99C1206.1 304.99 1204.46 303.951 1203.86 301.859C1203.59 300.862 1203.69 299.799 1204.15 298.875C1204.61 297.95 1205.4 297.229 1206.36 296.849C1207.49 296.311 1208.66 295.892 1209.88 295.596C1237.94 287.78 1266.01 279.981 1294.09 272.199C1295.17 271.869 1296.29 271.667 1297.42 271.598C1298.45 271.486 1299.48 271.746 1300.34 272.332C1301.19 272.918 1301.8 273.791 1302.07 274.791C1302.31 275.798 1302.19 276.855 1301.75 277.79C1301.31 278.725 1300.56 279.483 1299.64 279.939C1298.73 280.392 1297.76 280.744 1296.77 280.992L1212.51 304.201C1211.23 304.527 1209.89 304.803 1209.08 304.99Z" fill="#006A4F"/>
<path d="M1257.61 339.601C1249.67 334.779 1246.13 327.464 1243.47 319.56C1242.21 315.803 1241.13 311.97 1239.99 308.174C1239.81 307.633 1239.7 307.075 1239.65 306.509C1239.45 305.374 1239.68 304.207 1240.29 303.23C1240.9 302.254 1241.85 301.534 1242.95 301.21C1244.07 300.931 1245.26 301.097 1246.26 301.675C1247.26 302.252 1248 303.194 1248.32 304.304C1249.31 306.959 1249.94 309.74 1250.83 312.408C1252.23 316.354 1253.6 320.337 1255.33 324.132C1256.73 327.422 1259.29 330.072 1262.54 331.559C1262.22 330.307 1261.9 329.23 1261.71 328.178C1261.5 327.183 1261.64 326.148 1262.09 325.24C1262.55 324.331 1263.29 323.601 1264.21 323.167C1265.09 322.73 1266.11 322.631 1267.06 322.89C1268.01 323.147 1268.83 323.746 1269.38 324.57C1272.47 329.774 1273.73 335.862 1272.97 341.868C1272.63 344.248 1270.57 345.776 1268.35 346.503C1264.9 347.631 1261.4 348.556 1257.85 349.27C1254.78 349.859 1252.55 348.406 1251.93 345.976C1251.81 345.359 1251.82 344.724 1251.95 344.11C1252.08 343.495 1252.33 342.913 1252.69 342.397C1253.05 341.882 1253.51 341.443 1254.04 341.107C1254.57 340.771 1255.16 340.544 1255.78 340.44C1256.42 340.231 1257.03 339.949 1257.61 339.601Z" fill="#006A4F"/>
<path d="M1108.76 365.728C1106.02 365.3 1103.39 364.298 1101.06 362.787C1098.72 361.277 1096.74 359.291 1095.22 356.959C1094.63 356.101 1094.38 355.055 1094.52 354.021C1094.65 352.988 1095.16 352.041 1095.94 351.361C1096.73 350.598 1097.78 350.158 1098.87 350.128C1099.96 350.097 1101.03 350.48 1101.85 351.198C1102.84 351.95 1103.66 352.927 1104.58 353.766C1105.33 354.546 1106.21 355.169 1107.2 355.599C1108.18 356.03 1109.24 356.258 1110.31 356.271C1111.69 356.391 1113.06 355.994 1114.16 355.158C1115.26 354.322 1116.01 353.107 1116.26 351.749C1116.46 351.098 1116.56 350.421 1116.78 349.783C1117.02 348.898 1117.54 348.113 1118.25 347.542C1118.97 346.972 1119.85 346.647 1120.77 346.614C1121.74 346.545 1122.71 346.821 1123.5 347.393C1124.29 347.966 1124.86 348.798 1125.1 349.745C1125.51 351.143 1125.54 352.626 1125.2 354.041C1122.53 362.621 1117.38 365.464 1108.76 365.728Z" fill="#006A4F"/>
<path d="M1096.61 343.593C1096.01 343.613 1095.42 343.51 1094.86 343.292C1094.3 343.074 1093.8 342.746 1093.38 342.326C1092.94 341.907 1092.61 341.406 1092.38 340.854C1092.16 340.3 1092.04 339.707 1092.06 339.109C1092.01 337.907 1092.45 336.735 1093.26 335.85C1094.07 334.965 1095.21 334.439 1096.41 334.388C1097 334.336 1097.6 334.407 1098.17 334.597C1098.74 334.788 1099.26 335.093 1099.7 335.494C1100.15 335.894 1100.5 336.382 1100.75 336.926C1101 337.471 1101.13 338.061 1101.14 338.659C1101.18 339.282 1101.08 339.906 1100.87 340.494C1100.66 341.081 1100.34 341.621 1099.91 342.081C1099.49 342.54 1098.98 342.911 1098.42 343.171C1097.84 343.431 1097.24 343.575 1096.61 343.593Z" fill="#006A4F"/>
<path d="M1117.39 337.427C1117.34 338.627 1116.83 339.762 1115.96 340.591C1115.1 341.419 1113.94 341.874 1112.74 341.861C1112.14 341.857 1111.55 341.735 1111 341.5C1110.45 341.266 1109.95 340.924 1109.54 340.495C1109.12 340.065 1108.8 339.557 1108.59 339C1108.37 338.443 1108.26 337.848 1108.28 337.252C1108.3 336.655 1108.43 336.067 1108.67 335.522C1108.91 334.976 1109.26 334.484 1109.69 334.073C1110.12 333.663 1110.63 333.341 1111.19 333.128C1111.75 332.915 1112.34 332.813 1112.94 332.83C1113.53 332.828 1114.13 332.946 1114.68 333.179C1115.23 333.41 1115.73 333.752 1116.14 334.18C1116.56 334.61 1116.88 335.118 1117.1 335.676C1117.31 336.233 1117.41 336.829 1117.39 337.427Z" fill="#006A4F"/>
<path d="M1305.2 297.654L1312.94 325.072L1289.78 331.085L1281.5 303.09L1305.2 297.654Z" fill="#006A4F"/>
<path d="M617.777 472.519C620.603 469.847 623.081 467.38 625.691 465.069C636.239 455.741 648.941 451.071 662.448 448.218C672.289 446.206 682.295 445.114 692.334 444.956C693.092 444.956 693.851 444.86 694.937 444.788C695.573 442.08 696.283 439.348 696.857 436.591C697.438 433.835 698.757 431.777 701.667 430.97C704.578 430.164 706.034 430.549 707.742 432.728C708.466 433.691 709.115 434.7 709.703 435.749C726.101 462.966 742.486 490.188 758.864 517.413C761.748 522.227 761.748 527.547 761.269 532.903C760.463 543.029 759.664 553.151 758.864 563.27C758.079 572.898 757.265 582.431 756.459 591.999C755.926 598.427 755.468 604.854 754.956 611.257C754.15 621.166 753.35 631.068 752.551 640.962C752.045 647.284 751.546 653.599 751.054 659.906C750.358 668.945 749.688 677.96 748.964 687.021C748.964 688.512 748.458 689.961 747.529 691.124C746.6 692.293 745.301 693.107 743.853 693.442C732.524 696.614 721.216 699.876 709.887 703.069C707.667 703.725 705.296 703.623 703.15 702.768C693.53 698.959 683.82 695.329 674.199 691.5C640.778 678.205 607.361 664.869 573.948 651.493C572.937 651.084 571.927 650.674 570.953 650.193C567.778 648.616 566.695 646.486 567.261 642.971C571.342 617.888 575.42 592.806 579.493 567.723C583.173 545.119 586.866 522.52 590.571 499.925C592.23 489.802 594.083 479.716 595.538 469.57C596.187 465.105 600.132 463.311 603.957 465.646C608.203 468.33 613.014 470.22 617.777 472.519ZM716.126 529.413C710.618 525.971 606.387 477.345 603.861 477.092C594.848 532.233 585.835 587.394 576.822 642.574L701.312 692.136C706.28 637.603 711.199 583.587 716.126 529.413ZM710.666 693.257C720.287 690.515 729.06 687.985 737.847 685.504C739.425 685.059 739.753 683.945 739.849 682.534C740.307 676.114 740.778 669.695 741.277 663.276C741.776 656.857 742.274 650.542 742.78 644.331C743.573 634.535 744.393 624.737 745.185 614.94C745.93 605.684 746.627 596.429 747.365 587.173C748.164 577.159 748.971 567.129 749.77 557.083C750.337 550.223 750.973 543.362 751.492 536.514C751.622 534.877 751.669 533.24 751.779 531.603C751.888 529.966 752.004 528.461 752.148 526.62L725.507 530.171C720.553 584.513 715.647 638.494 710.666 693.257ZM654.293 459.64V460.615L733.18 518.749C732.62 517.386 731.8 516.14 730.775 515.078C715.046 496.795 699.167 478.633 683.663 460.158C680.405 456.294 677.434 454.573 672.419 455.885C666.489 457.462 660.355 458.425 654.293 459.64ZM643.468 464.298C637.447 467.465 632.018 471.651 627.423 476.671C633.738 480.559 713.905 517.858 716.214 517.931C691.999 500.081 667.944 482.34 643.481 464.298H643.468ZM691.446 454.561C692.279 455.645 692.744 456.354 693.297 456.968C706.601 472.439 719.911 487.901 733.228 503.355L744.331 516.245C745.165 517.208 745.971 518.292 747.495 517.28C747.406 516.934 747.283 516.596 747.133 516.27C735.162 496.362 723.197 476.462 711.247 456.571C710.967 455.988 710.523 455.499 709.976 455.16C709.423 454.821 708.787 454.646 708.138 454.657C704.872 454.585 701.599 454.285 698.34 454.224C696.194 454.212 694.042 454.429 691.459 454.561H691.446Z" fill="#006A4F"/>
<path d="M716.126 529.41C711.193 583.571 706.273 637.601 701.306 692.137L576.819 642.572C585.841 587.391 594.853 532.23 603.858 477.09C606.384 477.342 710.619 525.968 716.126 529.41ZM688.884 559.753C688.283 558.676 687.572 557.664 686.766 556.731C685.918 556.043 684.962 555.513 683.923 555.167C663.656 545.827 643.377 536.499 623.09 527.183C622.015 526.66 620.886 526.256 619.723 525.979C618.703 525.74 617.631 525.871 616.699 526.35C615.767 526.828 615.035 527.623 614.634 528.591C614.231 529.499 614.148 530.516 614.399 531.477C614.651 532.437 615.222 533.283 616.018 533.875C616.974 534.593 618.011 535.195 619.109 535.669C639.58 545.105 660.056 554.517 680.535 563.905C681.908 564.54 683.397 564.881 684.914 564.904C687.271 564.904 688.891 562.93 688.884 559.753ZM681.364 581.092C680.853 580.062 680.214 579.1 679.464 578.227C678.555 577.445 677.512 576.833 676.385 576.422C656.924 567.86 637.452 559.323 617.967 550.81C616.985 550.338 615.946 549.998 614.875 549.799C613.842 549.612 612.776 549.789 611.858 550.3C610.941 550.811 610.228 551.624 609.841 552.6C609.455 553.577 609.418 554.657 609.737 555.658C610.056 556.659 610.711 557.519 611.592 558.092C612.499 558.696 613.466 559.204 614.479 559.608C633.843 568.113 653.216 576.607 672.597 585.088C673.671 585.617 674.812 586.001 675.988 586.231C678.863 586.665 681.293 584.607 681.364 581.092ZM642.72 645.159C641.512 645.745 640.408 646.521 639.448 647.458C638.305 648.927 638.606 650.768 639.448 652.417C640.559 654.166 642.27 655.45 644.259 656.028C650.826 658.619 657.405 661.187 663.997 663.731C664.901 664.098 665.86 664.309 666.835 664.357C667.88 664.417 668.914 664.115 669.762 663.501C670.61 662.887 671.22 661.999 671.49 660.986C671.771 660.035 671.721 659.017 671.348 658.098C670.974 657.179 670.299 656.416 669.433 655.932C668.493 655.396 667.507 654.944 666.486 654.583L645.365 645.966C644.692 645.713 643.959 645.556 642.684 645.159H642.72Z" fill="#EAECF1"/>
<path d="M710.66 693.263C715.641 638.527 720.547 584.521 725.501 530.179L752.169 526.652C752.026 528.494 751.889 530.059 751.793 531.635C751.698 533.212 751.636 534.909 751.506 536.546C750.939 543.394 750.304 550.255 749.784 557.115C748.985 567.129 748.179 577.159 747.379 587.205C746.648 596.461 745.951 605.717 745.2 614.972C744.421 624.769 743.601 634.566 742.795 644.364C742.282 650.67 741.783 656.985 741.291 663.308C740.806 669.631 740.328 676.05 739.863 682.566C739.768 683.971 739.44 685.093 737.868 685.537C729.047 687.992 720.267 690.521 710.66 693.263Z" fill="#006A4F"/>
<path d="M654.288 459.646C660.302 458.442 666.485 457.467 672.462 455.89C677.478 454.578 680.449 456.299 683.711 460.163C699.215 478.638 715.087 496.8 730.823 515.083C731.841 516.146 732.661 517.391 733.228 518.754L654.337 460.62L654.288 459.646Z" fill="white"/>
<path d="M643.483 464.295C667.947 482.348 691.999 500.054 716.228 517.927C713.919 517.855 633.752 480.556 627.438 476.668C632.033 471.648 637.46 467.461 643.483 464.295Z" fill="white"/>
<path d="M691.453 454.563C694.043 454.431 696.195 454.214 698.347 454.25C701.607 454.31 704.879 454.611 708.152 454.683C708.795 454.673 709.43 454.847 709.984 455.186C710.53 455.525 710.974 456.015 711.254 456.597C723.191 476.504 735.155 496.404 747.14 516.295C747.29 516.621 747.413 516.96 747.502 517.307C745.978 518.318 745.172 517.234 744.339 516.271L733.242 503.381C719.918 487.91 706.608 472.448 693.305 456.995C692.751 456.357 692.287 455.646 691.453 454.563Z" fill="white"/>
<path d="M688.877 559.757C688.877 562.934 687.265 564.908 684.907 564.92C683.397 564.897 681.904 564.556 680.531 563.921C660.036 554.541 639.561 545.129 619.105 535.685C618.007 535.211 616.97 534.609 616.014 533.891C615.218 533.299 614.647 532.453 614.396 531.492C614.144 530.532 614.227 529.514 614.631 528.608C615.031 527.639 615.763 526.844 616.695 526.366C617.627 525.888 618.699 525.756 619.718 525.996C620.882 526.272 622.011 526.675 623.086 527.199C643.381 536.515 663.66 545.843 683.923 555.183C684.955 555.528 685.919 556.059 686.759 556.748C687.565 557.677 688.276 558.685 688.877 559.757Z" fill="#006A4F"/>
<path d="M681.371 581.096C681.371 584.611 678.966 586.669 675.995 586.235C674.819 586.005 673.679 585.621 672.603 585.092C653.222 576.618 633.85 568.125 614.485 559.612C613.473 559.208 612.505 558.7 611.598 558.095C610.718 557.523 610.062 556.663 609.743 555.662C609.424 554.661 609.461 553.58 609.848 552.604C610.235 551.627 610.947 550.815 611.865 550.304C612.783 549.793 613.848 549.616 614.882 549.803C615.952 550.002 616.992 550.342 617.973 550.813C637.458 559.335 656.931 567.873 676.392 576.426C677.519 576.837 678.562 577.449 679.471 578.231C680.221 579.104 680.859 580.066 681.371 581.096Z" fill="#006A4F"/>
<path d="M642.684 645.166C643.959 645.563 644.693 645.744 645.39 646.021L666.511 654.639C667.531 654.999 668.517 655.45 669.457 655.986C670.323 656.47 670.998 657.234 671.372 658.153C671.745 659.072 671.796 660.09 671.515 661.041C671.245 662.054 670.634 662.941 669.786 663.555C668.938 664.169 667.904 664.472 666.859 664.411C665.885 664.365 664.925 664.153 664.021 663.786C657.43 661.25 650.85 658.682 644.283 656.083C642.294 655.505 640.584 654.221 639.472 652.472C638.594 650.823 638.27 648.981 639.472 647.513C640.411 646.564 641.494 645.771 642.684 645.166Z" fill="#006A4F"/>
</g>
<defs>
<clipPath id="clip0_10484_6777">
<rect width="1920" height="1080.31" fill="white"/>
</clipPath>
</defs>
</svg>
