<svg width="281" height="158" viewBox="0 0 281 158" fill="none" xmlns="http://www.w3.org/2000/svg">
<g clip-path="url(#clip0_10582_1016)">
<path d="M0 158H281V0H0V158Z" fill="url(#paint0_linear_10582_1016)"/>
<path d="M140.354 146.348C192.464 146.348 234.708 143.136 234.708 139.174C234.708 135.212 192.464 132 140.354 132C88.2438 132 46 135.212 46 139.174C46 143.136 88.2438 146.348 140.354 146.348Z" fill="#509888" fill-opacity="0.47"/>
<path d="M184.717 58.4469C168.876 47.5211 136.588 40.712 119.317 25.22C102.046 9.72802 70.4413 30.6007 66.6649 63.0612C62.8845 95.5217 75.4349 125.254 98.9731 135H181.266C205.435 111.295 200.558 69.3727 184.717 58.4469Z" fill="#D1E2E4"/>
<path d="M147.617 59.8539L149.801 63.1118L166 61.4832C166 61.4832 159.266 76.6311 155.625 79.155L155.443 80.0309C155.443 80.0309 159.43 80.6319 158.997 85.352C158.563 90.0721 153.97 89.8152 153.97 89.8152C153.97 89.8152 152.583 95.5653 152.583 98.0542C152.583 100.543 151.63 101.23 154.49 102.345C157.35 103.461 162.983 106.035 163.676 107.409C164.37 108.782 163.849 109.64 160.556 108.439C157.263 107.237 151.716 104.148 150.676 106.293C149.636 108.439 148.51 113.674 151.543 113.845C154.575 114.017 159.515 112.901 160.902 114.189C162.289 115.476 162.462 115.905 159.342 116.163C156.222 116.421 151.196 117.107 149.55 117.107C147.904 117.107 146.95 121.914 148.856 122.857C150.763 123.802 154.663 123.802 156.136 125.175C157.609 126.548 156.396 127.321 152.843 126.376C149.29 125.432 146.863 125.518 146.257 128.351C145.65 131.183 145.737 134.53 142.443 133.929C139.15 133.328 139.844 130.239 139.757 128.437C139.671 126.635 134.558 125.777 131.698 125.519C128.838 125.262 126.412 124.833 126.932 122.516C127.452 120.198 129.878 122.945 134.644 123.288C139.411 123.631 139.064 121.228 138.284 116.422C137.504 111.617 131.524 115.821 127.971 115.307C124.418 114.792 127.018 111.96 132.998 111.96C138.977 111.96 137.764 110.415 137.504 108.012C137.244 105.609 136.118 104.236 130.831 106.381C125.544 108.527 122.685 110.243 122.338 107.754C121.991 105.266 128.144 103.378 131.264 102.09C134.384 100.802 136.118 100.545 135.511 97.7133C134.904 94.8811 134.623 92.0488 133.854 90.3322C133.085 88.6156 129.358 89.7312 129.185 86.7277C129.012 83.7243 128.925 81.321 132.652 79.69L132.738 78.059C132.738 78.059 131.351 74.0084 127.972 70.6698C124.593 67.3312 120.259 62.2677 120.259 62.2677L137.072 61.6667C137.072 61.6667 141.319 52.9988 134.992 48.3644C128.665 43.7299 121.126 52.7411 118.786 61.5811C118.786 61.5811 117.92 63.1256 118.353 63.8987C118.786 64.671 125.46 72.3098 126.673 76.2576C127.886 80.2054 127.799 89.0454 122.686 88.9597C117.573 88.8741 116.533 85.7842 116.533 85.7842L114.107 64.0708L106.472 85.0976C106.472 85.0976 102.667 86.7286 98.941 83.8099C95.2149 80.892 97.2941 74.9699 101.454 70.3354C105.614 65.701 111.94 62.8688 113.327 60.7232C114.714 58.5776 119.48 45.7898 126.412 42.443C133.345 39.0962 139.238 42.0655 142.965 46.3052C146.692 50.5401 146.037 57.4963 147.617 59.8539Z" fill="#006A4F"/>
<g clip-path="url(#clip1_10582_1016)">
<path d="M91.04 99.6992H140.92V141.039H91.04V99.6992Z" fill="#D9E2E9"/>
<path d="M140.92 99.6992V141.037H91.0381V138.633H138.313V99.6992H140.92Z" fill="#C1CDD3"/>
<path d="M140.92 141.531H91.04C90.9095 141.531 90.7843 141.479 90.692 141.387C90.5997 141.295 90.5479 141.17 90.5479 141.039V99.6992C90.5479 99.5687 90.5997 99.4435 90.692 99.3512C90.7843 99.2589 90.9095 99.207 91.04 99.207H140.92C141.051 99.207 141.176 99.2589 141.268 99.3512C141.361 99.4435 141.412 99.5687 141.412 99.6992V141.039C141.412 141.17 141.361 141.295 141.268 141.387C141.176 141.479 141.051 141.531 140.92 141.531ZM91.5322 140.547H140.428V100.191H91.5322V140.547Z" fill="#2F3A5A"/>
<path d="M94.3516 108.626H85.4922L91.5328 97.5449H98.6666L94.3516 108.626Z" fill="#F14253"/>
<path d="M94.3517 109.116H85.4923C85.4069 109.116 85.3229 109.094 85.2487 109.052C85.1745 109.01 85.1126 108.949 85.069 108.875C85.0254 108.802 85.0016 108.718 85.0001 108.633C84.9985 108.548 85.0192 108.463 85.0601 108.388L91.1032 97.3092C91.1456 97.2315 91.2081 97.1668 91.2841 97.1216C91.3601 97.0765 91.4469 97.0527 91.5354 97.0527H98.6667C98.7467 97.0527 98.8256 97.0722 98.8964 97.1096C98.9672 97.1469 99.0279 97.201 99.0731 97.2671C99.1182 97.3332 99.1466 97.4093 99.1557 97.4889C99.1649 97.5684 99.1544 97.649 99.1254 97.7236L94.8104 108.804C94.7742 108.896 94.7111 108.975 94.6293 109.031C94.5474 109.087 94.4507 109.116 94.3517 109.116ZM86.3216 108.132H94.015L97.9446 98.0366H91.8253L86.3216 108.132Z" fill="#2F3A5A"/>
<path d="M103.211 108.626H94.3516L98.6666 97.5449H105.8L103.211 108.626Z" fill="#D9E2E9"/>
<path d="M103.211 109.118H94.3517C94.2716 109.118 94.1927 109.098 94.1219 109.061C94.0511 109.024 93.9905 108.969 93.9453 108.903C93.9001 108.837 93.8717 108.761 93.8626 108.682C93.8535 108.602 93.8639 108.521 93.8929 108.447L98.208 97.3663C98.2439 97.2739 98.307 97.1945 98.3888 97.1386C98.4707 97.0826 98.5675 97.0527 98.6667 97.0527H105.8C105.874 97.0527 105.947 97.0695 106.014 97.1017C106.081 97.134 106.14 97.1809 106.186 97.2391C106.232 97.2972 106.264 97.365 106.28 97.4374C106.297 97.5098 106.296 97.5849 106.279 97.6571L103.69 108.738C103.665 108.846 103.604 108.942 103.517 109.011C103.43 109.08 103.322 109.118 103.211 109.118ZM95.0717 108.133H102.821L105.18 98.0381H99.0028L95.0717 108.133Z" fill="#2F3A5A"/>
<path d="M112.07 108.626H103.211L105.8 97.5449H112.933L112.07 108.626Z" fill="#F14253"/>
<path d="M112.07 109.118H103.211C103.137 109.118 103.064 109.101 102.997 109.069C102.93 109.036 102.871 108.99 102.825 108.931C102.779 108.873 102.747 108.805 102.731 108.733C102.714 108.661 102.715 108.586 102.732 108.513L105.321 97.4327C105.346 97.3246 105.407 97.2282 105.494 97.1592C105.581 97.0902 105.689 97.0527 105.8 97.0527H112.933C113.001 97.0525 113.069 97.0664 113.131 97.0935C113.193 97.1206 113.249 97.1603 113.296 97.2102C113.342 97.26 113.377 97.3189 113.4 97.3832C113.422 97.4474 113.431 97.5155 113.425 97.5833L112.563 108.665C112.553 108.789 112.497 108.904 112.405 108.988C112.314 109.072 112.194 109.118 112.07 109.118ZM103.832 108.133H111.615L112.403 98.0371H106.19L103.832 108.133Z" fill="#2F3A5A"/>
<path d="M120.93 108.626H112.07L112.933 97.5449H120.067L120.93 108.626Z" fill="#D9E2E9"/>
<path d="M120.93 109.118H112.07C112.002 109.118 111.935 109.104 111.873 109.077C111.81 109.05 111.754 109.01 111.708 108.96C111.662 108.91 111.626 108.852 111.604 108.787C111.582 108.723 111.573 108.655 111.578 108.587L112.441 97.5065C112.451 97.3828 112.507 97.2672 112.598 97.1831C112.689 97.0989 112.809 97.0524 112.933 97.0527H120.067C120.191 97.0524 120.311 97.0989 120.402 97.1831C120.493 97.2672 120.549 97.3828 120.559 97.5065L121.422 108.588C121.427 108.656 121.418 108.724 121.396 108.788C121.373 108.852 121.338 108.911 121.292 108.961C121.245 109.01 121.189 109.05 121.127 109.077C121.065 109.104 120.998 109.118 120.93 109.118ZM112.602 108.133H120.398L119.61 98.0371H113.388L112.602 108.133Z" fill="#2F3A5A"/>
<path d="M129.789 108.626H120.93L120.067 97.5449H127.2L129.789 108.626Z" fill="#F14253"/>
<path d="M129.789 109.117H120.93C120.806 109.117 120.686 109.071 120.595 108.986C120.503 108.902 120.447 108.787 120.438 108.663L119.576 97.5833C119.571 97.5155 119.58 97.4474 119.602 97.3832C119.624 97.3189 119.66 97.26 119.706 97.2102C119.752 97.1603 119.808 97.1206 119.871 97.0935C119.933 97.0664 120 97.0525 120.068 97.0527H127.2C127.311 97.0527 127.419 97.0902 127.506 97.1592C127.593 97.2282 127.654 97.3246 127.68 97.4327L130.268 108.513C130.285 108.585 130.285 108.661 130.269 108.733C130.253 108.805 130.22 108.873 130.174 108.931C130.128 108.989 130.07 109.036 130.003 109.068C129.936 109.1 129.863 109.117 129.789 109.117ZM121.385 108.132H129.168L126.81 98.0371H120.599L121.385 108.132Z" fill="#2F3A5A"/>
<path d="M138.648 108.626H129.789L127.2 97.5449H134.333L138.648 108.626Z" fill="#D9E2E9"/>
<path d="M138.649 109.118H129.789C129.678 109.118 129.57 109.08 129.483 109.011C129.396 108.942 129.335 108.846 129.31 108.738L126.721 97.6571C126.704 97.5849 126.704 97.5098 126.72 97.4374C126.736 97.365 126.768 97.2972 126.815 97.2391C126.861 97.1809 126.919 97.134 126.986 97.1017C127.053 97.0695 127.126 97.0527 127.2 97.0527H134.334C134.433 97.0527 134.53 97.0826 134.611 97.1386C134.693 97.1945 134.756 97.2739 134.792 97.3663L139.107 108.447C139.136 108.521 139.147 108.602 139.138 108.682C139.129 108.761 139.1 108.837 139.055 108.903C139.01 108.969 138.949 109.024 138.878 109.061C138.808 109.098 138.729 109.118 138.649 109.118ZM130.18 108.133H137.929L133.997 98.0381H127.821L130.18 108.133Z" fill="#2F3A5A"/>
<path d="M147.508 108.626H138.649L134.333 97.5449H141.467L147.508 108.626Z" fill="#F14253"/>
<path d="M147.508 109.117H138.649C138.549 109.117 138.453 109.087 138.371 109.031C138.289 108.975 138.226 108.896 138.19 108.803L133.874 97.7236C133.845 97.649 133.835 97.5684 133.844 97.4889C133.853 97.4093 133.882 97.3332 133.927 97.2671C133.972 97.201 134.033 97.1469 134.103 97.1096C134.174 97.0722 134.253 97.0527 134.333 97.0527H141.466C141.555 97.0527 141.642 97.0765 141.718 97.1216C141.794 97.1668 141.856 97.2315 141.899 97.3092L147.939 108.39C147.98 108.465 148 108.549 147.999 108.634C147.997 108.719 147.973 108.802 147.93 108.876C147.886 108.949 147.825 109.01 147.751 109.052C147.677 109.094 147.593 109.116 147.508 109.117ZM138.985 108.132H146.679L141.175 98.0371H135.056L138.985 108.132Z" fill="#2F3A5A"/>
<path d="M85.4922 108.625V110.919C85.4922 112.093 85.9589 113.22 86.7896 114.051C87.6203 114.882 88.747 115.348 89.9219 115.348C91.0967 115.348 92.2234 114.882 93.0541 114.051C93.8849 113.22 94.3516 112.093 94.3516 110.919V108.625H85.4922Z" fill="#F14253"/>
<path d="M89.9219 115.841C88.617 115.84 87.3659 115.321 86.4432 114.398C85.5204 113.476 85.0014 112.224 85 110.92V108.625C85 108.494 85.0519 108.369 85.1442 108.277C85.2365 108.185 85.3617 108.133 85.4922 108.133H94.3516C94.4821 108.133 94.6073 108.185 94.6996 108.277C94.7919 108.369 94.8438 108.494 94.8438 108.625V110.919C94.8426 112.224 94.3237 113.475 93.4009 114.398C92.4782 115.321 91.227 115.84 89.9219 115.841ZM85.9844 109.117V110.919C85.9844 111.963 86.3992 112.964 87.1376 113.703C87.8761 114.441 88.8776 114.856 89.9219 114.856C90.9662 114.856 91.9677 114.441 92.7061 113.703C93.4445 112.964 93.8594 111.963 93.8594 110.919V109.117H85.9844Z" fill="#2F3A5A"/>
<path d="M94.3516 108.625H103.211V110.919C103.211 112.093 102.744 113.22 101.914 114.051C101.083 114.882 99.9561 115.348 98.7812 115.348C97.6064 115.348 96.4797 114.882 95.649 114.051C94.8183 113.22 94.3516 112.093 94.3516 110.919V108.625Z" fill="#D9E2E9"/>
<path d="M98.7812 115.841C97.4763 115.84 96.2253 115.321 95.3025 114.398C94.3798 113.476 93.8608 112.224 93.8594 110.92V108.625C93.8594 108.494 93.9112 108.369 94.0035 108.277C94.0958 108.185 94.221 108.133 94.3516 108.133H103.211C103.341 108.133 103.467 108.185 103.559 108.277C103.651 108.369 103.703 108.494 103.703 108.625V110.919C103.702 112.224 103.183 113.475 102.26 114.398C101.338 115.321 100.086 115.84 98.7812 115.841ZM94.8438 109.117V110.919C94.8438 111.963 95.2586 112.964 95.997 113.703C96.7354 114.441 97.737 114.856 98.7812 114.856C99.8255 114.856 100.827 114.441 101.565 113.703C102.304 112.964 102.719 111.963 102.719 110.919V109.117H94.8438Z" fill="#2F3A5A"/>
<path d="M103.211 108.625V110.919C103.211 112.093 103.678 113.22 104.508 114.051C105.339 114.882 106.466 115.348 107.641 115.348C108.815 115.348 109.942 114.882 110.773 114.051C111.604 113.22 112.07 112.093 112.07 110.919V108.625H103.211Z" fill="#F14253"/>
<path d="M107.641 115.841C106.336 115.84 105.085 115.321 104.162 114.398C103.239 113.476 102.72 112.224 102.719 110.92V108.625C102.719 108.494 102.771 108.369 102.863 108.277C102.955 108.185 103.08 108.133 103.211 108.133H112.07C112.201 108.133 112.326 108.185 112.418 108.277C112.511 108.369 112.562 108.494 112.562 108.625V110.919C112.561 112.224 112.042 113.475 111.12 114.398C110.197 115.321 108.946 115.84 107.641 115.841ZM103.703 109.117V110.919C103.703 111.963 104.118 112.964 104.856 113.703C105.595 114.441 106.596 114.856 107.641 114.856C108.685 114.856 109.686 114.441 110.425 113.703C111.163 112.964 111.578 111.963 111.578 110.919V109.117H103.703Z" fill="#2F3A5A"/>
<path d="M112.07 108.625V110.919C112.07 112.093 112.537 113.22 113.368 114.051C114.198 114.882 115.325 115.348 116.5 115.348C117.675 115.348 118.802 114.882 119.632 114.051C120.463 113.22 120.93 112.093 120.93 110.919V108.625H112.07Z" fill="#D9E2E9"/>
<path d="M116.5 115.841C115.195 115.84 113.944 115.321 113.021 114.398C112.099 113.476 111.58 112.224 111.578 110.92V108.625C111.578 108.494 111.63 108.369 111.722 108.277C111.815 108.185 111.94 108.133 112.07 108.133H120.93C121.06 108.133 121.185 108.185 121.278 108.277C121.37 108.369 121.422 108.494 121.422 108.625V110.919C121.421 112.224 120.902 113.475 119.979 114.398C119.056 115.321 117.805 115.84 116.5 115.841ZM112.562 109.117V110.919C112.562 111.963 112.977 112.964 113.716 113.703C114.454 114.441 115.456 114.856 116.5 114.856C117.544 114.856 118.546 114.441 119.284 113.703C120.023 112.964 120.438 111.963 120.438 110.919V109.117H112.562Z" fill="#2F3A5A"/>
<path d="M120.93 108.625V110.919C120.93 112.093 121.396 113.22 122.227 114.051C123.058 114.882 124.185 115.348 125.359 115.348C126.534 115.348 127.661 114.882 128.492 114.051C129.322 113.22 129.789 112.093 129.789 110.919V108.625H120.93Z" fill="#F14253"/>
<path d="M125.359 115.841C124.054 115.84 122.803 115.321 121.881 114.398C120.958 113.476 120.439 112.224 120.438 110.92V108.625C120.438 108.494 120.489 108.369 120.582 108.277C120.674 108.185 120.799 108.133 120.93 108.133H129.789C129.92 108.133 130.045 108.185 130.137 108.277C130.229 108.369 130.281 108.494 130.281 108.625V110.919C130.28 112.224 129.761 113.475 128.838 114.398C127.916 115.321 126.664 115.84 125.359 115.841ZM121.422 109.117V110.919C121.422 111.963 121.837 112.964 122.575 113.703C123.314 114.441 124.315 114.856 125.359 114.856C126.404 114.856 127.405 114.441 128.144 113.703C128.882 112.964 129.297 111.963 129.297 110.919V109.117H121.422Z" fill="#2F3A5A"/>
<path d="M129.789 108.625V110.919C129.789 112.093 130.256 113.22 131.086 114.051C131.917 114.882 133.044 115.348 134.219 115.348C135.394 115.348 136.52 114.882 137.351 114.051C138.182 113.22 138.648 112.093 138.648 110.919V108.625H129.789Z" fill="#D9E2E9"/>
<path d="M134.219 115.841C132.914 115.84 131.663 115.321 130.74 114.398C129.817 113.476 129.298 112.224 129.297 110.92V108.625C129.297 108.494 129.349 108.369 129.441 108.277C129.533 108.185 129.659 108.133 129.789 108.133H138.648C138.779 108.133 138.904 108.185 138.996 108.277C139.089 108.369 139.141 108.494 139.141 108.625V110.919C139.139 112.224 138.621 113.475 137.698 114.398C136.775 115.321 135.524 115.84 134.219 115.841ZM130.281 109.117V110.919C130.281 111.963 130.696 112.964 131.435 113.703C132.173 114.441 133.174 114.856 134.219 114.856C135.263 114.856 136.265 114.441 137.003 113.703C137.741 112.964 138.156 111.963 138.156 110.919V109.117H130.281Z" fill="#2F3A5A"/>
<path d="M138.648 108.625V110.919C138.648 112.093 139.115 113.22 139.946 114.051C140.777 114.882 141.903 115.348 143.078 115.348C144.253 115.348 145.38 114.882 146.21 114.051C147.041 113.22 147.508 112.093 147.508 110.919V108.625H138.648Z" fill="#F14253"/>
<path d="M143.078 115.841C141.773 115.84 140.522 115.321 139.599 114.398C138.677 113.476 138.158 112.224 138.156 110.92V108.625C138.156 108.494 138.208 108.369 138.3 108.277C138.393 108.185 138.518 108.133 138.648 108.133H147.508C147.638 108.133 147.764 108.185 147.856 108.277C147.948 108.369 148 108.494 148 108.625V110.919C147.999 112.224 147.48 113.475 146.557 114.398C145.634 115.321 144.383 115.84 143.078 115.841ZM139.141 109.117V110.919C139.141 111.963 139.555 112.964 140.294 113.703C141.032 114.441 142.034 114.856 143.078 114.856C144.122 114.856 145.124 114.441 145.862 113.703C146.601 112.964 147.016 111.963 147.016 110.919V109.117H139.141Z" fill="#2F3A5A"/>
<path d="M98.0537 121.299H110.594V141.039H98.0537V121.299Z" fill="#BD8D5A"/>
<path d="M110.594 141.532H98.0537C97.9232 141.532 97.798 141.48 97.7057 141.388C97.6134 141.296 97.5615 141.171 97.5615 141.04V121.299C97.5615 121.168 97.6134 121.043 97.7057 120.951C97.798 120.858 97.9232 120.807 98.0537 120.807H110.594C110.724 120.807 110.849 120.858 110.942 120.951C111.034 121.043 111.086 121.168 111.086 121.299V141.039C111.086 141.104 111.073 141.168 111.049 141.228C111.024 141.288 110.988 141.342 110.942 141.388C110.896 141.434 110.842 141.47 110.782 141.495C110.722 141.519 110.658 141.532 110.594 141.532ZM98.5454 140.548H110.101V121.791H98.5459L98.5454 140.548Z" fill="#2F3A5A"/>
<path d="M117.116 121.299H125.956V128.432H117.116V121.299Z" fill="#5FC4F8"/>
<path d="M125.954 121.297V128.43H117.117V127.146H124.388V121.297H125.954Z" fill="#38AECE"/>
<path d="M125.957 121.299H134.797V128.432H125.957V121.299Z" fill="#5FC4F8"/>
<path d="M117.116 128.432H125.956V135.565H117.116V128.432Z" fill="#5FC4F8"/>
<path d="M125.957 128.432H134.797V135.565H125.957V128.432Z" fill="#5FC4F8"/>
<path d="M134.796 121.297V128.43H125.954V127.146H133.225V121.297H134.796Z" fill="#38AECE"/>
<path d="M125.954 128.43V135.563H117.117V134.279H124.388V128.43H125.954Z" fill="#38AECE"/>
<path d="M134.796 128.43V135.563H125.954V134.279H133.225V128.43H134.796Z" fill="#38AECE"/>
<path d="M125.956 128.925H117.116C116.986 128.925 116.86 128.873 116.768 128.781C116.676 128.688 116.624 128.563 116.624 128.433V121.299C116.624 121.168 116.676 121.043 116.768 120.951C116.86 120.858 116.986 120.807 117.116 120.807H125.956C126.087 120.807 126.212 120.858 126.304 120.951C126.397 121.043 126.449 121.168 126.449 121.299V128.433C126.449 128.563 126.397 128.688 126.304 128.781C126.212 128.873 126.087 128.925 125.956 128.925ZM117.608 127.94H125.464V121.791H117.608V127.94Z" fill="#2F3A5A"/>
<path d="M134.797 128.925H125.957C125.826 128.925 125.701 128.873 125.609 128.781C125.516 128.688 125.464 128.563 125.464 128.433V121.299C125.464 121.168 125.516 121.043 125.609 120.951C125.701 120.858 125.826 120.807 125.957 120.807H134.797C134.928 120.807 135.053 120.858 135.145 120.951C135.238 121.043 135.289 121.168 135.289 121.299V128.433C135.289 128.563 135.238 128.688 135.145 128.781C135.053 128.873 134.928 128.925 134.797 128.925ZM126.449 127.94H134.305V121.791H126.449V127.94Z" fill="#2F3A5A"/>
<path d="M125.956 136.057H117.116C116.986 136.057 116.86 136.005 116.768 135.912C116.676 135.82 116.624 135.695 116.624 135.564V128.432C116.624 128.301 116.676 128.176 116.768 128.084C116.86 127.991 116.986 127.939 117.116 127.939H125.956C126.087 127.939 126.212 127.991 126.304 128.084C126.397 128.176 126.449 128.301 126.449 128.432V135.565C126.448 135.695 126.397 135.82 126.304 135.913C126.212 136.005 126.087 136.057 125.956 136.057ZM117.608 135.072H125.464V128.924H117.608V135.072Z" fill="#2F3A5A"/>
<path d="M134.797 136.057H125.957C125.826 136.057 125.701 136.005 125.609 135.912C125.516 135.82 125.464 135.695 125.464 135.564V128.432C125.464 128.301 125.516 128.176 125.609 128.084C125.701 127.991 125.826 127.939 125.957 127.939H134.797C134.928 127.939 135.053 127.991 135.145 128.084C135.238 128.176 135.289 128.301 135.289 128.432V135.565C135.289 135.695 135.237 135.82 135.145 135.913C135.053 136.005 134.928 136.057 134.797 136.057ZM126.449 135.072H134.305V128.924H126.449V135.072Z" fill="#2F3A5A"/>
<path d="M91.6572 91.9609H141.467V97.5463H91.6572V91.9609Z" fill="#D9E2E9"/>
<path d="M141.466 91.9609V97.5453H91.6553V95.423H138.947V91.9609H141.466Z" fill="#C1CDD3"/>
<path d="M141.467 98.0385H91.6567C91.5262 98.0385 91.401 97.9866 91.3087 97.8943C91.2164 97.802 91.1646 97.6768 91.1646 97.5463V91.9609C91.1646 91.8304 91.2164 91.7052 91.3087 91.6129C91.401 91.5206 91.5262 91.4688 91.6567 91.4688H141.466C141.597 91.4688 141.722 91.5206 141.814 91.6129C141.906 91.7052 141.958 91.8304 141.958 91.9609V97.5463C141.958 97.6766 141.907 97.8017 141.814 97.894C141.722 97.9862 141.597 98.0382 141.467 98.0385ZM92.1499 97.0541H140.975V92.4531H92.1499V97.0541Z" fill="#2F3A5A"/>
<path d="M108.428 133.969C108.298 133.969 108.172 133.917 108.08 133.825C107.988 133.732 107.936 133.607 107.936 133.477V131.051C107.936 130.92 107.988 130.795 108.08 130.703C108.172 130.61 108.298 130.559 108.428 130.559C108.559 130.559 108.684 130.61 108.776 130.703C108.869 130.795 108.92 130.92 108.92 131.051V133.477C108.92 133.607 108.869 133.732 108.776 133.825C108.684 133.917 108.559 133.969 108.428 133.969Z" fill="#2F3A5A"/>
</g>
<g clip-path="url(#clip2_10582_1016)">
<path d="M154.97 137.345L160.142 138.611L165.314 137.345V134.809L160.142 133.543L154.97 134.809V137.345Z" fill="#F9CF58"/>
<path d="M170.875 137.345L176.047 138.611L181.219 137.345V134.809L176.047 133.543L170.875 134.809V137.345Z" fill="#FFAC3E"/>
<path d="M186.781 137.345L191.953 138.611L197.125 137.345V134.809L191.953 133.543L186.781 134.809V137.345Z" fill="#82D361"/>
<path d="M202.686 137.345L207.857 138.611L213.029 137.345V134.809L207.857 133.543L202.686 134.809V137.345Z" fill="#6CC4FF"/>
<path d="M165.314 134.808H154.97V124.575C154.97 123.797 155.601 123.166 156.379 123.166H163.905C164.683 123.166 165.314 123.797 165.314 124.575V134.808H165.314Z" fill="#FFE27A"/>
<path d="M181.219 134.809H170.875V116.886C170.875 116.107 171.506 115.477 172.285 115.477H179.81C180.588 115.477 181.219 116.107 181.219 116.886V134.809Z" fill="#FFBA57"/>
<path d="M197.125 134.808H186.781V109.194C186.781 108.416 187.412 107.785 188.19 107.785H195.716C196.494 107.785 197.125 108.416 197.125 109.194V134.808H197.125Z" fill="#98DB7C"/>
<path d="M213.029 134.809H202.686V101.505C202.686 100.727 203.316 100.096 204.095 100.096H211.62C212.399 100.096 213.029 100.727 213.029 101.505L213.029 134.809Z" fill="#8BCAFF"/>
<path d="M207.338 87.5399L206.096 75.1755C206.053 74.7453 205.636 74.4551 205.218 74.564L193.183 77.6983C192.601 77.85 192.465 78.6149 192.959 78.9584L196.103 81.1442C196.103 81.1442 188.04 96.8673 158.91 105.857V106.643C166.902 106.687 187.796 104.401 200.9 86.7919L203.089 86.0019L206.234 88.1886C206.728 88.532 207.398 88.1384 207.338 87.5399Z" fill="#FF4755"/>
<path d="M201.827 85.1112C201.514 84.8897 201.083 84.9614 200.853 85.2694C187.749 102.878 170.938 105.096 159.386 105.898C159.216 105.91 159.061 105.893 158.919 105.855L158.908 105.858C157.418 106.328 157.836 108.542 159.394 108.434C171.067 107.622 190.335 103.453 203.089 86.0026L201.827 85.1112Z" fill="#FC2B3A"/>
<path d="M218.943 139.457H149.057C148.473 139.457 148 138.984 148 138.401C148 137.817 148.473 137.344 149.057 137.344H218.943C219.527 137.344 220 137.817 220 138.401C220 138.984 219.527 139.457 218.943 139.457Z" fill="#407093"/>
</g>
</g>
<defs>
<linearGradient id="paint0_linear_10582_1016" x1="140.5" y1="0" x2="140.5" y2="158" gradientUnits="userSpaceOnUse">
<stop stop-color="#FDFDFD"/>
<stop offset="0.2077" stop-color="#F5FBFD"/>
<stop offset="0.5296" stop-color="#E6EFF3"/>
<stop offset="0.9234" stop-color="#E6EFF3"/>
<stop offset="1" stop-color="#E6EFF3"/>
</linearGradient>
<clipPath id="clip0_10582_1016">
<rect width="281" height="158" fill="white"/>
</clipPath>
<clipPath id="clip1_10582_1016">
<rect width="63" height="63" fill="white" transform="translate(85 85)"/>
</clipPath>
<clipPath id="clip2_10582_1016">
<rect width="72" height="72" fill="white" transform="translate(148 71)"/>
</clipPath>
</defs>
</svg>
