<svg width="281" height="158" viewBox="0 0 281 158" fill="none" xmlns="http://www.w3.org/2000/svg">
<g clip-path="url(#clip0_10540_1139)">
<path d="M0 158H281V0H0V158Z" fill="url(#paint0_linear_10540_1139)"/>
<path d="M235.352 60.1062C235.352 51.1113 225.582 43.8188 213.53 43.8188H208.978C211.107 42.4434 212.456 40.4131 212.456 38.1458C212.456 34.0022 207.956 30.644 202.405 30.644H187.256C188.788 29.6596 189.762 28.2044 189.762 26.577C189.762 23.6122 186.542 21.209 182.57 21.209H144.529C140.556 21.209 137.337 23.6122 137.337 26.577C137.337 29.5419 140.557 31.9451 144.529 31.9451H158.772C161.424 33.296 163.166 35.5688 163.166 38.1458C163.166 40.4123 161.817 42.4426 159.688 43.8188H136.262C124.211 43.8188 114.441 51.1105 114.441 60.1062C114.441 69.1012 124.211 76.3936 136.262 76.3936H105.229C99.6775 76.3936 95.178 79.7527 95.178 83.8955C95.178 88.0382 99.6782 91.3973 105.229 91.3973H92.5844C78.7695 91.3973 67.3007 98.8731 65.0251 108.699H60.597C51.9826 108.699 45 113.912 45 120.341V121.52C45 127.949 51.9834 133.161 60.597 133.161H92.5844H197.27H207.374C222.825 133.161 235.352 123.813 235.352 112.279C235.352 100.747 222.825 91.3973 207.374 91.3973H158.395C163.946 91.3973 168.446 88.0382 168.446 83.8955C168.446 79.7527 163.945 76.3936 158.395 76.3936H213.529C225.582 76.3936 235.352 69.1012 235.352 60.1062Z" fill="#509888" fill-opacity="0.14"/>
<path d="M116.279 28.7958C117.494 25.837 116.101 22.4449 113.167 21.2193C110.233 19.9937 106.87 21.3987 105.654 24.3575C104.439 27.3163 105.832 30.7084 108.766 31.934C111.7 33.1596 115.063 31.7545 116.279 28.7958Z" fill="#CDF1FC"/>
<path d="M140.176 139.424C192.286 139.424 234.53 136.212 234.53 132.25C234.53 128.288 192.286 125.076 140.176 125.076C88.0655 125.076 45.8218 128.288 45.8218 132.25C45.8218 136.212 88.0655 139.424 140.176 139.424Z" fill="#509888" fill-opacity="0.55"/>
<path d="M83.5237 36.9987C83.5244 36.9829 83.5276 36.9671 83.5252 36.9505C83.3795 36.0657 82.6134 33.1972 78.8331 33.4327C78.8331 33.4327 78.6646 27.6428 71.8254 30.1471C71.8254 30.1471 66.0334 23.5419 62.3549 31.1227C62.3549 31.1227 54.5615 27.8774 54.2568 36.8921C54.2552 36.9284 54.2583 36.964 54.2622 36.9987H83.5237Z" fill="#CDF1FC"/>
<path d="M77.6558 123.994V122.445H156.463C160.513 122.445 163.797 124.664 163.797 127.403V127.433C163.797 130.171 160.514 132.39 156.463 132.39H77.6558V130.841C80.1076 127.347 77.6558 123.994 77.6558 123.994Z" fill="#F97923"/>
<path d="M139.223 122.445H133.528C135.877 123.376 137.484 125.244 137.484 127.4V127.435C137.484 129.592 135.877 131.459 133.528 132.39H139.223C143.273 132.39 146.557 130.171 146.557 127.433V127.402C146.557 124.664 143.273 122.445 139.223 122.445Z" fill="#E86A13"/>
<path d="M159.259 127.435V127.4C159.259 125.243 157.653 123.376 155.303 122.445H151.674C154.024 123.376 155.63 125.244 155.63 127.4V127.435C155.63 129.592 154.024 131.459 151.674 132.39H155.303C157.653 131.458 159.259 129.591 159.259 127.435Z" fill="#E86A13"/>
<path d="M77.6558 122.445H116.302C119.54 122.445 122.165 124.22 122.165 126.409V128.426C122.165 130.615 119.54 132.39 116.302 132.39H77.6558V130.841C80.1076 127.347 77.6558 123.994 77.6558 123.994V122.445Z" fill="#E46B17"/>
<path d="M115.889 123.994C118.119 123.994 119.927 125.216 119.927 126.724V128.113C119.927 129.621 118.119 130.843 115.889 130.843H77.6558C79.8013 127.419 77.6558 123.995 77.6558 123.995H115.889V123.994Z" fill="#EDF0EF"/>
<path opacity="0.83" d="M77.6558 123.994H115.889C118.119 123.994 119.927 125.216 119.927 126.724V127.418H78.6083C78.5652 125.454 77.6558 123.994 77.6558 123.994Z" fill="#DEE1DE"/>
<path d="M114.649 126.408C114.649 126.408 114.261 126.736 114.212 127.491C114.164 128.246 113.629 129.132 113.629 129.132L112.367 128.279L111.008 129.132C111.008 129.132 111.445 128.082 111.445 127.524C111.445 126.967 112.125 126.409 112.125 126.409H114.649V126.408Z" fill="#022FA0"/>
<path d="M76.856 98.2722V95.6367H142.954C146.35 95.6367 149.104 99.4137 149.104 104.073V104.125C149.104 108.785 146.351 112.562 142.954 112.562H76.856V109.927C78.913 103.981 76.856 98.2722 76.856 98.2722Z" fill="#E85569"/>
<path opacity="0.46" d="M128.494 95.6367H123.716C125.686 97.2215 127.034 100.4 127.034 104.07V104.128C127.034 107.799 125.686 110.977 123.716 112.562H128.494C131.89 112.562 134.645 108.785 134.645 104.125V104.073C134.645 99.4137 131.891 95.6367 128.494 95.6367Z" fill="#C94F63"/>
<path d="M76.856 95.6387H109.27C111.985 95.6387 114.187 98.6588 114.187 102.384V105.819C114.187 109.544 111.985 112.564 109.27 112.564H76.856V109.929C78.9122 103.983 76.856 98.2741 76.856 98.2741V95.6387Z" fill="#BC3C5B"/>
<path d="M108.923 98.2715C110.794 98.2715 112.31 100.351 112.31 102.917V105.281C112.31 107.846 110.793 109.926 108.923 109.926H76.856C78.6553 104.099 76.856 98.2715 76.856 98.2715H108.923Z" fill="#EDF0EF"/>
<path opacity="0.83" d="M76.856 98.2715H108.923C110.794 98.2715 112.31 100.351 112.31 102.917V104.099H77.655C77.6189 100.758 76.856 98.2715 76.856 98.2715Z" fill="#DEE1DE"/>
<path d="M168.746 114.111V112.562H89.9383C85.8885 112.562 84.4644 115.036 84.4644 117.774V117.904C84.4644 120.641 85.8885 122.508 89.9383 122.508H168.746V120.959C166.294 117.464 168.746 114.111 168.746 114.111Z" fill="#0071BC"/>
<path d="M107.178 112.562H112.873C110.524 113.493 108.918 115.361 108.918 117.517V117.552C108.918 119.709 110.524 121.576 112.873 122.507H107.178C103.128 122.507 99.8442 120.288 99.8442 117.55V117.519C99.8442 114.782 103.127 112.562 107.178 112.562Z" fill="#04659B"/>
<path d="M168.745 112.562H130.1C126.861 112.562 124.236 114.337 124.236 116.526V118.544C124.236 120.733 126.861 122.507 130.1 122.507H168.745V120.959C166.293 117.464 168.745 114.111 168.745 114.111V112.562Z" fill="#026399"/>
<path d="M130.513 114.111C128.283 114.111 126.475 115.333 126.475 116.841V118.23C126.475 119.738 128.283 120.96 130.513 120.96H168.746C166.6 117.536 168.746 114.112 168.746 114.112H130.513V114.111Z" fill="#EDF0EF"/>
<path opacity="0.83" d="M168.746 114.111H130.513C128.283 114.111 126.475 115.333 126.475 116.841V117.535H167.793C167.836 115.571 168.746 114.111 168.746 114.111Z" fill="#DEE1DE"/>
<path d="M131.752 116.525C131.752 116.525 132.14 116.853 132.189 117.608C132.238 118.363 132.772 119.249 132.772 119.249L134.034 118.396L135.393 119.249C135.393 119.249 134.956 118.199 134.956 117.642C134.956 117.084 134.276 116.526 134.276 116.526H131.752V116.525Z" fill="#A01E3A"/>
<path d="M152.156 84.6903V82.6719H78.4337C74.6447 82.6719 71.5732 85.5648 71.5732 89.1341V89.1744C71.5732 92.7436 74.6447 95.6366 78.4337 95.6366H152.156V93.6181C149.863 89.063 152.156 84.6903 152.156 84.6903Z" fill="#F5C256"/>
<path opacity="0.72" d="M94.5611 82.6719H99.8894C97.6921 83.8853 96.1889 86.3201 96.1889 89.1317V89.1767C96.1889 91.9883 97.6921 94.4231 99.8894 95.6366H94.5611C90.7721 95.6366 87.7007 92.7436 87.7007 89.1744V89.1341C87.7007 85.5648 90.7721 82.6719 94.5611 82.6719Z" fill="#EA9D03"/>
<path d="M152.156 82.6719H116.004C112.975 82.6719 110.519 84.985 110.519 87.8393V90.47C110.519 93.3234 112.975 95.6374 116.004 95.6374H152.156V93.6189C149.863 89.0638 152.156 84.6911 152.156 84.6911V82.6719Z" fill="#EA9D03"/>
<path d="M116.39 84.6895C114.304 84.6895 112.613 86.2821 112.613 88.2476V90.0591C112.613 92.0246 114.304 93.6172 116.39 93.6172H152.156C150.149 89.153 152.156 84.6895 152.156 84.6895H116.39Z" fill="#EDF0EF"/>
<path opacity="0.83" d="M152.156 84.6895H116.39C114.304 84.6895 112.613 86.2821 112.613 88.2476V89.153H151.266C151.306 86.5934 152.156 84.6895 152.156 84.6895Z" fill="#DEE1DE"/>
<path d="M117.549 87.8398C117.549 87.8398 117.913 88.268 117.958 89.2516C118.004 90.2359 118.503 91.3909 118.503 91.3909L119.684 90.2786L120.955 91.3909C120.955 91.3909 120.546 90.0218 120.546 89.2942C120.546 88.5666 119.91 87.8398 119.91 87.8398H117.549Z" fill="#A01E3A"/>
<path d="M148.668 73.5107V71.8066H86.4228C83.2237 71.8066 80.6309 74.2493 80.6309 77.2632V77.2971C80.6309 80.3102 83.2237 82.7537 86.4228 82.7537H148.667V81.0496C146.731 77.2023 148.668 73.5107 148.668 73.5107Z" fill="#15AA55"/>
<path opacity="0.79" d="M100.04 71.8047H104.538C102.683 72.8293 101.414 74.8849 101.414 77.2588V77.2968C101.414 79.6707 102.683 81.7263 104.538 82.7509H100.04C96.8404 82.7509 94.2476 80.3082 94.2476 77.2944V77.2604C94.2476 74.2482 96.8404 71.8047 100.04 71.8047Z" fill="#0F9344"/>
<path d="M148.668 71.8047H118.144C115.586 71.8047 113.513 73.7576 113.513 76.1671V78.3878C113.513 80.7973 115.586 82.7501 118.144 82.7501H148.668V81.0461C146.732 77.2004 148.668 73.5087 148.668 73.5087V71.8047Z" fill="#009844"/>
<path d="M118.47 73.5098C116.708 73.5098 115.281 74.8551 115.281 76.5141V78.0436C115.281 79.7026 116.709 81.0479 118.47 81.0479H148.667C146.973 77.2789 148.667 73.5106 148.667 73.5106H118.47V73.5098Z" fill="#EDF0EF"/>
<path opacity="0.83" d="M148.668 73.5098H118.471C116.709 73.5098 115.282 74.8551 115.282 76.5141V77.2789H147.916C147.95 75.1166 148.668 73.5098 148.668 73.5098Z" fill="#DEE1DE"/>
<path d="M119.449 76.1688C119.449 76.1688 119.756 76.5298 119.794 77.3609C119.833 78.192 120.254 79.1668 120.254 79.1668L121.251 78.2275L122.325 79.1668C122.325 79.1668 121.98 78.011 121.98 77.3964C121.98 76.7826 121.443 76.168 121.443 76.168H119.449V76.1688Z" fill="#022FA0"/>
<path d="M179.56 101.637L181.113 101.661C183.187 101.693 184.895 100.018 184.925 97.9203C184.938 97.0355 184.239 96.3072 183.363 96.2937L177.469 96.2052C176.593 96.1926 175.872 96.8989 175.859 97.7837C175.828 99.8803 177.485 101.606 179.56 101.637Z" fill="#161111"/>
<path d="M173.012 93.3323L187.904 93.5567C189.186 93.5756 190.21 94.6397 190.191 95.9338C190.172 97.227 189.117 98.2603 187.834 98.2413L172.942 98.017C171.66 97.998 170.636 96.9339 170.655 95.6407C170.674 94.3459 171.729 93.3133 173.012 93.3323Z" fill="#B5B5B5"/>
<path d="M172.919 92.9905L188.006 93.2172C189.235 93.2354 190.216 94.2553 190.198 95.4948L190.195 95.6915C190.176 96.9302 189.165 97.9201 187.937 97.9011L172.85 97.6744C171.622 97.6562 170.64 96.6363 170.659 95.3976L170.662 95.2009C170.679 93.9614 171.691 92.9723 172.919 92.9905Z" fill="#CDCDCB"/>
<path d="M170.657 95.4387L170.661 95.1606C170.679 93.944 171.67 92.9723 172.874 92.9905L178.737 93.079C178.839 93.2551 178.954 93.4368 179.085 93.6233C179.085 93.6233 177.422 95.1898 178.394 97.7589L172.805 97.6752C171.601 97.657 170.64 96.6553 170.657 95.4387Z" fill="#B5B5B5"/>
<path d="M158.878 60.6552C159.069 47.7087 169.003 37.3597 181.064 37.5414C193.125 37.7231 202.747 48.366 202.555 61.3125C202.443 68.8483 199.031 75.5017 193.82 79.7124C192.02 81.166 190.942 83.4278 190.906 85.8436L190.852 89.491L170.007 89.1774L170.058 85.7488C170.094 83.3006 169.055 80.9827 167.26 79.477C162.063 75.117 158.765 68.2866 158.878 60.6552Z" fill="#FFA500"/>
<g opacity="0.85">
<path d="M182.903 76.9853L178.339 76.9711L178.156 89.2982L177.293 89.2848L177.476 76.9679L173.404 76.9545L173.293 76.8739C173.212 76.817 171.313 75.4377 171.302 73.6436C171.297 72.6924 171.808 71.8313 172.824 71.0848C173.883 70.3066 174.909 70.0483 175.87 70.3216C177.533 70.7917 178.333 72.6814 178.366 72.7611L178.352 76.0965L182.911 76.1115L182.945 72.096L183.034 71.9798C183.091 71.9056 184.449 70.1676 186.204 70.1936C186.204 70.1936 186.206 70.1936 186.207 70.1936C187.176 70.2094 188.048 70.7474 188.801 71.7942C189.634 72.9515 189.906 74.0204 189.613 74.97C189.172 76.3912 187.621 76.9513 187.556 76.9742L183.767 76.9861L183.661 89.3764L182.798 89.3685L182.903 76.9853ZM177.534 73.0218C177.383 72.7003 176.739 71.4735 175.637 71.1622C174.943 70.9647 174.167 71.178 173.331 71.7918C172.554 72.3622 172.162 72.9831 172.166 73.6357C172.171 74.7796 173.331 75.7955 173.689 76.0831L177.49 76.095L177.534 73.0218ZM188.79 74.7061C188.996 74.0354 188.765 73.2288 188.103 72.3085C187.519 71.4979 186.877 71.08 186.197 71.0682C186.195 71.0682 186.193 71.0682 186.192 71.0682C185.083 71.0516 184.101 72.0715 183.806 72.4096L183.775 76.1155L187.333 76.1273C187.585 76.0207 188.524 75.5743 188.79 74.7061Z" fill="#923509"/>
</g>
<path d="M158.892 60.1138C158.894 60.064 158.896 60.0151 158.898 59.9645C158.904 59.8191 158.911 59.6738 158.92 59.5292C158.922 59.4921 158.925 59.455 158.926 59.4178C158.937 59.2417 158.95 59.0655 158.965 58.8901C158.969 58.8482 158.973 58.8064 158.977 58.7645C158.99 58.6247 159.003 58.4848 159.018 58.3458C159.023 58.2976 159.028 58.2494 159.033 58.2012C159.053 58.0274 159.073 57.8536 159.097 57.6814C159.099 57.6624 159.102 57.6443 159.105 57.6253C159.126 57.4697 159.149 57.3148 159.172 57.16C159.18 57.1094 159.188 57.0581 159.196 57.0075C159.219 56.8677 159.243 56.7279 159.267 56.5888C159.273 56.5541 159.279 56.5193 159.285 56.4846C159.315 56.3179 159.348 56.1512 159.382 55.9853C159.392 55.9371 159.402 55.8897 159.413 55.8415C159.439 55.7151 159.467 55.5887 159.495 55.4623C159.507 55.4125 159.518 55.3628 159.529 55.313C159.566 55.151 159.605 54.9891 159.646 54.8287C159.655 54.7924 159.665 54.756 159.674 54.7197C159.708 54.5901 159.742 54.4606 159.778 54.3318C159.793 54.2765 159.809 54.222 159.825 54.1667C159.861 54.0387 159.898 53.9107 159.937 53.7835C159.948 53.7472 159.959 53.7101 159.97 53.6745C160.017 53.5205 160.066 53.368 160.116 53.2155C160.135 53.1586 160.154 53.1033 160.172 53.0473C160.208 52.939 160.246 52.8308 160.284 52.7234C160.302 52.6681 160.322 52.6128 160.342 52.5582C160.394 52.4113 160.449 52.2652 160.505 52.1198C160.525 52.0669 160.545 52.0155 160.566 51.9634C160.606 51.8607 160.646 51.758 160.688 51.6553C160.713 51.5937 160.738 51.5313 160.764 51.4696C160.809 51.3614 160.854 51.2548 160.901 51.1473C160.931 51.077 160.962 51.0075 160.993 50.938C161.042 50.8258 161.092 50.7152 161.144 50.6038C161.174 50.5382 161.205 50.4734 161.235 50.4079C161.276 50.3218 161.317 50.2364 161.359 50.1511C161.39 50.0879 161.42 50.0239 161.452 49.9607C161.517 49.832 161.582 49.7032 161.649 49.576C161.683 49.5088 161.72 49.4433 161.755 49.3761C161.796 49.3003 161.835 49.2252 161.877 49.1502C161.915 49.0791 161.955 49.0096 161.994 48.9393C162.038 48.861 162.082 48.7828 162.127 48.7054C162.19 48.5948 162.255 48.4842 162.32 48.3752C162.361 48.3065 162.403 48.2377 162.444 48.1698C162.49 48.0955 162.535 48.0213 162.581 47.9478C162.619 47.8878 162.657 47.8269 162.696 47.7669C162.775 47.6421 162.857 47.5173 162.939 47.394C162.978 47.3348 163.017 47.2763 163.057 47.2179C163.11 47.1396 163.163 47.063 163.216 46.9864C163.252 46.9358 163.287 46.8853 163.322 46.8355C163.378 46.7573 163.433 46.6791 163.489 46.6017C163.517 46.5629 163.545 46.525 163.574 46.4863C163.683 46.3386 163.793 46.1924 163.905 46.0479C163.935 46.0099 163.965 45.9704 163.994 45.9325C164.057 45.8519 164.12 45.7729 164.185 45.6932C164.213 45.6584 164.241 45.6236 164.269 45.5889C164.412 45.4143 164.557 45.2405 164.703 45.0706C164.705 45.0683 164.706 45.0667 164.708 45.0651C164.779 44.9822 164.852 44.9 164.925 44.8178C164.95 44.7894 164.976 44.7602 165.002 44.7317C165.235 44.4718 165.474 44.2174 165.718 43.9686C165.736 43.9504 165.754 43.9322 165.772 43.9133C165.854 43.8311 165.936 43.749 166.018 43.6684C166.03 43.6573 166.041 43.6463 166.052 43.6352C166.313 43.3808 166.579 43.1336 166.852 42.8926C166.867 42.88 166.881 42.8665 166.896 42.8539C167.17 42.6122 167.45 42.3775 167.736 42.1508C167.744 42.1437 167.753 42.1366 167.762 42.1295C168.156 41.8166 168.56 41.5172 168.975 41.2328C168.979 41.2296 168.984 41.2265 168.989 41.2233C169.297 41.0108 169.612 40.807 169.932 40.6103C169.937 40.6079 169.941 40.6048 169.946 40.6024C170.378 40.3385 170.818 40.0897 171.267 39.8574C166.057 46.1569 159.227 60.1588 165.404 72.8383C173.614 89.6906 187.397 84.7381 191.55 82.7513C191.146 83.7103 190.921 84.7587 190.906 85.8378L190.852 89.4852L170.007 89.1716L170.058 85.743C170.064 85.3606 170.043 84.9814 169.997 84.6078C169.961 84.3091 169.908 84.0137 169.84 83.7238C169.823 83.6511 169.805 83.5792 169.786 83.5073C169.749 83.3635 169.707 83.2213 169.662 83.0799C169.594 82.869 169.518 82.6604 169.433 82.4566C169.179 81.8443 168.853 81.2676 168.459 80.7423C168.372 80.6254 168.282 80.5116 168.188 80.3994C168.094 80.2873 167.996 80.179 167.897 80.0724C167.847 80.0194 167.796 79.9673 167.745 79.9152C167.59 79.7603 167.428 79.6118 167.26 79.4712C166.611 78.9261 165.99 78.3431 165.404 77.7237C165.33 77.6463 165.257 77.5689 165.185 77.4899C165.04 77.3327 164.898 77.1739 164.757 77.0127C164.617 76.8515 164.478 76.688 164.341 76.5229C164.137 76.2748 163.937 76.022 163.743 75.7645C163.549 75.507 163.358 75.2455 163.174 74.9792C163.051 74.8015 162.931 74.623 162.811 74.4413C162.22 73.5351 161.687 72.5816 161.217 71.5878C161.076 71.2892 160.942 70.9874 160.812 70.6824C160.725 70.4786 160.642 70.274 160.562 70.067C160.481 69.8608 160.404 69.6523 160.328 69.4429C160.14 68.9192 159.969 68.3859 159.815 67.8447C159.171 65.5719 158.841 63.1545 158.878 60.6502C158.881 60.4733 158.886 60.2931 158.892 60.1138Z" fill="#EB860D"/>
<path d="M170.574 93.7678L190.326 94.0648C191.578 94.0838 192.608 93.0734 192.627 91.8078C192.646 90.543 191.646 89.5018 190.393 89.4829L170.642 89.1858C169.39 89.1668 168.36 90.1773 168.341 91.4421C168.323 92.7084 169.323 93.7488 170.574 93.7678Z" fill="#B5B5B5"/>
<path d="M170.583 93.4955L190.326 93.7926C191.58 93.8115 192.613 92.8011 192.631 91.5355C192.65 90.2707 191.648 89.2303 190.394 89.2114L170.651 88.9143C169.397 88.8954 168.365 89.905 168.346 91.1698V91.1706C168.327 92.4361 169.329 93.4766 170.583 93.4955Z" fill="#C6C6C6"/>
<path opacity="0.65" d="M180.887 59.3949C184.19 64.1191 190.074 65.6596 194.028 62.8354C197.982 60.0111 198.509 53.8926 195.205 49.1684C191.901 44.4442 186.018 42.9037 182.064 45.7279C178.11 48.5514 177.583 54.6707 180.887 59.3949Z" fill="#FDCE14"/>
<path d="M187.832 49.3133C188.541 50.3269 189.649 50.7669 190.307 50.2976C190.965 49.8276 190.924 48.6252 190.215 47.6116C189.506 46.5981 188.398 46.158 187.74 46.6273C187.082 47.0974 187.123 48.2997 187.832 49.3133Z" fill="#FFFBD6"/>
<path d="M192.884 52.8987C193.066 53.1586 193.366 53.2597 193.556 53.1246C193.746 52.9895 193.752 52.6688 193.569 52.4089C193.388 52.149 193.087 52.0479 192.897 52.1829C192.708 52.318 192.701 52.6388 192.884 52.8987Z" fill="#FFFBD6"/>
<path d="M170.646 88.9143L178.762 89.036C178.138 89.8015 177.476 91.3301 179.085 93.6227L170.579 93.4947C169.327 93.4758 168.328 92.4353 168.346 91.1698C168.364 89.9058 169.395 88.8954 170.646 88.9143Z" fill="#B5B5B5"/>
<path d="M180.049 23.5841L179.914 32.6484L182.349 32.6853L182.484 23.6209L180.049 23.5841Z" fill="#FFA500"/>
<path d="M144.363 68.6675L144.326 71.1289L153.296 71.2646L153.333 68.8032L144.363 68.6675Z" fill="#FFA500"/>
<path d="M149.195 35.9629L147.447 37.6772L153.694 44.182L155.443 42.4677L149.195 35.9629Z" fill="#FFA500"/>
<path d="M205.72 69.7804L205.651 72.2402L214.617 72.4981L214.687 70.0382L205.72 69.7804Z" fill="#FFA500"/>
<path d="M214.722 37.2285L216.395 39.0179L209.874 45.2431L208.201 43.4537L214.722 37.2285Z" fill="#FFA500"/>
<path d="M77.564 57.282L96.9068 63.1612H130.206L149.461 58.7964L113.513 48.998L77.564 57.282Z" fill="#1D1D1B"/>
<path d="M130.206 71.4309C125.995 72.5851 120.156 73.7164 113.16 73.6721C106.536 73.6303 100.986 72.5488 96.9077 71.4309C96.9077 67.3671 96.9077 63.3034 96.9077 59.2396C99.8867 57.7473 105.831 55.2675 113.69 55.2952C121.402 55.3228 127.238 57.7521 130.206 59.2396C130.206 63.3034 130.206 67.3671 130.206 71.4309Z" fill="#070707"/>
<path d="M130.206 71.9794C125.995 73.1265 120.156 74.2499 113.16 74.2064C106.536 74.1645 100.986 73.0901 96.9077 71.9794C96.9077 67.9409 96.9077 63.9032 96.9077 59.8647C99.8867 58.3819 105.831 55.9171 113.69 55.9456C121.402 55.9732 127.238 58.3874 130.206 59.8647C130.206 63.9032 130.206 67.9409 130.206 71.9794Z" fill="#262625"/>
<path d="M97.8891 52.421C96.5348 51.9139 95.0966 51.5505 93.6505 51.3332C92.2045 51.1239 90.7232 51.0591 89.3069 51.2858C88.6004 51.3972 87.9126 51.5765 87.2679 51.8333C86.6279 52.0995 86.0389 52.4455 85.5164 52.8571C84.9829 53.26 84.5607 53.7664 84.1761 54.2854C83.9999 54.5564 83.8134 54.8211 83.6755 55.1126C83.6035 55.2563 83.5189 55.3938 83.4562 55.5423L83.2714 55.9871C83.1366 56.2747 83.0567 56.6041 82.9486 56.9122L82.6463 57.8499L82.4144 58.8019C82.3353 59.1187 82.2554 59.4347 82.2115 59.757L82.0509 60.7176C82.0039 61.0384 81.9859 61.3615 81.9514 61.683L81.906 62.1657C81.8935 62.3268 81.8958 62.488 81.8903 62.6492C81.8849 62.9715 81.8684 63.2938 81.8708 63.6153C81.8911 64.903 82.04 66.1852 82.3149 67.4381C82.3768 67.7526 82.4606 68.063 82.5476 68.3711C82.6251 68.6824 82.734 68.9842 82.8303 69.2891C82.9384 69.5893 83.0434 69.8927 83.1711 70.1818C83.2322 70.328 83.2941 70.4741 83.3622 70.6132C83.3959 70.6827 83.4272 70.7561 83.4625 70.8209C83.4962 70.8857 83.5338 70.9608 83.558 71.0034C83.8291 71.4616 83.6333 72.0296 83.1202 72.2714C82.6071 72.5139 81.971 72.3385 81.7 71.8803C81.6898 71.8629 81.6804 71.8456 81.6718 71.8282L81.6647 71.8147C81.6107 71.7065 81.5778 71.6275 81.5378 71.539C81.4971 71.4513 81.4666 71.3684 81.4321 71.2831C81.3616 71.1132 81.3005 70.945 81.241 70.7767C81.1156 70.4401 81.0193 70.102 80.919 69.7631C80.8313 69.4234 80.7326 69.0853 80.6676 68.7432C80.5924 68.4019 80.5219 68.0615 80.4741 67.7178C80.2555 66.3472 80.178 64.9654 80.2367 63.5916C80.254 63.2488 80.2908 62.9059 80.3166 62.5638C80.3331 62.3932 80.3409 62.2218 80.3644 62.0511L80.442 61.5416C80.4976 61.2027 80.5375 60.8614 80.6072 60.5256L80.8352 59.52C80.9018 59.1834 81.0044 58.854 81.107 58.5254L81.4086 57.5394L81.7815 56.5741C81.9138 56.2525 82.0118 55.9326 82.1794 55.6103L82.4105 55.1292C82.4888 54.9696 82.5906 54.8171 82.6799 54.6615C82.8515 54.3463 83.0763 54.0548 83.2917 53.7601C83.7562 53.1913 84.2685 52.6414 84.8999 52.2069C85.5195 51.7645 86.2081 51.4035 86.9358 51.1389C87.6682 50.8837 88.4312 50.721 89.1973 50.6348C90.7334 50.4587 92.2703 50.5977 93.7461 50.8766C95.225 51.1665 96.6538 51.5939 98.0192 52.1753C98.0952 52.2077 98.1265 52.2883 98.0905 52.3563C98.0552 52.4218 97.969 52.4503 97.8946 52.4226L97.8891 52.421Z" fill="#FBBA13"/>
<path d="M84.098 72.8031C84.0369 71.8093 83.7494 71.2428 83.281 71.0983C83.5465 70.7609 83.635 70.3201 83.4745 69.8998C83.2073 69.2031 82.359 68.8318 81.5788 69.0703C80.7986 69.3089 80.3826 70.0665 80.6498 70.7633C80.7931 71.1378 81.1057 71.4174 81.4848 71.5596C81.4848 71.5596 81.2138 72.3196 81.8318 72.9153C82.4506 73.5109 82.0504 75.6084 82.558 75.7443C83.0656 75.8801 85.3772 75.29 85.5182 74.7236C85.6584 74.1571 84.1661 73.9154 84.098 72.8031Z" fill="#FBBA13"/>
<path opacity="0.1" d="M100.669 72.8807C101.676 73.09 102.738 73.2852 103.857 73.459V57.2363C102.695 57.55 101.628 57.8944 100.669 58.2467V72.8807Z" fill="white"/>
<path opacity="0.1" d="M104.436 73.5463C104.665 73.5794 104.892 73.6134 105.125 73.6442V56.9199C104.894 56.9736 104.661 57.0274 104.436 57.0835V73.5463Z" fill="white"/>
<path d="M75.0806 125.787C75.0806 125.787 75.4064 123.91 75.0915 122.718C74.7758 121.526 76.6386 120.694 75.3242 119.267C75.3242 119.267 75.3359 120.244 74.262 119.901C74.262 119.901 75.0343 117.612 72.8966 116.627C72.8966 116.627 73.7042 119.118 72.588 118.871C71.4717 118.623 72.7133 116.955 71.3707 116.207C70.0281 115.459 68.6282 116.069 69.6693 117.879C70.7103 119.689 70.5263 120.089 68.7403 119.323C68.7403 119.323 68.4481 120.727 69.5479 121.743C70.6485 122.759 73.7967 125.881 75.0806 125.787Z" fill="#82B146"/>
<path d="M74.6363 126.243C74.6363 126.243 74.7804 123.276 75.7165 121.733C76.6526 120.19 75.6163 118.877 74.9833 118.473C74.3496 118.07 76.1004 113.528 74.9927 113.436C73.8851 113.343 72.0779 113.236 72.8229 116.234C73.5678 119.232 74.1021 118.882 73.7707 121.79C73.4386 124.697 73.6321 126.027 74.6363 126.243Z" fill="#7E9E3E"/>
<path d="M73.8789 126.054C73.8789 126.054 75.8506 123.928 76.5657 120.369C77.2809 116.81 80.0571 119.186 79.1178 121.169C78.1794 123.151 77.1517 126.124 73.8789 126.054Z" fill="#82B146"/>
<path d="M70.2175 127.093H79.1287C79.2094 127.093 79.2744 127.027 79.2744 126.946V124.948C79.2744 124.866 79.2094 124.801 79.1287 124.801H70.2175C70.1368 124.801 70.0718 124.866 70.0718 124.948V126.946C70.0718 127.026 70.1368 127.093 70.2175 127.093Z" fill="#D0D1E9"/>
<path d="M77.117 132.575L78.3476 127.092H70.9976L72.3817 132.575H77.117Z" fill="#D0D1E9"/>
<path d="M72.9426 132.216C73.6249 132.351 77.0175 132.599 77.0175 132.599H72.3817L70.9976 127.115H76.7637C76.7637 127.115 71.5772 127.43 71.7331 127.857C71.8898 128.284 72.2603 132.081 72.9426 132.216Z" fill="#A7A7D3"/>
<path d="M171.384 123.989L170.895 125.99L179.529 128.137L180.019 126.136L171.384 123.989Z" fill="#788587"/>
<path d="M160.393 130.49C164.779 131.581 169.211 128.88 170.293 124.456C171.374 120.033 168.695 115.563 164.31 114.472C159.924 113.381 155.492 116.083 154.41 120.506C153.328 124.93 156.007 129.399 160.393 130.49Z" fill="#83C8D3"/>
<path d="M160 132.097C165.266 133.407 170.587 130.163 171.886 124.852C173.185 119.541 169.968 114.174 164.702 112.865C159.436 111.555 154.114 114.799 152.816 120.11C151.518 125.42 154.733 130.787 160 132.097ZM160.393 130.49C156.007 129.399 153.329 124.929 154.41 120.506C155.491 116.082 159.924 113.381 164.309 114.472C168.695 115.563 171.374 120.032 170.293 124.456C169.211 128.879 164.779 131.581 160.393 130.49Z" fill="#2C2E3A"/>
<path d="M176.157 126.884L176.455 125.665C176.649 124.869 177.585 124.417 178.543 124.656L192.891 128.224C193.849 128.463 194.469 129.301 194.274 130.096L193.975 131.316C193.781 132.112 192.846 132.564 191.888 132.326L177.539 128.757C176.581 128.518 175.962 127.68 176.157 126.884Z" fill="#2C2E3A"/>
<path d="M157.866 125.476C159.042 126.269 160.631 125.95 161.416 124.764C162.202 123.579 161.886 121.975 160.71 121.183C159.534 120.391 157.945 120.71 157.16 121.896C156.375 123.081 156.691 124.684 157.866 125.476Z" fill="white"/>
<path d="M161.399 128.641C161.817 128.922 162.381 128.809 162.661 128.388C162.94 127.967 162.828 127.398 162.41 127.116C161.993 126.834 161.428 126.947 161.149 127.368C160.869 127.789 160.981 128.36 161.399 128.641Z" fill="white"/>
</g>
<defs>
<linearGradient id="paint0_linear_10540_1139" x1="140.5" y1="0" x2="140.5" y2="158" gradientUnits="userSpaceOnUse">
<stop stop-color="#FDFDFD"/>
<stop offset="0.2077" stop-color="#F5FBFD"/>
<stop offset="0.5296" stop-color="#E6EFF3"/>
<stop offset="0.9234" stop-color="#E6EFF3"/>
<stop offset="1" stop-color="#E6EFF3"/>
</linearGradient>
<clipPath id="clip0_10540_1139">
<rect width="281" height="158" fill="white"/>
</clipPath>
</defs>
</svg>
