<svg width="281" height="158" viewBox="0 0 281 158" fill="none" xmlns="http://www.w3.org/2000/svg">
<g clip-path="url(#clip0_10583_1218)">
<path d="M0 158H281V0H0V158Z" fill="url(#paint0_linear_10583_1218)"/>
<path d="M140.354 145.348C192.464 145.348 234.708 142.136 234.708 138.174C234.708 134.212 192.464 131 140.354 131C88.2438 131 46 134.212 46 138.174C46 142.136 88.2438 145.348 140.354 145.348Z" fill="#509888" fill-opacity="0.47"/>
<path d="M184.717 58.4469C168.876 47.5211 136.588 40.712 119.317 25.22C102.046 9.72802 70.4413 30.6007 66.6649 63.0612C62.8845 95.5217 75.4349 125.254 98.9731 135H181.266C205.435 111.295 200.558 69.3727 184.717 58.4469Z" fill="#D1E2E4"/>
<path d="M100.187 86.0587C108.87 86.0587 115.909 79.0198 115.909 70.337C115.909 61.6541 108.87 54.6152 100.187 54.6152C91.5042 54.6152 84.4653 61.6541 84.4653 70.337C84.4653 79.0198 91.5042 86.0587 100.187 86.0587Z" fill="#BE7E53"/>
<path d="M175.89 87.2673C183.257 87.2673 189.229 81.2949 189.229 73.9276C189.229 66.5603 183.257 60.5879 175.89 60.5879C168.522 60.5879 162.55 66.5603 162.55 73.9276C162.55 81.2949 168.522 87.2673 175.89 87.2673Z" fill="#BE7E53"/>
<path fill-rule="evenodd" clip-rule="evenodd" d="M94.3005 131.39V101.757C94.306 99.8548 95.0643 98.0317 96.4096 96.6863C97.7549 95.341 99.578 94.5827 101.481 94.5771H114.046V88.5703H83.18C79.141 88.5821 75.2709 90.1919 72.415 93.0479C69.5591 95.904 67.9496 99.7742 67.938 103.813V123.302C67.9443 125.445 68.7986 127.499 70.3142 129.015C71.8298 130.53 73.8835 131.385 76.0268 131.391L94.3005 131.39Z" fill="#32569D"/>
<path fill-rule="evenodd" clip-rule="evenodd" d="M82.4692 125.813H86.4341V113.775C86.4341 113.25 86.2252 112.745 85.8534 112.374C85.4817 112.002 84.9774 111.793 84.4517 111.793C83.9259 111.793 83.4217 112.002 83.0499 112.374C82.6781 112.745 82.4692 113.25 82.4692 113.775V125.813Z" fill="#60B7FF"/>
<path fill-rule="evenodd" clip-rule="evenodd" d="M164.505 96.1804V130.287C164.505 131.889 163.966 133.446 162.974 134.704H197.38C199.523 134.698 201.577 133.844 203.092 132.329C204.608 130.813 205.462 128.76 205.469 126.617V107.129C205.457 103.09 203.848 99.22 200.992 96.3641C198.136 93.5083 194.266 91.8986 190.227 91.8867H163.07C164.002 93.1242 164.506 94.6313 164.505 96.1804Z" fill="#32569D"/>
<path fill-rule="evenodd" clip-rule="evenodd" d="M188.566 134.706H192.531V124.324C192.531 123.798 192.322 123.294 191.951 122.922C191.579 122.551 191.075 122.342 190.549 122.342C190.023 122.342 189.519 122.551 189.147 122.922C188.775 123.294 188.566 123.798 188.566 124.324V134.706Z" fill="#60B7FF"/>
<g clip-path="url(#clip1_10583_1218)">
<path fill-rule="evenodd" clip-rule="evenodd" d="M112.27 89.899C112.71 89.899 113.076 89.5587 113.108 89.1217H116.293C116.371 90.1821 117.971 90.1284 117.971 89.0587V84.5132C117.971 83.5969 118.718 82.8444 119.634 82.8444H139.438C140.354 82.8444 141.107 83.5914 141.107 84.5132V89.0587C141.107 90.0847 142.548 90.1599 142.761 89.286H145.988C146.201 90.1603 147.642 90.0851 147.642 89.0591V81.1933C147.642 78.3397 145.32 76.0117 142.461 76.0117H116.611C113.757 76.0117 111.429 78.3342 111.429 81.1933V89.0591C111.429 89.5259 111.808 89.8994 112.269 89.8994L112.27 89.899Z" fill="#66291A"/>
<path fill-rule="evenodd" clip-rule="evenodd" d="M141.091 84.2852L141.107 85.9657H147.643V84.2852H141.091Z" fill="#FBB701"/>
<path fill-rule="evenodd" clip-rule="evenodd" d="M117.97 85.9657L117.986 84.2852H111.429V85.9657H117.97Z" fill="#FBB701"/>
<path fill-rule="evenodd" clip-rule="evenodd" d="M97.5707 136.517H161.501C163.643 136.517 165.388 134.772 165.388 132.631V92.105C165.388 89.9636 163.643 88.2188 161.501 88.2188H97.5648C95.4234 88.2188 93.6785 89.9636 93.6785 92.105V132.637C93.6844 134.778 95.4292 136.517 97.5707 136.517Z" fill="#F97923"/>
<path fill-rule="evenodd" clip-rule="evenodd" d="M93.6785 95.8047V97.7491L119.61 112.721C119.979 112.938 123.989 112.826 124.71 112.826C125.815 112.826 125.815 111.145 124.71 111.145H120.252L93.6785 95.8047Z" fill="#66291A"/>
<path fill-rule="evenodd" clip-rule="evenodd" d="M165.388 97.9014V95.957L139.088 111.139H134.368C133.257 111.139 133.269 112.826 134.362 112.826C135.14 112.826 139.319 112.946 139.73 112.715L165.388 97.9014Z" fill="#66291A"/>
<path fill-rule="evenodd" clip-rule="evenodd" d="M97.5707 136.516H161.501C163.643 136.516 165.388 134.771 165.388 132.629V129.035H93.6785V132.635C93.6844 134.777 95.4292 136.516 97.5707 136.516Z" fill="#AA420F"/>
<path fill-rule="evenodd" clip-rule="evenodd" d="M126.227 119.104H132.844C134.145 119.104 135.208 118.042 135.208 116.741V107.988C135.208 106.687 134.145 105.625 132.844 105.625H126.233C124.932 105.625 123.87 106.687 123.87 107.988V116.741C123.87 118.048 124.926 119.104 126.227 119.104Z" fill="#FBE201"/>
<path fill-rule="evenodd" clip-rule="evenodd" d="M127.538 116.439H131.537C132.323 116.439 132.965 115.797 132.965 115.01V109.719C132.965 108.933 132.323 108.291 131.537 108.291H127.541C126.754 108.291 126.112 108.933 126.112 109.719V115.01C126.112 115.8 126.751 116.438 127.538 116.438V116.439Z" fill="#FBB701"/>
</g>
</g>
<defs>
<linearGradient id="paint0_linear_10583_1218" x1="140.5" y1="0" x2="140.5" y2="158" gradientUnits="userSpaceOnUse">
<stop stop-color="#FDFDFD"/>
<stop offset="0.2077" stop-color="#F5FBFD"/>
<stop offset="0.5296" stop-color="#E6EFF3"/>
<stop offset="0.9234" stop-color="#E6EFF3"/>
<stop offset="1" stop-color="#E6EFF3"/>
</linearGradient>
<clipPath id="clip0_10583_1218">
<rect width="281" height="158" fill="white"/>
</clipPath>
<clipPath id="clip1_10583_1218">
<rect width="71.7033" height="71.7033" fill="white" transform="matrix(-1 0 0 1 165.385 70.4121)"/>
</clipPath>
</defs>
</svg>
