<svg width="281" height="158" viewBox="0 0 281 158" fill="none" xmlns="http://www.w3.org/2000/svg">
<g clip-path="url(#clip0_10584_1287)">
<path d="M0 158H281V0H0V158Z" fill="url(#paint0_linear_10584_1287)"/>
<path d="M140.354 146.348C192.464 146.348 234.708 143.136 234.708 139.174C234.708 135.212 192.464 132 140.354 132C88.2438 132 46 135.212 46 139.174C46 143.136 88.2438 146.348 140.354 146.348Z" fill="#509888" fill-opacity="0.47"/>
<path d="M184.717 58.4469C168.876 47.5211 136.588 40.712 119.317 25.22C102.046 9.72802 70.4413 30.6007 66.6649 63.0612C62.8845 95.5217 75.4349 125.254 98.9731 135H181.266C205.435 111.295 200.558 69.3727 184.717 58.4469Z" fill="#D1E2E4"/>
<path fill-rule="evenodd" clip-rule="evenodd" d="M222.316 48.088C222.375 47.6409 222.119 47.2121 221.697 47.053C221.275 46.8936 220.799 47.0458 220.548 47.4204C216.726 53.1209 209.287 64.217 207.005 67.6203C206.84 67.8664 206.796 68.1745 206.887 68.4568C206.977 68.739 207.191 68.9646 207.469 69.069C209.825 69.9569 215.168 71.9701 217.261 72.759C217.745 72.9415 218.001 73.4716 217.843 73.9643C217.068 76.375 214.865 83.2279 213.322 88.0285C213.179 88.4744 213.374 88.9589 213.787 89.1806C214.199 89.402 214.711 89.2976 215.004 88.9319C219.666 83.1064 227.902 72.8166 230.426 69.6628C230.61 69.4328 230.68 69.1317 230.615 68.8444C230.551 68.5569 230.36 68.3143 230.095 68.1848C227.838 67.0789 222.707 64.5645 220.921 63.6894C220.547 63.506 220.332 63.104 220.386 62.6907C220.69 60.3896 221.685 52.8676 222.316 48.088Z" fill="#FDCD56"/>
<path fill-rule="evenodd" clip-rule="evenodd" d="M152.119 90.3989H137.912C137.32 90.3989 136.796 90.0161 136.617 89.4523C136.437 88.8884 136.643 88.2735 137.126 87.9312L153.872 76.066L156.302 56.1883H144.611C144.004 56.1883 143.471 55.7859 143.305 55.2024C143.138 54.6189 143.379 53.9956 143.894 53.6753L157.746 45.0697C157.974 44.6288 158.433 44.3332 158.955 44.3332H180.885C181.406 44.3332 181.866 44.6288 182.093 45.0697L195.945 53.6753C196.46 53.9956 196.701 54.6189 196.535 55.2024C196.368 55.7859 195.835 56.1883 195.228 56.1883H183.537L185.967 76.066L202.713 87.9312C203.196 88.2735 203.402 88.8884 203.222 89.4523C203.043 90.0161 202.519 90.3989 201.928 90.3989H187.72L193.053 134.015H198.753C199.503 134.015 200.112 134.624 200.112 135.374C200.112 136.124 199.503 136.733 198.753 136.733H191.85C191.164 136.733 190.584 136.219 190.501 135.539C190.501 135.539 190.411 134.803 190.248 133.465L169.539 122.606L149.592 133.46L149.338 135.539C149.255 136.219 148.675 136.733 147.989 136.733H141.086C140.336 136.733 139.727 136.124 139.727 135.374C139.727 134.624 140.336 134.015 141.086 134.015H146.787L152.119 90.3989ZM153.426 79.7127L142.18 87.6812H152.452L153.426 79.7127ZM157.04 72.5443L156.717 75.1853H161.253L157.04 72.5443ZM159.04 56.1883L157.727 66.9244L167.401 60.8594L159.951 56.1883H159.04ZM157.231 48.589L149.374 53.4707H156.635L157.231 48.589ZM179.682 47.0508H160.157L159.469 52.6789L160.732 53.4707H179.187L180.376 52.7253C179.94 49.1593 179.682 47.0508 179.682 47.0508ZM183.205 53.4707H190.466L182.608 48.589L183.205 53.4707ZM182.105 66.8703C181.613 62.8443 181.169 59.2113 180.799 56.1883H179.968L172.518 60.8594L182.105 66.8703ZM183.122 75.1853C183.012 74.2844 182.903 73.3936 182.795 72.515L178.536 75.1853H183.122ZM187.388 87.6812H197.66L186.413 79.7127L187.388 87.6812ZM189.847 130.186C189.344 126.072 188.588 119.89 187.711 112.717L172.411 121.043L189.847 130.186ZM187.172 108.309C186.532 103.077 185.847 97.4712 185.16 91.8532L173.042 99.4502L187.172 108.309ZM149.998 130.146L166.644 121.087L152.041 113.43L149.998 130.146ZM154.76 91.1961L152.574 109.075L167.926 99.4502L154.76 91.1961ZM173.42 75.1853L181.836 69.909L169.96 62.4632L158.018 69.9497L166.369 75.1853H173.42ZM165.588 77.9029H156.385L155.331 86.526L167.336 78.9993L165.588 77.9029ZM165.067 56.1883L169.96 59.2556L174.852 56.1883H165.067ZM184.513 86.5602C184.154 83.629 183.799 80.7258 183.454 77.9029H174.202L172.453 78.9993L184.513 86.5602ZM169.515 119.525L185.806 110.66L170.484 101.054L154 111.388L169.515 119.525ZM170.484 97.8464L182.363 90.3989H158.605L170.484 97.8464ZM169.895 80.6031L158.605 87.6812H181.185L169.895 80.6031ZM224.113 43.8046L221.676 62.2475L231.686 67.1527C232.056 67.334 232.324 67.6737 232.414 68.0761C232.504 68.4785 232.407 68.8999 232.149 69.222L212.674 93.5546C212.265 94.0665 211.548 94.2129 210.97 93.9027C210.393 93.5923 210.119 92.9139 210.32 92.2898L216.342 73.5555L205.75 69.5642C205.361 69.4179 205.061 69.1022 204.934 68.707C204.808 68.312 204.869 67.8806 205.1 67.5359L221.638 42.8697C221.989 42.3454 222.655 42.1323 223.246 42.3553C223.837 42.5784 224.196 43.1788 224.113 43.8046ZM220.657 49.2121L208.312 67.6256L218.51 71.4685C219.188 71.724 219.547 72.4663 219.325 73.156L215.167 86.091L228.968 68.8471L219.602 64.258C219.078 64.0012 218.777 63.4384 218.853 62.8598L220.657 49.2121Z" fill="black"/>
<path d="M111.794 89.9176C111.794 83.9563 106.961 79.123 101 79.123C95.0383 79.123 90.2051 83.9563 90.2051 89.9176H111.794Z" fill="#FDB62F"/>
<path d="M131.978 120.746H70.0215L79.809 96.1543H122.191L131.978 120.746Z" fill="#4398D1"/>
<path d="M96.0601 126.061H105.932V131.383H96.0601V126.061Z" fill="#B2B2B2"/>
<path d="M110.832 136.698H91.168V133.536C91.168 132.345 92.1337 131.379 93.3246 131.379H108.676C109.867 131.379 110.833 132.345 110.833 133.536L110.832 136.698Z" fill="#D1D1D1"/>
<path d="M70.0215 120.744H131.986V126.067H70.0215V120.744Z" fill="#D1D1D1"/>
<path d="M131.981 121.508H70.0177C69.7634 121.508 69.526 121.382 69.3835 121.172C69.2411 120.962 69.212 120.695 69.3054 120.459L79.0952 95.8712C79.2108 95.5801 79.4934 95.3887 79.8067 95.3887H122.191C122.504 95.3887 122.786 95.5801 122.902 95.8712L132.691 120.459C132.785 120.695 132.756 120.962 132.613 121.172C132.473 121.382 132.235 121.508 131.981 121.508ZM71.1473 119.976H130.852L121.673 96.9204H80.3274L71.1473 119.976Z" fill="black"/>
<path d="M101 121.508C100.577 121.508 100.234 121.165 100.234 120.742V96.1545C100.234 95.7318 100.577 95.3887 101 95.3887C101.422 95.3887 101.766 95.7318 101.766 96.1545V120.742C101.766 121.165 101.422 121.508 101 121.508Z" fill="black"/>
<path d="M85.3366 121.506C85.2876 121.506 85.237 121.502 85.1865 121.491C84.7714 121.409 84.5026 121.006 84.5845 120.591L89.4798 96.0031C89.5617 95.5888 89.9646 95.32 90.3804 95.4012C90.7955 95.4839 91.0643 95.8875 90.9824 96.3018L86.0871 120.889C86.0151 121.255 85.695 121.506 85.3366 121.506Z" fill="black"/>
<path d="M116.662 121.507C116.304 121.507 115.984 121.255 115.912 120.891L111.018 96.3034C110.935 95.8883 111.204 95.4854 111.619 95.4027C112.038 95.3231 112.436 95.5896 112.52 96.0047L117.414 120.592C117.497 121.007 117.228 121.41 116.813 121.493C116.762 121.503 116.712 121.507 116.662 121.507Z" fill="black"/>
<path d="M127.087 109.213H74.9128C74.4901 109.213 74.147 108.871 74.147 108.447C74.147 108.024 74.4901 107.682 74.9128 107.682H127.086C127.509 107.682 127.852 108.024 127.852 108.447C127.852 108.871 127.509 109.213 127.087 109.213Z" fill="black"/>
<path d="M111.794 90.6837H90.2053C89.7826 90.6837 89.4395 90.3406 89.4395 89.9178C89.4395 83.5429 94.625 78.3574 101 78.3574C107.374 78.3574 112.56 83.5429 112.56 89.9178C112.56 90.3413 112.217 90.6837 111.794 90.6837ZM90.9995 89.152H110.999C110.607 83.9787 106.272 79.8891 101 79.8891C95.7278 79.8891 91.3924 83.9787 90.9995 89.152Z" fill="black"/>
<path d="M121.615 90.684H116.53C116.107 90.684 115.765 90.3409 115.765 89.9182C115.765 89.4954 116.107 89.1523 116.53 89.1523H121.615C122.038 89.1523 122.381 89.4954 122.381 89.9182C122.381 90.3409 122.038 90.684 121.615 90.684Z" fill="black"/>
<path d="M85.4694 90.684H80.385C79.9622 90.684 79.6191 90.3409 79.6191 89.9182C79.6191 89.4954 79.9622 89.1523 80.385 89.1523H85.4694C85.8922 89.1523 86.2353 89.4954 86.2353 89.9182C86.2353 90.3409 85.8922 90.684 85.4694 90.684Z" fill="black"/>
<path d="M101 75.1532C100.577 75.1532 100.234 74.8101 100.234 74.3874V69.303C100.234 68.8802 100.577 68.5371 101 68.5371C101.422 68.5371 101.766 68.8802 101.766 69.303V74.3874C101.766 74.8101 101.422 75.1532 101 75.1532Z" fill="black"/>
<path d="M111.982 79.7029C111.786 79.7029 111.59 79.6279 111.44 79.4785C111.141 79.1791 111.141 78.6951 111.44 78.3956L115.035 74.8008C115.335 74.5013 115.819 74.5013 116.118 74.8008C116.418 75.1002 116.418 75.5842 116.118 75.8837L112.523 79.4785C112.374 79.6279 112.178 79.7029 111.982 79.7029Z" fill="black"/>
<path d="M90.0184 79.7029C89.8224 79.7029 89.6263 79.6279 89.477 79.4785L85.8813 75.8837C85.5819 75.5842 85.5819 75.1002 85.8813 74.8008C86.1808 74.5013 86.6648 74.5013 86.9642 74.8008L90.5599 78.3956C90.8593 78.6951 90.8593 79.1791 90.5599 79.4785C90.4098 79.6279 90.2145 79.7029 90.0184 79.7029Z" fill="black"/>
<path d="M131.981 126.826H70.0178C69.5951 126.826 69.252 126.484 69.252 126.06V120.742C69.252 120.319 69.5951 119.977 70.0178 119.977H131.981C132.405 119.977 132.747 120.319 132.747 120.742V126.06C132.747 126.484 132.405 126.826 131.981 126.826ZM70.7836 125.295H131.216V121.508H70.7836V125.295Z" fill="black"/>
<path d="M105.937 132.144H96.0622C95.6395 132.144 95.2964 131.802 95.2964 131.378V126.059C95.2964 125.635 95.6395 125.293 96.0622 125.293H105.937C106.361 125.293 106.703 125.635 106.703 126.059V131.378C106.703 131.801 106.361 132.144 105.937 132.144ZM96.8281 130.613H105.171V126.825H96.8281V130.613Z" fill="black"/>
<path d="M110.832 137.463H91.1682C90.7454 137.463 90.4023 137.121 90.4023 136.697V133.535C90.4023 131.924 91.7135 130.613 93.3248 130.613H108.676C110.287 130.613 111.598 131.924 111.598 133.535V136.697C111.598 137.121 111.256 137.463 110.832 137.463ZM91.934 135.931H110.066V133.535C110.066 132.768 109.443 132.145 108.676 132.145H93.3248C92.5582 132.145 91.934 132.768 91.934 133.535V135.931Z" fill="black"/>
</g>
<defs>
<linearGradient id="paint0_linear_10584_1287" x1="140.5" y1="0" x2="140.5" y2="158" gradientUnits="userSpaceOnUse">
<stop stop-color="#FDFDFD"/>
<stop offset="0.2077" stop-color="#F5FBFD"/>
<stop offset="0.5296" stop-color="#E6EFF3"/>
<stop offset="0.9234" stop-color="#E6EFF3"/>
<stop offset="1" stop-color="#E6EFF3"/>
</linearGradient>
<clipPath id="clip0_10584_1287">
<rect width="281" height="158" fill="white"/>
</clipPath>
</defs>
</svg>
