<svg width="281" height="158" viewBox="0 0 281 158" fill="none" xmlns="http://www.w3.org/2000/svg">
<g clip-path="url(#clip0_10585_1333)">
<path d="M0 158H281V0H0V158Z" fill="url(#paint0_linear_10585_1333)"/>
<path d="M140.354 146.348C192.464 146.348 234.708 143.136 234.708 139.174C234.708 135.212 192.464 132 140.354 132C88.2438 132 46 135.212 46 139.174C46 143.136 88.2438 146.348 140.354 146.348Z" fill="#509888" fill-opacity="0.47"/>
<path d="M184.717 58.4469C168.876 47.5211 136.588 40.712 119.317 25.22C102.046 9.72802 70.4413 30.6007 66.6649 63.0612C62.8845 95.5217 75.4349 125.254 98.9731 135H181.266C205.435 111.295 200.558 69.3727 184.717 58.4469Z" fill="#D1E2E4"/>
<g clip-path="url(#clip1_10585_1333)">
<path d="M114.55 48.5854C114.296 48.1041 113.797 47.8027 113.254 47.8027C112.71 47.8027 112.211 48.1041 111.957 48.5854L96.6172 77.733H99.9277L113.254 52.4129L126.579 77.733H129.89L114.55 48.5854Z" fill="#E8B800"/>
<path d="M111.789 45.9023H114.718V77.7324H111.789V45.9023Z" fill="#FAC600"/>
<path d="M168.518 48.5854C168.265 48.1041 167.766 47.8027 167.222 47.8027C166.678 47.8027 166.179 48.1041 165.926 48.5854L150.585 77.733H153.896L167.222 52.4129L180.548 77.733H183.858L168.518 48.5854Z" fill="#E8B800"/>
<path d="M165.757 45.9023H168.687V77.7324H165.757V45.9023Z" fill="#FAC600"/>
<path d="M95.234 78.5221L99.1769 85.3514C99.2943 85.5545 99.5111 85.6797 99.7457 85.6797H126.762C126.996 85.6797 127.213 85.5545 127.331 85.3514L131.274 78.5221C131.526 78.0844 131.21 77.5371 130.705 77.5371H95.8027C95.2972 77.5369 94.9812 78.0842 95.234 78.5221Z" fill="#CA6E59"/>
<path d="M108.454 85.3514L104.511 78.5221C104.258 78.0844 104.574 77.5371 105.08 77.5371H95.8027C95.2972 77.5371 94.9812 78.0844 95.234 78.5221L99.1769 85.3514C99.2943 85.5545 99.5111 85.6797 99.7457 85.6797H109.023C108.788 85.6797 108.571 85.5545 108.454 85.3514Z" fill="#BB5D4C"/>
<path d="M149.202 78.5221L153.145 85.3514C153.263 85.5545 153.479 85.6797 153.714 85.6797H180.73C180.965 85.6797 181.182 85.5545 181.299 85.3514L185.242 78.5221C185.495 78.0844 185.179 77.5371 184.673 77.5371H149.771C149.265 77.5369 148.949 78.0842 149.202 78.5221Z" fill="#CA6E59"/>
<path d="M163.568 85.3514L159.625 78.5221C159.373 78.0844 159.689 77.5371 160.194 77.5371H149.771C149.265 77.5371 148.949 78.0844 149.202 78.5221L153.145 85.3514C153.263 85.5545 153.479 85.6797 153.714 85.6797H164.137C163.902 85.6797 163.686 85.5545 163.568 85.3514Z" fill="#BB5D4C"/>
<path d="M138.773 49.8691V58.4361H141.703V49.8691C141.236 49.9998 140.745 50.0713 140.238 50.0713C139.73 50.0713 139.239 49.9996 138.773 49.8691Z" fill="#883F2E"/>
<path d="M144.269 96.3354V59.2463C144.269 58.6906 143.818 58.2402 143.263 58.2402H137.213C136.657 58.2402 136.207 58.6906 136.207 59.2463V96.3354H144.269Z" fill="#BB5D4C"/>
<path d="M139.621 96.3355V59.2463C139.621 58.6906 140.071 58.2402 140.627 58.2402H137.213C136.657 58.2402 136.207 58.6906 136.207 59.2463V96.3354H139.621V96.3355Z" fill="#A44F3E"/>
<path d="M174.38 43.168H145.473C145.604 43.6344 145.675 44.1252 145.675 44.6328C145.675 45.1404 145.604 45.6312 145.473 46.0977H174.38C175.189 46.0977 175.844 45.4418 175.844 44.6328C175.844 43.8238 175.189 43.168 174.38 43.168Z" fill="#BB5D4C"/>
<path d="M134.8 44.6328C134.8 44.1252 134.872 43.6344 135.003 43.168H106.096C105.287 43.168 104.631 43.8238 104.631 44.6328C104.631 45.4418 105.287 46.0977 106.096 46.0977H135.003C134.872 45.6312 134.8 45.1402 134.8 44.6328Z" fill="#BB5D4C"/>
<path d="M140.238 50.2656C143.349 50.2656 145.871 47.7437 145.871 44.6328C145.871 41.5219 143.349 39 140.238 39C137.127 39 134.605 41.5219 134.605 44.6328C134.605 47.7437 137.127 50.2656 140.238 50.2656Z" fill="#883F2E"/>
<path d="M139.636 44.6328C139.636 42.4262 140.906 40.5172 142.753 39.5932C141.996 39.2143 141.142 39 140.238 39C137.127 39 134.605 41.5219 134.605 44.6328C134.605 47.7438 137.127 50.2656 140.238 50.2656C141.142 50.2656 141.996 50.0514 142.753 49.6725C140.906 48.7484 139.636 46.8395 139.636 44.6328Z" fill="#6D3326"/>
<path d="M149.643 104.982V100.165C149.643 97.9424 147.842 96.1406 145.619 96.1406H134.857C132.634 96.1406 130.833 97.9424 130.833 100.165V104.982H149.643Z" fill="#883F2E"/>
<path d="M137.622 104.982V100.165C137.622 97.9424 139.424 96.1406 141.646 96.1406H134.857C132.634 96.1406 130.833 97.9422 130.833 100.165V104.982H137.622Z" fill="#6D3326"/>
<path d="M157.306 112.481V108.236C157.306 106.331 155.762 104.787 153.857 104.787H126.619C124.714 104.787 123.17 106.331 123.17 108.236V112.481H157.306Z" fill="#BB5D4C"/>
<path d="M131.655 112.481V108.236C131.655 106.331 133.199 104.787 135.104 104.787H126.619C124.714 104.787 123.17 106.331 123.17 108.236V112.481H131.655Z" fill="#A44F3E"/>
<path d="M104.559 129.336V119.124C104.559 116.269 106.882 113.945 109.738 113.945V113.75H101.945C96.157 113.75 91.4648 118.442 91.4648 124.23C91.4648 130.018 96.157 134.711 101.945 134.711H109.738V134.515C106.882 134.515 104.559 132.192 104.559 129.336Z" fill="#3675BB"/>
<path d="M104.364 119.125V129.336C104.364 132.304 106.77 134.711 109.738 134.711H184.443V113.75H109.738C106.77 113.75 104.364 116.156 104.364 119.125Z" fill="#FFF3DE"/>
<path d="M114.828 129.68C111.86 129.68 109.453 127.274 109.453 124.306V114.094C109.453 113.981 109.458 113.869 109.465 113.758C106.623 113.9 104.363 116.249 104.363 119.125V129.337C104.363 132.305 106.77 134.711 109.738 134.711H184.443V129.68H114.828Z" fill="#FFE5C2"/>
<path d="M184.443 119.004H150.315C149.506 119.004 148.851 119.66 148.851 120.469C148.851 121.278 149.506 121.934 150.315 121.934H184.443V119.004Z" fill="#F6A96C"/>
<path d="M184.443 126.527H150.315C149.506 126.527 148.851 127.183 148.851 127.992C148.851 128.801 149.506 129.457 150.315 129.457H184.443V126.527Z" fill="#F6A96C"/>
<path d="M102.096 115.215H188.535C189.344 115.215 190 114.559 190 113.75C190 112.941 189.344 112.285 188.535 112.285H102.126C95.5708 112.285 90.1009 117.49 90.0009 124.045C89.8992 130.716 95.2962 136.175 101.944 136.175H112.111V133.246H101.945C96.9156 133.246 92.8351 129.106 92.931 124.056C93.0246 119.12 97.1593 115.215 102.096 115.215Z" fill="#2263AA"/>
<path d="M122.71 133.246V136.176H188.535C189.344 136.176 190 135.52 190 134.711C190 133.902 189.344 133.246 188.535 133.246H122.71Z" fill="#2263AA"/>
<path d="M111.916 121.738V138.396C111.916 138.883 112.463 139.17 112.863 138.893L117.411 135.746L121.958 138.893C122.358 139.17 122.905 138.883 122.905 138.396V121.738H111.916Z" fill="#FB2B3A"/>
<path d="M111.916 121.737V138.395C111.916 138.881 112.463 139.168 112.863 138.891L116.975 136.045V121.736L111.916 121.737Z" fill="#E41F2D"/>
<path d="M137.148 121.934H109.738C108.929 121.934 108.273 121.278 108.273 120.469C108.273 119.66 108.929 119.004 109.738 119.004H137.148C137.957 119.004 138.612 119.66 138.612 120.469C138.612 121.278 137.957 121.934 137.148 121.934Z" fill="#F6A96C"/>
</g>
</g>
<defs>
<linearGradient id="paint0_linear_10585_1333" x1="140.5" y1="0" x2="140.5" y2="158" gradientUnits="userSpaceOnUse">
<stop stop-color="#FDFDFD"/>
<stop offset="0.2077" stop-color="#F5FBFD"/>
<stop offset="0.5296" stop-color="#E6EFF3"/>
<stop offset="0.9234" stop-color="#E6EFF3"/>
<stop offset="1" stop-color="#E6EFF3"/>
</linearGradient>
<clipPath id="clip0_10585_1333">
<rect width="281" height="158" fill="white"/>
</clipPath>
<clipPath id="clip1_10585_1333">
<rect width="100" height="100" fill="white" transform="translate(90 39)"/>
</clipPath>
</defs>
</svg>
