<svg width="281" height="158" viewBox="0 0 281 158" fill="none" xmlns="http://www.w3.org/2000/svg">
<g clip-path="url(#clip0_10540_1763)">
<path d="M0 158H281V0H0V158Z" fill="url(#paint0_linear_10540_1763)"/>
<path d="M140.354 146.348C192.464 146.348 234.708 143.136 234.708 139.174C234.708 135.212 192.464 132 140.354 132C88.2438 132 46 135.212 46 139.174C46 143.136 88.2438 146.348 140.354 146.348Z" fill="#509888" fill-opacity="0.47"/>
<path d="M184.717 58.4469C168.876 47.5211 136.588 40.712 119.317 25.22C102.046 9.72802 70.4413 30.6007 66.6649 63.0612C62.8845 95.5217 75.4349 125.254 98.9731 135H181.266C205.435 111.295 200.558 69.3727 184.717 58.4469Z" fill="#D1E2E4"/>
<path d="M212.236 97.5297C211.43 97.4443 210.704 98.0333 210.615 98.8485C210.525 99.6637 211.11 100.398 211.916 100.483C212.723 100.569 213.449 99.9796 213.538 99.1601C213.624 98.3492 213.043 97.6151 212.236 97.5297Z" fill="#72A2BA"/>
<path d="M216.065 99.4386C215.822 101.671 213.837 103.284 211.631 103.049C211.264 103.011 210.914 102.921 210.589 102.793C210.256 102.661 209.949 102.486 209.672 102.277C208.571 101.449 207.918 100.066 208.08 98.5807C208.323 96.3485 210.308 94.7352 212.514 94.97C214.721 95.2047 216.309 97.2064 216.065 99.4386ZM211.912 100.489C212.719 100.574 213.445 99.9849 213.534 99.1655C213.624 98.3503 213.043 97.6161 212.237 97.5308C211.43 97.4454 210.705 98.0344 210.615 98.8496C210.525 99.6691 211.106 100.399 211.912 100.489Z" fill="#A5C8E4"/>
<path d="M111.988 16.5311C111.928 16.7104 112.022 16.9024 112.197 16.9665L112.56 17.0988C112.663 17.1372 112.718 17.2481 112.68 17.3548L112.641 17.4616C112.59 17.6024 112.663 17.756 112.803 17.803L113.405 18.0164C114.165 18.2896 115.001 17.8841 115.275 17.1158C115.548 16.3476 115.151 15.5025 114.391 15.2294L113.789 15.016C113.653 14.9647 113.499 15.0416 113.452 15.1781L113.414 15.2848C113.375 15.3915 113.264 15.4428 113.162 15.4086L112.799 15.2763C112.62 15.2123 112.424 15.3062 112.36 15.4897L112.355 15.4982L111.992 16.5226C111.988 16.5268 111.988 16.5311 111.988 16.5311Z" fill="#A5C8E4"/>
<path d="M122.433 19.681C122.159 20.4492 122.556 21.2943 123.316 21.5675L123.918 21.7809C124.054 21.8321 124.208 21.7552 124.259 21.6187L124.298 21.512C124.336 21.4095 124.447 21.3541 124.549 21.3882L124.912 21.5162C125.087 21.5803 125.284 21.4864 125.348 21.3114C125.348 21.3114 125.348 21.3071 125.352 21.3071L125.715 20.2828L125.719 20.2742C125.783 20.095 125.689 19.8944 125.51 19.8304L125.147 19.7023C125.045 19.6639 124.989 19.5487 125.027 19.4462L125.066 19.3395C125.117 19.1987 125.045 19.045 124.904 18.9981L124.302 18.7847C123.542 18.5073 122.706 18.9127 122.433 19.681Z" fill="#A5C8E4"/>
<path d="M98.459 33.4535C98.6425 33.4407 98.8303 33.462 99.0096 33.5261C99.1888 33.5901 99.3467 33.6882 99.479 33.8163C100.785 30.2269 104.144 21.6353 107.631 17.7855C108.745 16.5563 110.431 16.0783 111.989 16.5307V16.5264L112.351 15.5021C110.384 14.9046 108.241 15.4978 106.837 17.0514C103.171 21.0932 99.7778 29.8086 98.459 33.4535Z" fill="#72A2BA"/>
<path d="M125.352 21.3075C125.352 21.3075 125.352 21.3118 125.347 21.3118C126.841 21.952 127.849 23.3903 127.938 25.0506C128.228 30.2491 125.441 39.0455 124.204 42.6606C124.383 42.6478 124.571 42.6691 124.75 42.7374C124.933 42.8014 125.091 42.9039 125.224 43.0319C126.487 39.3656 129.321 30.454 129.018 24.9866C128.898 22.8867 127.614 21.0685 125.71 20.2832L125.352 21.3075Z" fill="#72A2BA"/>
<path d="M70.3922 83.7928C69.2355 87.7536 70.6568 91.8851 74.3999 95.4233C74.4127 95.4361 74.4255 95.4489 74.4425 95.4574C76.6491 97.1518 79.0264 98.2658 81.7068 98.8591C84.0926 99.3883 86.6748 99.4865 89.5898 99.1664C94.9718 98.5774 100.554 96.6653 106.47 94.6465C116.863 91.0955 127.605 87.4207 137.473 91.2235C137.482 91.2278 137.494 91.2321 137.503 91.2363C142.479 92.8112 147.503 96.9256 152.36 100.908C155.873 103.784 159.189 106.503 162.488 108.326C166.218 110.387 170.606 111.983 175.173 112.935C176.786 113.272 178.425 113.528 180.064 113.703C183.039 114.023 186.018 114.079 188.865 113.853C193.547 113.486 197.759 112.419 201.391 110.677C205.326 108.791 208.399 106.183 210.516 102.935C210.546 102.888 210.572 102.837 210.585 102.786C210.252 102.653 209.945 102.478 209.667 102.269C209.65 102.291 209.633 102.312 209.616 102.338C205.719 108.317 198.318 112.022 188.788 112.764C180.004 113.452 170.367 111.433 163.009 107.365C159.795 105.59 156.517 102.901 153.043 100.054C148.113 96.0123 143.013 91.8339 137.844 90.1949C127.618 86.264 116.692 89.9986 106.124 93.6136C94.9462 97.4335 84.37 101.053 75.8168 95.116C75.3559 94.7959 74.9291 94.4374 74.5407 94.0319C71.5573 90.929 70.4519 87.4292 71.425 84.0959C72.6585 79.8663 77.0375 76.5628 82.8506 75.4744C83.3585 75.3805 83.8621 75.2866 84.3956 75.1927C88.0918 74.5227 92.283 73.7629 95.8425 71.9405C99.6582 69.99 102.232 67.092 103.687 63.1056C103.589 63.1184 103.491 63.1184 103.388 63.1056C103.286 63.0928 103.184 63.0715 103.081 63.0331C102.919 62.9733 102.774 62.888 102.65 62.7812C99.4832 71.3472 91.3824 72.8112 84.2078 74.1129C83.6957 74.2068 83.1664 74.3007 82.6585 74.3989C76.4443 75.5683 71.7409 79.1663 70.3922 83.7928Z" fill="#72A2BA"/>
<path d="M96.466 36.6794C95.113 40.5036 95.3136 44.6308 97.0294 48.2885C98.5531 51.5365 101.101 54.076 104.294 55.5485L102.266 61.289C102.074 61.8353 102.245 62.4243 102.655 62.7828C102.778 62.8895 102.924 62.9749 103.086 63.0346C103.188 63.073 103.291 63.0944 103.393 63.1072C103.491 63.12 103.594 63.1157 103.692 63.1072C104.187 63.0474 104.635 62.7145 104.814 62.2066L106.842 56.4661C107.55 56.6496 108.267 56.7819 108.988 56.8588C111.72 57.1533 114.486 56.6795 117.034 55.4503C120.662 53.7004 123.402 50.6317 124.755 46.8032L125.574 44.4814C125.762 43.9565 125.608 43.3931 125.233 43.0303C125.1 42.9022 124.942 42.8041 124.759 42.7358C124.58 42.6718 124.392 42.6462 124.213 42.659C123.692 42.6974 123.218 43.0388 123.03 43.5681L122.211 45.8899C121.101 49.0269 118.852 51.545 115.877 52.9791C112.902 54.4132 109.556 54.5924 106.462 53.487C100.068 51.1993 96.7264 44.0674 99.014 37.5885L99.8335 35.2667C100.021 34.7375 99.8676 34.1698 99.4878 33.8113C99.3555 33.6875 99.1976 33.5851 99.0183 33.5211C98.8348 33.4571 98.647 33.4314 98.4677 33.4485C97.9513 33.4869 97.4775 33.8284 97.294 34.3576L96.466 36.6794Z" fill="#509888"/>
<path d="M124.656 139.685C95.817 139.685 94.4683 83.4532 94.4683 83.4532C104.724 80.8369 109.923 70.7088 109.923 70.7088C109.923 70.7088 115.774 69.3516 124.652 69.3516C133.529 69.3516 139.381 70.7088 139.381 70.7088C139.381 70.7088 144.584 80.8369 154.836 83.4532C154.844 83.4532 153.491 139.685 124.656 139.685Z" fill="#159977"/>
<path d="M124.656 135.806C121.886 135.806 119.295 135.157 116.965 133.877C114.771 132.673 112.71 130.872 110.84 128.52C107.464 124.278 104.664 118.256 102.513 110.616C100.541 103.621 99.517 96.5911 99.0006 91.9261C98.7445 89.5958 98.5866 87.6154 98.4927 86.2112C105.915 83.2065 110.529 77.0776 112.372 74.1966C114.669 73.8082 119.022 73.2363 124.656 73.2363C130.29 73.2363 134.643 73.8082 136.939 74.1966C138.783 77.0776 143.397 83.2065 150.819 86.2112C150.725 87.6154 150.571 89.5958 150.311 91.9261C149.795 96.5911 148.77 103.621 146.798 110.616C144.647 118.256 141.848 124.278 138.471 128.52C136.598 130.872 134.541 132.677 132.347 133.877C130.012 135.157 127.426 135.806 124.656 135.806Z" fill="white"/>
<path d="M143.751 94.9255H130.132V81.127H119.253V94.9255H105.633V105.954H119.253V119.753H130.132V105.954H143.751V94.9255Z" fill="#159977"/>
<path d="M160.418 53.1184C160.418 53.1184 159.872 64.5781 144.324 70.2888L142.753 69.5504L143.107 68.859L155.1 47.1133C156.586 47.6767 158.079 48.4065 159.488 49.3412C159.488 49.3412 158.502 51.5307 160.418 53.1184Z" fill="#72A2BA"/>
<path d="M142.749 44.4375C142.749 44.4375 151.332 44.2113 157.917 48.6031C157.917 48.6031 156.931 50.7926 158.848 52.3804C158.848 52.3804 158.301 63.8401 142.753 69.5507C142.753 69.5507 133.666 60.7543 138.865 46.5758C138.865 46.5801 141.652 47.2288 142.749 44.4375Z" fill="#509888"/>
<path d="M153.205 55.8598L149.172 54.7202L150.316 50.6869L146.923 49.7266L145.779 53.7556L141.75 52.6118L140.79 56.0049L144.819 57.1487L143.675 61.1777L147.068 62.1423L148.212 58.1133L152.241 59.2528L153.205 55.8598Z" fill="white"/>
<path d="M191.587 84.458V87.7332C191.587 89.0226 190.881 90.1489 189.833 90.7466C189.497 90.9393 189.127 91.0776 188.732 91.1468C188.534 91.1813 188.327 91.2011 188.119 91.2011H154.468C154.3 91.2011 154.142 91.1912 153.979 91.1665C153.589 91.1122 153.218 90.9887 152.877 90.8158C151.761 90.2428 151 89.0769 151 87.7382V84.4629C151 83.1242 151.761 81.9584 152.877 81.3853C153.213 81.2124 153.584 81.0889 153.979 81.0346C154.137 81.0099 154.3 81 154.468 81H188.119C188.327 81 188.534 81.0198 188.732 81.0543C189.127 81.1235 189.497 81.2618 189.833 81.4545C190.881 82.0423 191.587 83.1687 191.587 84.458Z" fill="#509888"/>
<path d="M180.744 139.811H161.843C155.856 139.811 151 134.955 151 128.967V95.0445C151 92.9203 152.724 91.2012 154.843 91.2012H187.734C189.858 91.2012 191.577 92.9252 191.577 95.0445V128.967C191.587 134.955 186.731 139.811 180.744 139.811Z" fill="#006A4F"/>
<path d="M189.71 96.9508V127.673C189.71 133.136 185.284 137.562 179.82 137.562H162.767C157.304 137.562 152.877 133.136 152.877 127.673V96.9508C152.877 95.0143 154.448 93.4434 156.385 93.4434H186.203C188.139 93.4434 189.71 95.0143 189.71 96.9508Z" fill="#E3FBFF"/>
<path d="M153.979 81.5625V90.6274C153.589 90.578 153.218 90.4693 152.877 90.3112V81.8737C153.218 81.7206 153.589 81.6119 153.979 81.5625Z" fill="#B2DCF7"/>
<path d="M157.966 81.5332H156.864V90.6574H157.966V81.5332Z" fill="#B2DCF7"/>
<path d="M161.947 81.5332H160.846V90.6574H161.947V81.5332Z" fill="#B2DCF7"/>
<path d="M165.934 81.5332H164.832V90.6574H165.934V81.5332Z" fill="#B2DCF7"/>
<path d="M169.916 81.5332H168.814V90.6574H169.916V81.5332Z" fill="#B2DCF7"/>
<path d="M173.897 81.5332H172.795V90.6574H173.897V81.5332Z" fill="#B2DCF7"/>
<path d="M177.884 81.5332H176.782V90.6574H177.884V81.5332Z" fill="#B2DCF7"/>
<path d="M181.865 81.5332H180.764V90.6574H181.865V81.5332Z" fill="#B2DCF7"/>
<path d="M185.852 81.5332H184.75V90.6574H185.852V81.5332Z" fill="#B2DCF7"/>
<path d="M189.834 81.9388V90.2528C189.498 90.4257 189.127 90.5492 188.732 90.6084V81.5781C189.127 81.6423 189.498 81.7659 189.834 81.9388Z" fill="#B2DCF7"/>
<path d="M156.982 127.194L161.67 131.882C162.446 132.658 162.446 133.913 161.67 134.688C160.895 135.464 159.64 135.464 158.864 134.688L154.176 130C153.401 129.225 153.401 127.97 154.176 127.194C154.562 126.809 155.071 126.611 155.579 126.611C156.088 126.611 156.597 126.804 156.982 127.194Z" fill="white"/>
<path d="M159.299 129.506L161.67 131.877C162.446 132.653 162.446 133.907 161.67 134.683C160.895 135.459 159.64 135.459 158.864 134.683L156.493 132.312C156.622 131.788 156.893 131.289 157.303 130.879L157.871 130.311C158.281 129.906 158.775 129.639 159.299 129.506Z" fill="#509888"/>
<path d="M164.56 132.405L171.19 132.365C172.287 132.36 173.181 133.24 173.186 134.336C173.191 135.433 172.311 136.327 171.215 136.332L164.585 136.372C163.489 136.377 162.594 135.497 162.589 134.401C162.584 133.852 162.807 133.353 163.162 132.993C163.518 132.632 164.012 132.41 164.56 132.405Z" fill="white"/>
<path d="M167.831 132.385L171.185 132.365C172.282 132.36 173.176 133.24 173.181 134.336C173.186 135.433 172.306 136.327 171.21 136.332L167.855 136.352C167.574 135.892 167.411 135.349 167.406 134.771L167.401 133.971C167.401 133.393 167.559 132.849 167.831 132.385Z" fill="#509888"/>
<path d="M175.71 132.52L182.339 132.48C183.436 132.476 184.33 133.355 184.335 134.452C184.34 135.548 183.461 136.442 182.364 136.447L175.735 136.487C174.638 136.492 173.744 135.612 173.739 134.516C173.734 133.967 173.956 133.468 174.312 133.108C174.668 132.747 175.162 132.525 175.71 132.52Z" fill="white"/>
<path d="M178.985 132.5L182.339 132.48C183.436 132.476 184.33 133.355 184.335 134.452C184.34 135.548 183.461 136.442 182.364 136.447L179.01 136.467C178.728 136.008 178.565 135.464 178.56 134.886L178.555 134.086C178.55 133.508 178.708 132.965 178.985 132.5Z" fill="#509888"/>
<path d="M173.907 127.139L180.487 127.934C181.574 128.068 182.349 129.056 182.221 130.143C182.087 131.229 181.099 132.005 180.012 131.877L173.432 131.081C172.346 130.948 171.57 129.96 171.703 128.873C171.768 128.33 172.049 127.865 172.449 127.549C172.845 127.233 173.363 127.075 173.907 127.139Z" fill="white"/>
<path d="M177.162 127.535L180.492 127.94C181.578 128.074 182.354 129.062 182.226 130.148C182.092 131.235 181.104 132.011 180.017 131.882L176.688 131.477C176.466 130.983 176.372 130.425 176.441 129.852L176.535 129.057C176.604 128.479 176.826 127.96 177.162 127.535Z" fill="#509888"/>
<path d="M159.349 118.618L160.875 125.069C161.127 126.137 160.465 127.204 159.398 127.456C158.331 127.707 157.264 127.045 157.012 125.978L155.486 119.527C155.234 118.46 155.896 117.393 156.963 117.141C157.496 117.012 158.03 117.116 158.46 117.383C158.894 117.655 159.225 118.084 159.349 118.618Z" fill="white"/>
<path d="M160.104 121.804L160.875 125.07C161.127 126.137 160.465 127.204 159.398 127.456C158.331 127.708 157.264 127.046 157.012 125.979L156.241 122.713C156.627 122.338 157.116 122.056 157.684 121.923L158.464 121.74C159.022 121.612 159.591 121.641 160.104 121.804Z" fill="#509888"/>
<path d="M188.292 124.255L187.008 130.761C186.795 131.837 185.753 132.534 184.676 132.322C183.599 132.109 182.902 131.067 183.115 129.99L184.399 123.484C184.612 122.407 185.654 121.71 186.731 121.923C187.269 122.032 187.714 122.343 187.996 122.763C188.277 123.188 188.401 123.716 188.292 124.255Z" fill="white"/>
<path d="M187.66 127.465L187.008 130.755C186.795 131.832 185.753 132.529 184.676 132.316C183.599 132.104 182.902 131.061 183.115 129.985L183.767 126.694C184.276 126.512 184.839 126.457 185.407 126.571L186.192 126.724C186.756 126.838 187.259 127.105 187.66 127.465Z" fill="#509888"/>
<path d="M168.068 115.27L163.582 120.15C162.841 120.956 161.586 121.01 160.781 120.269C159.976 119.528 159.922 118.273 160.663 117.463L165.148 112.582C165.889 111.777 167.144 111.723 167.954 112.464C168.359 112.834 168.571 113.333 168.596 113.842C168.606 114.351 168.438 114.87 168.068 115.27Z" fill="white"/>
<path d="M165.85 117.685L163.577 120.155C162.836 120.961 161.581 121.015 160.776 120.274C159.971 119.533 159.917 118.278 160.658 117.468L162.93 114.998C163.459 115.107 163.967 115.354 164.392 115.749L164.98 116.292C165.405 116.683 165.696 117.167 165.85 117.685Z" fill="#509888"/>
<path d="M181.89 121.484L177.009 116.999C176.204 116.258 176.15 115.003 176.891 114.198C177.632 113.392 178.886 113.338 179.696 114.079L184.577 118.565C185.382 119.306 185.437 120.56 184.696 121.37C184.325 121.776 183.826 121.988 183.317 122.013C182.809 122.027 182.295 121.855 181.89 121.484Z" fill="white"/>
<path d="M179.479 119.271L177.009 116.999C176.204 116.258 176.15 115.003 176.891 114.198C177.632 113.392 178.886 113.338 179.696 114.079L182.166 116.351C182.058 116.88 181.811 117.389 181.416 117.814L180.872 118.402C180.482 118.826 179.998 119.118 179.479 119.271Z" fill="#509888"/>
<path d="M175.038 122.013L168.616 120.368C167.554 120.096 166.912 119.014 167.183 117.952C167.455 116.89 168.537 116.248 169.599 116.519L176.021 118.164C177.083 118.436 177.725 119.518 177.454 120.58C177.32 121.109 176.979 121.538 176.545 121.795C176.105 122.057 175.567 122.151 175.038 122.013Z" fill="white"/>
<path d="M171.867 121.201L168.616 120.372C167.554 120.1 166.912 119.018 167.183 117.956C167.455 116.894 168.537 116.252 169.599 116.523L172.85 117.353C173.003 117.872 173.027 118.435 172.884 118.998L172.687 119.774C172.538 120.337 172.247 120.821 171.867 121.201Z" fill="#509888"/>
<path d="M165.726 123.029L164.896 129.609C164.758 130.696 163.765 131.467 162.678 131.328C161.591 131.19 160.821 130.197 160.959 129.11L161.789 122.53C161.927 121.443 162.92 120.673 164.007 120.811C164.55 120.88 165.015 121.162 165.326 121.562C165.637 121.962 165.795 122.486 165.726 123.029Z" fill="white"/>
<path d="M165.316 126.275L164.896 129.604C164.758 130.691 163.765 131.462 162.678 131.323C161.591 131.185 160.821 130.192 160.959 129.105L161.379 125.776C161.873 125.558 162.431 125.465 163.004 125.539L163.799 125.637C164.377 125.717 164.891 125.944 165.316 126.275Z" fill="#509888"/>
<path d="M166.818 130.043L166.398 123.429C166.329 122.337 167.159 121.393 168.251 121.324C169.342 121.255 170.286 122.085 170.355 123.177L170.775 129.792C170.844 130.883 170.014 131.827 168.922 131.896C168.374 131.931 167.865 131.743 167.485 131.407C167.109 131.071 166.853 130.592 166.818 130.043Z" fill="white"/>
<path d="M166.61 126.778L166.398 123.429C166.329 122.337 167.159 121.393 168.251 121.324C169.342 121.255 170.286 122.085 170.355 123.177L170.567 126.526C170.123 126.832 169.594 127.03 169.016 127.065L168.216 127.114C167.643 127.149 167.09 127.025 166.61 126.778Z" fill="#509888"/>
<path d="M174.109 122.574L180.709 121.937C181.801 121.833 182.769 122.628 182.873 123.72C182.976 124.812 182.181 125.78 181.089 125.884L174.49 126.521C173.398 126.625 172.43 125.83 172.326 124.738C172.271 124.194 172.444 123.676 172.77 123.285C173.091 122.895 173.566 122.628 174.109 122.574Z" fill="white"/>
<path d="M177.37 122.258L180.709 121.937C181.801 121.833 182.769 122.628 182.873 123.72C182.977 124.812 182.181 125.78 181.089 125.884L177.75 126.205C177.429 125.77 177.216 125.247 177.162 124.669L177.083 123.873C177.029 123.3 177.137 122.747 177.37 122.258Z" fill="#509888"/>
<path d="M115.711 124.368C109.971 120.183 96.2625 129.723 118.789 141.816C135.817 122.747 119.673 118.474 115.711 124.368Z" fill="#FD5B68"/>
<path d="M108.583 134.169C109.808 133.902 111.038 133.65 112.268 133.403L112.194 133.453C112.752 132.475 113.325 131.511 113.908 130.548L114.165 130.123L114.378 130.593C114.723 131.373 115.074 132.149 115.41 132.934C115.751 133.715 116.077 134.505 116.403 135.291L115.721 135.276C116.205 134.204 116.714 133.147 117.218 132.084C117.722 131.022 118.241 129.965 118.759 128.913L119.006 128.414L119.293 128.873C119.93 129.906 120.567 130.938 121.19 131.976L120.977 131.882C121.763 131.763 122.553 131.67 123.344 131.561C124.134 131.452 124.92 131.348 125.715 131.26C124.939 131.447 124.164 131.62 123.383 131.788C122.608 131.956 121.827 132.139 121.052 132.292L120.923 132.317L120.839 132.198C120.143 131.205 119.461 130.202 118.779 129.2L119.313 129.16C118.843 130.237 118.364 131.314 117.88 132.381C117.391 133.448 116.907 134.52 116.398 135.582L116.033 136.348L115.716 135.562C115.4 134.772 115.084 133.976 114.783 133.181C114.471 132.386 114.18 131.586 113.889 130.785L114.358 130.83C113.711 131.749 113.059 132.662 112.387 133.566L112.352 133.611L112.308 133.616C111.068 133.813 109.828 133.996 108.583 134.169Z" fill="white"/>
<path d="M92.9541 76.9082C98.4516 76.9082 102.908 72.4516 102.908 66.9541C102.908 61.4566 98.4516 57 92.9541 57C87.4566 57 83 61.4566 83 66.9541C83 72.4516 87.4566 76.9082 92.9541 76.9082Z" fill="#FD5B68"/>
<path d="M99.4712 68.935V64.8496H87.22V68.935H99.4712Z" fill="white"/>
<path d="M95.3896 60.7695H91.3042V73.0207H95.3896V60.7695Z" fill="white"/>
</g>
<defs>
<linearGradient id="paint0_linear_10540_1763" x1="140.5" y1="0" x2="140.5" y2="158" gradientUnits="userSpaceOnUse">
<stop stop-color="#FDFDFD"/>
<stop offset="0.2077" stop-color="#F5FBFD"/>
<stop offset="0.5296" stop-color="#E6EFF3"/>
<stop offset="0.9234" stop-color="#E6EFF3"/>
<stop offset="1" stop-color="#E6EFF3"/>
</linearGradient>
<clipPath id="clip0_10540_1763">
<rect width="281" height="158" fill="white"/>
</clipPath>
</defs>
</svg>
