<svg width="281" height="158" viewBox="0 0 281 158" fill="none" xmlns="http://www.w3.org/2000/svg">
<g clip-path="url(#clip0_10585_1513)">
<path d="M0 158H281V0H0V158Z" fill="url(#paint0_linear_10585_1513)"/>
<path d="M140.354 146.348C192.464 146.348 234.708 143.136 234.708 139.174C234.708 135.212 192.464 132 140.354 132C88.2438 132 46 135.212 46 139.174C46 143.136 88.2438 146.348 140.354 146.348Z" fill="#509888" fill-opacity="0.47"/>
<path d="M184.717 58.4469C168.876 47.5211 136.588 40.712 119.317 25.22C102.046 9.72802 70.4413 30.6007 66.6649 63.0612C62.8845 95.5217 75.4349 125.254 98.9731 135H181.266C205.435 111.295 200.558 69.3727 184.717 58.4469Z" fill="#D1E2E4"/>
<path d="M88.1067 136.989C91.6414 128.409 94.9889 120.378 98.2484 112.313C98.6338 111.349 98.9532 110.099 98.6779 109.168C96.9601 103.459 94.8568 97.8599 93.3262 92.0963C92.5554 89.1925 91.3882 84.8095 92.7977 83.2865C95.3524 80.5142 99.724 79.5609 104.756 82.2236C103.259 83.144 102.455 83.8562 101.508 84.1631C99.9332 84.689 98.2815 84.952 96.6518 85.3245C97.4556 87.2311 98.0943 89.2254 99.1294 90.9896C99.6029 91.7895 100.88 92.1291 101.761 92.6661C103.292 90.8142 104.36 88.6775 106.1 87.6804C107.774 86.7271 110.13 86.9463 112.178 86.6504C111.54 88.4146 110.967 90.2006 110.229 91.9319C110.053 92.3264 109.337 92.4907 108.423 93.0167C114.546 93.981 117.904 89.9157 115.008 85.9601C113.676 84.1411 111.341 83.0564 109.767 81.2045C114.469 80.8101 118.103 82.4866 119.754 86.8038C121.384 91.0553 119.039 94.1344 115.79 96.6546C107.807 102.867 106.529 104.708 112.332 115.655C114.546 119.83 115.438 124.717 116.836 129.308C117.552 131.664 118.125 134.074 118.873 137H143V53.3835C136.074 52.9671 132.517 58.2596 127.54 60.4182C120.944 63.2891 121.725 69.3157 121.703 75.3423C109.062 71.3319 96.9601 71.3976 85.8823 74.8382C84.0764 70.269 83.5588 64.7793 80.5306 62.2481C75.7956 58.2925 70.6862 53.6574 63 53V137H88.1067V136.989Z" fill="#006A4F"/>
<path d="M141.036 79.4434C141.287 87.4994 141.092 95.5624 141.092 103.625C141.092 111.569 141.092 119.506 141.092 127.45C141.092 128.887 141.092 130.331 141.092 132H187.991C187.991 130.766 187.991 129.525 187.991 128.284C187.991 108.54 188.033 88.7965 187.935 69.0597C187.921 66.5006 187.049 63.9485 186.826 61.3754C186.749 60.513 187.503 59.5945 187.747 58.669C187.949 57.9118 187.949 57.1055 187.349 56.1099C187.049 56.7549 186.742 57.4 186.072 58.8373C184.425 45.9786 182.89 33.9893 181.355 22C181.055 22 180.762 22.007 180.462 22.014C179.61 28.5345 178.808 35.062 177.908 41.5755C177.05 47.7595 176.645 54.0836 175.04 60.0783C173.065 67.4611 174.244 74.816 173.868 82.1708C173.819 83.1805 173.861 84.1971 173.861 85.7185C169.506 84.6528 167.797 80.7405 164.51 78.7844C161.789 81.1612 159.018 83.5801 156.255 85.999C155.934 85.7536 155.606 85.5082 155.285 85.2558C155.285 80.1586 155.634 75.0333 155.194 69.9712C154.685 64.1658 153.387 58.4376 152.599 52.6463C151.308 43.104 150.163 33.5476 148.928 23.9982C148.858 23.4373 148.586 22.8974 147.714 22.2594C146.179 34.1576 144.644 46.0487 142.976 59.0126C142.299 57.3579 142.041 56.7129 141.762 56.0398C141.552 56.2641 141.252 56.4394 141.266 56.6007C141.832 64.2219 140.799 71.8222 141.036 79.4504V79.4434ZM178.361 83.9377C179.645 84.786 180.001 84.9052 180.001 85.0314C180.001 86.9105 179.966 88.7895 179.938 90.6755C179.415 90.5914 178.431 90.5353 178.431 90.4231C178.34 88.502 178.361 86.5809 178.361 83.9377ZM181.941 73.2875C181.99 72.5864 182.897 71.9484 183.413 71.2823C183.909 71.9484 184.697 72.5513 184.837 73.2875C185.074 74.5215 184.9 75.8326 184.9 77.1157C184.907 78.3988 185.06 79.7029 184.837 80.9439C184.732 81.5258 183.888 82.3882 183.413 82.3671C182.883 82.3461 181.976 81.4907 181.948 80.9509C181.788 78.3988 181.767 75.8326 181.941 73.2805V73.2875ZM181.711 84.6178C182.164 84.6528 182.618 84.6879 183.072 84.7229C183.246 85.2348 183.609 85.7606 183.56 86.2444C183.407 87.7518 183.092 89.2452 182.841 90.7386C182.36 90.5493 181.467 90.367 181.46 90.1777C181.46 88.3267 181.599 86.4687 181.697 84.6178H181.711ZM180.769 100.618C181.341 102.511 182.06 104.369 182.444 106.297C182.688 107.51 182.583 108.849 182.367 110.083C182.255 110.707 181.536 111.226 181.097 111.793C180.546 111.219 179.666 110.714 179.527 110.055C179.269 108.842 179.457 107.531 179.457 106.262C179.255 106.198 179.045 106.135 178.843 106.072C179.485 104.249 180.134 102.433 180.776 100.611L180.769 100.618ZM176.959 73.2805C177.008 72.5864 177.894 71.9484 178.396 71.2893C178.913 71.9484 179.736 72.5513 179.883 73.2875C180.134 74.5215 179.952 75.8396 179.952 77.1157C179.952 78.3988 180.113 79.7099 179.883 80.9439C179.778 81.5258 178.941 82.3391 178.396 82.3671C177.922 82.3952 176.994 81.4907 176.966 80.9579C176.812 78.4058 176.784 75.8256 176.952 73.2735L176.959 73.2805ZM167.552 131.474C165.194 130.787 162.731 130.815 161.726 129.609C160.219 127.807 161.726 121.266 163.24 120.214C164.957 119.015 167.28 120.361 167.511 122.941C167.727 125.451 167.559 127.997 167.559 131.474H167.552ZM159.723 106.493C159.835 103.702 161.768 101.964 164.685 102.02C167.539 102.076 169.332 103.913 169.339 106.787C169.346 109.809 167.448 111.667 164.384 111.632C161.454 111.597 159.591 109.55 159.716 106.493H159.723ZM145.593 89.9043C145.474 88.1795 145.537 86.4477 145.537 84.7159L147.477 84.6107C147.56 86.4056 147.679 88.2005 147.679 89.9954C147.679 90.2689 147.03 90.8157 146.779 90.7596C146.325 90.6615 145.614 90.2338 145.593 89.9043ZM149.158 77.2629C148.872 75.9308 148.956 74.4514 149.242 73.1052C149.389 72.4111 150.31 71.8783 150.882 71.2753C151.308 71.8923 152.012 72.4672 152.11 73.1263C152.306 74.4935 152.166 75.9097 152.166 77.305C152.382 77.3821 152.592 77.4522 152.808 77.5294C152.152 79.177 151.315 82.304 150.875 82.248C147.616 81.8343 149.535 79.0438 149.158 77.2699V77.2629ZM148.998 84.5967C149.584 84.6107 150.17 84.6248 150.763 84.6458C150.868 86.3005 151.05 87.9551 151.029 89.6098C151.029 90.0235 150.435 90.6825 150.024 90.7667C149.64 90.8438 148.747 90.3039 148.74 90.0305C148.726 88.2216 148.886 86.4126 148.991 84.5967H148.998ZM148.356 100.667C148.824 102.56 149.389 104.432 149.717 106.346C149.912 107.475 149.912 108.709 149.661 109.816C149.493 110.545 148.719 111.127 148.209 111.772C147.735 111.134 146.988 110.56 146.842 109.851C146.611 108.737 146.779 107.538 146.779 106.367C146.549 106.283 146.325 106.191 146.102 106.107C146.856 104.291 147.609 102.475 148.356 100.66V100.667ZM144.253 73.1403C144.392 72.4392 145.293 71.8923 145.844 71.2823C146.291 71.8853 147.03 72.4392 147.121 73.0912C147.323 74.4584 147.184 75.8747 147.184 77.2699C147.435 77.3821 147.686 77.4943 147.937 77.5995C147.128 79.2191 146.325 80.8387 145.516 82.4513C145.055 80.7335 144.448 79.0438 144.169 77.298C143.953 75.9378 143.974 74.4794 144.246 73.1333L144.253 73.1403Z" fill="#BB5D4C"/>
<g clip-path="url(#clip1_10585_1513)">
<path d="M152.647 103.367C152.629 103.369 152.611 103.365 152.596 103.355C152.581 103.345 152.571 103.329 152.566 103.312C152.562 103.294 152.565 103.276 152.573 103.26C152.582 103.244 152.596 103.232 152.613 103.226L152.871 103.081C152.889 103.072 152.909 103.07 152.928 103.075C152.947 103.081 152.964 103.093 152.974 103.11C152.983 103.127 152.985 103.148 152.979 103.167C152.974 103.185 152.962 103.202 152.945 103.212L152.681 103.357L152.647 103.367Z" fill="#494949"/>
<path d="M153.427 102.921C153.415 102.921 153.402 102.918 153.391 102.912C153.38 102.906 153.371 102.898 153.364 102.887C153.354 102.87 153.352 102.85 153.356 102.832C153.361 102.813 153.372 102.796 153.388 102.785L153.91 102.48C153.927 102.471 153.947 102.468 153.966 102.472C153.985 102.477 154.001 102.488 154.012 102.504C154.017 102.513 154.021 102.522 154.022 102.532C154.023 102.542 154.022 102.552 154.02 102.561C154.017 102.571 154.012 102.58 154.006 102.587C154 102.595 153.992 102.601 153.983 102.606L153.466 102.911C153.455 102.919 153.441 102.923 153.427 102.921ZM154.461 102.305C154.448 102.306 154.436 102.303 154.425 102.297C154.414 102.291 154.404 102.282 154.397 102.271C154.388 102.255 154.385 102.235 154.39 102.216C154.394 102.197 154.406 102.181 154.422 102.17L154.939 101.855C154.956 101.845 154.976 101.842 154.995 101.847C155.013 101.851 155.03 101.863 155.041 101.879C155.05 101.896 155.053 101.916 155.049 101.934C155.044 101.953 155.033 101.97 155.017 101.981L154.5 102.296C154.489 102.304 154.475 102.307 154.461 102.305ZM155.485 101.675C155.469 101.674 155.454 101.668 155.441 101.658C155.429 101.647 155.42 101.634 155.416 101.618C155.411 101.603 155.412 101.587 155.417 101.572C155.423 101.557 155.433 101.544 155.446 101.535L155.953 101.215C155.961 101.209 155.97 101.205 155.979 101.203C155.989 101.201 155.999 101.201 156.008 101.203C156.018 101.205 156.027 101.208 156.035 101.214C156.043 101.219 156.05 101.226 156.055 101.234C156.067 101.251 156.071 101.271 156.067 101.291C156.064 101.311 156.052 101.329 156.036 101.341L155.524 101.661C155.519 101.665 155.512 101.669 155.506 101.672C155.499 101.674 155.492 101.675 155.485 101.675ZM156.499 101.025C156.486 101.025 156.474 101.022 156.463 101.016C156.452 101.01 156.443 101.002 156.435 100.992C156.424 100.975 156.42 100.954 156.423 100.934C156.427 100.914 156.438 100.897 156.455 100.885L156.957 100.555C156.974 100.545 156.993 100.542 157.012 100.545C157.031 100.549 157.048 100.559 157.06 100.575C157.071 100.591 157.075 100.612 157.072 100.632C157.068 100.652 157.057 100.67 157.04 100.681L156.538 101.011C156.527 101.02 156.513 101.025 156.499 101.025ZM157.498 100.356C157.486 100.357 157.473 100.354 157.462 100.348C157.451 100.342 157.442 100.333 157.435 100.322C157.429 100.315 157.426 100.306 157.424 100.296C157.422 100.287 157.421 100.277 157.423 100.268C157.425 100.258 157.429 100.249 157.434 100.241C157.439 100.233 157.446 100.226 157.454 100.221L157.952 99.8813C157.96 99.8758 157.969 99.8719 157.978 99.87C157.988 99.868 157.998 99.8679 158.007 99.8697C158.017 99.8715 158.026 99.8751 158.034 99.8805C158.042 99.8858 158.049 99.8927 158.054 99.9007C158.06 99.9086 158.064 99.9176 158.066 99.927C158.068 99.9364 158.068 99.9462 158.066 99.9556C158.064 99.9651 158.06 99.9741 158.055 99.9822C158.05 99.9902 158.043 99.9971 158.035 100.002C157.869 100.119 157.703 100.235 157.537 100.342C157.532 100.347 157.526 100.351 157.519 100.353C157.513 100.356 157.505 100.357 157.498 100.356ZM158.488 99.6728C158.471 99.6747 158.454 99.6707 158.44 99.6616C158.426 99.6525 158.415 99.6388 158.41 99.6228C158.405 99.6068 158.406 99.5895 158.412 99.5739C158.418 99.5583 158.429 99.5453 158.444 99.5371L158.932 99.1928C158.948 99.181 158.968 99.1759 158.988 99.1786C159.008 99.1813 159.027 99.1916 159.039 99.2074C159.049 99.2245 159.053 99.2447 159.049 99.2644C159.046 99.284 159.035 99.3016 159.02 99.314L158.527 99.6583C158.522 99.6632 158.516 99.667 158.509 99.6695C158.502 99.672 158.495 99.6731 158.488 99.6728ZM159.463 98.9747C159.452 98.9751 159.44 98.9726 159.43 98.9676C159.42 98.9625 159.411 98.9549 159.405 98.9456C159.398 98.9378 159.393 98.9288 159.39 98.919C159.388 98.9093 159.387 98.8991 159.388 98.889C159.39 98.879 159.393 98.8693 159.398 98.8607C159.404 98.8521 159.411 98.8447 159.419 98.8389L159.902 98.485C159.918 98.4734 159.937 98.4685 159.956 98.4712C159.975 98.4739 159.993 98.4841 160.004 98.4995C160.016 98.515 160.021 98.5344 160.018 98.5535C160.016 98.5726 160.005 98.5898 159.99 98.6014L159.507 98.9601C159.494 98.9693 159.479 98.9743 159.463 98.9747ZM160.424 98.2571C160.412 98.2568 160.401 98.254 160.391 98.249C160.381 98.244 160.372 98.2368 160.365 98.2281C160.353 98.2118 160.348 98.1917 160.351 98.1718C160.354 98.1519 160.364 98.1338 160.38 98.1214L160.858 97.7578C160.873 97.7468 160.892 97.7417 160.911 97.7435C160.929 97.7453 160.947 97.7538 160.96 97.7675C160.972 97.7837 160.977 97.8038 160.974 97.8237C160.972 97.8436 160.961 97.8617 160.945 97.8741L160.472 98.2426C160.458 98.2524 160.441 98.2575 160.424 98.2571ZM161.374 97.5202C161.363 97.5206 161.352 97.5182 161.341 97.5131C161.331 97.508 161.322 97.5005 161.316 97.4911C161.305 97.4751 161.299 97.4556 161.301 97.436C161.303 97.4164 161.312 97.3982 161.326 97.3845C161.487 97.2633 161.643 97.1324 161.794 97.0111C161.81 96.9998 161.83 96.9945 161.849 96.9963C161.869 96.9981 161.887 97.0068 161.901 97.0208C161.913 97.0371 161.918 97.0572 161.915 97.0771C161.913 97.097 161.902 97.1151 161.886 97.1275L161.418 97.5008C161.413 97.5072 161.406 97.5123 161.399 97.5157C161.391 97.519 161.383 97.5206 161.374 97.5202ZM162.306 96.759C162.295 96.7605 162.283 96.759 162.273 96.7547C162.263 96.7505 162.254 96.7436 162.247 96.7348C162.236 96.7188 162.23 96.6992 162.232 96.6797C162.234 96.6601 162.243 96.6419 162.257 96.6281L162.715 96.2451C162.722 96.2385 162.731 96.2334 162.74 96.2302C162.749 96.2271 162.759 96.2259 162.769 96.2268C162.778 96.2278 162.788 96.2307 162.796 96.2356C162.805 96.2404 162.812 96.247 162.818 96.2548C162.825 96.2615 162.83 96.2696 162.834 96.2786C162.837 96.2876 162.839 96.2972 162.838 96.3068C162.838 96.3165 162.835 96.3259 162.831 96.3345C162.827 96.3431 162.82 96.3506 162.813 96.3566L162.354 96.7445C162.34 96.7538 162.323 96.7588 162.306 96.759ZM163.217 95.9833C163.195 95.9833 163.174 95.9746 163.159 95.9591C163.146 95.9435 163.14 95.9237 163.142 95.9038C163.144 95.884 163.154 95.8656 163.169 95.8524L163.612 95.4549C163.628 95.4429 163.647 95.4368 163.667 95.4377C163.687 95.4386 163.705 95.4464 163.72 95.4597C163.733 95.4747 163.739 95.4942 163.739 95.514C163.738 95.5339 163.729 95.5526 163.715 95.5664L163.266 95.9639C163.26 95.9702 163.252 95.9752 163.244 95.9785C163.235 95.9818 163.226 95.9835 163.217 95.9833ZM164.11 95.1785C164.099 95.1791 164.089 95.1772 164.08 95.173C164.071 95.1688 164.062 95.1623 164.056 95.1543C164.049 95.1479 164.043 95.1401 164.039 95.1313C164.035 95.1225 164.033 95.113 164.033 95.1034C164.033 95.0938 164.035 95.0842 164.039 95.0755C164.043 95.0667 164.049 95.0588 164.056 95.0525C164.207 94.9167 164.353 94.7761 164.495 94.6404C164.502 94.6337 164.51 94.6285 164.519 94.625C164.528 94.6215 164.538 94.6198 164.548 94.62C164.557 94.6202 164.567 94.6224 164.576 94.6263C164.585 94.6302 164.593 94.6358 164.6 94.6428C164.606 94.6498 164.612 94.6581 164.615 94.6671C164.619 94.6761 164.62 94.6857 164.62 94.6954C164.62 94.7051 164.618 94.7146 164.614 94.7235C164.61 94.7324 164.604 94.7404 164.597 94.747C164.456 94.8828 164.31 95.0234 164.158 95.1591C164.152 95.1656 164.145 95.1707 164.136 95.1741C164.128 95.1774 164.119 95.1789 164.11 95.1785ZM164.978 94.3495C164.957 94.3487 164.938 94.34 164.924 94.3252C164.917 94.3189 164.911 94.311 164.907 94.3023C164.903 94.2935 164.901 94.284 164.901 94.2743C164.901 94.2647 164.903 94.2552 164.907 94.2464C164.911 94.2376 164.917 94.2298 164.924 94.2234L165.348 93.7968C165.354 93.7896 165.362 93.7838 165.371 93.7798C165.38 93.7759 165.39 93.7738 165.399 93.7738C165.409 93.7738 165.419 93.7759 165.427 93.7798C165.436 93.7838 165.444 93.7896 165.45 93.7968C165.458 93.8033 165.464 93.8112 165.469 93.8202C165.473 93.8292 165.476 93.839 165.476 93.8491C165.477 93.8591 165.475 93.8691 165.472 93.8784C165.468 93.8878 165.462 93.8963 165.455 93.9035L165.031 94.3301C165.024 94.3367 165.016 94.3419 165.006 94.3452C164.997 94.3485 164.987 94.35 164.978 94.3495ZM165.816 93.4914C165.807 93.4921 165.798 93.4908 165.789 93.4874C165.781 93.484 165.773 93.4787 165.767 93.472C165.76 93.4655 165.753 93.4575 165.749 93.4485C165.744 93.4395 165.742 93.4297 165.741 93.4197C165.741 93.4097 165.743 93.3997 165.746 93.3903C165.75 93.381 165.755 93.3724 165.762 93.3653L166.167 92.929C166.18 92.9139 166.199 92.9046 166.219 92.9028C166.239 92.9009 166.259 92.9069 166.274 92.9193C166.288 92.9336 166.296 92.9522 166.297 92.9717C166.297 92.9912 166.291 93.0105 166.279 93.0259C166.148 93.1714 166.011 93.3217 165.87 93.4671C165.856 93.4819 165.837 93.4906 165.816 93.4914ZM166.621 92.6041C166.603 92.6028 166.586 92.596 166.572 92.5847C166.558 92.571 166.549 92.5528 166.547 92.5332C166.545 92.5136 166.551 92.4941 166.562 92.4781L166.952 92.0223C166.965 92.0087 166.983 92.0001 167.002 91.9983C167.02 91.9966 167.039 92.0016 167.055 92.0127C167.063 92.0188 167.069 92.0265 167.074 92.0353C167.079 92.0441 167.082 92.0538 167.083 92.0639C167.084 92.0739 167.083 92.084 167.079 92.0935C167.076 92.1031 167.071 92.1119 167.064 92.1193C166.938 92.2696 166.811 92.4247 166.679 92.575C166.672 92.5838 166.663 92.591 166.653 92.596C166.643 92.601 166.632 92.6038 166.621 92.6041ZM167.381 91.6781C167.365 91.6778 167.35 91.6727 167.337 91.6636C167.321 91.6511 167.311 91.6331 167.308 91.6132C167.306 91.5933 167.311 91.5731 167.323 91.5569L167.688 91.0818C167.7 91.0664 167.717 91.0562 167.737 91.0534C167.746 91.0521 167.756 91.0526 167.765 91.055C167.774 91.0574 167.783 91.0615 167.791 91.0673C167.798 91.073 167.805 91.0802 167.81 91.0884C167.815 91.0966 167.818 91.1057 167.819 91.1151C167.821 91.1246 167.82 91.1342 167.818 91.1435C167.815 91.1527 167.811 91.1614 167.805 91.1691L167.445 91.649C167.437 91.6584 167.427 91.666 167.416 91.671C167.405 91.6761 167.393 91.6785 167.381 91.6781ZM168.098 90.7133C168.082 90.7137 168.067 90.7086 168.054 90.6988C168.046 90.6934 168.039 90.6865 168.034 90.6785C168.028 90.6704 168.025 90.6614 168.023 90.6519C168.021 90.6425 168.021 90.6327 168.023 90.6233C168.025 90.6139 168.029 90.6049 168.035 90.597C168.147 90.4321 168.259 90.2673 168.366 90.1025C168.376 90.0857 168.393 90.0738 168.412 90.0693C168.431 90.0647 168.452 90.0679 168.468 90.0782C168.485 90.0885 168.497 90.105 168.502 90.1241C168.506 90.1432 168.503 90.1633 168.493 90.18C168.386 90.3449 168.273 90.5146 168.156 90.6842C168.149 90.693 168.14 90.7002 168.13 90.7052C168.12 90.7102 168.109 90.713 168.098 90.7133ZM168.746 89.7098C168.739 89.71 168.732 89.7089 168.725 89.7064C168.719 89.7039 168.713 89.7001 168.707 89.6952C168.69 89.6851 168.678 89.6689 168.673 89.65C168.667 89.6311 168.669 89.6109 168.678 89.5934C168.781 89.4237 168.883 89.2492 168.976 89.0795C168.979 89.0704 168.985 89.0622 168.992 89.0555C168.999 89.0487 169.007 89.0436 169.016 89.0403C169.026 89.0371 169.036 89.0359 169.045 89.0368C169.055 89.0377 169.065 89.0407 169.073 89.0455C169.091 89.0549 169.104 89.0707 169.111 89.0896C169.117 89.1086 169.116 89.1293 169.107 89.1474C169.015 89.3219 168.912 89.4964 168.81 89.671C168.803 89.6822 168.794 89.6916 168.783 89.6984C168.772 89.7051 168.759 89.7091 168.746 89.7098ZM169.312 88.6528H169.278C169.261 88.6427 169.248 88.6269 169.242 88.6082C169.236 88.5895 169.236 88.5693 169.244 88.551C169.331 88.37 169.414 88.1906 169.492 88.0129C169.495 88.0034 169.501 87.9947 169.507 87.9874C169.514 87.9801 169.523 87.9744 169.532 87.9707C169.541 87.967 169.551 87.9654 169.561 87.966C169.571 87.9666 169.581 87.9693 169.59 87.9741C169.599 87.9778 169.607 87.9833 169.614 87.9902C169.621 87.9971 169.626 88.0053 169.63 88.0144C169.634 88.0234 169.635 88.0331 169.635 88.0428C169.635 88.0526 169.633 88.0622 169.629 88.0711C169.551 88.2504 169.468 88.4347 169.38 88.6189C169.373 88.6299 169.362 88.6388 169.351 88.6447C169.339 88.6507 169.325 88.6535 169.312 88.6528ZM169.775 87.5523H169.751C169.741 87.5496 169.733 87.545 169.725 87.5388C169.718 87.5326 169.712 87.5248 169.708 87.5161C169.704 87.5074 169.701 87.4979 169.701 87.4883C169.701 87.4786 169.703 87.469 169.707 87.4602C169.775 87.2711 169.839 87.082 169.892 86.8929C169.895 86.8836 169.9 86.875 169.906 86.8675C169.912 86.86 169.92 86.8538 169.928 86.8493C169.937 86.8448 169.946 86.842 169.956 86.8412C169.966 86.8404 169.976 86.8415 169.985 86.8445C169.994 86.8472 170.003 86.8518 170.01 86.858C170.018 86.8641 170.024 86.8717 170.029 86.8803C170.033 86.8889 170.036 86.8983 170.037 86.908C170.038 86.9176 170.037 86.9274 170.034 86.9366C169.98 87.1257 169.917 87.3196 169.848 87.5087C169.842 87.5226 169.832 87.5344 169.819 87.5422C169.806 87.55 169.79 87.5536 169.775 87.5523ZM175.07 87.2081C175.051 87.2081 175.032 87.2004 175.018 87.1868C175.005 87.1731 174.997 87.1546 174.997 87.1354C174.997 87.1156 175.004 87.0966 175.018 87.0822C175.032 87.0677 175.05 87.059 175.07 87.0578C175.275 87.0578 175.475 87.0529 175.67 87.0432C175.679 87.0426 175.689 87.0438 175.698 87.0469C175.707 87.0499 175.716 87.0548 175.723 87.0611C175.73 87.0674 175.736 87.075 175.74 87.0836C175.745 87.0922 175.747 87.1016 175.748 87.1111C175.748 87.1211 175.747 87.131 175.744 87.1404C175.74 87.1498 175.735 87.1584 175.728 87.1657C175.721 87.173 175.713 87.1788 175.704 87.1827C175.695 87.1867 175.685 87.1887 175.675 87.1887L175.07 87.2081ZM174.47 87.2032L173.866 87.179C173.856 87.1784 173.847 87.1759 173.838 87.1716C173.829 87.1674 173.822 87.1615 173.815 87.1543C173.809 87.1471 173.804 87.1387 173.801 87.1296C173.798 87.1206 173.797 87.111 173.798 87.1014C173.797 87.0914 173.8 87.0816 173.804 87.0724C173.807 87.0633 173.813 87.055 173.821 87.0482C173.828 87.0414 173.837 87.0361 173.846 87.0328C173.855 87.0294 173.866 87.028 173.876 87.0287C174.075 87.0432 174.28 87.0481 174.47 87.0529C174.481 87.0521 174.491 87.0536 174.5 87.0572C174.51 87.0609 174.519 87.0667 174.526 87.0742C174.533 87.0816 174.538 87.0906 174.541 87.1003C174.544 87.1101 174.545 87.1204 174.543 87.1305C174.543 87.1498 174.536 87.1683 174.522 87.1819C174.508 87.1956 174.49 87.2032 174.47 87.2032ZM176.269 87.1451C176.252 87.1452 176.234 87.1389 176.221 87.1273C176.207 87.1157 176.199 87.0996 176.196 87.082C176.195 87.0622 176.201 87.0426 176.214 87.0273C176.227 87.0119 176.245 87.002 176.265 86.9996C176.469 86.9802 176.664 86.956 176.859 86.9269C176.879 86.9254 176.898 86.931 176.913 86.9426C176.928 86.9542 176.939 86.9711 176.942 86.9899C176.944 86.9995 176.943 87.0092 176.941 87.0186C176.938 87.0279 176.934 87.0367 176.928 87.0443C176.922 87.052 176.915 87.0584 176.906 87.0632C176.898 87.0681 176.889 87.0711 176.879 87.0723C176.684 87.1014 176.484 87.1257 176.279 87.1451H176.269ZM173.271 87.1451H173.266L172.666 87.0966C172.656 87.096 172.646 87.0934 172.637 87.0888C172.628 87.0843 172.621 87.0779 172.614 87.0702C172.608 87.0625 172.603 87.0535 172.6 87.0438C172.597 87.0342 172.597 87.0241 172.598 87.0142C172.599 87.0048 172.601 86.9956 172.606 86.9873C172.61 86.9789 172.616 86.9715 172.623 86.9656C172.631 86.9597 172.639 86.9553 172.648 86.9528C172.657 86.9504 172.667 86.9498 172.676 86.9511L173.276 86.9948C173.285 86.9954 173.295 86.9979 173.303 87.0021C173.312 87.0063 173.32 87.0122 173.326 87.0194C173.333 87.0267 173.337 87.035 173.34 87.0441C173.344 87.0532 173.345 87.0628 173.344 87.0723C173.343 87.0912 173.335 87.1091 173.321 87.1225C173.308 87.1359 173.29 87.1439 173.271 87.1451ZM172.072 87.0432C172.07 87.0432 172.069 87.0427 172.068 87.0418C172.067 87.0409 172.067 87.0397 172.067 87.0384L171.467 86.9754C171.447 86.9729 171.429 86.963 171.416 86.9477C171.404 86.9324 171.397 86.9128 171.399 86.8929C171.4 86.8827 171.403 86.8728 171.408 86.8639C171.413 86.8549 171.42 86.8471 171.428 86.8407C171.436 86.8344 171.446 86.8298 171.456 86.8271C171.466 86.8244 171.476 86.8237 171.486 86.8251L172.081 86.8929C172.091 86.8941 172.1 86.8972 172.109 86.902C172.117 86.9068 172.124 86.9133 172.13 86.9209C172.136 86.9286 172.141 86.9374 172.143 86.9467C172.145 86.9561 172.146 86.9658 172.145 86.9754C172.143 86.9938 172.135 87.0111 172.122 87.0237C172.108 87.0363 172.09 87.0433 172.072 87.0432ZM177.459 86.9705C177.442 86.97 177.426 86.964 177.413 86.9536C177.4 86.9431 177.39 86.9286 177.386 86.9123C177.384 86.9028 177.384 86.8929 177.386 86.8833C177.387 86.8736 177.391 86.8645 177.397 86.8563C177.402 86.8482 177.409 86.8412 177.417 86.8358C177.426 86.8305 177.435 86.8268 177.444 86.8251C177.644 86.7814 177.839 86.733 178.025 86.6796C178.044 86.6751 178.064 86.6781 178.082 86.688C178.099 86.6979 178.112 86.714 178.117 86.733C178.122 86.7516 178.119 86.7712 178.109 86.7875C178.098 86.8039 178.082 86.8156 178.064 86.8202C177.87 86.8795 177.673 86.9281 177.474 86.9657L177.459 86.9705ZM170.882 86.8978H170.867C170.667 86.8736 170.467 86.8396 170.272 86.8105C170.255 86.8043 170.241 86.7924 170.232 86.7769C170.223 86.7614 170.22 86.7432 170.222 86.7254C170.225 86.7077 170.234 86.6915 170.248 86.6796C170.261 86.6677 170.279 86.6608 170.297 86.6602L170.892 86.7523C170.911 86.7559 170.928 86.7663 170.939 86.7815C170.951 86.7967 170.957 86.8157 170.955 86.8348C170.952 86.8519 170.943 86.8675 170.929 86.8789C170.916 86.8904 170.899 86.897 170.882 86.8978ZM169.692 86.699H169.678L169.088 86.5827C169.078 86.5804 169.069 86.5762 169.061 86.5703C169.052 86.5644 169.046 86.5569 169.041 86.5482C169.036 86.5396 169.032 86.53 169.031 86.5201C169.03 86.5101 169.031 86.5001 169.034 86.4905C169.036 86.481 169.039 86.4719 169.045 86.4639C169.05 86.4559 169.057 86.4491 169.066 86.444C169.074 86.439 169.083 86.4358 169.093 86.4346C169.103 86.4334 169.113 86.4343 169.122 86.4372L169.707 86.5536C169.726 86.5582 169.742 86.5697 169.753 86.5859C169.764 86.602 169.768 86.6217 169.765 86.6408C169.763 86.658 169.754 86.6736 169.74 86.6844C169.727 86.6952 169.71 86.7004 169.692 86.699ZM178.615 86.636C178.599 86.6366 178.584 86.6322 178.572 86.6234C178.56 86.6146 178.551 86.602 178.546 86.5875C178.54 86.5695 178.541 86.5498 178.549 86.5325C178.558 86.5153 178.572 86.502 178.59 86.4954C178.776 86.4227 178.961 86.3451 179.136 86.2627C179.145 86.2578 179.154 86.2548 179.164 86.2539C179.174 86.253 179.184 86.2542 179.193 86.2575C179.202 86.2607 179.211 86.2658 179.218 86.2726C179.225 86.2794 179.23 86.2875 179.234 86.2966C179.239 86.3051 179.242 86.3145 179.243 86.3242C179.244 86.3339 179.242 86.3437 179.239 86.3529C179.236 86.3621 179.231 86.3705 179.224 86.3775C179.217 86.3845 179.209 86.39 179.2 86.3936C179.018 86.4835 178.83 86.5628 178.639 86.6311L178.615 86.636ZM168.517 86.4518H168.503L167.918 86.3015C167.908 86.2992 167.899 86.295 167.89 86.2891C167.882 86.2832 167.876 86.2757 167.871 86.267C167.866 86.2584 167.862 86.2488 167.861 86.2389C167.86 86.2289 167.861 86.2189 167.864 86.2093C167.867 86.2001 167.871 86.1914 167.877 86.1839C167.884 86.1764 167.891 86.1702 167.9 86.1657C167.909 86.1612 167.918 86.1584 167.928 86.1576C167.937 86.1568 167.947 86.1579 167.957 86.1609C168.147 86.2093 168.342 86.2627 168.537 86.3063C168.556 86.312 168.572 86.3247 168.582 86.3418C168.592 86.3589 168.595 86.3792 168.59 86.3984C168.586 86.4142 168.576 86.428 168.563 86.4377C168.55 86.4474 168.534 86.4523 168.517 86.4518ZM170.112 86.4081H170.092C170.082 86.4065 170.073 86.4028 170.065 86.3974C170.057 86.392 170.05 86.3849 170.045 86.3766C170.04 86.3683 170.037 86.3591 170.036 86.3495C170.035 86.3399 170.035 86.3301 170.038 86.3209C170.077 86.1269 170.112 85.933 170.141 85.7391C170.144 85.7202 170.155 85.7034 170.17 85.6918C170.185 85.6801 170.204 85.6745 170.224 85.676C170.234 85.6765 170.243 85.6791 170.252 85.6837C170.261 85.6883 170.269 85.6948 170.275 85.7026C170.281 85.7105 170.285 85.7195 170.287 85.7292C170.289 85.7388 170.289 85.7488 170.287 85.7585C170.263 85.9572 170.224 86.156 170.185 86.3548C170.18 86.3702 170.17 86.3836 170.157 86.3931C170.144 86.4027 170.128 86.4079 170.112 86.4081ZM167.362 86.1318H167.337L166.762 85.9475C166.744 85.94 166.729 85.9257 166.721 85.9077C166.713 85.8897 166.712 85.8693 166.718 85.8506C166.721 85.8413 166.725 85.8327 166.732 85.8254C166.738 85.818 166.746 85.8121 166.755 85.8079C166.763 85.8038 166.773 85.8016 166.783 85.8014C166.792 85.8012 166.802 85.8031 166.811 85.8069L167.381 85.9863C167.4 85.993 167.416 86.0068 167.425 86.0249C167.435 86.0431 167.436 86.064 167.43 86.0833C167.425 86.0974 167.416 86.1096 167.404 86.1182C167.391 86.1269 167.377 86.1316 167.362 86.1318ZM179.692 86.1172C179.679 86.1165 179.667 86.1126 179.655 86.1058C179.644 86.0991 179.635 86.0897 179.629 86.0784C179.619 86.0615 179.617 86.0417 179.621 86.0228C179.626 86.004 179.637 85.9875 179.653 85.9766C179.823 85.8764 179.986 85.7646 180.141 85.6421C180.148 85.6336 180.158 85.6268 180.168 85.6223C180.179 85.6178 180.19 85.6157 180.202 85.6162C180.213 85.6166 180.225 85.6196 180.235 85.6249C180.245 85.6301 180.254 85.6376 180.261 85.6467C180.268 85.6559 180.273 85.6664 180.275 85.6776C180.278 85.6888 180.278 85.7004 180.275 85.7115C180.272 85.7227 180.267 85.7331 180.26 85.7421C180.253 85.751 180.244 85.7583 180.233 85.7633C180.073 85.8874 179.905 86.0024 179.731 86.1075L179.692 86.1172ZM166.226 85.7439H166.196L165.636 85.5161C165.618 85.5076 165.605 85.493 165.597 85.4751C165.59 85.4571 165.59 85.4372 165.597 85.4191C165.607 85.402 165.622 85.3889 165.641 85.3819C165.66 85.3748 165.68 85.3743 165.699 85.3803C165.875 85.4579 166.065 85.5354 166.25 85.6082C166.259 85.6108 166.268 85.6154 166.275 85.6217C166.283 85.6279 166.289 85.6356 166.293 85.6444C166.297 85.6531 166.299 85.6626 166.3 85.6722C166.3 85.6819 166.298 85.6914 166.294 85.7003C166.288 85.7134 166.279 85.7246 166.266 85.7324C166.254 85.7401 166.24 85.7442 166.226 85.7439ZM180.638 85.3852C180.618 85.3844 180.598 85.3757 180.584 85.3609C180.572 85.3467 180.565 85.3281 180.566 85.309C180.567 85.29 180.575 85.2721 180.589 85.2591C180.727 85.1189 180.857 84.9716 180.979 84.8179C180.991 84.8025 181.008 84.7923 181.027 84.7896C181.047 84.7868 181.066 84.7918 181.082 84.8034C181.098 84.8158 181.108 84.8339 181.111 84.8538C181.113 84.8737 181.108 84.8938 181.096 84.91C180.97 85.0681 180.835 85.2187 180.692 85.3609C180.678 85.3757 180.658 85.3844 180.638 85.3852ZM165.119 85.2736L165.09 85.2639C164.904 85.1767 164.724 85.0846 164.548 84.9925C164.532 84.9823 164.519 84.9662 164.514 84.9473C164.508 84.9284 164.51 84.9081 164.519 84.8906C164.524 84.8818 164.53 84.874 164.538 84.8678C164.546 84.8615 164.555 84.8568 164.564 84.8541C164.574 84.8514 164.584 84.8506 164.594 84.8519C164.604 84.8532 164.613 84.8565 164.622 84.8615C164.792 84.9537 164.973 85.0458 165.153 85.1282C165.162 85.1323 165.171 85.1383 165.177 85.1458C165.184 85.1532 165.189 85.1621 165.193 85.1716C165.196 85.1812 165.197 85.1913 165.196 85.2014C165.195 85.2114 165.192 85.2212 165.187 85.23C165.181 85.2428 165.171 85.2537 165.159 85.2613C165.147 85.269 165.133 85.2733 165.119 85.2736ZM170.272 85.2252H170.268C170.258 85.2245 170.249 85.222 170.24 85.2178C170.231 85.2136 170.224 85.2077 170.217 85.2005C170.211 85.1933 170.206 85.1849 170.203 85.1758C170.2 85.1667 170.199 85.1571 170.199 85.1476C170.209 85.0167 170.209 84.8809 170.209 84.7452V84.5561C170.209 84.5364 170.217 84.5173 170.23 84.5029C170.244 84.4885 170.262 84.4798 170.282 84.4785C170.302 84.4796 170.32 84.4874 170.335 84.5007C170.349 84.514 170.358 84.5319 170.36 84.5513V84.7452C170.36 84.8809 170.355 85.0215 170.35 85.1573C170.348 85.1761 170.339 85.1935 170.324 85.206C170.31 85.2185 170.292 85.2253 170.272 85.2252ZM164.066 84.7016C164.052 84.7035 164.038 84.7 164.027 84.6919C163.851 84.5852 163.681 84.4785 163.515 84.367C163.5 84.3554 163.489 84.3386 163.485 84.3198C163.482 84.301 163.485 84.2816 163.495 84.2652C163.507 84.2487 163.525 84.2374 163.545 84.2338C163.565 84.2302 163.586 84.2345 163.603 84.2458C163.763 84.3525 163.934 84.464 164.105 84.5658C164.121 84.5767 164.132 84.5932 164.137 84.612C164.141 84.6309 164.139 84.6507 164.129 84.6676C164.122 84.6782 164.113 84.6869 164.102 84.6929C164.091 84.6988 164.078 84.7018 164.066 84.7016ZM181.379 84.4446L181.34 84.4349C181.332 84.4299 181.324 84.4233 181.318 84.4155C181.313 84.4076 181.308 84.3986 181.306 84.3891C181.304 84.3796 181.304 84.3698 181.305 84.3602C181.307 84.3505 181.31 84.3413 181.316 84.3331C181.417 84.1649 181.51 83.9918 181.594 83.8143C181.598 83.8051 181.604 83.7968 181.611 83.7901C181.619 83.7833 181.628 83.7781 181.637 83.7749C181.647 83.7717 181.657 83.7706 181.667 83.7715C181.677 83.7725 181.687 83.7755 181.696 83.7804C181.705 83.784 181.713 83.7895 181.72 83.7965C181.727 83.8035 181.732 83.8119 181.735 83.8211C181.739 83.8303 181.74 83.8401 181.739 83.8498C181.738 83.8595 181.735 83.8689 181.73 83.8774C181.642 84.0616 181.545 84.241 181.442 84.4107C181.436 84.4213 181.426 84.43 181.415 84.4359C181.404 84.4419 181.392 84.4449 181.379 84.4446ZM170.253 84.0325C170.234 84.0325 170.215 84.0248 170.201 84.0112C170.188 83.9976 170.18 83.9791 170.18 83.9598C170.175 83.8337 170.165 83.6253 170.136 83.3683C170.135 83.3485 170.141 83.3289 170.154 83.3136C170.166 83.2982 170.184 83.2883 170.204 83.2859C170.224 83.2845 170.244 83.2908 170.259 83.3034C170.275 83.316 170.285 83.334 170.287 83.3538C170.311 83.6156 170.321 83.824 170.326 83.9549C170.327 83.9645 170.325 83.9741 170.322 83.9832C170.319 83.9922 170.314 84.0006 170.308 84.0078C170.302 84.015 170.294 84.0209 170.285 84.0252C170.277 84.0294 170.267 84.0319 170.258 84.0325H170.253ZM163.071 84.0277C163.055 84.0273 163.04 84.0223 163.027 84.0131C162.866 83.8919 162.71 83.761 162.559 83.6301C162.552 83.6237 162.546 83.616 162.541 83.6073C162.537 83.5986 162.535 83.5892 162.534 83.5795C162.533 83.5698 162.534 83.5601 162.538 83.5509C162.541 83.5417 162.546 83.5332 162.552 83.5259C162.558 83.5185 162.566 83.5125 162.575 83.5082C162.584 83.5039 162.593 83.5013 162.603 83.5006C162.613 83.5 162.622 83.5012 162.632 83.5043C162.641 83.5074 162.649 83.5122 162.657 83.5186C162.803 83.6495 162.959 83.7755 163.12 83.8968C163.134 83.909 163.144 83.9261 163.147 83.9449C163.149 83.9637 163.145 83.9828 163.135 83.9986C163.127 84.008 163.117 84.0155 163.106 84.0206C163.095 84.0256 163.083 84.028 163.071 84.0277ZM181.896 83.3683H181.872C181.852 83.3617 181.836 83.3478 181.827 83.3297C181.818 83.3116 181.817 83.2906 181.823 83.2713C181.891 83.092 181.95 82.9029 182.003 82.7089C182.009 82.69 182.022 82.6739 182.039 82.664C182.056 82.6541 182.076 82.6511 182.096 82.6556C182.115 82.6613 182.131 82.674 182.141 82.6911C182.151 82.7082 182.154 82.7285 182.149 82.7477C182.096 82.9465 182.032 83.1404 181.964 83.3247C181.958 83.3378 181.949 83.349 181.937 83.3568C181.925 83.3645 181.91 83.3685 181.896 83.3683ZM162.169 83.2422C162.149 83.2414 162.13 83.2327 162.116 83.218L161.935 83.0338C161.852 82.9465 161.779 82.8592 161.706 82.7768C161.697 82.7697 161.689 82.7606 161.684 82.7503C161.679 82.7399 161.676 82.7285 161.676 82.7169C161.675 82.7053 161.678 82.6937 161.683 82.6832C161.688 82.6726 161.695 82.6633 161.704 82.6558C161.713 82.6484 161.723 82.6431 161.735 82.6402C161.746 82.6374 161.758 82.6371 161.769 82.6394C161.781 82.6417 161.791 82.6465 161.801 82.6535C161.81 82.6605 161.818 82.6695 161.823 82.6799C161.891 82.7623 161.964 82.8495 162.042 82.932L162.223 83.1162C162.236 83.1298 162.244 83.1481 162.244 83.1671C162.244 83.1861 162.236 83.2044 162.223 83.218C162.209 83.2327 162.19 83.2414 162.169 83.2422ZM170.136 82.8398C170.118 82.8391 170.102 82.8324 170.088 82.821C170.075 82.8095 170.066 82.794 170.063 82.7768C170.034 82.578 169.999 82.3841 169.96 82.1902C169.957 82.171 169.962 82.1514 169.973 82.1352C169.983 82.1191 170 82.1075 170.019 82.1029C170.029 82.1008 170.038 82.1006 170.048 82.1025C170.058 82.1043 170.067 82.108 170.075 82.1134C170.083 82.1189 170.09 82.1259 170.096 82.1341C170.101 82.1423 170.105 82.1515 170.107 82.1611C170.146 82.355 170.185 82.5538 170.214 82.7526C170.216 82.7723 170.21 82.7919 170.199 82.8079C170.187 82.8239 170.17 82.8353 170.151 82.8398H170.136ZM161.413 82.3162C161.401 82.3157 161.389 82.3123 161.378 82.3065C161.367 82.3006 161.357 82.2923 161.35 82.2823C161.245 82.1079 161.152 81.9265 161.072 81.7393C161.067 81.7305 161.065 81.7208 161.064 81.7109C161.063 81.7009 161.065 81.691 161.069 81.6817C161.072 81.6725 161.078 81.6641 161.086 81.6573C161.093 81.6505 161.102 81.6454 161.111 81.6423C161.12 81.6384 161.13 81.6362 161.14 81.636C161.149 81.6358 161.159 81.6376 161.168 81.6412C161.177 81.6448 161.186 81.6502 161.192 81.6571C161.199 81.6639 161.205 81.6721 161.209 81.6811C161.284 81.8623 161.374 82.0373 161.477 82.2047C161.482 82.213 161.486 82.2222 161.487 82.2318C161.489 82.2414 161.489 82.2513 161.486 82.2608C161.484 82.2703 161.48 82.2792 161.474 82.2871C161.468 82.295 161.461 82.3016 161.452 82.3065L161.413 82.3162ZM182.213 82.2144H182.198C182.188 82.2134 182.178 82.2102 182.17 82.2051C182.161 82.1999 182.154 82.1929 182.148 82.1845C182.143 82.1762 182.139 82.1667 182.137 82.1568C182.136 82.1469 182.137 82.1368 182.14 82.1272C182.174 81.9381 182.203 81.7393 182.227 81.5405C182.233 81.5239 182.245 81.5098 182.26 81.5005C182.275 81.4913 182.293 81.4875 182.311 81.4898C182.329 81.492 182.345 81.5002 182.357 81.513C182.369 81.5257 182.377 81.5423 182.379 81.5599C182.354 81.7635 182.32 81.9623 182.286 82.1563C182.282 82.1725 182.272 82.187 182.259 82.1975C182.246 82.208 182.23 82.2139 182.213 82.2144ZM169.902 81.6666C169.886 81.6658 169.87 81.6597 169.858 81.6492C169.845 81.6386 169.837 81.6243 169.834 81.6084L169.673 81.0363C169.67 81.0271 169.669 81.0174 169.669 81.0077C169.67 80.998 169.673 80.9886 169.678 80.98C169.682 80.9715 169.688 80.9639 169.696 80.9577C169.703 80.9516 169.712 80.947 169.721 80.9442C169.74 80.9394 169.76 80.9417 169.777 80.9507C169.794 80.9597 169.807 80.9746 169.814 80.9927C169.873 81.1834 169.926 81.3773 169.975 81.5745C169.979 81.5931 169.976 81.6127 169.966 81.6291C169.956 81.6454 169.94 81.6571 169.921 81.6617L169.902 81.6666ZM160.955 81.2157C160.938 81.2173 160.922 81.2127 160.908 81.2029C160.895 81.193 160.886 81.1786 160.882 81.1624C160.834 80.9633 160.803 80.7606 160.789 80.5563C160.789 80.5373 160.796 80.519 160.809 80.5047C160.821 80.4904 160.839 80.4811 160.858 80.4788C160.878 80.4774 160.897 80.4836 160.913 80.4963C160.928 80.5089 160.938 80.5269 160.941 80.5466C160.95 80.7414 160.98 80.9347 161.028 81.1236C161.031 81.1434 161.027 81.1637 161.017 81.1806C161.006 81.1976 160.989 81.2101 160.97 81.2157H160.955ZM182.359 81.0315H182.354C182.334 81.0302 182.316 81.0215 182.302 81.0071C182.289 80.9927 182.281 80.9737 182.281 80.9539C182.296 80.76 182.301 80.5612 182.301 80.3624C182.301 80.3427 182.308 80.3236 182.322 80.3092C182.335 80.2948 182.354 80.2861 182.374 80.2848C182.393 80.2848 182.412 80.2925 182.425 80.3061C182.439 80.3198 182.447 80.3383 182.447 80.3576C182.447 80.5612 182.442 80.7648 182.432 80.9587C182.432 80.9683 182.43 80.9778 182.427 80.9866C182.423 80.9954 182.418 81.0034 182.411 81.0102C182.404 81.0169 182.396 81.0223 182.387 81.0259C182.378 81.0296 182.369 81.0315 182.359 81.0315ZM169.551 80.5224C169.535 80.5233 169.519 80.5191 169.506 80.5103C169.493 80.5016 169.483 80.4888 169.478 80.4739C169.409 80.2897 169.331 80.1006 169.253 79.9261C169.249 79.9172 169.247 79.9076 169.247 79.8978C169.247 79.8881 169.249 79.8784 169.252 79.8694C169.256 79.8603 169.261 79.8521 169.268 79.8452C169.275 79.8383 169.283 79.8328 169.292 79.8291C169.31 79.8208 169.33 79.8197 169.348 79.826C169.367 79.8324 169.382 79.8457 169.39 79.863C169.473 80.0473 169.546 80.2315 169.619 80.4254C169.625 80.4435 169.624 80.4632 169.616 80.4804C169.608 80.4977 169.593 80.511 169.575 80.5176L169.551 80.5224ZM160.877 80.0327H160.867C160.858 80.0322 160.849 80.0297 160.84 80.0254C160.832 80.0211 160.825 80.0151 160.819 80.0078C160.813 80.0005 160.808 79.9921 160.806 79.983C160.803 79.9739 160.803 79.9645 160.804 79.9552C160.823 79.7522 160.859 79.5511 160.911 79.354C160.911 79.3422 160.914 79.3306 160.92 79.3201C160.925 79.3096 160.933 79.3005 160.942 79.2933C160.952 79.2862 160.963 79.2814 160.974 79.2791C160.986 79.2768 160.998 79.2772 161.009 79.2803C161.021 79.2833 161.031 79.2889 161.04 79.2966C161.049 79.3044 161.056 79.314 161.061 79.3248C161.066 79.3357 161.068 79.3474 161.067 79.3592C161.067 79.371 161.063 79.3825 161.058 79.3928C161.005 79.5816 160.969 79.7747 160.95 79.9697C160.948 79.9873 160.939 80.0034 160.926 80.015C160.912 80.0266 160.895 80.0329 160.877 80.0327ZM182.359 79.834C182.34 79.8341 182.321 79.8273 182.307 79.8148C182.293 79.8023 182.283 79.7849 182.281 79.7661C182.271 79.5722 182.257 79.3734 182.237 79.1746C182.236 79.1651 182.237 79.1554 182.24 79.1462C182.243 79.137 182.247 79.1285 182.253 79.1211C182.26 79.1136 182.267 79.1075 182.276 79.1029C182.284 79.0984 182.293 79.0956 182.303 79.0946C182.313 79.0937 182.322 79.0946 182.332 79.0974C182.341 79.1001 182.349 79.1047 182.357 79.1108C182.364 79.1168 182.371 79.1243 182.375 79.1328C182.38 79.1412 182.383 79.1505 182.383 79.1601C182.403 79.3588 182.422 79.5576 182.432 79.7564C182.433 79.7659 182.432 79.7755 182.429 79.7846C182.426 79.7937 182.421 79.8021 182.414 79.8093C182.408 79.8165 182.4 79.8224 182.392 79.8266C182.383 79.8308 182.374 79.8333 182.364 79.834H182.359ZM169.063 79.4316C169.049 79.4317 169.036 79.4282 169.024 79.4213C169.012 79.4145 169.002 79.4047 168.995 79.3928C168.902 79.2134 168.8 79.0437 168.698 78.8789C168.688 78.8619 168.685 78.8421 168.69 78.8233C168.694 78.8044 168.706 78.7879 168.722 78.7771C168.73 78.7716 168.739 78.7677 168.748 78.7657C168.758 78.7637 168.768 78.7636 168.777 78.7654C168.787 78.7672 168.796 78.7709 168.804 78.7762C168.812 78.7816 168.819 78.7884 168.824 78.7964C168.932 78.9661 169.034 79.1407 169.127 79.3201C169.136 79.3375 169.138 79.3578 169.132 79.3767C169.127 79.3956 169.114 79.4117 169.097 79.4219L169.063 79.4316ZM161.184 78.8789H161.155C161.146 78.8752 161.138 78.8697 161.131 78.8628C161.124 78.8559 161.119 78.8476 161.115 78.8386C161.111 78.8295 161.109 78.8199 161.11 78.8101C161.11 78.8004 161.112 78.7908 161.116 78.7819C161.199 78.5967 161.293 78.4169 161.399 78.2437C161.411 78.2274 161.428 78.2159 161.448 78.2114C161.468 78.2069 161.488 78.2098 161.506 78.2195C161.522 78.2304 161.534 78.2469 161.538 78.2657C161.543 78.2846 161.54 78.3044 161.53 78.3213C161.426 78.4874 161.333 78.6608 161.253 78.8401C161.247 78.8528 161.237 78.8633 161.225 78.8702C161.212 78.8772 161.198 78.8802 161.184 78.8789ZM182.232 78.6462C182.223 78.6468 182.214 78.6457 182.206 78.6429C182.197 78.6401 182.189 78.6356 182.183 78.6298C182.176 78.6239 182.17 78.6168 182.166 78.6088C182.162 78.6008 182.16 78.592 182.159 78.5831C182.125 78.3892 182.091 78.1953 182.052 78.0013C182.05 77.9918 182.05 77.9819 182.051 77.9723C182.053 77.9626 182.057 77.9535 182.062 77.9453C182.068 77.9372 182.075 77.9302 182.083 77.9248C182.092 77.9195 182.101 77.9158 182.11 77.9141C182.12 77.912 182.13 77.9118 182.14 77.9136C182.149 77.9154 182.159 77.9191 182.167 77.9246C182.175 77.93 182.182 77.937 182.187 77.9452C182.193 77.9534 182.196 77.9626 182.198 77.9723C182.237 78.1662 182.276 78.365 182.305 78.5637C182.307 78.5733 182.306 78.583 182.304 78.5924C182.301 78.6017 182.297 78.6105 182.291 78.6182C182.285 78.6258 182.278 78.6323 182.269 78.6371C182.261 78.6419 182.252 78.645 182.242 78.6462H182.232ZM168.425 78.4183C168.413 78.4182 168.401 78.415 168.391 78.409C168.381 78.4031 168.372 78.3946 168.366 78.3843C168.249 78.2244 168.122 78.0692 167.996 77.9238C167.989 77.9171 167.983 77.909 167.98 77.9C167.976 77.891 167.974 77.8814 167.975 77.8718C167.975 77.8621 167.978 77.8527 167.982 77.8441C167.987 77.8355 167.993 77.828 168 77.822C168.016 77.809 168.035 77.8022 168.055 77.8031C168.075 77.804 168.094 77.8125 168.108 77.8268C168.239 77.9771 168.366 78.1371 168.488 78.2971C168.499 78.3139 168.504 78.3344 168.5 78.3544C168.496 78.3743 168.485 78.392 168.468 78.4037C168.463 78.409 168.456 78.413 168.448 78.4155C168.44 78.418 168.433 78.419 168.425 78.4183ZM161.818 77.8704C161.8 77.8691 161.783 77.8623 161.769 77.851C161.761 77.8449 161.755 77.8372 161.75 77.8284C161.745 77.8196 161.742 77.8099 161.741 77.7998C161.74 77.7898 161.741 77.7797 161.744 77.7702C161.748 77.7606 161.753 77.7518 161.76 77.7444C161.888 77.5885 162.028 77.4426 162.179 77.308C162.186 77.301 162.195 77.2955 162.204 77.2919C162.213 77.2883 162.224 77.2867 162.234 77.2872C162.244 77.2876 162.254 77.2901 162.263 77.2946C162.272 77.299 162.28 77.3052 162.286 77.3129C162.293 77.3196 162.299 77.3277 162.302 77.3367C162.306 77.3456 162.307 77.3553 162.307 77.3649C162.306 77.3745 162.304 77.384 162.3 77.3925C162.295 77.4011 162.289 77.4087 162.281 77.4147C162.136 77.5485 161.999 77.691 161.872 77.8413C161.866 77.85 161.858 77.8571 161.848 77.8622C161.839 77.8672 161.829 77.8701 161.818 77.8704ZM167.635 77.5165C167.626 77.5166 167.617 77.515 167.608 77.5117C167.6 77.5083 167.592 77.5034 167.586 77.4971L167.523 77.4341C167.396 77.3226 167.269 77.2111 167.137 77.1141C167.13 77.1084 167.123 77.1012 167.118 77.093C167.113 77.0848 167.11 77.0757 167.109 77.0662C167.108 77.0568 167.108 77.0471 167.11 77.0379C167.113 77.0286 167.117 77.0199 167.123 77.0123C167.128 77.0041 167.135 76.9971 167.143 76.9918C167.152 76.9865 167.161 76.9831 167.171 76.9817C167.18 76.9803 167.19 76.981 167.2 76.9838C167.209 76.9866 167.218 76.9913 167.225 76.9978C167.365 77.0992 167.499 77.2093 167.625 77.3274L167.688 77.3905C167.702 77.4049 167.71 77.424 167.71 77.4438C167.71 77.4636 167.702 77.4827 167.688 77.4971C167.681 77.5038 167.673 77.5089 167.664 77.5122C167.654 77.5156 167.645 77.517 167.635 77.5165ZM181.993 77.4777C181.976 77.4781 181.96 77.4724 181.946 77.4618C181.933 77.4512 181.924 77.4362 181.92 77.4196C181.872 77.2305 181.818 77.0365 181.759 76.8475C181.754 76.8288 181.755 76.8086 181.765 76.7914C181.774 76.7741 181.789 76.7611 181.808 76.7554C181.827 76.7496 181.847 76.7514 181.865 76.7605C181.882 76.7696 181.895 76.7852 181.901 76.8038C181.959 76.9978 182.013 77.1917 182.062 77.3856C182.065 77.3949 182.066 77.4046 182.064 77.4142C182.063 77.4238 182.06 77.4331 182.055 77.4414C182.05 77.4496 182.043 77.4567 182.035 77.4622C182.027 77.4676 182.018 77.4713 182.008 77.4729L181.993 77.4777ZM162.701 77.0608C162.684 77.0627 162.667 77.0587 162.653 77.0496C162.639 77.0405 162.628 77.0268 162.623 77.0108C162.618 76.9948 162.618 76.9775 162.624 76.9619C162.631 76.9462 162.642 76.9332 162.657 76.925C162.827 76.8124 163.002 76.7088 163.183 76.6148C163.201 76.6103 163.219 76.6118 163.235 76.6192C163.251 76.6265 163.265 76.6392 163.273 76.6551C163.281 76.671 163.283 76.6892 163.279 76.7065C163.275 76.7239 163.266 76.7394 163.252 76.7505C163.074 76.8395 162.903 76.9399 162.74 77.0511L162.701 77.0608ZM166.679 76.8038L166.64 76.7941C166.468 76.6987 166.289 76.6176 166.104 76.5517C166.094 76.5491 166.086 76.5445 166.078 76.5382C166.071 76.532 166.065 76.5243 166.061 76.5155C166.057 76.5068 166.055 76.4973 166.054 76.4877C166.054 76.478 166.056 76.4685 166.06 76.4596C166.067 76.4405 166.081 76.4247 166.099 76.4156C166.117 76.4066 166.138 76.4049 166.157 76.4111C166.348 76.4821 166.534 76.5663 166.713 76.6632C166.73 76.6734 166.743 76.6895 166.748 76.7084C166.753 76.7273 166.751 76.7475 166.742 76.765C166.736 76.7763 166.727 76.7857 166.716 76.7924C166.705 76.7992 166.692 76.8031 166.679 76.8038ZM163.773 76.5323C163.757 76.5329 163.741 76.528 163.727 76.5183C163.714 76.5086 163.704 76.4948 163.7 76.479C163.697 76.4698 163.696 76.46 163.697 76.4504C163.698 76.4407 163.7 76.4313 163.705 76.4227C163.71 76.4141 163.716 76.4066 163.723 76.4004C163.731 76.3942 163.74 76.3896 163.749 76.3869C163.943 76.3242 164.142 76.2756 164.344 76.2414C164.363 76.2399 164.382 76.2455 164.397 76.2571C164.413 76.2688 164.423 76.2856 164.427 76.3045C164.429 76.3137 164.429 76.3234 164.427 76.3327C164.425 76.342 164.421 76.3509 164.416 76.3586C164.41 76.3664 164.403 76.3729 164.395 76.3778C164.387 76.3827 164.378 76.3858 164.368 76.3869C164.173 76.4194 163.981 76.4664 163.793 76.5275L163.773 76.5323ZM165.553 76.4014H165.538C165.345 76.3677 165.149 76.3482 164.953 76.3433C164.934 76.3433 164.915 76.3356 164.901 76.322C164.888 76.3083 164.88 76.2898 164.88 76.2705C164.88 76.2512 164.888 76.2327 164.901 76.2191C164.915 76.2055 164.934 76.1978 164.953 76.1978C165.158 76.1977 165.362 76.2172 165.563 76.256C165.572 76.2572 165.582 76.2603 165.59 76.2651C165.598 76.2699 165.606 76.2763 165.612 76.284C165.618 76.2917 165.622 76.3004 165.624 76.3098C165.627 76.3191 165.627 76.3288 165.626 76.3384C165.623 76.3556 165.614 76.3711 165.6 76.3826C165.587 76.394 165.57 76.4006 165.553 76.4014ZM181.642 76.3336C181.627 76.3334 181.613 76.3287 181.601 76.32C181.588 76.3113 181.579 76.2991 181.574 76.2851C181.506 76.096 181.438 75.9118 181.364 75.7275C181.36 75.7186 181.358 75.709 181.358 75.6993C181.358 75.6896 181.36 75.6799 181.363 75.6708C181.367 75.6618 181.372 75.6536 181.379 75.6467C181.386 75.6397 181.394 75.6343 181.403 75.6306C181.422 75.6238 181.442 75.624 181.46 75.6312C181.478 75.6384 181.493 75.652 181.501 75.6694C181.574 75.8584 181.647 76.0475 181.716 76.2317C181.722 76.251 181.72 76.272 181.711 76.2901C181.702 76.3082 181.686 76.3221 181.667 76.3287L181.642 76.3336ZM181.194 75.2233C181.179 75.2236 181.165 75.2195 181.153 75.2118C181.141 75.204 181.131 75.1928 181.126 75.1797C181.043 75.0003 180.955 74.8209 180.867 74.6464C180.858 74.6289 180.856 74.6086 180.862 74.5897C180.867 74.5708 180.879 74.5547 180.896 74.5446C180.915 74.536 180.935 74.5348 180.954 74.5411C180.974 74.5474 180.989 74.5608 180.999 74.5785C181.091 74.753 181.179 74.9373 181.262 75.1215C181.27 75.1389 181.272 75.1588 181.265 75.177C181.259 75.1952 181.245 75.2101 181.228 75.2185L181.194 75.2233Z" fill="white"/>
<path d="M180.97 74.6484C181.269 74.4585 180.553 72.807 179.37 70.9598C178.186 69.1125 176.984 67.769 176.684 67.9589C176.384 68.1488 177.101 69.8002 178.284 71.6475C179.467 73.4947 180.67 74.8383 180.97 74.6484Z" fill="#D1E2E4"/>
<path d="M178.303 70.1274L181.623 69.8705C181.695 69.8646 181.768 69.8782 181.833 69.9097C181.898 69.9413 181.954 69.9897 181.994 70.0499L182.159 70.302L179.268 71.6401L178.303 70.1274Z" fill="#D1E2E4"/>
<path d="M177.922 70.3711L176.279 73.2509C176.243 73.3129 176.224 73.3835 176.225 73.4552C176.226 73.5269 176.246 73.597 176.284 73.6582L176.44 73.92L178.888 71.8837L177.922 70.3711Z" fill="#D1E2E4"/>
<path d="M180.94 74.1387L181.94 74.4587C181.962 74.4662 181.981 74.479 181.996 74.496C182.012 74.5129 182.022 74.5334 182.028 74.5556L182.047 74.6477L180.989 74.7108L180.94 74.1387Z" fill="#D1E2E4"/>
<path d="M180.487 74.4238L180.35 75.4613C180.348 75.4845 180.351 75.5079 180.361 75.5292C180.37 75.5505 180.385 75.5689 180.404 75.5825L180.482 75.6359L180.989 74.7099L180.487 74.4238Z" fill="#D1E2E4"/>
<path d="M153.222 86.5742H120.911C119.196 86.5742 117.806 87.9569 117.806 89.6625V134.367C117.806 136.073 119.196 137.456 120.911 137.456H153.222C154.937 137.456 156.328 136.073 156.328 134.367V89.6625C156.328 87.9569 154.937 86.5742 153.222 86.5742Z" fill="#FFE600"/>
<mask id="mask0_10585_1513" style="mask-type:luminance" maskUnits="userSpaceOnUse" x="117" y="86" width="40" height="52">
<path d="M153.222 86.5742H120.911C119.196 86.5742 117.806 87.9569 117.806 89.6625V134.367C117.806 136.073 119.196 137.456 120.911 137.456H153.222C154.937 137.456 156.328 136.073 156.328 134.367V89.6625C156.328 87.9569 154.937 86.5742 153.222 86.5742Z" fill="white"/>
</mask>
<g mask="url(#mask0_10585_1513)">
<path d="M147.586 83.1426C147.586 83.1426 143.447 140.54 116.426 142.485C89.4053 144.429 162.652 141.001 162.652 141.001L158.278 84.2868L147.586 83.1426Z" fill="#EACE03" fill-opacity="0.48"/>
</g>
<mask id="mask1_10585_1513" style="mask-type:luminance" maskUnits="userSpaceOnUse" x="117" y="86" width="40" height="52">
<path d="M153.222 86.5742H120.911C119.196 86.5742 117.806 87.9569 117.806 89.6625V134.367C117.806 136.073 119.196 137.456 120.911 137.456H153.222C154.937 137.456 156.328 136.073 156.328 134.367V89.6625C156.328 87.9569 154.937 86.5742 153.222 86.5742Z" fill="white"/>
</mask>
<g mask="url(#mask1_10585_1513)">
<path d="M131.126 82.6328C131.126 82.6328 127.728 104.566 116.168 108.726C104.608 112.886 112.838 84.0533 112.838 84.0533L131.126 82.6328Z" fill="#FFED6E" fill-opacity="0.14"/>
</g>
<path d="M125.856 130.372C125.611 130.372 125.377 130.275 125.204 130.103C125.031 129.932 124.934 129.698 124.934 129.455V94.5823C124.934 94.3393 125.031 94.1062 125.204 93.9344C125.377 93.7626 125.611 93.666 125.856 93.666C126.099 93.6673 126.332 93.7644 126.504 93.9361C126.676 94.1078 126.772 94.3401 126.772 94.5823V129.455C126.772 129.698 126.676 129.93 126.504 130.102C126.332 130.273 126.099 130.371 125.856 130.372Z" fill="#CEB502"/>
<path d="M133.33 130.372C133.085 130.372 132.851 130.275 132.678 130.103C132.505 129.932 132.408 129.698 132.408 129.455V94.5823C132.408 94.3393 132.505 94.1062 132.678 93.9344C132.851 93.7626 133.085 93.666 133.33 93.666C133.573 93.6673 133.806 93.7644 133.978 93.9361C134.15 94.1078 134.246 94.3401 134.246 94.5823V129.455C134.246 129.698 134.15 129.93 133.978 130.102C133.806 130.273 133.573 130.371 133.33 130.372Z" fill="#CEB502"/>
<path d="M140.804 130.372C140.56 130.372 140.326 130.275 140.153 130.103C139.98 129.932 139.883 129.698 139.883 129.455V94.5823C139.883 94.3393 139.98 94.1062 140.153 93.9344C140.326 93.7626 140.56 93.666 140.804 93.666C141.048 93.6673 141.281 93.7644 141.453 93.9361C141.625 94.1078 141.721 94.3401 141.721 94.5823V129.455C141.721 129.698 141.625 129.93 141.453 130.102C141.281 130.273 141.048 130.371 140.804 130.372Z" fill="#CEB502"/>
<path d="M149.195 94.5823C149.195 94.0763 148.784 93.666 148.276 93.666C147.768 93.666 147.357 94.0763 147.357 94.5823V129.453C147.357 129.959 147.768 130.369 148.276 130.369C148.784 130.369 149.195 129.959 149.195 129.453V94.5823Z" fill="#CEB502"/>
<path d="M142.062 85.3711H146.83C146.92 85.3711 147.005 85.4063 147.068 85.4691C147.131 85.5318 147.167 85.6169 147.167 85.7056V86.5686H141.726V85.7056C141.726 85.6169 141.761 85.5318 141.824 85.4691C141.887 85.4063 141.973 85.3711 142.062 85.3711Z" fill="#494949"/>
<path d="M129.761 68.3926C129.587 68.3919 129.414 68.4255 129.254 68.4912C129.093 68.5569 128.947 68.6536 128.823 68.7757C128.7 68.8978 128.602 69.0428 128.536 69.2025C128.469 69.3623 128.435 69.5335 128.435 69.7065V85.371H130.248V71.0833C130.248 70.9664 130.27 70.8505 130.315 70.7423C130.359 70.6341 130.425 70.5357 130.508 70.4528C130.591 70.3699 130.689 70.3042 130.798 70.2593C130.907 70.2144 131.023 70.1913 131.141 70.1913H142.642C142.88 70.1913 143.108 70.2853 143.276 70.4526C143.445 70.6198 143.539 70.8467 143.539 71.0833V85.371H145.348V69.7065C145.348 69.5339 145.314 69.3631 145.248 69.2037C145.181 69.0443 145.084 68.8994 144.961 68.7774C144.838 68.6554 144.693 68.5586 144.532 68.4926C144.372 68.4266 144.2 68.3926 144.027 68.3926H129.761Z" fill="#AFAFAF"/>
<path d="M126.962 85.3711H131.731C131.82 85.3711 131.906 85.4063 131.969 85.4691C132.032 85.5318 132.067 85.6169 132.067 85.7056V86.5686H126.626V85.7056C126.626 85.6169 126.661 85.5318 126.725 85.4691C126.788 85.4063 126.873 85.3711 126.962 85.3711Z" fill="#494949"/>
<path d="M128.021 75.7957V69.3621C128.021 69.3621 128.128 68.1646 129.366 68.121C130.605 68.0773 144.466 68.121 144.466 68.121C144.466 68.121 145.787 68.3779 145.787 69.3621V75.7957H143.111V71.5826C143.111 71.2936 142.997 71.016 142.794 70.8094C142.59 70.6028 142.314 70.4835 142.023 70.4772H141.989L131.628 70.4384C131.482 70.4347 131.337 70.4633 131.203 70.5219C131.069 70.5806 130.949 70.668 130.853 70.7778C130.723 70.9175 130.65 71.1009 130.648 71.2917C130.648 71.8929 130.692 75.7957 130.692 75.7957H128.021Z" fill="#494949"/>
<path d="M129.238 143.038C129.666 141.183 128.499 139.334 126.633 138.909C124.767 138.484 122.907 139.644 122.48 141.499C122.053 143.355 123.219 145.204 125.085 145.629C126.951 146.054 128.811 144.894 129.238 143.038Z" fill="#494949"/>
<path d="M128.518 142.909C128.857 141.45 127.942 139.995 126.476 139.658C125.009 139.322 123.545 140.231 123.207 141.689C122.868 143.148 123.783 144.603 125.249 144.94C126.716 145.276 128.179 144.367 128.518 142.909Z" fill="#A8A8A8"/>
<path d="M127.171 142.512C127.34 141.789 126.888 141.067 126.162 140.899C125.436 140.731 124.71 141.181 124.54 141.903C124.371 142.625 124.823 143.347 125.55 143.515C126.276 143.683 127.002 143.234 127.171 142.512Z" fill="#494949"/>
<path d="M126.816 139.119H124.9L124.505 137.805H127.206L126.816 139.119Z" fill="#494949"/>
<path d="M127.713 137.911H123.993C123.871 137.911 123.755 137.863 123.669 137.777C123.583 137.692 123.535 137.576 123.535 137.455H128.176C128.175 137.576 128.126 137.692 128.039 137.778C127.952 137.863 127.835 137.911 127.713 137.911Z" fill="#7F7F7F"/>
<path d="M150.735 144.682C152.089 143.335 152.089 141.153 150.735 139.807C149.381 138.461 147.186 138.461 145.833 139.807C144.479 141.153 144.479 143.335 145.833 144.682C147.186 146.028 149.381 146.028 150.735 144.682Z" fill="#494949"/>
<path d="M150.211 144.161C151.275 143.102 151.275 141.386 150.211 140.328C149.146 139.269 147.421 139.269 146.356 140.328C145.292 141.386 145.292 143.102 146.356 144.161C147.421 145.219 149.146 145.219 150.211 144.161Z" fill="#A8A8A8"/>
<path d="M149.239 143.194C149.766 142.669 149.766 141.819 149.239 141.295C148.712 140.77 147.856 140.77 147.329 141.295C146.802 141.819 146.802 142.669 147.329 143.194C147.856 143.718 148.712 143.718 149.239 143.194Z" fill="#494949"/>
<path d="M149.239 139.119H147.323L146.928 137.805H149.629L149.239 139.119Z" fill="#494949"/>
<path d="M150.136 137.911H146.416C146.294 137.911 146.178 137.863 146.092 137.777C146.006 137.692 145.958 137.576 145.958 137.455H150.594C150.594 137.576 150.546 137.692 150.46 137.777C150.374 137.863 150.257 137.911 150.136 137.911Z" fill="#7F7F7F"/>
</g>
</g>
<defs>
<linearGradient id="paint0_linear_10585_1513" x1="140.5" y1="0" x2="140.5" y2="158" gradientUnits="userSpaceOnUse">
<stop stop-color="#FDFDFD"/>
<stop offset="0.2077" stop-color="#F5FBFD"/>
<stop offset="0.5296" stop-color="#E6EFF3"/>
<stop offset="0.9234" stop-color="#E6EFF3"/>
<stop offset="1" stop-color="#E6EFF3"/>
</linearGradient>
<clipPath id="clip0_10585_1513">
<rect width="281" height="158" fill="white"/>
</clipPath>
<clipPath id="clip1_10585_1513">
<rect width="88" height="84" fill="white" transform="translate(110 68)"/>
</clipPath>
</defs>
</svg>
