<svg width="281" height="158" viewBox="0 0 281 158" fill="none" xmlns="http://www.w3.org/2000/svg">
<g clip-path="url(#clip0_10587_2406)">
<path d="M0 158H281V0H0V158Z" fill="url(#paint0_linear_10587_2406)"/>
<path d="M140.354 146.348C192.464 146.348 234.708 143.136 234.708 139.174C234.708 135.212 192.464 132 140.354 132C88.2438 132 46 135.212 46 139.174C46 143.136 88.2438 146.348 140.354 146.348Z" fill="#4398D1"/>
<path d="M184.717 57.4469C168.876 46.5211 136.588 39.712 119.317 24.22C102.046 8.72802 70.4413 29.6007 66.6649 62.0612C62.8845 94.5217 75.4349 124.254 98.9731 134H181.266C205.435 110.295 200.558 68.3727 184.717 57.4469Z" fill="#D1E2E4"/>
<path d="M125.5 37.4375L128.938 52.9062H139.25L130.656 37.4375H125.5Z" fill="#4398D1"/>
<path d="M172.558 62.1969L171.906 61.5443L167.234 56.8691C165.434 55.068 163.297 53.6392 160.945 52.6643C158.593 51.6895 156.072 51.1876 153.525 51.1875H98L108.312 61.5062L108.737 61.9305C110.778 63.9735 113.202 65.5941 115.87 66.6999C118.538 67.8056 121.398 68.3749 124.286 68.375H170.001C170.717 68.3745 171.416 68.162 172.011 67.7642C172.606 67.3663 173.069 66.8011 173.343 66.14C173.616 65.4788 173.688 64.7513 173.548 64.0495C173.409 63.3477 173.064 62.703 172.558 62.1969Z" fill="#FDB62F"/>
<path d="M167.234 56.8691C165.434 55.068 163.297 53.6392 160.945 52.6643C158.593 51.6895 156.072 51.1876 153.525 51.1875H98L108.312 61.5062L171.906 61.5443L167.234 56.8691Z" fill="#BEEDFC"/>
<path d="M107.344 82.2812H114.219V90.875H107.344V82.2812Z" fill="#ED4720"/>
<path d="M122.812 89.1562H98.75L95.3125 108.062H126.25L122.812 89.1562Z" fill="#C8F0FC"/>
<path d="M110.781 90.0156C110.781 89.7255 110.809 89.4424 110.825 89.1562H98.75L95.3125 108.062H126.25L125.777 105.46C121.76 105.34 117.948 103.661 115.149 100.777C112.349 97.8942 110.783 94.0342 110.781 90.0156Z" fill="#78E6F9"/>
<path d="M103.906 94.3125H117.656V97.75H103.906V94.3125Z" fill="#A7ADAF"/>
<path d="M106.594 34H98V51.1875H111.75L106.594 34Z" fill="#78DEEF"/>
<path d="M140 97.75H174.375V128.688H140V97.75Z" fill="#4FB8C9"/>
<path d="M103.347 133.844C107.071 133.844 107.071 130.406 110.796 130.406C114.518 130.406 114.518 133.844 118.239 133.844C121.24 133.844 121.847 131.633 123.911 130.768L131.406 109.781L110.781 102.906L90.1562 109.781L97.6491 130.761C99.7291 131.622 100.333 133.844 103.347 133.844Z" fill="#606668"/>
<path d="M112.5 103.479L110.781 102.906L109.062 103.479V130.406H112.5V103.479Z" fill="#8C9193"/>
<path d="M186.406 104.625H174.375V128.688H191.562V114.938L186.406 104.625Z" fill="#78E6F9"/>
<path d="M179.531 133.844C182.379 133.844 184.688 131.535 184.688 128.688C184.688 125.84 182.379 123.531 179.531 123.531C176.684 123.531 174.375 125.84 174.375 128.688C174.375 131.535 176.684 133.844 179.531 133.844Z" fill="#3F4E56"/>
<path d="M116.906 56.3438H120.342V59.7812H116.906V56.3438Z" fill="#8C9193"/>
<path d="M123.781 56.3438H127.217V59.7812H123.781V56.3438Z" fill="#8C9193"/>
<path d="M130.656 56.3438H134.092V59.7812H130.656V56.3438Z" fill="#8C9193"/>
<path d="M137.531 56.3438H140.967V59.7812H137.531V56.3438Z" fill="#8C9193"/>
<path d="M168.438 58.0737L167.234 56.8691C167.049 56.6837 166.846 56.5208 166.654 56.3438H151.281V59.7812H168.438V58.0737Z" fill="#8C9193"/>
<path d="M128.919 64.9375L122.049 80.4062L127.202 82.125L139.226 64.9375H128.919Z" fill="#4398D1"/>
<path d="M133.125 137.563C132.204 137.557 131.294 137.361 130.453 136.987C129.612 136.613 128.857 136.068 128.236 135.388C127.936 134.995 127.55 134.677 127.107 134.458C126.663 134.239 126.176 134.125 125.682 134.125C125.187 134.125 124.7 134.239 124.257 134.458C123.813 134.677 123.427 134.995 123.126 135.387C122.509 136.072 121.756 136.619 120.914 136.994C120.072 137.369 119.16 137.563 118.239 137.563C117.317 137.563 116.406 137.369 115.564 136.994C114.722 136.619 113.968 136.072 113.351 135.387C113.05 134.995 112.663 134.677 112.22 134.458C111.776 134.239 111.288 134.125 110.794 134.125C110.299 134.125 109.811 134.239 109.368 134.458C108.924 134.677 108.537 134.995 108.237 135.388C107.619 136.073 106.864 136.62 106.022 136.994C105.179 137.369 104.267 137.563 103.345 137.563C102.423 137.563 101.511 137.369 100.669 136.994C99.8261 136.62 99.0715 136.073 98.4538 135.388C98.1521 134.995 97.7641 134.677 97.3198 134.458C96.8755 134.239 96.3867 134.125 95.8914 134.125C95.396 134.125 94.9073 134.239 94.463 134.458C94.0188 134.677 93.6309 134.996 93.3294 135.389C92.7082 136.069 91.9529 136.614 91.1109 136.988C90.269 137.362 89.3588 137.558 88.4375 137.563V134.125C88.9314 134.117 89.4174 134 89.8604 133.781C90.3035 133.563 90.6926 133.249 90.9997 132.862C91.6177 132.177 92.3725 131.63 93.2153 131.256C94.0581 130.881 94.9701 130.688 95.8924 130.688C96.8147 130.688 97.7267 130.881 98.5695 131.256C99.4123 131.63 100.167 132.177 100.785 132.862C101.086 133.255 101.474 133.573 101.918 133.792C102.362 134.011 102.85 134.125 103.345 134.125C103.84 134.125 104.329 134.011 104.773 133.792C105.216 133.573 105.604 133.255 105.905 132.862C106.523 132.177 107.277 131.63 108.119 131.256C108.961 130.881 109.873 130.687 110.795 130.688C111.717 130.688 112.628 130.881 113.47 131.256C114.313 131.631 115.067 132.178 115.684 132.863C115.984 133.255 116.371 133.573 116.814 133.792C117.257 134.011 117.745 134.125 118.239 134.125C118.733 134.125 119.22 134.011 119.663 133.792C120.106 133.573 120.493 133.255 120.793 132.863C121.41 132.178 122.164 131.631 123.006 131.256C123.848 130.881 124.76 130.688 125.681 130.688C126.603 130.687 127.514 130.881 128.356 131.256C129.198 131.63 129.952 132.177 130.57 132.862C130.875 133.249 131.263 133.563 131.705 133.781C132.147 134 132.632 134.117 133.125 134.125V137.563Z" fill="#4A98D3"/>
<path d="M144.408 56.3438H147.844V59.7812H144.408V56.3438Z" fill="#8C9193"/>
<path d="M181.25 104.625V114.938H191.562L186.406 104.625H181.25Z" fill="#C8F0FC"/>
<path d="M146.875 99.4688C146.875 98.8885 146.93 98.3223 146.962 97.75H140V128.688H167.717C161.635 126.59 156.359 122.648 152.624 117.411C148.888 112.174 146.878 105.902 146.875 99.4688Z" fill="#1493B0"/>
<path d="M101.438 39.1562C101.438 37.3885 101.78 35.6375 102.446 34H98V51.1875H108.536C106.385 49.9997 104.592 48.2571 103.344 46.1411C102.096 44.0251 101.437 41.6131 101.438 39.1562Z" fill="#4398D1"/>
<path d="M111.396 94.3125H103.906V97.75H112.873C112.243 96.6688 111.746 95.5144 111.396 94.3125Z" fill="#8C9193"/>
<path d="M153.75 133.844C156.598 133.844 158.906 131.535 158.906 128.688C158.906 125.84 156.598 123.531 153.75 123.531C150.902 123.531 148.594 125.84 148.594 128.688C148.594 131.535 150.902 133.844 153.75 133.844Z" fill="#3F4E56"/>
</g>
<defs>
<linearGradient id="paint0_linear_10587_2406" x1="140.5" y1="0" x2="140.5" y2="158" gradientUnits="userSpaceOnUse">
<stop stop-color="#FDFDFD"/>
<stop offset="0.2077" stop-color="#F5FBFD"/>
<stop offset="0.5296" stop-color="#E6EFF3"/>
<stop offset="0.9234" stop-color="#E6EFF3"/>
<stop offset="1" stop-color="#E6EFF3"/>
</linearGradient>
<clipPath id="clip0_10587_2406">
<rect width="281" height="158" fill="white"/>
</clipPath>
</defs>
</svg>
