<svg width="1920" height="1079" viewBox="0 0 1920 1079" fill="none" xmlns="http://www.w3.org/2000/svg">
<g clip-path="url(#clip0_10482_6726)">
<path d="M0 0H1920V1078.87H0V0Z" fill="white"/>
<path d="M552.865 360.924C555.316 374.236 560.55 394.49 561.862 399.483C561.862 399.483 574.152 450.552 592.147 491.422C612.757 538.222 643.533 580.018 675.851 619.971C737.314 695.946 805.156 766.748 878.642 831.617C908.392 857.851 939.631 883.471 976.282 899.142C1007.14 912.327 1040.91 918.008 1074.5 918.773C1127.78 919.934 1180.57 909.043 1228.77 886.94C1301.53 853.508 1365.02 786.12 1364.64 707.123C1364.42 657.141 1339.1 610.518 1310.2 569.239C1248.98 481.836 1169.48 408.514 1089.81 336.864C1038.35 290.578 986.142 244.343 926.219 209.137C833.881 154.946 757.942 153.683 728.069 153.045C676.475 151.78 639.747 150.892 606.916 175.385C548.514 219.025 543.976 312.155 552.865 360.924Z" fill="#006A4F" fill-opacity="0.65"/>
<path d="M1215.28 605.653C1218.4 635.083 1221.48 664.15 1224.63 693.7L1232.09 693.249C1256.36 691.815 1280.63 689.787 1304.94 689.152C1317.91 689.104 1330.85 690.101 1343.65 692.129C1358.52 694.171 1371.01 701.805 1382.13 711.31C1392.13 719.859 1401.67 728.947 1411.09 738.145C1412.85 739.873 1414.62 743.785 1413.82 745.711C1413.08 746.995 1412.07 748.108 1410.85 748.989C1409.64 749.863 1408.24 750.47 1406.77 750.777C1400.16 751.972 1393.48 752.778 1386.77 753.188C1383.43 753.482 1381.86 754.485 1382.3 758.118C1383.96 771.693 1385.3 785.301 1387.08 798.842C1387.28 800.365 1389.29 801.976 1390.86 802.946C1398.9 807.876 1403.08 815.148 1402.64 824.202C1402.2 833.256 1396.2 838.951 1387.65 841.894C1374.77 846.326 1362.52 835.318 1365.26 821.239C1366.1 816.882 1369.4 813.017 1371.4 808.845C1372.4 807.193 1372.96 805.315 1373.04 803.389C1371.95 791.276 1370.57 779.327 1369.3 767.295C1368.91 763.574 1368.63 759.832 1368.3 755.94L1231.65 764.024C1233.9 788.49 1236.16 812.778 1238.4 836.889C1245.07 836.889 1251.12 836.664 1257.16 836.889C1258.77 836.896 1260.36 837.251 1261.81 837.927C1263.26 838.61 1264.55 839.607 1265.56 840.829C1266.58 842.058 1267.3 843.499 1267.67 845.035C1268.05 846.572 1268.07 848.176 1267.74 849.719C1267.35 851.884 1265.02 854.916 1263.21 855.257C1261.04 855.605 1257.91 853.878 1256.15 852.089C1254.72 850.6 1254.14 849.112 1251.51 849.323C1238.58 850.293 1225.63 850.914 1212.7 851.939C1210.56 852.089 1208.59 853.666 1206.46 854.445C1204.32 855.223 1201.34 856.8 1199.67 856.056C1198.56 855.401 1197.62 854.52 1196.89 853.482C1196.16 852.444 1195.65 851.269 1195.42 850.033C1194.6 845.377 1197.3 841.771 1202.19 840.651C1206.57 839.791 1210.99 839.211 1215.45 838.917C1218.61 838.589 1221.78 838.535 1225.47 838.343C1225.12 834.779 1224.84 831.7 1224.54 828.634C1222.63 808.934 1220.64 789.234 1218.95 769.528C1218.61 765.704 1217.32 764.905 1213.65 765.219C1197.55 766.571 1181.41 767.609 1165.28 768.784C1164.19 768.784 1163.1 769.098 1161.65 769.323C1161.65 771.051 1161.52 772.785 1161.65 774.41C1162.67 786.53 1163.96 798.494 1164.7 810.58C1164.73 812.963 1165.3 815.312 1166.36 817.456C1167.43 819.607 1168.96 821.491 1170.86 822.993C1173.41 825.172 1175.35 827.958 1176.49 831.085C1177.64 834.205 1177.94 837.565 1177.39 840.843C1176.83 844.12 1175.43 847.2 1173.32 849.795C1171.21 852.389 1168.45 854.404 1165.32 855.66C1155.88 859.504 1146.81 856.302 1142.12 847.473C1137.43 838.637 1139.82 826.988 1147.89 822.386C1149.16 821.805 1150.19 820.815 1150.82 819.579C1151.44 818.35 1151.62 816.944 1151.32 815.598C1150.2 801.976 1149.1 788.333 1148.19 774.704C1147.98 771.242 1146.42 770.969 1143.53 771.365C1138.16 772.157 1132.75 772.669 1127.32 772.908C1114.97 773.304 1113.44 769.965 1110.89 757.428C1109.87 752.232 1110.74 746.783 1110.54 741.45C1109.5 714.13 1108.35 686.831 1107.33 659.528C1107.23 656.857 1107.41 654.183 1107.86 651.547C1108.11 649.18 1109.12 646.951 1110.72 645.172C1112.34 643.392 1114.47 642.153 1116.84 641.627C1120.84 640.546 1124.91 639.685 1129.01 639.048C1136.58 638.078 1139.84 640.779 1140.34 648.189C1141.55 666.366 1142.56 684.543 1143.69 702.754C1144.35 713.147 1145.04 723.492 1145.75 733.796C1145.93 734.656 1146.19 735.503 1146.51 736.322C1148.52 733.591 1150.04 731.549 1151.59 729.398C1163.85 711.344 1182.55 703.307 1202.75 697.79C1211.82 695.311 1211.85 695.468 1210.46 686.312C1210.32 685.39 1210.09 684.577 1209.79 682.986C1204.99 683.471 1200.25 683.799 1195.55 684.475C1182.9 686.209 1175.18 681.843 1173.45 669.69C1172.07 658.503 1171.47 647.234 1171.68 635.966C1171.61 633.163 1172.51 630.419 1174.24 628.187C1175.97 625.955 1178.42 624.369 1181.2 623.691C1188.36 621.648 1195.62 620.004 1203.25 618.083L1201.13 607.401C1197.6 607.591 1194.46 607.868 1191.3 607.92C1187.61 607.92 1185.08 606.189 1184.7 602.484C1184.56 601.7 1184.6 600.895 1184.8 600.122C1184.99 599.35 1185.35 598.626 1185.85 597.997C1186.35 597.368 1186.97 596.849 1187.69 596.471C1188.4 596.092 1189.18 595.865 1190 595.801C1200.88 594.33 1211.8 593.101 1222.74 592.027C1223.55 591.88 1224.37 591.896 1225.17 592.076C1225.98 592.255 1226.73 592.594 1227.39 593.071C1228.06 593.548 1228.61 594.154 1229.02 594.849C1229.44 595.545 1229.69 596.318 1229.8 597.117C1229.98 597.894 1230 598.699 1229.85 599.482C1229.7 600.266 1229.39 601.013 1228.94 601.674C1228.49 602.335 1227.9 602.897 1227.21 603.325C1226.53 603.754 1225.77 604.039 1224.96 604.163C1221.76 604.826 1218.53 605.323 1215.28 605.653ZM1389.72 738.821C1384.29 733.208 1379.69 727.828 1374.4 723.239C1362.86 713.058 1349.7 706.325 1333.83 704.762C1316.01 702.87 1298.06 702.597 1280.2 703.949C1263.77 705.335 1247.31 706.134 1230.8 707.117C1227.01 707.343 1225.17 708.312 1225.81 712.812C1227.27 723.376 1228.26 734.021 1229.04 744.653C1229.33 748.736 1230.62 749.849 1234.86 749.603C1281.47 746.523 1328.09 743.649 1374.71 740.638C1379.61 740.255 1384.44 739.456 1389.72 738.821ZM1152.81 755.646L1216.69 751.18C1215.22 737.087 1213.86 723.772 1212.49 710.477C1189.18 710.805 1155.42 736.397 1152.81 755.646ZM1205.24 632.486C1198.74 631.64 1192.12 632.713 1186.24 635.568C1185.62 636.028 1185.12 636.623 1184.78 637.305C1184.43 637.986 1184.26 638.738 1184.26 639.498C1184.7 649.002 1185.25 658.541 1186.18 668.011C1186.33 669.448 1188.69 671.837 1189.98 671.82C1196.24 671.681 1202.49 670.867 1209.05 670.262C1207.73 657.121 1206.5 644.985 1205.24 632.486ZM1132.91 758.869C1130.91 723.273 1128.94 688.333 1126.96 653.261C1121.48 654.282 1121.21 654.386 1121.2 658.455C1121.2 665.38 1121.2 672.304 1121.42 679.229C1122.47 704.468 1123.63 729.712 1124.76 754.956C1124.76 756.322 1125 757.674 1125.15 759.388L1132.91 758.869ZM1382.35 830.293C1384.61 827.664 1387.54 825.691 1388.07 823.232C1388.6 820.774 1386.43 818.261 1385.3 815.353C1378.33 821.17 1377.8 823.478 1382.3 830.293H1382.35ZM1154.32 839.866C1154.86 840.337 1156.28 842.741 1157.96 842.918C1158.68 843.055 1159.42 843.014 1160.12 842.796C1160.81 842.577 1161.44 842.195 1161.96 841.682C1162.46 841.164 1162.83 840.535 1163.03 839.839C1163.22 839.149 1163.24 838.425 1163.08 837.722C1162.78 835.995 1160.83 833.188 1159.35 833.011C1156.3 832.683 1153.78 834.383 1154.28 839.866H1154.32Z" fill="#006A4F"/>
<path d="M1389.79 738.815C1384.5 739.45 1379.67 740.249 1374.82 740.542C1328.19 743.554 1281.56 746.428 1234.96 749.508C1230.72 749.808 1229.44 748.648 1229.14 744.557C1228.36 733.933 1227.37 723.28 1225.91 712.724C1225.27 708.224 1227.11 707.254 1230.9 707.029C1247.36 706.039 1263.82 705.295 1280.29 703.861C1298.16 702.502 1316.11 702.775 1333.92 704.673C1349.8 706.23 1362.97 712.963 1374.49 723.144C1379.77 727.821 1384.36 733.202 1389.79 738.815Z" fill="white"/>
<path d="M1152.84 755.639C1155.45 736.39 1189.25 710.798 1212.52 710.504C1213.89 723.799 1215.25 737.114 1216.72 751.207L1152.84 755.639Z" fill="white"/>
<path d="M1205.31 632.48C1206.58 644.98 1207.8 657.116 1209.12 670.256C1202.56 670.861 1196.31 671.675 1190.05 671.814C1188.76 671.814 1186.4 669.442 1186.25 668.005C1185.32 658.518 1184.78 648.962 1184.33 639.491C1184.33 638.731 1184.51 637.981 1184.85 637.299C1185.19 636.617 1185.69 636.023 1186.31 635.562C1192.19 632.707 1198.8 631.635 1205.31 632.48Z" fill="#2D7A68"/>
<path d="M1132.89 758.861L1125.13 759.243C1124.98 757.509 1124.81 756.177 1124.74 754.812C1123.61 729.567 1122.45 704.33 1121.4 679.086C1121.12 672.161 1121.14 665.236 1121.18 658.311C1121.18 654.312 1121.46 654.208 1126.94 653.117C1128.92 688.331 1130.89 723.265 1132.89 758.861Z" fill="#2D7A68"/>
<path d="M1382.32 830.292C1377.82 823.47 1378.35 821.169 1385.26 815.352C1386.4 818.26 1388.53 821.026 1388.04 823.225C1387.54 825.423 1384.58 827.656 1382.32 830.292Z" fill="white"/>
<path d="M1154.29 839.866C1153.8 834.376 1156.32 832.683 1159.32 833.045C1160.8 833.215 1162.74 835.954 1163.04 837.756C1163.2 838.453 1163.19 839.183 1162.99 839.873C1162.79 840.563 1162.42 841.198 1161.91 841.71C1161.41 842.229 1160.77 842.611 1160.08 842.83C1159.38 843.041 1158.64 843.082 1157.92 842.946C1156.24 842.741 1154.82 840.33 1154.29 839.866Z" fill="white"/>
<path d="M593.238 542.091C587.952 546.444 583.354 550.584 578.394 554.261C563.006 565.684 545.555 562.238 533.897 551.863C526.458 545.16 521.807 535.995 520.839 526.13C519.869 516.265 522.651 506.398 528.647 498.424C539.4 484.442 551.855 471.669 564.201 458.967C576.547 446.265 590.179 433.847 603.213 421.322C604.48 420.096 605.675 418.799 607.178 417.271C596.442 406.878 591.374 394.478 592.514 379.963C593.414 368.573 598.625 357.926 607.123 350.118C614.902 342.662 625.129 338.163 635.976 337.424C646.823 336.686 657.584 339.755 666.338 346.085C685.747 360.297 688.966 382.699 676.096 408.086C679.825 415.192 683.684 421.41 686.287 428.019C688.009 432.075 688.597 436.507 687.989 440.859C687.387 445.212 685.611 449.328 682.848 452.784C677.417 459.979 671.425 466.89 665.65 473.89C664.545 475.222 663.279 476.448 661.776 478.029C663.333 479.184 664.419 480.09 665.613 480.872C674.81 486.859 679.209 495.404 679.734 506.063C680.132 514.271 680.585 522.461 681.038 530.668C681.454 538.183 679.444 544.881 673.018 549.411C650.824 565.4 627.019 567.87 601.873 556.997C599.791 555.833 598.128 554.064 597.112 551.934C595.612 548.736 594.319 545.449 593.238 542.091ZM587.246 454.206C587.771 454.632 588.097 455.076 588.513 455.201C599.002 458.347 607.994 465.079 613.857 474.174C614.509 474.734 615.288 475.132 616.129 475.336C616.97 475.54 617.848 475.544 618.691 475.346C627.432 472.505 636.714 471.636 645.846 472.806C646.539 472.896 647.245 472.845 647.917 472.656C648.59 472.466 649.216 472.142 649.756 471.705C655.639 465.877 661.649 460.086 667.008 453.797C670.954 449.178 675.028 444.381 675.028 437.63C675.028 426.562 669.76 418.906 659.64 414.428C649.032 409.739 637.916 406.878 628.195 415.388C614.437 427.362 601.42 440.136 588.115 452.607C587.755 453.1 587.463 453.637 587.246 454.206ZM533.426 521.342C533.765 524.373 534.26 527.385 534.911 530.367C539.653 547.794 560.255 554.527 572.927 543.317C577.181 539.534 581.291 535.607 585.599 531.93C589.564 528.537 590.215 524.131 589.419 519.494C587.029 505.743 591.482 494.409 601.783 485.224C604.462 482.844 603.937 481.298 602.253 478.793C597.094 471.242 589.074 468.045 580.801 465.326C577.597 464.243 575.371 464.51 573.035 467.103C562.753 478.366 552.235 489.434 541.935 500.698C536.511 506.257 533.466 513.645 533.426 521.342ZM612.952 362.376L670.881 385.915C674.792 373.887 666.573 358.662 653.231 352.303C639.89 345.943 621.533 350.26 612.952 362.429V362.376ZM602.851 517.149C608.282 530.153 626.059 535.803 643.293 530.952C657.178 527.062 667.84 515.941 666.157 506.294L602.851 517.149ZM615.795 408.104C621.787 405.031 626.982 401.46 632.739 399.63C641.935 396.699 651.33 398.013 660.201 401.567C664.473 403.343 666.193 401.833 667.243 397.481L606.96 372.964C604.506 379.001 604.039 385.641 605.623 391.952C607.207 398.263 610.764 403.93 615.795 408.157V408.104ZM603.358 504.766L663.098 494.586C653.684 484.762 642.804 483.323 631.345 484.762C617.333 486.556 605.204 495.421 603.358 504.82V504.766ZM605.91 538.876C606.055 542.749 605.91 545.982 609.875 547.403C630.041 554.509 648.832 552.342 666.084 539.48C669.053 537.277 669.47 534.79 667.678 531.521C648.67 546.071 628.358 548.629 605.91 538.929V538.876Z" fill="#006A4F"/>
<path d="M587.188 454.21C587.428 453.638 587.744 453.1 588.13 452.611C601.435 440.175 614.451 427.366 628.21 415.392C637.967 406.883 649.046 409.743 659.654 414.433C669.774 418.91 675.006 426.567 675.042 437.635C675.042 444.386 670.969 449.182 667.022 453.801C661.592 460.09 655.654 465.882 649.77 471.709C649.231 472.147 648.605 472.47 647.932 472.66C647.259 472.849 646.554 472.901 645.86 472.81C636.729 471.641 627.447 472.509 618.706 475.351C617.863 475.548 616.985 475.544 616.144 475.34C615.303 475.136 614.524 474.738 613.872 474.178C608.008 465.083 599.017 458.352 588.528 455.204C587.985 455.08 587.713 454.636 587.188 454.21Z" fill="#EAECF1"/>
<path d="M533.434 521.345C533.441 513.641 536.461 506.233 541.87 500.649C552.171 489.386 562.688 478.318 572.971 467.054C575.324 464.46 577.533 464.194 580.737 465.278C589.083 468.067 597.03 471.194 602.207 478.869C603.891 481.373 604.416 482.919 601.737 485.3C591.436 494.484 586.983 505.819 589.372 519.569C590.169 524.135 589.517 528.541 585.553 532.005C581.208 535.683 577.099 539.608 572.88 543.393C560.208 554.603 539.698 547.87 534.864 530.441C534.23 527.436 533.752 524.4 533.434 521.345Z" fill="#006A4F"/>
<path d="M612.918 362.428C621.499 350.259 639.657 345.942 653.107 352.355C666.557 358.769 674.667 373.941 670.757 385.968L612.918 362.428Z" fill="white"/>
<path d="M602.803 517.205L666.163 506.35C667.846 515.996 657.111 527.117 643.299 531.008C626.01 535.858 608.306 530.226 602.803 517.205Z" fill="white"/>
<path d="M615.828 408.152C610.808 403.928 607.259 398.271 605.675 391.971C604.091 385.671 604.552 379.042 606.993 373.012L667.277 397.529C666.227 401.881 664.507 403.32 660.234 401.615C651.364 398.061 641.968 396.747 632.772 399.678C627.015 401.508 621.82 405.079 615.828 408.152Z" fill="white"/>
<path d="M603.336 504.821C605.146 495.423 617.311 486.558 631.269 484.817C642.729 483.377 653.608 484.817 663.022 494.641L603.336 504.821Z" fill="white"/>
<path d="M605.898 538.932C628.346 548.631 648.658 546.037 667.666 531.576C669.476 534.845 669.041 537.332 666.072 539.535C648.82 552.398 630.03 554.583 609.863 547.459C605.808 546.019 606.133 542.804 605.898 538.932Z" fill="white"/>
<path d="M873.334 482.968C860.659 474.037 846.932 467.373 831.025 466.617C818.187 466.003 805.423 466.003 792.612 466.16C779.807 466.318 766.927 466.838 754.649 462.238C738.025 456.031 727.619 444.785 725.76 426.921C724.059 410.129 739.801 392.565 756.931 391.998C768.759 391.604 780.026 394.471 791.184 397.764C803.114 401.292 814.845 402.489 826.29 396.188C832.72 392.845 838.029 387.753 841.589 381.522C837.735 379.774 834.025 378.215 830.431 376.466C817.121 370.008 807.528 360.226 803.77 345.907C801.248 336.266 803.032 326.499 805.375 317.08C809.646 300.209 814.476 283.48 819.116 266.672C819.902 263.054 821.015 259.512 822.437 256.086C828.347 243.941 838.63 239.278 852.391 242.13C854.667 242.587 856.915 243.201 859.532 243.831C860.269 242.066 860.878 240.365 861.67 238.727C863.078 235.813 865.456 234.175 868.715 235.198C869.473 235.375 870.184 235.708 870.799 236.176C871.414 236.643 871.919 237.235 872.281 237.911C872.65 238.587 872.862 239.332 872.903 240.094C872.951 240.858 872.828 241.621 872.548 242.335C870.525 249.171 868.312 255.976 866.132 262.813C864.991 266.2 862.634 268.121 858.807 267.255C855.603 266.514 854.106 263.254 855.036 259.252C855.329 258.024 855.651 256.811 856.067 255.173C853.191 254.448 850.594 253.597 847.93 253.188C840.83 251.943 835.678 254.479 833.574 261.237C828.135 278.833 823.017 296.507 818.023 314.228C816.608 319.285 816.191 324.609 815.132 329.792C812.119 344.504 818.453 355.389 830.492 362.998C842.969 370.874 856.662 375.978 871.906 376.041C883.145 376.041 890.627 370.008 896.128 361.564C900.917 354.403 904.887 346.748 907.976 338.739C914.316 321.695 919.68 304.368 925.379 287.182C926.595 283.448 925.584 280.314 921.552 278.801C916.612 276.943 911.604 275.21 906.759 273.461C903.302 280.014 900.931 281.605 897.385 280.314C893.832 279.022 893.046 275.713 895.069 269.491C896.852 264.073 898.601 258.622 900.466 253.22C902.072 248.683 905.003 246.808 908.488 247.926C911.973 249.045 912.984 252.211 911.699 256.89L910.094 262.104C915.218 263.978 920.227 265.507 924.941 267.601C936.468 272.736 940.226 280.093 936.434 291.876C930.53 310.211 924.586 328.594 917.384 346.458C913.326 356.214 907.928 365.378 901.327 373.694C892.329 385.193 879.504 389.619 864.779 386.957C857.352 385.602 852.596 386.627 847.267 393.353C833.799 410.349 815.392 415.737 793.835 410.397C783.763 407.654 773.535 405.498 763.204 403.938C750.72 402.363 744.666 406.285 739.528 417.045C735.756 424.92 738.039 435.6 744.974 442.752C753.269 451.353 764.058 453.921 775.468 454.472C782.581 454.819 789.742 454.472 796.868 454.188C813.513 453.48 830.076 453.653 846.419 457.339C859.45 460.269 870.498 467.31 881.492 474.178C896.592 465.971 907.176 471.233 913.736 478.904C920.302 486.576 919.953 498.768 913.018 507.007C909.561 511.223 904.737 514.15 899.353 515.296C893.968 516.443 888.338 515.741 883.419 513.308C872.534 507.952 869.309 498.232 873.334 482.968ZM895.567 481.866C892.342 481.804 889.213 482.975 886.849 485.132C884.478 487.289 883.064 490.264 882.886 493.428C882.872 494.859 883.145 496.28 883.692 497.606C884.246 498.932 885.059 500.137 886.084 501.151C887.115 502.165 888.345 502.966 889.691 503.509C891.044 504.052 892.486 504.325 893.948 504.313C897.18 504.327 900.289 503.11 902.619 500.918C904.956 498.725 906.329 495.729 906.452 492.561C906.548 486.103 902.277 481.913 895.602 481.866H895.567Z" fill="#006A4F"/>
<path d="M1165.03 379.045C1168.9 377.588 1171.94 376.418 1175.01 375.283C1200.36 365.928 1222.17 372.436 1241.84 389.366C1264.11 408.532 1264.88 445.814 1244.98 470.284C1235.8 481.605 1224.07 489.621 1211.27 496.297C1183.8 510.634 1153.6 517.395 1123.98 525.581C1113.07 528.614 1101.53 529.648 1090.24 531.156C1082.68 532.156 1077.27 528.631 1073.47 521.92C1060.63 499.263 1054.74 474.25 1047.3 449.711C1040.91 428.647 1036.5 407.498 1037.24 385.4C1038.26 355.744 1056.64 330.798 1083.14 321.8C1112.04 312.005 1157.15 331.595 1163.21 370.606C1163.63 373.266 1164.34 375.893 1165.03 379.045ZM1158.9 451.762C1159.85 451.386 1160.77 450.933 1161.65 450.406C1169.64 444.407 1177.31 444.899 1185.17 450.931C1195.25 458.693 1205.73 465.98 1215.76 473.793C1218.84 476.182 1221.24 476.656 1223.79 473.793C1229.2 467.895 1235.57 462.489 1239.53 455.745C1248.73 440.12 1250.34 423.14 1240.55 407.447C1230.51 391.348 1214.78 383.332 1195.16 383.4C1184.42 383.4 1175.23 388.264 1165.81 392.161C1158.46 395.178 1154.32 393.093 1153.1 385.383C1152.44 381.282 1151.64 377.215 1150.95 373.131C1146.76 348.711 1126.35 334.611 1104.71 331.815C1084.38 329.189 1062.3 343.779 1054.25 365.098C1047.71 382.434 1049.57 400.177 1052.32 417.886C1052.66 419.03 1053.4 420.019 1054.41 420.682C1063.04 427.105 1063.96 427.105 1072.56 420.682C1075.79 418.259 1078.88 415.599 1082.02 413.107C1088.65 407.718 1095.2 402.211 1101.95 396.974C1105.07 394.568 1108.71 392.636 1112.79 394.856C1116.87 397.076 1117.21 401.245 1117.09 405.363C1117.08 406.282 1117 407.2 1116.85 408.108C1114.93 417.734 1113.03 427.376 1111.03 436.917C1110.1 441.408 1108.93 445.831 1107.87 450.305C1114.78 445.322 1120.65 439.849 1126.75 434.596C1134.17 428.223 1141.48 421.648 1149.38 415.954C1155.81 411.26 1162.34 414.903 1162.73 422.733C1162.78 423.808 1162.73 424.886 1162.58 425.952C1161.33 434.527 1160.14 443 1158.9 451.762ZM1208.15 484.706C1208.27 484.011 1208.37 483.333 1208.48 482.639C1197.42 474.945 1186.39 467.201 1175.22 459.693C1174.48 459.394 1173.69 459.26 1172.89 459.301C1172.1 459.342 1171.32 459.557 1170.63 459.93C1166.12 462.387 1161.99 465.692 1157.34 467.709C1154.3 468.95 1150.9 469.141 1147.73 468.251C1144.18 467.115 1144.17 463.167 1144.51 459.896C1144.62 458.829 1144.86 457.778 1145.03 456.71L1148.92 433.121C1140.04 439.764 1132.12 446.949 1124.02 453.914C1118.37 458.761 1112.57 463.472 1106.61 467.946C1103.45 470.318 1099.7 471.013 1096.11 468.505C1092.52 465.997 1092.36 462.642 1093.16 458.947C1094.71 451.751 1096.3 444.56 1097.93 437.375C1099.77 429.207 1101.67 421.038 1103.56 412.887C1101.61 413.394 1099.83 414.374 1098.38 415.734C1092.88 420.309 1087.59 425.173 1081.86 429.409C1074.68 434.714 1068.05 442.221 1056.93 436.748C1059.03 444.255 1060.82 450.745 1062.66 457.219C1068.36 477.182 1074.01 497.145 1084.44 515.396C1085.61 517.464 1086.44 519.463 1089.62 518.955C1098.58 517.531 1107.8 517.141 1116.49 514.82C1138.66 508.877 1160.7 502.443 1182.59 495.517C1191.3 492.688 1199.6 488.366 1208.15 484.706Z" fill="#006A4F"/>
<path d="M1228.64 532.271C1224.72 532.271 1222.2 530.83 1221.41 527.339C1220.61 523.848 1222.03 521.035 1225.27 520.425C1239.32 517.798 1247.05 507.444 1255.3 497.665C1256.47 496.031 1257.71 494.459 1259.04 492.955C1261.4 490.684 1264.65 489.718 1266.93 492.26C1268.46 493.954 1269.83 497.92 1268.88 499.394C1259.62 513.883 1248.62 526.678 1231.08 531.965C1230.28 532.15 1229.46 532.251 1228.64 532.271Z" fill="#006A4F"/>
<path d="M1247.27 551.608C1242.7 551.777 1240.19 550.541 1239.31 547.202C1239.07 546.497 1238.98 545.752 1239.04 545.011C1239.1 544.27 1239.32 543.55 1239.66 542.892C1240.02 542.233 1240.5 541.652 1241.09 541.18C1241.67 540.71 1242.35 540.36 1243.07 540.152C1254.43 536.372 1264.09 528.836 1270.41 518.834C1270.81 518.203 1271.33 517.657 1271.95 517.229C1272.56 516.801 1273.26 516.498 1274 516.34C1274.74 516.182 1275.5 516.171 1276.24 516.308C1276.98 516.446 1277.69 516.728 1278.32 517.139C1279.01 517.451 1279.62 517.896 1280.12 518.448C1280.63 519 1281.01 519.647 1281.25 520.35C1281.49 521.052 1281.58 521.796 1281.52 522.534C1281.46 523.273 1281.25 523.992 1280.89 524.646C1279.52 527.382 1277.85 529.966 1275.92 532.357C1269.64 540.274 1261.34 546.415 1251.85 550.151C1250.35 550.717 1248.82 551.204 1247.27 551.608Z" fill="#006A4F"/>
<path d="M999.889 399.582C999.473 395.158 998.489 390.685 998.782 386.312C999.186 380.092 1000.17 373.92 1001.71 367.875C1002.75 365.379 1004.69 363.354 1007.17 362.198C1008.17 361.944 1009.22 361.937 1010.21 362.176C1011.22 362.415 1012.14 362.895 1012.91 363.571C1013.6 364.437 1014.07 365.446 1014.31 366.52C1014.54 367.594 1014.52 368.706 1014.25 369.773C1010.64 377.772 1011.16 385.872 1012.28 394.176C1012.64 397.522 1012.56 400.898 1012.06 404.225C1011.56 408.055 1009.13 410.427 1004.98 409.902C1000.84 409.377 999.801 406.428 999.698 402.87C999.698 401.802 999.698 400.734 999.698 399.649L999.889 399.582Z" fill="#006A4F"/>
<path d="M966.723 380.347C967.447 375.662 968.425 371.018 969.641 366.433C971.11 361.858 974.724 359.943 978.141 361.35C982.493 363.044 982.562 366.433 981.591 370.162C979.384 378.398 979.227 386.379 983.32 394.226C983.75 395.055 983.99 395.963 984.031 396.891C984.072 397.819 983.914 398.745 983.566 399.607C983.211 400.47 982.678 401.249 981.994 401.893C981.311 402.537 980.498 403.032 979.61 403.343C978.735 403.715 977.792 403.894 976.849 403.867C975.9 403.84 974.97 403.608 974.123 403.187C973.276 402.766 972.531 402.167 971.95 401.432C971.369 400.698 970.959 399.846 970.748 398.937C969.074 392.7 968.021 386.362 966.723 380.347Z" fill="#006A4F"/>
<path d="M1158.9 451.759C1160.14 442.997 1161.33 434.524 1162.51 426.068C1162.67 425.002 1162.71 423.924 1162.67 422.848C1162.27 415.019 1155.76 411.375 1149.31 416.07C1141.41 421.815 1134.11 428.389 1126.68 434.71C1120.58 439.964 1114.67 445.438 1107.8 450.42C1108.86 445.946 1110.03 441.523 1110.96 437.032C1112.96 427.424 1114.86 417.781 1116.78 408.224C1116.93 407.315 1117.01 406.398 1117.02 405.478C1117.15 401.36 1116.92 397.259 1112.73 394.971C1108.53 392.684 1105 394.683 1101.88 397.09C1095.12 402.326 1088.59 407.834 1081.95 413.223C1078.81 415.765 1075.72 418.307 1072.49 420.798C1063.86 427.271 1063.06 427.271 1054.34 420.798C1053.33 420.135 1052.59 419.145 1052.25 418.002C1049.5 400.292 1047.64 382.55 1054.18 365.214C1062.23 343.895 1084.31 329.304 1104.64 331.93C1126.28 334.727 1146.69 348.877 1150.89 373.246C1151.58 377.33 1152.37 381.397 1153.02 385.498C1154.25 393.124 1158.4 395.209 1165.74 392.277C1175.24 388.379 1184.42 383.532 1195.09 383.515C1214.71 383.515 1230.44 391.463 1240.48 407.563C1250.27 423.255 1248.66 440.235 1239.46 455.86C1235.5 462.639 1229.09 468.011 1223.72 473.908C1221.17 476.704 1218.77 476.23 1215.69 473.908C1205.66 466.095 1195.18 458.809 1185.1 451.047C1177.24 445.014 1169.55 444.523 1161.57 450.522C1160.72 451.004 1159.82 451.418 1158.9 451.759Z" fill="#2D7A68"/>
<path d="M1208.14 484.704C1199.51 488.364 1191.3 492.753 1182.47 495.516C1160.6 502.396 1138.56 508.83 1116.37 514.817C1107.73 517.139 1098.46 517.529 1089.49 518.953C1086.35 519.461 1085.52 517.461 1084.31 515.394C1073.96 497.142 1068.24 477.18 1062.54 457.217C1060.69 450.743 1058.91 444.253 1056.81 436.746C1067.93 442.219 1074.56 434.712 1081.74 429.408C1087.47 425.171 1092.76 420.307 1098.25 415.732C1099.71 414.371 1101.49 413.392 1103.43 412.885C1101.55 421.036 1099.65 429.204 1097.8 437.372C1096.18 444.558 1094.59 451.749 1093.03 458.945C1092.24 462.64 1092.66 466.13 1095.99 468.503C1099.32 470.875 1103.32 470.316 1106.49 467.944C1112.45 463.47 1118.25 458.759 1123.89 453.912C1131.99 446.947 1139.92 439.762 1148.8 433.119L1144.91 456.708C1144.74 457.776 1144.5 458.827 1144.39 459.894C1144.05 463.284 1144.06 467.114 1147.6 468.248C1150.78 469.14 1154.17 468.948 1157.22 467.706C1161.9 465.69 1165.99 462.385 1170.5 459.928C1171.2 459.555 1171.97 459.34 1172.77 459.299C1173.56 459.258 1174.36 459.392 1175.09 459.691C1186.27 467.198 1197.3 474.943 1208.35 482.636C1208.37 483.331 1208.27 484.009 1208.14 484.704Z" fill="#2D7A68"/>
<path d="M1041.04 235.576C1043.53 241.799 1047.84 247.158 1053.43 250.98C1055.13 252.097 1056.74 253.331 1058.25 254.675C1062.96 258.945 1061.58 264.978 1055.45 266.859C1053.23 267.554 1050.86 267.826 1048.55 268.452C1031.14 273.231 1019.93 284.704 1012.77 300.498C1012.05 302.356 1011.2 304.167 1010.25 305.921C1008.52 308.768 1005.32 310.09 1002.62 308.429C1000.54 306.808 999.193 304.454 998.865 301.871C998.592 299.668 1000.23 297.261 1000.89 294.922C1003.86 284.314 1007.22 273.807 1009.52 263.081C1010.41 259.852 1010.27 256.435 1009.13 253.285C1007.98 250.136 1005.88 247.404 1003.11 245.456C1002.12 244.514 1001.37 243.351 1000.93 242.065C1000.48 240.779 1000.37 239.408 1000.57 238.067C1001.3 235.983 1004.62 234.22 1007.15 233.424C1009.69 232.628 1013.06 233.153 1016.02 232.882C1030.19 231.577 1037.6 222.409 1042.71 210.614C1043.34 208.725 1044.1 206.885 1045.01 205.106C1046.85 202.141 1049.74 200.87 1053.06 202.344C1056.37 203.819 1057.22 206.581 1056.23 210.055C1053.55 219.85 1047.96 228.12 1041.04 235.576ZM1022.89 266.487L1040.35 257.42L1029.58 242.592L1020.96 244.982C1021.59 252.489 1022.21 259.539 1022.89 266.487Z" fill="#006A4F"/>
<path d="M1022.82 266.485C1022.18 259.537 1021.53 252.487 1020.85 244.98L1029.49 242.59L1040.24 257.418L1022.82 266.485Z" fill="white"/>
<path d="M846.009 586.873C846.959 583.249 847.786 580.084 848.64 576.919C849.104 575.115 849.555 573.279 850.252 571.523C852.042 566.395 855.363 564.402 860.747 565.588C869.165 567.44 877.549 569.513 885.953 571.475C887.176 571.76 888.454 571.918 890.08 572.203C891.857 565.256 893.551 558.609 895.239 551.947C895.984 549.035 896.674 546.092 897.501 543.18C898.84 538.432 901.341 536.77 906.24 537.435C910.886 538.068 915.478 539.017 920.09 539.745C927.155 540.964 934.233 542.135 941.278 543.417C947.277 544.509 949.266 547.31 948.152 553.181C946.539 561.932 944.735 570.668 943.02 579.403C942.829 580.385 942.747 581.382 942.522 582.933C947.154 584.23 951.732 585.56 956.344 586.778C961.277 588.107 966.259 589.294 971.212 590.624C979.275 592.792 981.823 596.764 980.177 605.04C979.227 609.788 977.949 614.536 976.836 619.283C976.583 620.375 976.419 621.499 976.111 623.065C980.614 624.284 984.932 625.502 989.271 626.626C1011.07 632.275 1032.81 637.83 1054.66 643.606C1057.41 644.518 1059.98 645.9 1062.24 647.69C1064.83 649.541 1064.69 652.437 1063.98 655.159C1062.26 661.996 1060.58 668.832 1058.86 675.732C1051.33 705.527 1043.84 735.332 1036.38 765.158C1034.54 772.533 1033.15 780.003 1031.35 787.411C1030.83 789.501 1030.08 791.529 1029.1 793.454C1028.38 794.8 1027.21 795.851 1025.78 796.425C1024.34 797.005 1022.76 797.073 1021.28 796.623C1000.44 792.041 979.582 787.48 958.729 782.932C947.878 780.556 937.008 778.186 926.123 775.954C925.009 775.715 923.882 775.619 922.201 775.38C922.201 777.647 922.201 779.593 922.201 781.539C922.932 794.602 923.677 807.657 924.429 820.706C924.429 821.703 924.428 822.734 924.592 823.711C925.815 831.973 920.739 835.237 912.143 833.304C900.015 830.6 888.085 827.084 876.066 823.806C854.461 818.05 832.849 812.287 811.244 806.531C802.198 804.141 800.681 800.071 806.017 792.601C814.08 781.321 822.047 769.972 830.027 758.623C830.635 757.654 831.168 756.643 831.64 755.598C824.937 754.021 818.583 752.437 812.29 750.853C784.111 744.175 755.947 737.51 727.789 730.866C724.243 730.013 720.697 729.282 718.633 725.663C717.827 724.468 717.28 723.123 717.034 721.71C716.782 720.303 716.836 718.855 717.178 717.462C719.098 710.388 720.888 703.219 722.774 696.192C731.745 662.433 740.723 628.673 749.722 594.912C751.724 587.411 753.658 579.91 755.735 572.425C756.22 570.635 756.972 568.927 757.976 567.36C758.618 566.379 759.582 565.642 760.709 565.274C761.837 564.905 763.06 564.927 764.173 565.335C780.681 569.734 797.162 574.181 813.697 578.549C823.577 581.145 833.498 583.629 843.413 586.145C843.932 586.43 844.643 586.541 846.009 586.873ZM842.962 598.426L766.38 578.897C753.883 625.851 741.564 672.266 729.128 718.903C730.953 719.422 732.353 719.866 733.693 720.187C745.909 723.096 758.133 725.998 770.378 728.886C791.566 733.919 812.761 738.944 833.963 743.956C835.828 744.284 837.707 744.523 839.593 744.666C842.237 734.567 844.834 725.028 847.253 715.434C849.671 705.848 852.637 696.445 854.427 686.762C852.603 686.189 851.345 685.861 850.136 685.383C848.722 684.946 847.526 684.004 846.781 682.747C846.036 681.489 845.797 680.003 846.105 678.58C846.44 677.158 847.321 675.916 848.565 675.117C849.808 674.317 851.318 674.022 852.78 674.292C854.96 674.602 857.112 675.046 859.23 675.621C877.433 679.957 895.642 684.297 913.865 688.647C922.686 690.764 931.507 692.874 940.267 695.182C944.38 696.254 946.184 699.204 945.309 702.474C944.503 705.499 941.558 706.974 937.575 706.366C935.962 706.134 934.22 705.929 932.286 705.67C928.125 724.666 924.059 743.335 919.885 762.44C953.215 769.733 985.998 776.869 1018.64 783.772C1020.52 779.374 1051.53 657.96 1050.6 654.716C1024.96 648.101 999.192 641.264 973.194 634.807C972.565 636.707 972.21 637.973 971.745 639.128C969.552 644.92 966.778 646.487 960.635 645.158C954.78 643.907 948.958 642.435 943.123 641.09C939.59 640.267 936.058 639.508 932.17 638.637C931.603 640.441 931.104 641.914 930.721 643.385C929.109 649.937 927.496 656.504 925.734 663.024C924.319 668.325 921.702 670.003 916.4 668.769C903.882 665.867 891.385 662.834 878.909 659.669C873.846 658.419 872.056 655.444 872.971 650.317C873.552 647.152 874.31 643.844 875.007 640.616C876.135 635.298 877.276 629.997 878.485 624.3C873.955 622.939 869.794 621.689 865.585 620.47C859.702 618.745 853.737 617.305 847.847 615.296C841.301 613.048 839.901 610.136 841.527 603.711C842.06 602.144 842.449 600.499 842.962 598.362V598.426ZM960.97 633.146C963.505 622.607 965.808 612.747 968.356 602.493C966.054 601.796 964.147 601.147 962.214 600.625C953.181 598.188 944.12 595.878 935.122 593.314C930.168 591.905 928.815 589.516 929.751 584.563C930.913 578.344 932.204 572.156 933.413 565.968C934.124 562.328 934.78 558.688 935.559 554.527C926.239 552.659 917.316 551.029 908.146 549.779C907.483 552.121 906.937 553.894 906.534 555.698C904.641 563.23 902.851 570.779 900.917 578.28C899.578 583.487 897.111 585.291 891.727 584.689C888.256 584.182 884.826 583.48 881.437 582.585C874.782 581.002 868.134 579.42 860.877 577.837C858.493 587.031 856.204 595.83 853.894 604.74C855.22 605.231 855.992 605.563 856.812 605.8C865.38 608.253 873.921 610.753 882.503 613.143C888.953 614.947 891.597 618.112 890.436 626.183C890.354 626.753 890.224 627.307 890.101 627.876C888.775 633.905 887.422 639.919 886.131 645.965C885.981 647.124 885.926 648.294 885.967 649.462C895.902 651.598 905.317 654.621 915.177 656.108C915.58 654.811 915.881 654.019 916.093 653.197C917.896 646.107 919.557 638.954 921.545 631.912C923.028 626.594 925.945 625.091 931.48 626.31C935.183 627.132 938.88 628.067 942.59 628.921L960.97 633.146ZM909.656 773.12L845.702 757.292C836.628 770.225 827.404 782.836 818.289 796.397L912.273 821.403C911.433 804.721 910.544 789.057 909.656 773.058V773.12ZM920.739 702.399L897.917 696.984C893.08 716.274 888.372 735.079 883.924 754.335L908.112 760.255C912.321 740.808 916.496 721.955 920.739 702.399ZM872.233 751.454C876.893 731.973 881.792 713.352 886.165 694.198L866.377 689.562C861.349 708.838 856.279 727.404 851.605 746.442L872.233 751.454Z" fill="#006A4F"/>
<path d="M842.989 598.359C842.47 600.495 842.08 602.141 841.664 603.771C840.051 610.196 841.438 613.108 847.984 615.355C853.792 617.333 859.757 618.805 865.722 620.53C869.903 621.749 874.065 622.999 878.622 624.36C877.413 630.057 876.271 635.358 875.144 640.675C874.447 643.84 873.689 647.132 873.108 650.376C872.192 655.504 873.982 658.479 879.046 659.729C891.549 662.894 904.06 665.911 916.585 668.781C921.894 670.015 924.504 668.338 925.925 663.037C927.681 656.516 929.246 649.949 930.906 643.397C931.289 641.91 931.794 640.438 932.355 638.65C936.242 639.52 939.775 640.232 943.308 641.103C949.143 642.448 954.964 643.919 960.82 645.17C966.962 646.499 969.737 644.933 971.93 639.14C972.395 637.953 972.75 636.719 973.378 634.82C999.309 641.277 1025.08 648.113 1050.79 654.728C1051.72 657.893 1020.71 779.38 1018.82 783.785C986.149 776.881 953.4 769.746 920.069 762.453C924.244 743.347 928.31 724.754 932.471 705.683C934.404 705.935 936.078 706.147 937.759 706.379C941.743 706.98 944.695 705.512 945.501 702.487C946.369 699.216 944.565 696.266 940.451 695.194C931.692 692.88 922.871 690.776 914.057 688.66C895.854 684.29 877.638 679.948 859.422 675.633C857.297 675.058 855.145 674.614 852.972 674.304C851.51 674.034 849.993 674.33 848.749 675.129C847.506 675.928 846.624 677.17 846.289 678.593C845.982 680.016 846.221 681.501 846.973 682.759C847.717 684.016 848.913 684.959 850.321 685.396C851.53 685.874 852.794 686.201 854.612 686.775C852.822 696.54 849.774 705.922 847.437 715.447C845.101 724.979 842.422 734.58 839.778 744.679C837.892 744.536 836.013 744.297 834.148 743.969C812.939 738.984 791.744 733.965 770.569 728.899C758.215 725.997 745.93 723.074 733.72 720.118C732.333 719.803 730.98 719.36 729.156 718.834C741.585 672.12 753.911 625.783 766.408 578.83L842.989 598.359ZM964.318 690.654C964.687 690.824 965.07 690.981 965.459 691.111C980.908 695.618 996.309 700.213 1011.79 704.576C1016.29 705.846 1019.08 704.023 1020.22 699.469C1022.03 692.217 1023.74 684.938 1025.29 677.643C1026.56 671.614 1024.71 668.907 1018.5 667.246C1007.05 664.218 995.592 661.227 984.119 658.273C980.3 657.292 976.474 656.2 972.593 655.598C967.912 654.886 964.803 656.912 963.573 661.232C961.852 667.309 960.348 673.433 958.736 679.574C957.417 684.89 960.061 688.154 964.318 690.654ZM775.502 647.813C775.994 648.022 776.5 648.201 777.019 648.35C792.01 652.117 806.994 655.931 822.04 659.539C826.987 660.726 830.745 658.447 832.002 653.573C833.615 647.243 835.118 640.739 836.279 634.251C837.468 627.509 835.166 624.534 828.217 622.729C821.268 620.925 814.415 619.026 807.493 617.191C799.902 615.165 792.304 613.076 784.658 611.146C779.322 609.8 776.486 611.335 774.983 616.399C773.097 623.03 771.389 629.693 769.647 636.355C768.424 641.53 770.74 644.98 775.502 647.813ZM820.653 702.296C820.817 701.777 821.138 700.971 821.329 700.131C822.942 693.009 824.684 685.887 826.283 678.735C827.089 675.08 825.395 672.405 821.446 671.25C817.94 670.237 814.346 669.509 810.8 668.654C798.863 665.822 786.933 662.942 774.983 660.141C768.629 658.668 764.809 660.963 763.149 667.088C762.424 669.73 761.693 672.357 761.085 675C759.999 679.019 759.131 683.095 758.489 687.198C757.908 692.122 759.732 694.341 764.618 695.57C771.84 697.379 779.13 699.1 786.339 700.841C794.402 702.787 802.464 704.754 810.623 706.632C815.576 707.806 818.569 706.509 820.585 702.296H820.653ZM952.416 740.377C953.577 740.705 955.094 741.231 956.638 741.593C966.32 743.873 975.995 746.127 985.671 748.353C990.652 749.507 995.619 750.722 1000.61 751.753C1005.2 752.702 1008.36 751.022 1009.18 747.26C1010.69 740.404 1012.18 733.535 1013.49 726.686C1014.6 720.828 1012.45 717.775 1006.57 716.287C994.539 713.248 982.521 710.182 970.495 707.192C966.969 706.256 963.396 705.526 959.788 704.986C956.03 704.501 953.338 705.778 952.381 708.974C950.154 716.266 948.295 723.661 946.82 731.132C946.061 734.996 948.398 738.192 952.416 740.377Z" fill="white"/>
<path d="M961.039 633.076L942.625 628.882C938.914 628.027 935.225 627.094 931.514 626.271C925.98 625.052 923.062 626.556 921.58 631.873C919.598 638.916 917.938 646.116 916.127 653.158C915.922 653.981 915.615 654.741 915.212 656.07C905.325 654.582 895.943 651.56 886.008 649.424C885.967 648.255 886.022 647.086 886.166 645.926C887.457 639.88 888.81 633.867 890.135 627.837C890.265 627.268 890.395 626.714 890.477 626.145C891.632 618.074 889.022 614.909 882.537 613.105C873.962 610.715 865.415 608.214 856.853 605.762C856.026 605.524 855.241 605.192 853.936 604.701C856.238 595.744 858.527 586.946 860.912 577.798C868.175 579.492 874.816 581.074 881.478 582.546C884.861 583.441 888.297 584.144 891.762 584.651C897.153 585.252 899.619 583.448 900.958 578.241C902.892 570.74 904.682 563.191 906.568 555.659C907.005 553.855 907.552 552.082 908.181 549.74C917.357 550.958 926.274 552.588 935.594 554.488C934.822 558.65 934.159 562.289 933.448 565.929C932.239 572.117 930.947 578.305 929.786 584.524C928.857 589.477 930.209 591.867 935.156 593.275C944.155 595.839 953.222 598.149 962.248 600.586C964.182 601.109 966.088 601.757 968.391 602.454C965.958 612.677 963.574 622.536 961.039 633.076Z" fill="#2D7A68"/>
<path d="M909.67 773.051C910.558 789.049 911.44 804.7 912.362 821.32L818.378 796.315C827.411 782.754 836.635 770.142 845.798 757.209L909.67 773.051ZM897.153 781.518C897.501 780.842 897.699 780.104 897.74 779.353C897.788 778.602 897.672 777.851 897.412 777.141C897.153 776.431 896.749 775.782 896.223 775.236C895.697 774.683 895.069 774.239 894.365 773.938C893.634 773.604 892.841 773.419 892.035 773.399C891.229 773.372 890.422 773.508 889.671 773.795C888.919 774.082 888.236 774.512 887.655 775.065C887.074 775.618 886.617 776.274 886.302 777.004C885.708 778.329 885.653 779.817 886.138 781.176C886.623 782.535 887.614 783.669 888.912 784.331C890.395 784.986 892.076 785.055 893.606 784.536C895.137 784.01 896.408 782.931 897.153 781.518ZM846.536 780.377C845.866 779.981 845.128 779.729 844.356 779.626C843.584 779.531 842.798 779.585 842.047 779.79C841.295 779.995 840.598 780.357 839.997 780.835C839.389 781.32 838.897 781.921 838.534 782.597C838.172 783.273 837.961 784.017 837.906 784.782C837.851 785.546 837.954 786.311 838.213 787.028C838.466 787.752 838.876 788.414 839.402 788.974C839.928 789.541 840.571 789.992 841.281 790.299C842.641 791.009 844.233 791.173 845.709 790.743C847.192 790.319 848.442 789.343 849.2 788.018C849.549 787.349 849.761 786.618 849.822 785.86C849.877 785.109 849.788 784.351 849.542 783.634C849.296 782.918 848.913 782.255 848.401 781.688C847.895 781.122 847.28 780.657 846.583 780.33L846.536 780.377ZM872.582 783.102C871.229 782.46 869.671 782.358 868.243 782.829C866.822 783.3 865.64 784.297 864.95 785.608C864.267 786.919 864.13 788.442 864.574 789.848C865.018 791.262 866.002 792.443 867.321 793.146C868.674 793.788 870.232 793.891 871.653 793.419C873.081 792.948 874.263 791.951 874.946 790.64C875.636 789.329 875.773 787.807 875.329 786.4C874.885 784.986 873.901 783.805 872.582 783.102ZM852.904 775.898C853.56 776.212 854.263 776.396 854.988 776.444C855.712 776.485 856.443 776.39 857.126 776.151C857.81 775.919 858.438 775.55 858.978 775.072C859.518 774.594 859.955 774.013 860.263 773.365C860.584 772.73 860.761 772.026 860.796 771.316C860.83 770.606 860.72 769.889 860.461 769.227C860.201 768.558 859.805 767.95 859.292 767.438C858.787 766.932 858.179 766.53 857.502 766.263C856.197 765.662 854.708 765.594 853.355 766.079C852.002 766.557 850.902 767.547 850.294 768.824C849.686 770.101 849.617 771.569 850.109 772.894C850.594 774.218 851.605 775.304 852.904 775.898ZM896.831 794.416C895.588 793.788 894.153 793.658 892.814 794.048C891.475 794.437 890.334 795.318 889.643 796.506C888.967 797.701 888.796 799.114 889.179 800.432C889.555 801.75 890.443 802.87 891.659 803.546C892.274 803.928 892.971 804.181 893.695 804.283C894.42 804.379 895.157 804.324 895.861 804.119C896.565 803.914 897.214 803.559 897.761 803.088C898.314 802.617 898.758 802.03 899.059 801.374C899.394 800.78 899.606 800.118 899.674 799.435C899.742 798.759 899.674 798.069 899.462 797.414C899.257 796.758 898.915 796.158 898.464 795.639C898.014 795.113 897.46 794.689 896.831 794.382V794.416Z" fill="#2D7A68"/>
<path d="M920.787 702.391C916.51 721.886 912.369 740.732 908.092 760.247L883.904 754.327C888.359 735.072 893.148 716.266 897.904 696.977L920.787 702.391Z" fill="#EAECF1"/>
<path d="M872.261 751.452L851.64 746.433C856.313 727.444 861.315 708.837 866.405 689.561L886.193 694.197C881.827 713.316 876.921 731.937 872.261 751.452Z" fill="#EAECF1"/>
<path d="M964.284 690.647C960.041 688.128 957.383 684.884 958.722 679.57C960.253 673.429 961.818 667.305 963.56 661.228C964.783 656.908 967.899 654.898 972.572 655.594C976.46 656.196 980.28 657.288 984.099 658.269C995.571 661.223 1007.03 664.214 1018.48 667.242C1024.69 668.903 1026.54 671.609 1025.27 677.639C1023.66 684.932 1022.05 692.211 1020.21 699.463C1019.06 704.017 1016.27 705.792 1011.77 704.57C996.296 700.207 980.895 695.618 965.446 691.105C965.049 690.975 964.66 690.818 964.284 690.647ZM995.455 687.479L1009.82 691.706C1010.9 686.864 1011.84 682.64 1012.89 677.971L998.824 674.458C997.635 679.158 996.603 683.095 995.503 687.527L995.455 687.479ZM983.764 684.113C984.974 679.665 986.04 675.755 987.249 671.34L974.185 668.08L971.042 680.408L983.764 684.113Z" fill="#006A4F"/>
<path d="M775.537 647.816C770.781 644.983 768.458 641.485 769.811 636.358C771.553 629.696 773.261 623.033 775.154 616.402C776.602 611.339 779.438 609.804 784.829 611.149C792.468 613.08 800.066 615.169 807.657 617.194C814.579 619.03 821.466 620.929 828.381 622.733C835.303 624.537 837.557 627.481 836.444 634.254C835.282 640.742 833.799 647.183 832.173 653.576C830.916 658.45 827.158 660.729 822.204 659.542C807.159 655.934 792.181 652.121 777.183 648.354C776.623 648.209 776.076 648.03 775.537 647.816ZM821.254 647.199C822.273 642.451 823.174 638.258 824.124 633.779L810.308 630.187C809.031 634.934 807.903 639.112 806.673 643.701L821.254 647.199ZM794.839 640.678C796.397 636.202 797.599 631.615 798.433 626.958L785.533 623.666C784.31 628.652 783.264 632.972 782.13 637.561L794.839 640.678Z" fill="#006A4F"/>
<path d="M820.633 702.304C818.617 706.517 815.618 707.814 810.616 706.653C802.553 704.775 794.491 702.809 786.332 700.863C779.09 699.122 771.82 697.401 764.611 695.591C759.774 694.362 757.901 692.143 758.482 687.22C759.124 683.109 759.992 679.04 761.079 675.021C761.694 672.363 762.418 669.735 763.142 667.109C764.755 660.984 768.629 658.689 774.983 660.161C786.927 662.962 798.864 665.843 810.794 668.676C814.34 669.53 817.941 670.258 821.439 671.27C825.375 672.41 827.069 675.1 826.277 678.756C824.664 685.895 823.052 692.997 821.323 700.153C821.118 700.972 820.797 701.785 820.633 702.304ZM810.213 694.485C811.265 689.815 812.181 685.718 813.165 681.288L799.198 678.012C797.941 682.586 796.848 686.619 795.673 690.955L810.213 694.485ZM787.555 675.18L774.3 672.331C773.159 676.92 772.175 680.861 771.075 685.294L783.975 688.155C785.219 683.533 786.298 679.611 787.555 675.18Z" fill="#006A4F"/>
<path d="M952.429 740.378C948.412 738.145 946.075 734.949 946.82 731.009C948.296 723.532 950.147 716.144 952.382 708.851C953.331 705.69 956.023 704.372 959.781 704.864C963.389 705.396 966.969 706.134 970.488 707.063C982.521 710.053 994.533 713.126 1006.57 716.165C1012.45 717.653 1014.63 720.705 1013.48 726.557C1012.17 733.461 1010.69 740.33 1009.18 747.131C1008.36 750.9 1005.19 752.58 1000.61 751.631C995.612 750.6 990.645 749.377 985.664 748.223C975.989 745.991 966.313 743.737 956.638 741.47C955.108 741.279 953.625 740.753 952.429 740.378ZM998.277 739.033C999.555 735.086 1000.42 731.023 1000.85 726.906L987.133 723.635C985.958 727.902 984.953 731.549 983.908 735.707L998.277 739.033ZM972.101 733.017L975.326 720.528L962.282 717.366C961.189 721.75 960.219 725.547 959.057 729.883L972.101 733.017Z" fill="#006A4F"/>
<path d="M897.166 781.519C896.421 782.925 895.157 783.997 893.634 784.516C892.103 785.042 890.436 784.974 888.96 784.332C887.655 783.663 886.664 782.536 886.179 781.177C885.694 779.818 885.755 778.323 886.35 777.005C886.657 776.275 887.122 775.619 887.696 775.066C888.277 774.513 888.96 774.083 889.712 773.796C890.47 773.509 891.27 773.373 892.076 773.4C892.882 773.42 893.675 773.605 894.413 773.939C895.11 774.247 895.738 774.684 896.257 775.237C896.777 775.79 897.18 776.439 897.439 777.149C897.699 777.859 897.802 778.61 897.761 779.361C897.713 780.112 897.508 780.843 897.166 781.519Z" fill="#006A4F"/>
<path d="M846.59 780.336C847.28 780.657 847.895 781.115 848.408 781.682C848.913 782.241 849.303 782.897 849.556 783.607C849.802 784.317 849.904 785.075 849.85 785.819C849.795 786.571 849.597 787.301 849.248 787.977C848.497 789.295 847.246 790.272 845.764 790.702C844.288 791.125 842.696 790.968 841.336 790.258C840.619 789.944 839.983 789.493 839.457 788.933C838.924 788.373 838.521 787.711 838.268 786.987C838.008 786.263 837.906 785.499 837.961 784.734C838.015 783.976 838.227 783.232 838.589 782.556C838.951 781.873 839.443 781.279 840.051 780.794C840.653 780.309 841.35 779.954 842.101 779.749C842.853 779.537 843.639 779.483 844.411 779.585C845.183 779.688 845.921 779.94 846.59 780.336Z" fill="#006A4F"/>
<path d="M872.603 783.103C873.921 783.813 874.912 784.994 875.356 786.401C875.794 787.814 875.657 789.337 874.974 790.648C874.29 791.959 873.108 792.956 871.68 793.427C870.252 793.891 868.701 793.796 867.348 793.154C866.03 792.45 865.039 791.269 864.595 789.856C864.157 788.449 864.294 786.926 864.977 785.615C865.661 784.298 866.843 783.301 868.271 782.836C869.699 782.365 871.25 782.461 872.603 783.103Z" fill="#006A4F"/>
<path d="M852.945 775.864C852.302 775.57 851.722 775.154 851.243 774.635C850.758 774.123 850.389 773.515 850.143 772.86C849.904 772.204 849.795 771.508 849.829 770.811C849.856 770.115 850.034 769.425 850.334 768.797C850.635 768.162 851.059 767.595 851.585 767.124C852.111 766.653 852.726 766.284 853.396 766.045C854.065 765.806 854.776 765.704 855.486 765.731C856.197 765.765 856.894 765.936 857.543 766.229C858.213 766.496 858.828 766.899 859.333 767.411C859.846 767.916 860.242 768.524 860.495 769.193C860.754 769.862 860.871 770.572 860.836 771.282C860.802 771.999 860.618 772.696 860.297 773.338C859.989 773.979 859.559 774.56 859.019 775.038C858.479 775.516 857.85 775.885 857.167 776.117C856.477 776.356 855.753 776.451 855.029 776.41C854.304 776.369 853.594 776.185 852.945 775.864Z" fill="#006A4F"/>
<path d="M896.859 794.39C897.48 794.69 898.027 795.113 898.478 795.632C898.929 796.151 899.264 796.759 899.476 797.408C899.681 798.056 899.756 798.739 899.687 799.415C899.619 800.091 899.414 800.754 899.086 801.348C898.779 802.003 898.341 802.59 897.788 803.061C897.235 803.533 896.585 803.888 895.888 804.093C895.185 804.297 894.447 804.352 893.722 804.256C892.998 804.154 892.301 803.901 891.68 803.519C890.47 802.836 889.582 801.723 889.199 800.405C888.823 799.087 888.994 797.674 889.664 796.472C890.361 795.284 891.495 794.41 892.834 794.021C894.173 793.632 895.615 793.761 896.859 794.39Z" fill="#006A4F"/>
<path d="M995.523 687.533C996.671 683.102 997.703 679.163 998.892 674.51L1012.95 678.023C1011.91 682.691 1010.97 686.919 1009.89 691.76L995.523 687.533Z" fill="white"/>
<path d="M983.744 684.161L971.021 680.461L974.171 668.133L987.229 671.393C986.019 675.808 984.953 679.716 983.744 684.161Z" fill="white"/>
<path d="M821.227 647.188L806.714 643.69C807.944 639.101 809.072 634.923 810.343 630.176L824.165 633.768C823.147 638.246 822.245 642.471 821.227 647.188Z" fill="white"/>
<path d="M794.777 640.677L782.137 637.512C783.264 632.923 784.31 628.603 785.539 623.617L798.44 626.909C797.579 631.584 796.356 636.187 794.777 640.677Z" fill="white"/>
<path d="M810.151 694.477L795.639 690.947C796.821 686.611 797.914 682.577 799.171 678.004L813.137 681.279C812.119 685.744 811.204 689.841 810.151 694.477Z" fill="white"/>
<path d="M787.542 675.174C786.332 679.605 785.253 683.531 784.016 688.086L771.109 685.225C772.209 680.792 773.193 676.851 774.334 672.262L787.542 675.174Z" fill="white"/>
<path d="M998.27 739.074L983.757 735.755C984.885 731.61 985.882 727.95 986.982 723.676L1000.7 726.953C1000.31 731.064 999.493 735.127 998.27 739.074Z" fill="white"/>
<path d="M972.101 733.064L959.201 729.895C960.294 725.559 961.264 721.763 962.426 717.379L975.47 720.547L972.101 733.064Z" fill="white"/>
</g>
<defs>
<clipPath id="clip0_10482_6726">
<rect width="1920" height="1078.87" fill="white"/>
</clipPath>
</defs>
</svg>
