<svg width="281" height="158" viewBox="0 0 281 158" fill="none" xmlns="http://www.w3.org/2000/svg">
<g clip-path="url(#clip0_10482_6726)">
<path d="M0 0H281V157.897H0V0Z" fill="#E6EFF3"/>
<path d="M80.9143 52.8236C81.273 54.772 82.039 57.7361 82.231 58.467C82.231 58.467 84.0298 65.9411 86.6634 71.9226C89.6798 78.7719 94.184 84.889 98.9139 90.7362C107.909 101.855 117.838 112.218 128.593 121.712C132.947 125.551 137.519 129.301 142.883 131.594C147.399 133.524 152.341 134.355 157.258 134.467C165.056 134.637 172.781 133.043 179.836 129.808C190.485 124.915 199.777 115.053 199.721 103.491C199.688 96.1763 195.983 89.3527 191.753 83.3114C182.794 70.5196 171.158 59.7886 159.498 49.3024C151.967 42.5282 144.326 35.7615 135.556 30.609C122.042 22.6779 110.928 22.4931 106.556 22.3997C99.0051 22.2145 93.6299 22.0846 88.8249 25.6692C80.2776 32.0562 79.6134 45.6861 80.9143 52.8236Z" fill="#006A4F" fill-opacity="0.65"/>
<path d="M177.861 88.6395C178.318 92.9468 178.769 97.201 179.229 101.526L180.321 101.46C183.874 101.25 187.426 100.953 190.984 100.86C192.881 100.853 194.776 100.999 196.649 101.296C198.825 101.595 200.653 102.712 202.28 104.103C203.744 105.354 205.14 106.684 206.519 108.03C206.777 108.283 207.035 108.856 206.919 109.138C206.81 109.326 206.662 109.488 206.484 109.617C206.306 109.745 206.102 109.834 205.887 109.879C204.919 110.054 203.941 110.172 202.959 110.232C202.471 110.275 202.241 110.422 202.306 110.953C202.548 112.94 202.744 114.932 203.005 116.914C203.034 117.136 203.328 117.372 203.558 117.514C204.735 118.236 205.347 119.3 205.282 120.625C205.218 121.95 204.34 122.784 203.088 123.214C201.203 123.863 199.411 122.252 199.811 120.191C199.935 119.554 200.418 118.988 200.71 118.378C200.856 118.136 200.939 117.861 200.95 117.579C200.79 115.806 200.589 114.057 200.403 112.297C200.346 111.752 200.305 111.204 200.256 110.635L180.257 111.818C180.587 115.399 180.917 118.953 181.245 122.482C182.221 122.482 183.107 122.449 183.99 122.482C184.226 122.483 184.459 122.535 184.671 122.634C184.884 122.734 185.072 122.88 185.22 123.059C185.369 123.238 185.474 123.449 185.529 123.674C185.585 123.899 185.588 124.134 185.539 124.36C185.482 124.677 185.141 125.12 184.876 125.17C184.558 125.221 184.101 124.968 183.843 124.707C183.634 124.489 183.548 124.271 183.164 124.302C181.271 124.444 179.376 124.535 177.484 124.685C177.171 124.707 176.882 124.937 176.57 125.051C176.257 125.165 175.821 125.396 175.576 125.287C175.415 125.191 175.277 125.062 175.17 124.91C175.063 124.758 174.989 124.587 174.954 124.406C174.835 123.724 175.23 123.196 175.945 123.033C176.586 122.907 177.234 122.822 177.886 122.779C178.349 122.731 178.813 122.723 179.353 122.695C179.301 122.173 179.26 121.722 179.216 121.274C178.937 118.391 178.646 115.508 178.398 112.623C178.349 112.064 178.16 111.947 177.623 111.993C175.266 112.191 172.904 112.343 170.544 112.514C170.384 112.514 170.224 112.56 170.012 112.593C170.012 112.846 169.994 113.1 170.012 113.338C170.162 115.112 170.35 116.863 170.459 118.631C170.463 118.98 170.547 119.324 170.702 119.638C170.858 119.953 171.082 120.228 171.36 120.448C171.733 120.767 172.017 121.175 172.184 121.633C172.352 122.089 172.397 122.581 172.316 123.061C172.234 123.54 172.029 123.991 171.72 124.371C171.411 124.75 171.008 125.045 170.549 125.229C169.168 125.792 167.841 125.323 167.154 124.031C166.467 122.738 166.818 121.033 167.998 120.359C168.184 120.274 168.335 120.13 168.427 119.949C168.518 119.769 168.545 119.563 168.501 119.366C168.336 117.372 168.176 115.376 168.042 113.381C168.011 112.874 167.784 112.834 167.36 112.892C166.574 113.008 165.782 113.083 164.988 113.118C163.18 113.176 162.956 112.687 162.584 110.853C162.434 110.092 162.561 109.295 162.532 108.514C162.38 104.516 162.212 100.52 162.062 96.5244C162.048 96.1336 162.074 95.7422 162.14 95.3564C162.177 95.01 162.324 94.6837 162.559 94.4234C162.795 94.1629 163.108 93.9816 163.454 93.9046C164.04 93.7463 164.635 93.6203 165.235 93.5271C166.343 93.3851 166.821 93.7804 166.893 94.8649C167.071 97.5252 167.218 100.186 167.384 102.851C167.48 104.372 167.581 105.886 167.686 107.394C167.712 107.52 167.749 107.644 167.797 107.764C168.091 107.364 168.313 107.065 168.54 106.75C170.335 104.108 173.071 102.932 176.028 102.124C177.355 101.761 177.36 101.784 177.156 100.444C177.135 100.309 177.102 100.191 177.058 99.9577C176.355 100.029 175.661 100.077 174.974 100.176C173.123 100.429 171.992 99.7904 171.739 98.0117C171.537 96.3744 171.45 94.7252 171.481 93.076C171.47 92.6658 171.602 92.2642 171.855 91.9375C172.108 91.6109 172.467 91.3788 172.873 91.2796C173.921 90.9806 174.984 90.74 176.1 90.4587L175.79 88.8954C175.274 88.9233 174.814 88.9638 174.352 88.9714C173.812 88.9714 173.441 88.7181 173.386 88.1758C173.366 88.061 173.371 87.9433 173.4 87.8302C173.428 87.7171 173.481 87.6112 173.554 87.5192C173.627 87.4271 173.718 87.3511 173.823 87.2957C173.927 87.2403 174.042 87.2071 174.161 87.1978C175.754 86.9824 177.352 86.8025 178.953 86.6454C179.071 86.6239 179.192 86.6262 179.309 86.6525C179.427 86.6787 179.537 86.7284 179.634 86.7981C179.731 86.868 179.812 86.9566 179.872 87.0585C179.933 87.1603 179.971 87.2733 179.986 87.3904C180.013 87.504 180.015 87.6218 179.994 87.7365C179.972 87.8513 179.927 87.9605 179.861 88.0572C179.794 88.154 179.708 88.2363 179.608 88.299C179.508 88.3617 179.396 88.4034 179.278 88.4216C178.81 88.5186 178.337 88.5914 177.861 88.6395ZM203.392 108.129C202.597 107.308 201.923 106.52 201.149 105.849C199.46 104.359 197.534 103.373 195.211 103.145C192.604 102.868 189.976 102.828 187.362 103.026C184.958 103.229 182.549 103.345 180.133 103.489C179.578 103.522 179.309 103.664 179.402 104.323C179.616 105.869 179.761 107.427 179.875 108.983C179.918 109.58 180.107 109.743 180.727 109.707C187.548 109.257 194.372 108.836 201.195 108.395C201.911 108.339 202.618 108.222 203.392 108.129ZM168.718 110.592L178.067 109.938C177.853 107.875 177.654 105.927 177.453 103.981C174.042 104.029 169.1 107.775 168.718 110.592ZM176.392 92.5668C175.44 92.443 174.472 92.6 173.611 93.0178C173.521 93.0851 173.448 93.1722 173.397 93.272C173.347 93.3718 173.321 93.4817 173.322 93.5929C173.386 94.9839 173.466 96.38 173.603 97.766C173.624 97.9763 173.97 98.3259 174.158 98.3234C175.075 98.3031 175.989 98.184 176.949 98.0954C176.756 96.1722 176.577 94.3961 176.392 92.5668ZM165.806 111.063C165.514 105.854 165.225 100.74 164.936 95.6072C164.133 95.7567 164.094 95.7719 164.092 96.3674C164.092 97.3808 164.092 98.3943 164.125 99.4078C164.278 103.102 164.448 106.796 164.613 110.491C164.613 110.691 164.649 110.889 164.67 111.139L165.806 111.063ZM202.313 121.517C202.644 121.132 203.072 120.843 203.15 120.483C203.227 120.124 202.91 119.756 202.744 119.33C201.725 120.181 201.647 120.519 202.306 121.517H202.313ZM168.94 122.918C169.018 122.987 169.227 123.338 169.472 123.364C169.577 123.384 169.686 123.378 169.788 123.346C169.89 123.314 169.982 123.258 170.057 123.184C170.131 123.108 170.185 123.016 170.214 122.914C170.242 122.813 170.245 122.707 170.221 122.604C170.177 122.351 169.893 121.94 169.676 121.914C169.23 121.866 168.86 122.115 168.933 122.918H168.94Z" fill="#006A4F"/>
<path d="M203.402 108.129C202.627 108.222 201.92 108.338 201.21 108.381C194.386 108.822 187.562 109.243 180.741 109.694C180.121 109.738 179.933 109.568 179.889 108.969C179.775 107.414 179.631 105.855 179.417 104.31C179.324 103.652 179.592 103.51 180.147 103.477C182.556 103.332 184.965 103.223 187.376 103.013C189.991 102.814 192.618 102.854 195.225 103.132C197.549 103.36 199.477 104.345 201.163 105.835C201.935 106.52 202.607 107.307 203.402 108.129Z" fill="white"/>
<path d="M168.723 110.59C169.105 107.773 174.052 104.027 177.457 103.984C177.658 105.93 177.857 107.879 178.072 109.941L168.723 110.59Z" fill="white"/>
<path d="M176.402 92.5665C176.588 94.3959 176.766 96.1721 176.96 98.0951C175.999 98.1837 175.085 98.3029 174.169 98.3232C173.98 98.3232 173.634 97.976 173.613 97.7657C173.477 96.3772 173.397 94.9786 173.332 93.5926C173.332 93.4814 173.358 93.3716 173.408 93.2717C173.458 93.1719 173.531 93.085 173.621 93.0175C174.482 92.5997 175.45 92.4428 176.402 92.5665Z" fill="#2D7A68"/>
<path d="M165.803 111.062L164.667 111.118C164.646 110.864 164.621 110.669 164.61 110.469C164.445 106.775 164.275 103.081 164.122 99.3866C164.081 98.373 164.084 97.3596 164.089 96.346C164.089 95.7608 164.13 95.7456 164.933 95.5859C165.222 100.74 165.511 105.852 165.803 111.062Z" fill="#2D7A68"/>
<path d="M202.308 121.517C201.65 120.518 201.727 120.182 202.739 119.33C202.905 119.756 203.217 120.161 203.145 120.482C203.072 120.804 202.639 121.131 202.308 121.517Z" fill="white"/>
<path d="M168.935 122.917C168.863 122.114 169.232 121.866 169.671 121.919C169.888 121.944 170.172 122.345 170.215 122.608C170.239 122.71 170.237 122.817 170.208 122.918C170.179 123.019 170.125 123.112 170.051 123.187C169.977 123.263 169.884 123.319 169.782 123.351C169.68 123.382 169.572 123.388 169.467 123.368C169.221 123.338 169.012 122.985 168.935 122.917Z" fill="white"/>
<path d="M86.8229 79.3369C86.0493 79.9739 85.3763 80.5798 84.6504 81.1179C82.3983 82.7898 79.8443 82.2853 78.138 80.7669C77.0494 79.786 76.3687 78.4446 76.2269 77.0009C76.085 75.5571 76.4921 74.113 77.3697 72.9459C78.9435 70.8997 80.7663 69.0303 82.5732 67.1712C84.3801 65.3122 86.3751 63.4948 88.2827 61.6617C88.4682 61.4823 88.6431 61.2925 88.863 61.0689C87.2918 59.5479 86.55 57.7331 86.7169 55.6087C86.8486 53.9417 87.6113 52.3834 88.855 51.2407C89.9935 50.1496 91.4902 49.4911 93.0777 49.383C94.6652 49.2749 96.2402 49.7241 97.5213 50.6505C100.362 52.7305 100.833 56.0092 98.9494 59.7247C99.4952 60.7647 100.06 61.6747 100.441 62.6419C100.693 63.2355 100.779 63.8841 100.69 64.5211C100.602 65.1582 100.342 65.7606 99.9376 66.2664C99.1428 67.3194 98.2658 68.3308 97.4207 69.3553C97.259 69.5502 97.0736 69.7297 96.8537 69.9611C97.0815 70.1301 97.2405 70.2627 97.4153 70.3771C98.7613 71.2533 99.4051 72.5039 99.4819 74.064C99.5402 75.2652 99.6064 76.4638 99.6727 77.6651C99.7336 78.7648 99.4395 79.7451 98.499 80.4081C95.2508 82.7481 91.7668 83.1096 88.0867 81.5183C87.7819 81.3479 87.5385 81.0891 87.3899 80.7773C87.1703 80.3093 86.981 79.8282 86.8229 79.3369ZM85.9459 66.4745C86.0228 66.5368 86.0705 66.6018 86.1314 66.6201C87.6664 67.0806 88.9824 68.0657 89.8406 69.3968C89.936 69.4788 90.05 69.5371 90.1731 69.5669C90.2961 69.5968 90.4247 69.5973 90.548 69.5684C91.8273 69.1526 93.1858 69.0255 94.5222 69.1967C94.6237 69.2099 94.727 69.2024 94.8254 69.1747C94.9239 69.1469 95.0155 69.0995 95.0945 69.0355C95.9555 68.1826 96.8351 67.335 97.6194 66.4146C98.1969 65.7386 98.7931 65.0366 98.7931 64.0485C98.7931 62.4287 98.0221 61.3081 96.541 60.6528C94.9885 59.9665 93.3617 59.5479 91.939 60.7933C89.9254 62.5457 88.0204 64.4152 86.0731 66.2404C86.0204 66.3126 85.9776 66.3912 85.9459 66.4745ZM78.0691 76.3C78.1187 76.7437 78.1912 77.1845 78.2864 77.6209C78.9805 80.1715 81.9956 81.1569 83.8502 79.5162C84.4728 78.9625 85.0743 78.3879 85.7048 77.8496C86.2851 77.3531 86.3804 76.7083 86.2639 76.0296C85.9141 74.0171 86.5659 72.3583 88.0734 71.0141C88.4656 70.6657 88.3887 70.4395 88.1423 70.0729C87.3872 68.9678 86.2135 68.4998 85.0027 68.102C84.5338 67.9434 84.2079 67.9825 83.8661 68.362C82.3612 70.0104 80.8219 71.6303 79.3144 73.2787C78.5207 74.0924 78.075 75.1737 78.0691 76.3ZM89.7081 53.0347L98.1863 56.4798C98.7586 54.7195 97.5558 52.4913 95.6031 51.5605C93.6505 50.6297 90.964 51.2615 89.7081 53.0425V53.0347ZM88.2297 75.6864C89.0246 77.5897 91.6263 78.4165 94.1486 77.7066C96.1807 77.1372 97.7412 75.5097 97.4948 74.0978L88.2297 75.6864ZM90.1241 59.7273C91.0011 59.2774 91.7614 58.7549 92.604 58.4871C93.9499 58.058 95.3249 58.2504 96.6232 58.7705C97.2484 59.0304 97.5001 58.8094 97.6538 58.1725L88.8312 54.5843C88.472 55.4679 88.4036 56.4397 88.6354 57.3633C88.8673 58.287 89.3878 59.1163 90.1241 59.735V59.7273ZM88.3039 73.8741L97.0471 72.3843C95.6694 70.9465 94.0771 70.7359 92.4 70.9465C90.3493 71.2091 88.5742 72.5065 88.3039 73.882V73.8741ZM88.6775 78.8663C88.6987 79.4331 88.6775 79.9063 89.2577 80.1143C92.2092 81.1543 94.9593 80.8371 97.4842 78.9547C97.9187 78.6323 97.9797 78.2683 97.7174 77.7899C94.9355 79.9193 91.9628 80.2937 88.6775 78.8741V78.8663Z" fill="#006A4F"/>
<path d="M85.9375 66.4755C85.9725 66.3918 86.0188 66.3131 86.0753 66.2415C88.0226 64.4215 89.9275 62.5469 91.9411 60.7944C93.3692 59.549 94.9906 59.9676 96.5432 60.654C98.0243 61.3093 98.7899 62.4298 98.7952 64.0497C98.7952 65.0377 98.1991 65.7397 97.6215 66.4157C96.8267 67.3361 95.9577 68.1838 95.0966 69.0366C95.0177 69.1007 94.9261 69.148 94.8276 69.1757C94.7291 69.2035 94.6259 69.211 94.5243 69.1978C93.188 69.0266 91.8295 69.1536 90.5502 69.5696C90.4269 69.5985 90.2983 69.5979 90.1753 69.5681C90.0522 69.5382 89.9382 69.4799 89.8428 69.398C88.9845 68.0668 87.6686 67.0817 86.1336 66.6211C86.0541 66.6029 86.0143 66.5379 85.9375 66.4755Z" fill="#EAECF1"/>
<path d="M78.0703 76.3014C78.0713 75.1738 78.5133 74.0896 79.305 73.2723C80.8125 71.6239 82.3518 70.0041 83.8567 68.3556C84.2011 67.976 84.5244 67.937 84.9933 68.0956C86.2147 68.5039 87.3778 68.9614 88.1355 70.0847C88.3819 70.4513 88.4588 70.6775 88.0667 71.0259C86.5591 72.3701 85.9074 74.0289 86.2571 76.0414C86.3737 76.7096 86.2783 77.3545 85.6981 77.8614C85.0622 78.3997 84.4608 78.9742 83.8434 79.5281C81.9888 81.1687 78.987 80.1833 78.2796 77.6326C78.1868 77.1927 78.1169 76.7484 78.0703 76.3014Z" fill="#006A4F"/>
<path d="M89.7031 53.0437C90.959 51.2626 93.6164 50.6308 95.5849 51.5694C97.5534 52.5081 98.7404 54.7286 98.1681 56.4888L89.7031 53.0437Z" fill="white"/>
<path d="M88.2227 75.6961L97.4957 74.1074C97.7421 75.5192 96.171 77.1468 94.1495 77.7163C91.6192 78.4261 89.0281 77.6018 88.2227 75.6961Z" fill="white"/>
<path d="M90.1289 59.7347C89.3943 59.1165 88.8748 58.2886 88.643 57.3666C88.4112 56.4445 88.4787 55.4744 88.836 54.5918L97.6587 58.18C97.505 58.8169 97.2533 59.0275 96.628 58.778C95.3298 58.2579 93.9547 58.0655 92.6088 58.4946C91.7663 58.7624 91.0059 59.2849 90.1289 59.7347Z" fill="white"/>
<path d="M88.3008 73.882C88.5657 72.5065 90.3461 71.2091 92.3889 70.9543C94.066 70.7436 95.6583 70.9543 97.036 72.3921L88.3008 73.882Z" fill="white"/>
<path d="M88.6758 78.8753C91.9611 80.2949 94.9338 79.9152 97.7157 77.7988C97.9806 78.2772 97.917 78.6413 97.4825 78.9637C94.9576 80.8461 92.2075 81.1659 89.256 80.1233C88.6625 79.9127 88.7102 79.4421 88.6758 78.8753Z" fill="white"/>
<path d="M127.816 70.6839C125.961 69.3767 123.952 68.4015 121.624 68.2908C119.745 68.2009 117.877 68.2009 116.002 68.224C114.128 68.2471 112.243 68.3231 110.446 67.65C108.013 66.7415 106.49 65.0955 106.218 62.4811C105.969 60.0235 108.273 57.453 110.78 57.37C112.511 57.3124 114.16 57.7319 115.793 58.2138C117.539 58.7302 119.256 58.9055 120.931 57.9833C121.872 57.494 122.649 56.7488 123.17 55.8369C122.606 55.581 122.063 55.3528 121.537 55.0968C119.589 54.1517 118.185 52.72 117.635 50.6244C117.266 49.2134 117.527 47.784 117.87 46.4054C118.495 43.9362 119.202 41.4879 119.881 39.028C119.996 38.4986 120.159 37.9801 120.367 37.4787C121.232 35.7013 122.737 35.0188 124.751 35.4362C125.084 35.503 125.413 35.5929 125.796 35.6851C125.904 35.4269 125.993 35.1779 126.109 34.9382C126.315 34.5117 126.663 34.2719 127.14 34.4217C127.251 34.4475 127.355 34.4963 127.445 34.5647C127.535 34.6332 127.609 34.7198 127.662 34.8188C127.716 34.9177 127.747 35.0266 127.753 35.1383C127.76 35.25 127.742 35.3617 127.701 35.4661C127.405 36.4667 127.081 37.4626 126.762 38.4632C126.595 38.9589 126.25 39.2401 125.69 39.1133C125.221 39.0049 125.002 38.5277 125.138 37.9421C125.181 37.7623 125.228 37.5848 125.289 37.345C124.868 37.239 124.488 37.1145 124.098 37.0545C123.059 36.8724 122.305 37.2436 121.997 38.2326C121.201 40.8078 120.452 43.3945 119.721 45.9881C119.514 46.7281 119.453 47.5074 119.298 48.2659C118.857 50.4191 119.784 52.0121 121.546 53.1257C123.372 54.2784 125.376 55.0254 127.607 55.0346C129.252 55.0346 130.347 54.1517 131.152 52.9159C131.853 51.8677 132.434 50.7475 132.886 49.5753C133.814 47.0809 134.599 44.5449 135.433 42.0297C135.611 41.4833 135.463 41.0245 134.873 40.8032C134.15 40.5311 133.417 40.2775 132.708 40.0217C132.202 40.9806 131.855 41.2135 131.336 41.0245C130.816 40.8354 130.701 40.3513 130.997 39.4406C131.258 38.6476 131.514 37.8499 131.787 37.0592C132.022 36.3952 132.451 36.1208 132.961 36.2845C133.471 36.4482 133.619 36.9116 133.431 37.5964L133.196 38.3595C133.946 38.6338 134.679 38.8574 135.369 39.164C137.056 39.9155 137.606 40.9922 137.051 42.7167C136.187 45.4002 135.317 48.0906 134.263 50.705C133.669 52.1329 132.879 53.4741 131.913 54.6911C130.596 56.3741 128.719 57.0219 126.564 56.6322C125.477 56.434 124.781 56.5839 124.001 57.5682C122.03 60.0558 119.336 60.8443 116.181 60.0627C114.707 59.6614 113.21 59.3458 111.698 59.1175C109.871 58.887 108.985 59.461 108.233 61.0357C107.681 62.1883 108.015 63.7514 109.03 64.7981C110.244 66.0569 111.823 66.4326 113.493 66.5133C114.534 66.5641 115.582 66.5133 116.625 66.4718C119.061 66.3681 121.485 66.3935 123.877 66.9329C125.784 67.3617 127.401 68.3923 129.01 69.3974C131.22 68.1963 132.769 68.9663 133.729 70.0891C134.69 71.2118 134.639 72.9963 133.624 74.202C133.118 74.8191 132.412 75.2474 131.624 75.4152C130.836 75.5831 130.012 75.4803 129.292 75.1242C127.699 74.3403 127.227 72.9178 127.816 70.6839ZM131.07 70.5225C130.598 70.5135 130.14 70.6849 129.794 71.0006C129.447 71.3163 129.24 71.7516 129.214 72.2147C129.212 72.4241 129.252 72.6321 129.332 72.8262C129.413 73.0202 129.532 73.1966 129.682 73.3449C129.833 73.4933 130.013 73.6107 130.21 73.6901C130.408 73.7696 130.619 73.8095 130.833 73.8077C131.306 73.8098 131.761 73.6317 132.102 73.3109C132.444 72.99 132.645 72.5515 132.663 72.0879C132.677 71.1427 132.052 70.5294 131.075 70.5225H131.07Z" fill="#006A4F"/>
<path d="M170.507 55.474C171.073 55.2607 171.518 55.0895 171.968 54.9234C175.678 53.5543 178.87 54.5067 181.748 56.9845C185.008 59.7895 185.12 65.2459 182.208 68.8272C180.864 70.4841 179.148 71.6572 177.275 72.6344C173.254 74.7326 168.834 75.7221 164.499 76.9202C162.902 77.3641 161.214 77.5154 159.561 77.7361C158.454 77.8824 157.663 77.3666 157.107 76.3844C155.227 73.0684 154.365 69.4077 153.276 65.8163C152.341 62.7335 151.696 59.6382 151.805 56.404C151.954 52.0638 154.643 48.4129 158.522 47.0959C162.751 45.6624 169.354 48.5295 170.241 54.2389C170.302 54.6282 170.406 55.0127 170.507 55.474ZM169.61 66.1164C169.749 66.0614 169.883 65.9951 170.012 65.918C171.182 65.04 172.304 65.112 173.454 65.9949C174.93 67.1308 176.464 68.1974 177.932 69.3407C178.382 69.6904 178.733 69.7598 179.107 69.3407C179.898 68.4776 180.831 67.6864 181.41 66.6993C182.757 64.4125 182.992 61.9274 181.559 59.6307C180.09 57.2746 177.788 56.1014 174.917 56.1114C173.345 56.1114 172 56.8232 170.621 57.3936C169.546 57.8351 168.94 57.53 168.761 56.4015C168.664 55.8013 168.548 55.2061 168.447 54.6084C167.833 51.0344 164.846 48.9709 161.679 48.5618C158.704 48.1773 155.472 50.3127 154.294 53.4328C153.336 55.97 153.609 58.5667 154.011 61.1585C154.061 61.3259 154.169 61.4707 154.317 61.5678C155.581 62.5078 155.715 62.5078 156.973 61.5678C157.446 61.2131 157.898 60.8238 158.358 60.4591C159.329 59.6704 160.287 58.8644 161.275 58.098C161.732 57.7459 162.265 57.4631 162.862 57.788C163.458 58.1129 163.509 58.723 163.491 59.3257C163.489 59.4603 163.478 59.5946 163.456 59.7275C163.175 61.1363 162.897 62.5474 162.604 63.9438C162.468 64.6011 162.296 65.2484 162.142 65.9031C163.152 65.1739 164.012 64.3728 164.904 63.6041C165.991 62.6715 167.06 61.7092 168.217 60.8758C169.157 60.1888 170.113 60.722 170.171 61.8679C170.178 62.0253 170.171 62.1831 170.148 62.3391C169.966 63.5941 169.792 64.8341 169.61 66.1164ZM176.818 70.9379C176.835 70.8362 176.85 70.737 176.866 70.6354C175.248 69.5093 173.633 68.3759 171.998 67.2772C171.89 67.2334 171.774 67.2138 171.658 67.2198C171.541 67.2258 171.428 67.2573 171.326 67.3119C170.666 67.6715 170.062 68.1552 169.382 68.4503C168.936 68.632 168.439 68.66 167.975 68.5296C167.456 68.3634 167.454 67.7856 167.504 67.3069C167.52 67.1507 167.555 66.9969 167.58 66.8406L168.149 63.3882C166.85 64.3605 165.69 65.4121 164.505 66.4314C163.678 67.1407 162.829 67.8303 161.957 68.4851C161.495 68.8322 160.946 68.934 160.42 68.5668C159.895 68.1997 159.872 67.7088 159.988 67.168C160.216 66.1148 160.448 65.0624 160.686 64.0108C160.956 62.8154 161.234 61.6198 161.51 60.4269C161.225 60.5012 160.965 60.6445 160.752 60.8435C159.948 61.5132 159.174 62.225 158.335 62.845C157.284 63.6213 156.314 64.7201 154.686 63.919C154.994 65.0177 155.255 65.9676 155.525 66.9151C156.359 69.8367 157.186 72.7584 158.712 75.4295C158.884 75.7321 159.005 76.0248 159.47 75.9504C160.782 75.742 162.131 75.685 163.403 75.3452C166.648 74.4755 169.873 73.5339 173.077 72.5202C174.351 72.1061 175.566 71.4736 176.818 70.9379Z" fill="#006A4F"/>
<path d="M179.817 77.9009C179.243 77.9009 178.874 77.6901 178.758 77.1792C178.642 76.6682 178.849 76.2565 179.324 76.1673C181.379 75.7828 182.511 74.2674 183.719 72.8363C183.889 72.5972 184.071 72.367 184.265 72.1469C184.611 71.8145 185.087 71.6732 185.42 72.0451C185.645 72.2932 185.845 72.8736 185.706 73.0894C184.351 75.2099 182.741 77.0825 180.174 77.8563C180.057 77.8832 179.937 77.8981 179.817 77.9009Z" fill="#006A4F"/>
<path d="M182.543 80.731C181.874 80.7558 181.507 80.5748 181.378 80.0861C181.343 79.983 181.33 79.8739 181.339 79.7655C181.348 79.6571 181.379 79.5517 181.43 79.4553C181.482 79.359 181.552 79.2738 181.638 79.2049C181.724 79.136 181.823 79.0849 181.929 79.0544C183.591 78.5011 185.005 77.3982 185.93 75.9343C185.988 75.8421 186.064 75.7621 186.155 75.6995C186.245 75.6368 186.347 75.5925 186.455 75.5694C186.563 75.5463 186.675 75.5447 186.783 75.5648C186.892 75.5848 186.995 75.6262 187.087 75.6863C187.188 75.732 187.277 75.7971 187.351 75.878C187.425 75.9587 187.481 76.0534 187.516 76.1563C187.552 76.259 187.565 76.3678 187.556 76.476C187.547 76.584 187.516 76.6892 187.464 76.7851C187.263 77.1854 187.019 77.5637 186.736 77.9135C185.817 79.0723 184.602 79.971 183.213 80.5177C182.994 80.6006 182.77 80.6718 182.543 80.731Z" fill="#006A4F"/>
<path d="M146.338 58.4804C146.277 57.8331 146.133 57.1783 146.176 56.5384C146.235 55.628 146.379 54.7248 146.605 53.84C146.756 53.4747 147.041 53.1783 147.404 53.0091C147.55 52.972 147.703 52.9709 147.849 53.006C147.996 53.041 148.131 53.1111 148.243 53.2101C148.344 53.3369 148.414 53.4845 148.448 53.6417C148.482 53.7989 148.479 53.9617 148.44 54.1178C147.912 55.2884 147.988 56.4739 148.152 57.6892C148.204 58.1789 148.193 58.673 148.119 59.16C148.046 59.7205 147.69 60.0677 147.083 59.9908C146.477 59.914 146.325 59.4824 146.31 58.9616C146.31 58.8053 146.31 58.649 146.31 58.4903L146.338 58.4804Z" fill="#006A4F"/>
<path d="M141.484 55.665C141.59 54.9793 141.733 54.2997 141.911 53.6287C142.126 52.9591 142.655 52.6788 143.155 52.8847C143.792 53.1327 143.802 53.6287 143.66 54.1743C143.337 55.3798 143.314 56.5479 143.913 57.6963C143.976 57.8176 144.011 57.9505 144.017 58.0863C144.023 58.2221 144 58.3576 143.949 58.4838C143.897 58.6102 143.819 58.7242 143.719 58.8184C143.619 58.9127 143.5 58.985 143.37 59.0306C143.242 59.085 143.104 59.1112 142.966 59.1073C142.827 59.1033 142.691 59.0694 142.567 59.0078C142.443 58.9461 142.334 58.8585 142.249 58.751C142.164 58.6434 142.104 58.5187 142.073 58.3857C141.828 57.473 141.674 56.5454 141.484 55.665Z" fill="#006A4F"/>
<path d="M169.61 66.1172C169.792 64.8349 169.966 63.5949 170.138 62.3573C170.161 62.2013 170.168 62.0435 170.161 61.8861C170.103 60.7402 169.15 60.207 168.207 60.894C167.05 61.7348 165.981 62.697 164.894 63.6221C164.002 64.391 163.137 65.1921 162.131 65.9213C162.286 65.2666 162.457 64.6192 162.594 63.9619C162.887 62.5557 163.165 61.1445 163.446 59.7457C163.468 59.6128 163.479 59.4784 163.481 59.3438C163.499 58.7412 163.466 58.141 162.852 57.8061C162.238 57.4714 161.722 57.764 161.265 58.1162C160.276 58.8825 159.319 59.6886 158.348 60.4773C157.888 60.8493 157.436 61.2214 156.963 61.586C155.7 62.5334 155.583 62.5334 154.307 61.586C154.159 61.4889 154.051 61.3441 154.001 61.1767C153.599 58.5849 153.326 55.9882 154.284 53.451C155.462 50.3309 158.694 48.1954 161.669 48.5799C164.836 48.9891 167.823 51.06 168.437 54.6266C168.538 55.2243 168.654 55.8195 168.75 56.4197C168.93 57.5358 169.536 57.8409 170.611 57.4118C172.001 56.8414 173.345 56.132 174.907 56.1295C177.778 56.1295 180.08 57.2928 181.549 59.6489C182.982 61.9456 182.747 64.4307 181.4 66.7174C180.821 67.7096 179.883 68.4958 179.097 69.3589C178.723 69.768 178.372 69.6987 177.922 69.3589C176.454 68.2154 174.92 67.149 173.444 66.0131C172.294 65.1302 171.169 65.0582 170.001 65.9362C169.876 66.0068 169.745 66.0673 169.61 66.1172Z" fill="#2D7A68"/>
<path d="M176.817 70.9388C175.554 71.4744 174.351 72.1168 173.059 72.5211C169.858 73.5281 166.633 74.4697 163.385 75.346C162.121 75.6858 160.764 75.7428 159.452 75.9512C158.992 76.0256 158.871 75.733 158.694 75.4304C157.178 72.7592 156.341 69.8376 155.507 66.9159C155.237 65.9684 154.976 65.0185 154.668 63.9199C156.296 64.7209 157.266 63.6223 158.317 62.846C159.156 62.2259 159.93 61.514 160.733 60.8445C160.947 60.6453 161.207 60.502 161.492 60.4277C161.216 61.6207 160.938 62.8162 160.668 64.0116C160.43 65.0632 160.198 66.1156 159.97 67.1688C159.854 67.7096 159.915 68.2205 160.402 68.5677C160.89 68.9149 161.476 68.833 161.939 68.4859C162.811 67.8311 163.66 67.1416 164.486 66.4322C165.672 65.4129 166.832 64.3613 168.131 63.3891L167.562 66.8414C167.537 66.9977 167.502 67.1516 167.486 67.3078C167.436 67.8038 167.438 68.3644 167.956 68.5304C168.421 68.6609 168.918 68.6329 169.364 68.4511C170.049 68.156 170.648 67.6723 171.308 67.3127C171.41 67.2581 171.523 67.2266 171.64 67.2206C171.756 67.2146 171.872 67.2342 171.98 67.278C173.615 68.3768 175.23 69.5102 176.847 70.6362C176.85 70.7378 176.835 70.837 176.817 70.9388Z" fill="#2D7A68"/>
<path d="M152.36 34.4772C152.725 35.3879 153.356 36.1723 154.174 36.7316C154.422 36.895 154.658 37.0757 154.879 37.2724C155.569 37.8974 155.367 38.7803 154.47 39.0556C154.144 39.1573 153.798 39.197 153.459 39.2888C150.912 39.9881 149.271 41.6672 148.223 43.9788C148.117 44.2506 147.993 44.5158 147.854 44.7724C147.601 45.1891 147.133 45.3826 146.737 45.1396C146.433 44.9023 146.236 44.5577 146.188 44.1797C146.148 43.8573 146.388 43.505 146.484 43.1627C146.919 41.6102 147.411 40.0725 147.747 38.5026C147.877 38.0301 147.857 37.5299 147.69 37.0689C147.522 36.608 147.215 36.2083 146.81 35.9232C146.664 35.7853 146.554 35.6151 146.49 35.4269C146.425 35.2387 146.408 35.038 146.438 34.8418C146.544 34.5367 147.03 34.2787 147.401 34.1622C147.773 34.0457 148.266 34.1225 148.698 34.0829C150.773 33.8919 151.857 32.5501 152.605 30.8239C152.697 30.5475 152.809 30.278 152.941 30.0178C153.211 29.5838 153.634 29.3978 154.119 29.6136C154.604 29.8293 154.728 30.2336 154.584 30.742C154.192 32.1756 153.373 33.3859 152.36 34.4772ZM149.704 39.0011L152.259 37.6741L150.684 35.5039L149.421 35.8537C149.514 36.9524 149.605 37.9842 149.704 39.0011Z" fill="#006A4F"/>
<path d="M149.694 39.001C149.601 37.9842 149.505 36.9524 149.406 35.8537L150.67 35.5039L152.244 37.6741L149.694 39.001Z" fill="white"/>
<path d="M123.817 85.8907C123.956 85.3603 124.077 84.8971 124.202 84.4339C124.27 84.1699 124.336 83.9012 124.438 83.6442C124.7 82.8938 125.186 82.6019 125.974 82.7756C127.206 83.0466 128.433 83.35 129.663 83.6372C129.842 83.6788 130.029 83.702 130.267 83.7437C130.527 82.727 130.775 81.7542 131.022 80.7791C131.131 80.353 131.232 79.9222 131.353 79.4961C131.549 78.8012 131.915 78.558 132.632 78.6553C133.312 78.748 133.984 78.8869 134.659 78.9934C135.693 79.1718 136.729 79.3432 137.76 79.5307C138.638 79.6905 138.929 80.1006 138.766 80.9598C138.53 82.2406 138.266 83.519 138.015 84.7975C137.987 84.9411 137.975 85.087 137.942 85.3141C138.62 85.504 139.29 85.6985 139.965 85.8768C140.687 86.0714 141.416 86.2451 142.141 86.4396C143.321 86.7569 143.694 87.3383 143.453 88.5496C143.314 89.2444 143.127 89.9393 142.964 90.6341C142.927 90.7939 142.903 90.9584 142.858 91.1876C143.517 91.3659 144.149 91.5443 144.784 91.7088C147.975 92.5356 151.156 93.3485 154.354 94.1939C154.757 94.3273 155.133 94.5296 155.463 94.7915C155.843 95.0624 155.822 95.4863 155.718 95.8847C155.466 96.8852 155.22 97.8858 154.968 98.8956C153.866 103.256 152.77 107.618 151.678 111.983C151.409 113.063 151.206 114.156 150.942 115.24C150.867 115.546 150.757 115.843 150.613 116.125C150.508 116.322 150.336 116.476 150.127 116.56C149.917 116.644 149.685 116.654 149.469 116.588C146.418 115.918 143.366 115.25 140.314 114.585C138.726 114.237 137.135 113.89 135.542 113.563C135.379 113.528 135.214 113.514 134.968 113.48C134.968 113.811 134.968 114.096 134.968 114.381C135.075 116.293 135.184 118.203 135.294 120.113C135.294 120.259 135.294 120.41 135.318 120.553C135.497 121.762 134.754 122.24 133.496 121.957C131.721 121.561 129.975 121.047 128.216 120.567C125.054 119.724 121.891 118.881 118.729 118.039C117.405 117.689 117.183 117.093 117.964 116C119.144 114.349 120.31 112.688 121.478 111.027C121.567 110.885 121.645 110.737 121.714 110.584C120.733 110.354 119.803 110.122 118.882 109.89C114.758 108.912 110.636 107.937 106.515 106.965C105.996 106.84 105.477 106.733 105.175 106.203C105.057 106.028 104.977 105.831 104.941 105.625C104.904 105.419 104.912 105.207 104.962 105.003C105.243 103.968 105.505 102.918 105.781 101.89C107.094 96.9493 108.408 92.0083 109.725 87.0673C110.018 85.9694 110.301 84.8717 110.605 83.7762C110.676 83.5142 110.786 83.2643 110.933 83.035C111.027 82.8914 111.168 82.7835 111.333 82.7296C111.498 82.6756 111.677 82.6788 111.84 82.7386C114.256 83.3824 116.668 84.0332 119.088 84.6725C120.534 85.0523 121.986 85.4159 123.437 85.7842C123.513 85.8258 123.617 85.8421 123.817 85.8907ZM123.371 87.5815L112.163 84.7235C110.334 91.5953 108.531 98.3883 106.711 105.214C106.978 105.29 107.183 105.355 107.379 105.402C109.167 105.827 110.956 106.252 112.748 106.675C115.849 107.411 118.951 108.147 122.054 108.881C122.327 108.928 122.602 108.963 122.878 108.984C123.265 107.506 123.645 106.11 123.999 104.706C124.353 103.303 124.787 101.927 125.049 100.51C124.782 100.426 124.598 100.378 124.421 100.308C124.214 100.244 124.039 100.106 123.93 99.9222C123.821 99.7382 123.786 99.5207 123.831 99.3124C123.88 99.1043 124.009 98.9226 124.191 98.8056C124.373 98.6886 124.594 98.6453 124.808 98.6849C125.127 98.7302 125.442 98.7952 125.752 98.8793C128.416 99.514 131.081 100.149 133.748 100.786C135.039 101.096 136.33 101.404 137.612 101.742C138.214 101.899 138.478 102.331 138.35 102.809C138.232 103.252 137.801 103.468 137.218 103.379C136.982 103.345 136.727 103.315 136.444 103.277C135.835 106.057 135.24 108.79 134.629 111.586C139.507 112.653 144.305 113.697 149.082 114.708C149.358 114.064 153.896 96.2946 153.759 95.8198C150.007 94.8517 146.236 93.8511 142.431 92.9061C142.339 93.1841 142.287 93.3694 142.219 93.5385C141.898 94.3862 141.492 94.6154 140.593 94.4209C139.736 94.238 138.884 94.0225 138.03 93.8256C137.513 93.7052 136.996 93.5941 136.427 93.4667C136.344 93.7307 136.271 93.9461 136.215 94.1615C135.979 95.1204 135.743 96.0816 135.485 97.0357C135.278 97.8116 134.895 98.0572 134.119 97.8765C132.287 97.4519 130.458 97.0079 128.632 96.5448C127.891 96.3618 127.629 95.9264 127.763 95.1759C127.848 94.7127 127.959 94.2287 128.061 93.7562C128.226 92.978 128.393 92.2021 128.57 91.3683C127.907 91.1692 127.298 90.9862 126.682 90.8078C125.821 90.5554 124.948 90.3446 124.086 90.0505C123.128 89.7216 122.923 89.2954 123.161 88.3551C123.239 88.1257 123.296 87.8849 123.371 87.5722V87.5815ZM140.642 92.663C141.013 91.1205 141.35 89.6775 141.723 88.1767C141.386 88.0748 141.107 87.9798 140.824 87.9034C139.502 87.5467 138.176 87.2086 136.859 86.8334C136.134 86.6272 135.936 86.2775 136.073 85.5526C136.243 84.6424 136.432 83.7368 136.609 82.8312C136.713 82.2984 136.809 81.7658 136.923 81.1567C135.559 80.8834 134.253 80.6448 132.911 80.4618C132.814 80.8046 132.734 81.064 132.675 81.3281C132.398 82.4305 132.136 83.5352 131.853 84.6331C131.657 85.3951 131.296 85.6592 130.508 85.5711C130 85.497 129.498 85.3941 129.002 85.2631C128.028 85.0315 127.055 84.7999 125.993 84.5683C125.644 85.9139 125.309 87.2016 124.971 88.5056C125.165 88.5774 125.278 88.626 125.398 88.6608C126.652 89.0198 127.902 89.3857 129.158 89.7355C130.102 89.9995 130.489 90.4627 130.319 91.6439C130.307 91.7273 130.288 91.8083 130.27 91.8917C130.076 92.7741 129.878 93.6542 129.689 94.5391C129.667 94.7087 129.659 94.8799 129.665 95.0508C131.119 95.3635 132.497 95.8059 133.94 96.0236C133.999 95.8337 134.043 95.7179 134.074 95.5975C134.338 94.5598 134.581 93.513 134.872 92.4823C135.089 91.7041 135.516 91.4841 136.326 91.6624C136.868 91.7829 137.409 91.9196 137.952 92.0446L140.642 92.663ZM133.132 113.149L123.772 110.832C122.444 112.725 121.094 114.571 119.76 116.556L133.515 120.215C133.392 117.774 133.262 115.481 133.132 113.14V113.149ZM134.754 102.798L131.414 102.006C130.706 104.829 130.017 107.581 129.366 110.4L132.906 111.266C133.522 108.42 134.133 105.661 134.754 102.798ZM127.655 109.978C128.337 107.127 129.054 104.401 129.694 101.598L126.798 100.92C126.062 103.741 125.32 106.458 124.636 109.244L127.655 109.978Z" fill="#006A4F"/>
<path d="M123.375 87.573C123.299 87.8856 123.242 88.1265 123.181 88.3651C122.945 89.3053 123.148 89.7316 124.106 90.0605C124.956 90.35 125.829 90.5653 126.702 90.8178C127.314 90.9962 127.923 91.1791 128.59 91.3783C128.413 92.2121 128.246 92.9879 128.081 93.7661C127.979 94.2293 127.868 94.7111 127.783 95.1859C127.649 95.9363 127.911 96.3717 128.652 96.5547C130.482 97.0179 132.313 97.4595 134.146 97.8796C134.923 98.0601 135.305 97.8147 135.513 97.0388C135.77 96.0845 135.999 95.1234 136.242 94.1645C136.298 93.9468 136.372 93.7314 136.454 93.4697C137.023 93.597 137.54 93.7013 138.057 93.8287C138.911 94.0256 139.763 94.2409 140.62 94.4239C141.519 94.6185 141.925 94.3892 142.246 93.5415C142.314 93.3678 142.366 93.1871 142.458 92.9092C146.253 93.8542 150.025 94.8547 153.787 95.8228C153.924 96.2861 149.385 114.066 149.109 114.711C144.327 113.7 139.534 112.656 134.656 111.589C135.267 108.793 135.862 106.071 136.471 103.28C136.754 103.317 136.999 103.348 137.245 103.382C137.828 103.47 138.26 103.255 138.378 102.813C138.505 102.334 138.241 101.902 137.639 101.745C136.357 101.406 135.066 101.099 133.776 100.789C131.112 100.149 128.446 99.5139 125.78 98.8824C125.469 98.7982 125.154 98.7332 124.836 98.6878C124.622 98.6484 124.4 98.6916 124.218 98.8086C124.036 98.9256 123.907 99.1073 123.858 99.3155C123.813 99.5238 123.848 99.7411 123.958 99.9253C124.067 100.109 124.242 100.247 124.448 100.311C124.625 100.381 124.81 100.429 125.076 100.513C124.814 101.942 124.368 103.315 124.026 104.709C123.684 106.104 123.292 107.509 122.905 108.988C122.629 108.967 122.354 108.932 122.081 108.884C118.977 108.154 115.875 107.42 112.776 106.678C110.968 106.253 109.17 105.826 107.383 105.393C107.18 105.347 106.982 105.282 106.715 105.205C108.534 98.3682 110.338 91.5867 112.167 84.7148L123.375 87.573ZM141.132 101.081C141.186 101.106 141.242 101.129 141.299 101.148C143.56 101.807 145.814 102.48 148.08 103.118C148.738 103.304 149.147 103.037 149.314 102.371C149.579 101.31 149.829 100.244 150.055 99.1765C150.242 98.2941 149.97 97.898 149.062 97.6549C147.386 97.2117 145.709 96.774 144.03 96.3417C143.471 96.1981 142.911 96.0383 142.343 95.9502C141.658 95.846 141.203 96.1425 141.023 96.7748C140.771 97.6641 140.551 98.5604 140.315 99.4591C140.122 100.237 140.509 100.715 141.132 101.081ZM113.498 94.8108C113.57 94.8413 113.644 94.8676 113.72 94.8894C115.914 95.4406 118.107 95.9989 120.309 96.5269C121.033 96.7006 121.583 96.3671 121.767 95.6538C122.003 94.7273 122.223 93.7754 122.393 92.8259C122.567 91.8392 122.23 91.4038 121.213 91.1397C120.196 90.8756 119.193 90.5977 118.18 90.3291C117.069 90.0326 115.957 89.7269 114.838 89.4444C114.057 89.2475 113.642 89.4721 113.422 90.2133C113.146 91.1837 112.896 92.1588 112.641 93.1339C112.462 93.8913 112.801 94.3961 113.498 94.8108ZM120.106 102.785C120.13 102.709 120.177 102.591 120.205 102.468C120.441 101.425 120.696 100.383 120.93 99.3363C121.048 98.8014 120.8 98.4099 120.222 98.2408C119.709 98.0926 119.183 97.9861 118.664 97.861C116.917 97.4464 115.171 97.0249 113.422 96.615C112.492 96.3995 111.933 96.7354 111.69 97.6317C111.584 98.0185 111.477 98.4029 111.388 98.7898C111.229 99.3779 111.102 99.9744 111.008 100.575C110.923 101.296 111.19 101.62 111.905 101.8C112.962 102.065 114.029 102.317 115.084 102.572C116.264 102.857 117.444 103.144 118.638 103.419C119.363 103.591 119.801 103.401 120.096 102.785H120.106ZM139.39 108.358C139.56 108.406 139.782 108.483 140.008 108.536C141.425 108.87 142.841 109.199 144.257 109.525C144.986 109.694 145.713 109.872 146.444 110.023C147.115 110.162 147.577 109.916 147.698 109.365C147.919 108.362 148.137 107.357 148.328 106.354C148.491 105.497 148.177 105.05 147.315 104.832C145.555 104.388 143.796 103.939 142.036 103.501C141.52 103.364 140.997 103.257 140.469 103.178C139.919 103.107 139.525 103.294 139.385 103.762C139.059 104.829 138.787 105.912 138.571 107.005C138.46 107.57 138.802 108.038 139.39 108.358Z" fill="white"/>
<path d="M140.652 92.6536L137.957 92.0398C137.414 91.9147 136.874 91.778 136.331 91.6576C135.521 91.4792 135.094 91.6993 134.877 92.4775C134.587 93.5082 134.344 94.562 134.079 95.5927C134.049 95.7131 134.004 95.8243 133.945 96.0188C132.498 95.8011 131.125 95.3587 129.671 95.0461C129.665 94.8751 129.673 94.7039 129.694 94.5343C129.883 93.6494 130.081 92.7693 130.275 91.8869C130.294 91.8035 130.313 91.7225 130.325 91.6391C130.494 90.4579 130.112 89.9947 129.163 89.7307C127.908 89.3809 126.657 89.0149 125.404 88.656C125.283 88.6212 125.168 88.5726 124.977 88.5008C125.314 87.1899 125.649 85.9022 125.998 84.5635C127.061 84.8113 128.033 85.0428 129.008 85.2583C129.503 85.3893 130.006 85.4921 130.513 85.5663C131.302 85.6543 131.663 85.3903 131.859 84.6283C132.142 83.5304 132.404 82.4256 132.68 81.3233C132.744 81.0592 132.824 80.7998 132.916 80.457C134.259 80.6353 135.564 80.8739 136.928 81.1519C136.815 81.761 136.718 82.2936 136.614 82.8264C136.437 83.732 136.248 84.6376 136.078 85.5478C135.942 86.2727 136.14 86.6224 136.864 86.8286C138.181 87.2037 139.508 87.5419 140.829 87.8986C141.112 87.975 141.391 88.07 141.728 88.1719C141.372 89.6681 141.023 91.111 140.652 92.6536Z" fill="#2D7A68"/>
<path d="M133.134 113.139C133.264 115.48 133.393 117.771 133.528 120.203L119.773 116.544C121.095 114.559 122.445 112.713 123.786 110.82L133.134 113.139ZM131.302 114.378C131.353 114.279 131.382 114.171 131.388 114.061C131.395 113.951 131.378 113.841 131.34 113.737C131.302 113.633 131.243 113.539 131.166 113.459C131.089 113.378 130.997 113.313 130.894 113.269C130.787 113.22 130.671 113.193 130.553 113.19C130.435 113.186 130.317 113.206 130.207 113.248C130.097 113.29 129.997 113.353 129.912 113.434C129.827 113.515 129.76 113.61 129.714 113.717C129.627 113.911 129.619 114.129 129.69 114.328C129.761 114.527 129.906 114.693 130.096 114.79C130.313 114.886 130.559 114.896 130.783 114.82C131.007 114.743 131.193 114.585 131.302 114.378ZM123.894 114.211C123.796 114.153 123.688 114.116 123.575 114.101C123.462 114.087 123.347 114.095 123.237 114.125C123.127 114.155 123.025 114.208 122.937 114.278C122.848 114.349 122.776 114.437 122.723 114.536C122.67 114.635 122.639 114.744 122.631 114.856C122.623 114.968 122.638 115.08 122.676 115.184C122.713 115.29 122.773 115.387 122.85 115.469C122.927 115.552 123.021 115.618 123.125 115.663C123.324 115.767 123.557 115.791 123.773 115.728C123.99 115.666 124.173 115.523 124.284 115.329C124.335 115.231 124.366 115.125 124.375 115.014C124.383 114.904 124.37 114.793 124.334 114.688C124.298 114.583 124.242 114.486 124.167 114.403C124.093 114.32 124.003 114.252 123.901 114.204L123.894 114.211ZM127.706 114.61C127.508 114.516 127.28 114.501 127.071 114.57C126.863 114.639 126.69 114.785 126.589 114.977C126.489 115.168 126.469 115.391 126.534 115.597C126.599 115.804 126.743 115.977 126.936 116.08C127.134 116.174 127.362 116.189 127.57 116.12C127.779 116.051 127.952 115.905 128.052 115.713C128.153 115.521 128.173 115.298 128.108 115.093C128.043 114.886 127.899 114.713 127.706 114.61ZM124.826 113.556C124.922 113.601 125.025 113.628 125.131 113.635C125.237 113.641 125.344 113.627 125.444 113.593C125.544 113.559 125.636 113.505 125.715 113.435C125.794 113.365 125.858 113.28 125.903 113.185C125.95 113.092 125.976 112.989 125.981 112.885C125.986 112.781 125.97 112.676 125.932 112.579C125.894 112.481 125.836 112.392 125.761 112.317C125.687 112.243 125.598 112.184 125.499 112.145C125.308 112.058 125.09 112.048 124.892 112.118C124.694 112.188 124.533 112.333 124.444 112.52C124.355 112.707 124.345 112.922 124.417 113.116C124.488 113.31 124.636 113.469 124.826 113.556ZM131.255 116.266C131.073 116.174 130.863 116.155 130.667 116.212C130.471 116.269 130.304 116.398 130.203 116.572C130.104 116.746 130.079 116.953 130.135 117.146C130.19 117.339 130.32 117.503 130.498 117.602C130.588 117.658 130.69 117.695 130.796 117.71C130.902 117.724 131.01 117.716 131.113 117.686C131.216 117.656 131.311 117.604 131.391 117.535C131.472 117.466 131.537 117.38 131.581 117.284C131.63 117.197 131.661 117.1 131.671 117C131.681 116.901 131.671 116.8 131.64 116.704C131.61 116.609 131.56 116.521 131.494 116.445C131.428 116.368 131.347 116.306 131.255 116.261V116.266Z" fill="#2D7A68"/>
<path d="M134.761 102.798C134.135 105.651 133.529 108.41 132.903 111.266L129.363 110.399C130.015 107.581 130.716 104.829 131.412 102.006L134.761 102.798Z" fill="#EAECF1"/>
<path d="M127.659 109.978L124.641 109.243C125.325 106.464 126.057 103.741 126.802 100.92L129.698 101.598C129.059 104.397 128.341 107.122 127.659 109.978Z" fill="#EAECF1"/>
<path d="M141.127 101.08C140.506 100.711 140.117 100.236 140.313 99.4584C140.537 98.5597 140.766 97.6634 141.021 96.7741C141.2 96.1418 141.656 95.8476 142.34 95.9495C142.909 96.0375 143.468 96.1973 144.027 96.3409C145.706 96.7732 147.383 97.211 149.059 97.6542C149.968 97.8973 150.239 98.2934 150.053 99.1758C149.817 100.243 149.581 101.308 149.312 102.37C149.144 103.036 148.736 103.296 148.077 103.117C145.812 102.479 143.558 101.807 141.297 101.147C141.239 101.128 141.182 101.105 141.127 101.08ZM145.689 100.616L147.792 101.235C147.95 100.526 148.087 99.9077 148.24 99.2244L146.182 98.7103C146.008 99.3981 145.857 99.9744 145.696 100.623L145.689 100.616ZM143.978 100.123C144.155 99.4723 144.311 98.9002 144.488 98.254L142.576 97.7769L142.116 99.5811L143.978 100.123Z" fill="#006A4F"/>
<path d="M113.503 94.8111C112.807 94.3965 112.467 93.8847 112.665 93.1342C112.92 92.1592 113.17 91.1841 113.447 90.2136C113.659 89.4725 114.074 89.2479 114.863 89.4448C115.981 89.7274 117.093 90.0331 118.204 90.3295C119.217 90.5982 120.225 90.8761 121.237 91.1401C122.25 91.4042 122.58 91.835 122.417 92.8262C122.247 93.7758 122.03 94.7185 121.792 95.6542C121.608 96.3675 121.058 96.701 120.333 96.5273C118.131 95.9993 115.939 95.4411 113.744 94.8899C113.662 94.8687 113.582 94.8424 113.503 94.8111ZM120.194 94.7208C120.343 94.026 120.475 93.4123 120.614 92.7568L118.592 92.231C118.405 92.9259 118.24 93.5373 118.06 94.2089L120.194 94.7208ZM116.328 93.7665C116.556 93.1114 116.732 92.4401 116.854 91.7585L114.966 91.2768C114.787 92.0064 114.634 92.6387 114.468 93.3103L116.328 93.7665Z" fill="#006A4F"/>
<path d="M120.103 102.785C119.808 103.402 119.369 103.592 118.637 103.422C117.457 103.147 116.277 102.859 115.083 102.575C114.023 102.32 112.959 102.068 111.904 101.803C111.196 101.623 110.922 101.298 111.007 100.578C111.101 99.9763 111.228 99.3807 111.387 98.7926C111.477 98.4035 111.583 98.019 111.689 97.6345C111.925 96.7382 112.492 96.4023 113.422 96.6178C115.17 97.0277 116.917 97.4492 118.663 97.8639C119.182 97.9889 119.709 98.0954 120.221 98.2436C120.797 98.4104 121.045 98.8041 120.929 99.3392C120.693 100.384 120.457 101.423 120.204 102.471C120.174 102.591 120.127 102.709 120.103 102.785ZM118.578 101.641C118.732 100.958 118.866 100.358 119.01 99.7098L116.966 99.2303C116.782 99.8996 116.622 100.49 116.45 101.125L118.578 101.641ZM115.262 98.8157L113.322 98.3988C113.155 99.0705 113.011 99.6472 112.85 100.296L114.738 100.715C114.92 100.038 115.078 99.4642 115.262 98.8157Z" fill="#006A4F"/>
<path d="M139.392 108.357C138.804 108.03 138.462 107.562 138.571 106.986C138.787 105.891 139.058 104.81 139.385 103.743C139.524 103.28 139.918 103.087 140.468 103.159C140.996 103.237 141.52 103.345 142.035 103.481C143.796 103.919 145.554 104.368 147.315 104.813C148.176 105.031 148.495 105.478 148.327 106.334C148.136 107.344 147.919 108.35 147.697 109.345C147.577 109.897 147.114 110.143 146.444 110.004C145.712 109.853 144.985 109.674 144.256 109.505C142.84 109.178 141.424 108.848 140.008 108.517C139.784 108.489 139.567 108.412 139.392 108.357ZM146.102 108.16C146.289 107.582 146.415 106.988 146.479 106.385L144.471 105.906C144.299 106.531 144.152 107.065 143.999 107.673L146.102 108.16ZM142.271 107.279L142.743 105.452L140.834 104.989C140.674 105.631 140.532 106.186 140.362 106.821L142.271 107.279Z" fill="#006A4F"/>
<path d="M131.304 114.378C131.195 114.584 131.01 114.741 130.787 114.817C130.563 114.894 130.319 114.884 130.103 114.79C129.912 114.692 129.767 114.527 129.696 114.328C129.625 114.129 129.634 113.91 129.721 113.718C129.766 113.611 129.834 113.515 129.918 113.434C130.003 113.353 130.103 113.29 130.213 113.248C130.324 113.206 130.441 113.186 130.559 113.19C130.677 113.193 130.793 113.22 130.901 113.269C131.003 113.314 131.095 113.378 131.171 113.459C131.247 113.54 131.306 113.635 131.344 113.739C131.382 113.843 131.397 113.952 131.391 114.062C131.384 114.172 131.354 114.279 131.304 114.378Z" fill="#006A4F"/>
<path d="M123.902 114.205C124.003 114.252 124.093 114.319 124.168 114.402C124.242 114.484 124.299 114.58 124.336 114.684C124.372 114.788 124.387 114.899 124.379 115.008C124.371 115.118 124.342 115.224 124.291 115.323C124.181 115.516 123.998 115.659 123.781 115.722C123.565 115.784 123.332 115.761 123.133 115.657C123.028 115.611 122.935 115.545 122.858 115.463C122.78 115.381 122.721 115.284 122.684 115.179C122.646 115.073 122.631 114.961 122.639 114.849C122.647 114.738 122.678 114.629 122.731 114.53C122.784 114.43 122.856 114.343 122.945 114.272C123.033 114.201 123.135 114.149 123.245 114.119C123.355 114.088 123.47 114.08 123.583 114.095C123.696 114.11 123.804 114.147 123.902 114.205Z" fill="#006A4F"/>
<path d="M127.709 114.61C127.902 114.713 128.047 114.886 128.112 115.092C128.176 115.299 128.156 115.522 128.056 115.714C127.956 115.906 127.783 116.052 127.574 116.121C127.365 116.188 127.138 116.175 126.94 116.081C126.747 115.978 126.602 115.805 126.537 115.598C126.473 115.392 126.493 115.169 126.593 114.977C126.693 114.784 126.866 114.639 127.075 114.571C127.284 114.502 127.511 114.516 127.709 114.61Z" fill="#006A4F"/>
<path d="M124.832 113.55C124.738 113.507 124.653 113.446 124.583 113.37C124.512 113.295 124.458 113.206 124.422 113.11C124.387 113.014 124.371 112.912 124.376 112.811C124.38 112.709 124.406 112.608 124.45 112.516C124.494 112.423 124.556 112.34 124.633 112.271C124.71 112.202 124.8 112.148 124.898 112.113C124.996 112.078 125.1 112.063 125.204 112.067C125.308 112.072 125.41 112.097 125.505 112.14C125.603 112.179 125.693 112.238 125.767 112.313C125.842 112.387 125.9 112.476 125.937 112.574C125.975 112.672 125.992 112.776 125.987 112.88C125.982 112.984 125.955 113.086 125.908 113.18C125.863 113.274 125.8 113.359 125.721 113.429C125.642 113.499 125.55 113.553 125.45 113.587C125.349 113.622 125.243 113.636 125.137 113.63C125.031 113.624 124.927 113.597 124.832 113.55Z" fill="#006A4F"/>
<path d="M131.259 116.262C131.35 116.306 131.43 116.368 131.496 116.444C131.562 116.52 131.611 116.609 131.642 116.704C131.672 116.799 131.683 116.899 131.673 116.997C131.663 117.096 131.633 117.193 131.585 117.28C131.54 117.376 131.476 117.462 131.395 117.531C131.314 117.6 131.219 117.652 131.117 117.682C131.014 117.712 130.906 117.72 130.8 117.706C130.694 117.691 130.592 117.654 130.501 117.598C130.324 117.498 130.194 117.335 130.138 117.142C130.083 116.95 130.108 116.743 130.206 116.567C130.308 116.393 130.474 116.265 130.67 116.208C130.866 116.151 131.077 116.17 131.259 116.262Z" fill="#006A4F"/>
<path d="M145.699 100.623C145.867 99.9743 146.018 99.3978 146.192 98.7168L148.25 99.231C148.097 99.9142 147.96 100.533 147.802 101.241L145.699 100.623Z" fill="white"/>
<path d="M143.975 100.129L142.113 99.5874L142.574 97.7832L144.485 98.2603C144.308 98.9065 144.152 99.4785 143.975 100.129Z" fill="white"/>
<path d="M120.19 94.7183L118.066 94.2064C118.246 93.5348 118.411 92.9233 118.597 92.2285L120.62 92.7543C120.471 93.4096 120.339 94.028 120.19 94.7183Z" fill="white"/>
<path d="M116.319 93.7663L114.469 93.3031C114.634 92.6314 114.787 91.9992 114.967 91.2695L116.855 91.7513C116.729 92.4355 116.55 93.1091 116.319 93.7663Z" fill="white"/>
<path d="M118.569 101.639L116.445 101.123C116.618 100.488 116.778 99.8978 116.962 99.2285L119.006 99.7079C118.857 100.361 118.723 100.961 118.569 101.639Z" fill="white"/>
<path d="M115.26 98.8149C115.083 99.4634 114.925 100.038 114.744 100.705L112.855 100.286C113.016 99.6371 113.16 99.0603 113.327 98.3887L115.26 98.8149Z" fill="white"/>
<path d="M146.101 108.166L143.977 107.68C144.142 107.073 144.288 106.538 144.449 105.912L146.457 106.392C146.4 106.993 146.28 107.588 146.101 108.166Z" fill="white"/>
<path d="M142.271 107.288L140.383 106.824C140.543 106.189 140.685 105.634 140.855 104.992L142.764 105.456L142.271 107.288Z" fill="white"/>
</g>
<defs>
<clipPath id="clip0_10482_6726">
<rect width="281" height="157.897" fill="white"/>
</clipPath>
</defs>
</svg>
